G04*
G04 #@! TF.GenerationSoftware,Altium Limited,Altium Designer,23.0.1 (38)*
G04*
G04 Layer_Color=2752767*
%FSLAX25Y25*%
%MOIN*%
G70*
G04*
G04 #@! TF.SameCoordinates,AE5763C0-F2EE-4BCA-89C6-8F578BEF2D51*
G04*
G04*
G04 #@! TF.FilePolarity,Positive*
G04*
G01*
G75*
%ADD12C,0.00500*%
%ADD52C,0.00667*%
D12*
X98479Y32000D02*
Y36000D01*
X102479D01*
Y32000D01*
X98479D01*
X108479D02*
Y36000D01*
X112479D01*
Y32000D01*
X108479D01*
X9811Y9811D02*
X10811Y11811D01*
X9811Y13811D01*
X11811Y12811D01*
X13811Y13811D01*
X12811Y11811D01*
X13811Y9811D01*
X11811Y10811D01*
X9811Y9811D01*
Y131858D02*
X10811Y133858D01*
X9811Y135858D01*
X11811Y134858D01*
X13811Y135858D01*
X12811Y133858D01*
X13811Y131858D01*
X11811Y132858D01*
X9811Y131858D01*
X309024D02*
X310024Y133858D01*
X309024Y135858D01*
X311024Y134858D01*
X313024Y135858D01*
X312024Y133858D01*
X313024Y131858D01*
X311024Y132858D01*
X309024Y131858D01*
Y9811D02*
X310024Y11811D01*
X309024Y13811D01*
X311024Y12811D01*
X313024Y13811D01*
X312024Y11811D01*
X313024Y9811D01*
X311024Y10811D01*
X309024Y9811D01*
X137133Y77500D02*
X138133Y78500D01*
X139133D01*
X138133Y79500D01*
X139133Y80500D01*
X138133D01*
X137133Y81500D01*
X136133Y80500D01*
X135133D01*
X136133Y79500D01*
X135133Y78500D01*
X136133D01*
X137133Y77500D01*
X168500Y32500D02*
X169500Y33500D01*
X170500D01*
X169500Y34500D01*
X170500Y35500D01*
X169500D01*
X168500Y36500D01*
X167500Y35500D01*
X166500D01*
X167500Y34500D01*
X166500Y33500D01*
X167500D01*
X168500Y32500D01*
X27500Y13000D02*
X28500Y14000D01*
X29500D01*
X28500Y15000D01*
X29500Y16000D01*
X28500D01*
X27500Y17000D01*
X26500Y16000D01*
X25500D01*
X26500Y15000D01*
X25500Y14000D01*
X26500D01*
X27500Y13000D01*
X36000Y131000D02*
X37000Y132000D01*
X38000D01*
X37000Y133000D01*
X38000Y134000D01*
X37000D01*
X36000Y135000D01*
X35000Y134000D01*
X34000D01*
X35000Y133000D01*
X34000Y132000D01*
X35000D01*
X36000Y131000D01*
X189000Y128500D02*
X190000Y129500D01*
X191000D01*
X190000Y130500D01*
X191000Y131500D01*
X190000D01*
X189000Y132500D01*
X188000Y131500D01*
X187000D01*
X188000Y130500D01*
X187000Y129500D01*
X188000D01*
X189000Y128500D01*
X115000Y64500D02*
Y63500D01*
X117000D01*
Y64500D01*
X118000D01*
Y66500D01*
X117000D01*
Y67500D01*
X115000D01*
Y66500D01*
X114000D01*
Y64500D01*
X115000D01*
X145000Y33000D02*
Y32000D01*
X147000D01*
Y33000D01*
X148000D01*
Y35000D01*
X147000D01*
Y36000D01*
X145000D01*
Y35000D01*
X144000D01*
Y33000D01*
X145000D01*
X133500Y57000D02*
Y56000D01*
X135500D01*
Y57000D01*
X136500D01*
Y59000D01*
X135500D01*
Y60000D01*
X133500D01*
Y59000D01*
X132500D01*
Y57000D01*
X133500D01*
X119500Y71000D02*
Y70000D01*
X121500D01*
Y71000D01*
X122500D01*
Y73000D01*
X121500D01*
Y74000D01*
X119500D01*
Y73000D01*
X118500D01*
Y71000D01*
X119500D01*
X106087Y51000D02*
Y50000D01*
X108087D01*
Y51000D01*
X109087D01*
Y53000D01*
X108087D01*
Y54000D01*
X106087D01*
Y53000D01*
X105087D01*
Y51000D01*
X106087D01*
X106028Y58000D02*
Y57000D01*
X108028D01*
Y58000D01*
X109028D01*
Y60000D01*
X108028D01*
Y61000D01*
X106028D01*
Y60000D01*
X105028D01*
Y58000D01*
X106028D01*
X129500Y64000D02*
Y63000D01*
X131500D01*
Y64000D01*
X132500D01*
Y66000D01*
X131500D01*
Y67000D01*
X129500D01*
Y66000D01*
X128500D01*
Y64000D01*
X129500D01*
X162000Y64500D02*
Y63500D01*
X164000D01*
Y64500D01*
X165000D01*
Y66500D01*
X164000D01*
Y67500D01*
X162000D01*
Y66500D01*
X161000D01*
Y64500D01*
X162000D01*
Y60500D02*
Y59500D01*
X164000D01*
Y60500D01*
X165000D01*
Y62500D01*
X164000D01*
Y63500D01*
X162000D01*
Y62500D01*
X161000D01*
Y60500D01*
X162000D01*
Y56500D02*
Y55500D01*
X164000D01*
Y56500D01*
X165000D01*
Y58500D01*
X164000D01*
Y59500D01*
X162000D01*
Y58500D01*
X161000D01*
Y56500D01*
X162000D01*
X158000D02*
Y55500D01*
X160000D01*
Y56500D01*
X161000D01*
Y58500D01*
X160000D01*
Y59500D01*
X158000D01*
Y58500D01*
X157000D01*
Y56500D01*
X158000D01*
Y60500D02*
Y59500D01*
X160000D01*
Y60500D01*
X161000D01*
Y62500D01*
X160000D01*
Y63500D01*
X158000D01*
Y62500D01*
X157000D01*
Y60500D01*
X158000D01*
X154000Y56500D02*
Y55500D01*
X156000D01*
Y56500D01*
X157000D01*
Y58500D01*
X156000D01*
Y59500D01*
X154000D01*
Y58500D01*
X153000D01*
Y56500D01*
X154000D01*
Y60500D02*
Y59500D01*
X156000D01*
Y60500D01*
X157000D01*
Y62500D01*
X156000D01*
Y63500D01*
X154000D01*
Y62500D01*
X153000D01*
Y60500D01*
X154000D01*
X103500Y86000D02*
Y85000D01*
X105500D01*
Y86000D01*
X106500D01*
Y88000D01*
X105500D01*
Y89000D01*
X103500D01*
Y88000D01*
X102500D01*
Y86000D01*
X103500D01*
X137500Y27390D02*
Y26390D01*
X139500D01*
Y27390D01*
X140500D01*
Y29390D01*
X139500D01*
Y30390D01*
X137500D01*
Y29390D01*
X136500D01*
Y27390D01*
X137500D01*
X130000Y27500D02*
Y26500D01*
X132000D01*
Y27500D01*
X133000D01*
Y29500D01*
X132000D01*
Y30500D01*
X130000D01*
Y29500D01*
X129000D01*
Y27500D01*
X130000D01*
X268500Y55500D02*
Y54500D01*
X270500D01*
Y55500D01*
X271500D01*
Y57500D01*
X270500D01*
Y58500D01*
X268500D01*
Y57500D01*
X267500D01*
Y55500D01*
X268500D01*
X273500D02*
Y54500D01*
X275500D01*
Y55500D01*
X276500D01*
Y57500D01*
X275500D01*
Y58500D01*
X273500D01*
Y57500D01*
X272500D01*
Y55500D01*
X273500D01*
X278500D02*
Y54500D01*
X280500D01*
Y55500D01*
X281500D01*
Y57500D01*
X280500D01*
Y58500D01*
X278500D01*
Y57500D01*
X277500D01*
Y55500D01*
X278500D01*
X283500D02*
Y54500D01*
X285500D01*
Y55500D01*
X286500D01*
Y57500D01*
X285500D01*
Y58500D01*
X283500D01*
Y57500D01*
X282500D01*
Y55500D01*
X283500D01*
Y51500D02*
Y50500D01*
X285500D01*
Y51500D01*
X286500D01*
Y53500D01*
X285500D01*
Y54500D01*
X283500D01*
Y53500D01*
X282500D01*
Y51500D01*
X283500D01*
X278500D02*
Y50500D01*
X280500D01*
Y51500D01*
X281500D01*
Y53500D01*
X280500D01*
Y54500D01*
X278500D01*
Y53500D01*
X277500D01*
Y51500D01*
X278500D01*
X273500D02*
Y50500D01*
X275500D01*
Y51500D01*
X276500D01*
Y53500D01*
X275500D01*
Y54500D01*
X273500D01*
Y53500D01*
X272500D01*
Y51500D01*
X273500D01*
X268500D02*
Y50500D01*
X270500D01*
Y51500D01*
X271500D01*
Y53500D01*
X270500D01*
Y54500D01*
X268500D01*
Y53500D01*
X267500D01*
Y51500D01*
X268500D01*
X283500Y47500D02*
Y46500D01*
X285500D01*
Y47500D01*
X286500D01*
Y49500D01*
X285500D01*
Y50500D01*
X283500D01*
Y49500D01*
X282500D01*
Y47500D01*
X283500D01*
X278500D02*
Y46500D01*
X280500D01*
Y47500D01*
X281500D01*
Y49500D01*
X280500D01*
Y50500D01*
X278500D01*
Y49500D01*
X277500D01*
Y47500D01*
X278500D01*
X273500D02*
Y46500D01*
X275500D01*
Y47500D01*
X276500D01*
Y49500D01*
X275500D01*
Y50500D01*
X273500D01*
Y49500D01*
X272500D01*
Y47500D01*
X273500D01*
X268500D02*
Y46500D01*
X270500D01*
Y47500D01*
X271500D01*
Y49500D01*
X270500D01*
Y50500D01*
X268500D01*
Y49500D01*
X267500D01*
Y47500D01*
X268500D01*
X283500Y43500D02*
Y42500D01*
X285500D01*
Y43500D01*
X286500D01*
Y45500D01*
X285500D01*
Y46500D01*
X283500D01*
Y45500D01*
X282500D01*
Y43500D01*
X283500D01*
X278500D02*
Y42500D01*
X280500D01*
Y43500D01*
X281500D01*
Y45500D01*
X280500D01*
Y46500D01*
X278500D01*
Y45500D01*
X277500D01*
Y43500D01*
X278500D01*
X273500D02*
Y42500D01*
X275500D01*
Y43500D01*
X276500D01*
Y45500D01*
X275500D01*
Y46500D01*
X273500D01*
Y45500D01*
X272500D01*
Y43500D01*
X273500D01*
X268500D02*
Y42500D01*
X270500D01*
Y43500D01*
X271500D01*
Y45500D01*
X270500D01*
Y46500D01*
X268500D01*
Y45500D01*
X267500D01*
Y43500D01*
X268500D01*
X283500Y39500D02*
Y38500D01*
X285500D01*
Y39500D01*
X286500D01*
Y41500D01*
X285500D01*
Y42500D01*
X283500D01*
Y41500D01*
X282500D01*
Y39500D01*
X283500D01*
X278500D02*
Y38500D01*
X280500D01*
Y39500D01*
X281500D01*
Y41500D01*
X280500D01*
Y42500D01*
X278500D01*
Y41500D01*
X277500D01*
Y39500D01*
X278500D01*
X273500D02*
Y38500D01*
X275500D01*
Y39500D01*
X276500D01*
Y41500D01*
X275500D01*
Y42500D01*
X273500D01*
Y41500D01*
X272500D01*
Y39500D01*
X273500D01*
X268500D02*
Y38500D01*
X270500D01*
Y39500D01*
X271500D01*
Y41500D01*
X270500D01*
Y42500D01*
X268500D01*
Y41500D01*
X267500D01*
Y39500D01*
X268500D01*
X283500Y35500D02*
Y34500D01*
X285500D01*
Y35500D01*
X286500D01*
Y37500D01*
X285500D01*
Y38500D01*
X283500D01*
Y37500D01*
X282500D01*
Y35500D01*
X283500D01*
X278500D02*
Y34500D01*
X280500D01*
Y35500D01*
X281500D01*
Y37500D01*
X280500D01*
Y38500D01*
X278500D01*
Y37500D01*
X277500D01*
Y35500D01*
X278500D01*
X273500D02*
Y34500D01*
X275500D01*
Y35500D01*
X276500D01*
Y37500D01*
X275500D01*
Y38500D01*
X273500D01*
Y37500D01*
X272500D01*
Y35500D01*
X273500D01*
X268500D02*
Y34500D01*
X270500D01*
Y35500D01*
X271500D01*
Y37500D01*
X270500D01*
Y38500D01*
X268500D01*
Y37500D01*
X267500D01*
Y35500D01*
X268500D01*
X283500Y31500D02*
Y30500D01*
X285500D01*
Y31500D01*
X286500D01*
Y33500D01*
X285500D01*
Y34500D01*
X283500D01*
Y33500D01*
X282500D01*
Y31500D01*
X283500D01*
X278500D02*
Y30500D01*
X280500D01*
Y31500D01*
X281500D01*
Y33500D01*
X280500D01*
Y34500D01*
X278500D01*
Y33500D01*
X277500D01*
Y31500D01*
X278500D01*
X273500D02*
Y30500D01*
X275500D01*
Y31500D01*
X276500D01*
Y33500D01*
X275500D01*
Y34500D01*
X273500D01*
Y33500D01*
X272500D01*
Y31500D01*
X273500D01*
X268500D02*
Y30500D01*
X270500D01*
Y31500D01*
X271500D01*
Y33500D01*
X270500D01*
Y34500D01*
X268500D01*
Y33500D01*
X267500D01*
Y31500D01*
X268500D01*
X283500Y27500D02*
Y26500D01*
X285500D01*
Y27500D01*
X286500D01*
Y29500D01*
X285500D01*
Y30500D01*
X283500D01*
Y29500D01*
X282500D01*
Y27500D01*
X283500D01*
X278500D02*
Y26500D01*
X280500D01*
Y27500D01*
X281500D01*
Y29500D01*
X280500D01*
Y30500D01*
X278500D01*
Y29500D01*
X277500D01*
Y27500D01*
X278500D01*
X273500D02*
Y26500D01*
X275500D01*
Y27500D01*
X276500D01*
Y29500D01*
X275500D01*
Y30500D01*
X273500D01*
Y29500D01*
X272500D01*
Y27500D01*
X273500D01*
X268500D02*
Y26500D01*
X270500D01*
Y27500D01*
X271500D01*
Y29500D01*
X270500D01*
Y30500D01*
X268500D01*
Y29500D01*
X267500D01*
Y27500D01*
X268500D01*
X39500Y27000D02*
Y26000D01*
X41500D01*
Y27000D01*
X42500D01*
Y29000D01*
X41500D01*
Y30000D01*
X39500D01*
Y29000D01*
X38500D01*
Y27000D01*
X39500D01*
X44500D02*
Y26000D01*
X46500D01*
Y27000D01*
X47500D01*
Y29000D01*
X46500D01*
Y30000D01*
X44500D01*
Y29000D01*
X43500D01*
Y27000D01*
X44500D01*
X49500D02*
Y26000D01*
X51500D01*
Y27000D01*
X52500D01*
Y29000D01*
X51500D01*
Y30000D01*
X49500D01*
Y29000D01*
X48500D01*
Y27000D01*
X49500D01*
X54500D02*
Y26000D01*
X56500D01*
Y27000D01*
X57500D01*
Y29000D01*
X56500D01*
Y30000D01*
X54500D01*
Y29000D01*
X53500D01*
Y27000D01*
X54500D01*
X39500Y31000D02*
Y30000D01*
X41500D01*
Y31000D01*
X42500D01*
Y33000D01*
X41500D01*
Y34000D01*
X39500D01*
Y33000D01*
X38500D01*
Y31000D01*
X39500D01*
X44500D02*
Y30000D01*
X46500D01*
Y31000D01*
X47500D01*
Y33000D01*
X46500D01*
Y34000D01*
X44500D01*
Y33000D01*
X43500D01*
Y31000D01*
X44500D01*
X49500D02*
Y30000D01*
X51500D01*
Y31000D01*
X52500D01*
Y33000D01*
X51500D01*
Y34000D01*
X49500D01*
Y33000D01*
X48500D01*
Y31000D01*
X49500D01*
X54500D02*
Y30000D01*
X56500D01*
Y31000D01*
X57500D01*
Y33000D01*
X56500D01*
Y34000D01*
X54500D01*
Y33000D01*
X53500D01*
Y31000D01*
X54500D01*
X39500Y35000D02*
Y34000D01*
X41500D01*
Y35000D01*
X42500D01*
Y37000D01*
X41500D01*
Y38000D01*
X39500D01*
Y37000D01*
X38500D01*
Y35000D01*
X39500D01*
X44500D02*
Y34000D01*
X46500D01*
Y35000D01*
X47500D01*
Y37000D01*
X46500D01*
Y38000D01*
X44500D01*
Y37000D01*
X43500D01*
Y35000D01*
X44500D01*
X49500D02*
Y34000D01*
X51500D01*
Y35000D01*
X52500D01*
Y37000D01*
X51500D01*
Y38000D01*
X49500D01*
Y37000D01*
X48500D01*
Y35000D01*
X49500D01*
X54500D02*
Y34000D01*
X56500D01*
Y35000D01*
X57500D01*
Y37000D01*
X56500D01*
Y38000D01*
X54500D01*
Y37000D01*
X53500D01*
Y35000D01*
X54500D01*
X39500Y39000D02*
Y38000D01*
X41500D01*
Y39000D01*
X42500D01*
Y41000D01*
X41500D01*
Y42000D01*
X39500D01*
Y41000D01*
X38500D01*
Y39000D01*
X39500D01*
X44500D02*
Y38000D01*
X46500D01*
Y39000D01*
X47500D01*
Y41000D01*
X46500D01*
Y42000D01*
X44500D01*
Y41000D01*
X43500D01*
Y39000D01*
X44500D01*
X49500D02*
Y38000D01*
X51500D01*
Y39000D01*
X52500D01*
Y41000D01*
X51500D01*
Y42000D01*
X49500D01*
Y41000D01*
X48500D01*
Y39000D01*
X49500D01*
X54500D02*
Y38000D01*
X56500D01*
Y39000D01*
X57500D01*
Y41000D01*
X56500D01*
Y42000D01*
X54500D01*
Y41000D01*
X53500D01*
Y39000D01*
X54500D01*
X39500Y43000D02*
Y42000D01*
X41500D01*
Y43000D01*
X42500D01*
Y45000D01*
X41500D01*
Y46000D01*
X39500D01*
Y45000D01*
X38500D01*
Y43000D01*
X39500D01*
X44500D02*
Y42000D01*
X46500D01*
Y43000D01*
X47500D01*
Y45000D01*
X46500D01*
Y46000D01*
X44500D01*
Y45000D01*
X43500D01*
Y43000D01*
X44500D01*
X49500D02*
Y42000D01*
X51500D01*
Y43000D01*
X52500D01*
Y45000D01*
X51500D01*
Y46000D01*
X49500D01*
Y45000D01*
X48500D01*
Y43000D01*
X49500D01*
X54500D02*
Y42000D01*
X56500D01*
Y43000D01*
X57500D01*
Y45000D01*
X56500D01*
Y46000D01*
X54500D01*
Y45000D01*
X53500D01*
Y43000D01*
X54500D01*
X39500Y47000D02*
Y46000D01*
X41500D01*
Y47000D01*
X42500D01*
Y49000D01*
X41500D01*
Y50000D01*
X39500D01*
Y49000D01*
X38500D01*
Y47000D01*
X39500D01*
X44500D02*
Y46000D01*
X46500D01*
Y47000D01*
X47500D01*
Y49000D01*
X46500D01*
Y50000D01*
X44500D01*
Y49000D01*
X43500D01*
Y47000D01*
X44500D01*
X49500D02*
Y46000D01*
X51500D01*
Y47000D01*
X52500D01*
Y49000D01*
X51500D01*
Y50000D01*
X49500D01*
Y49000D01*
X48500D01*
Y47000D01*
X49500D01*
X54500D02*
Y46000D01*
X56500D01*
Y47000D01*
X57500D01*
Y49000D01*
X56500D01*
Y50000D01*
X54500D01*
Y49000D01*
X53500D01*
Y47000D01*
X54500D01*
X39500Y51000D02*
Y50000D01*
X41500D01*
Y51000D01*
X42500D01*
Y53000D01*
X41500D01*
Y54000D01*
X39500D01*
Y53000D01*
X38500D01*
Y51000D01*
X39500D01*
X44500D02*
Y50000D01*
X46500D01*
Y51000D01*
X47500D01*
Y53000D01*
X46500D01*
Y54000D01*
X44500D01*
Y53000D01*
X43500D01*
Y51000D01*
X44500D01*
X49500D02*
Y50000D01*
X51500D01*
Y51000D01*
X52500D01*
Y53000D01*
X51500D01*
Y54000D01*
X49500D01*
Y53000D01*
X48500D01*
Y51000D01*
X49500D01*
X54500D02*
Y50000D01*
X56500D01*
Y51000D01*
X57500D01*
Y53000D01*
X56500D01*
Y54000D01*
X54500D01*
Y53000D01*
X53500D01*
Y51000D01*
X54500D01*
Y55000D02*
Y54000D01*
X56500D01*
Y55000D01*
X57500D01*
Y57000D01*
X56500D01*
Y58000D01*
X54500D01*
Y57000D01*
X53500D01*
Y55000D01*
X54500D01*
X49500D02*
Y54000D01*
X51500D01*
Y55000D01*
X52500D01*
Y57000D01*
X51500D01*
Y58000D01*
X49500D01*
Y57000D01*
X48500D01*
Y55000D01*
X49500D01*
X44500D02*
Y54000D01*
X46500D01*
Y55000D01*
X47500D01*
Y57000D01*
X46500D01*
Y58000D01*
X44500D01*
Y57000D01*
X43500D01*
Y55000D01*
X44500D01*
X39500D02*
Y54000D01*
X41500D01*
Y55000D01*
X42500D01*
Y57000D01*
X41500D01*
Y58000D01*
X39500D01*
Y57000D01*
X38500D01*
Y55000D01*
X39500D01*
X106000Y44000D02*
Y43000D01*
X108000D01*
Y44000D01*
X109000D01*
Y46000D01*
X108000D01*
Y47000D01*
X106000D01*
Y46000D01*
X105000D01*
Y44000D01*
X106000D01*
X149500Y60500D02*
Y59500D01*
X151500D01*
Y60500D01*
X152500D01*
Y62500D01*
X151500D01*
Y63500D01*
X149500D01*
Y62500D01*
X148500D01*
Y60500D01*
X149500D01*
X150000Y56000D02*
Y55000D01*
X152000D01*
Y56000D01*
X153000D01*
Y58000D01*
X152000D01*
Y59000D01*
X150000D01*
Y58000D01*
X149000D01*
Y56000D01*
X150000D01*
X146000D02*
Y55000D01*
X148000D01*
Y56000D01*
X149000D01*
Y58000D01*
X148000D01*
Y59000D01*
X146000D01*
Y58000D01*
X145000D01*
Y56000D01*
X146000D01*
X144500Y60500D02*
Y59500D01*
X146500D01*
Y60500D01*
X147500D01*
Y62500D01*
X146500D01*
Y63500D01*
X144500D01*
Y62500D01*
X143500D01*
Y60500D01*
X144500D01*
X141000D02*
Y59500D01*
X143000D01*
Y60500D01*
X144000D01*
Y62500D01*
X143000D01*
Y63500D01*
X141000D01*
Y62500D01*
X140000D01*
Y60500D01*
X141000D01*
X137000D02*
Y59500D01*
X139000D01*
Y60500D01*
X140000D01*
Y62500D01*
X139000D01*
Y63500D01*
X137000D01*
Y62500D01*
X136000D01*
Y60500D01*
X137000D01*
X131500Y54000D02*
Y53000D01*
X133500D01*
Y54000D01*
X134500D01*
Y56000D01*
X133500D01*
Y57000D01*
X131500D01*
Y56000D01*
X130500D01*
Y54000D01*
X131500D01*
X129500Y57000D02*
Y56000D01*
X131500D01*
Y57000D01*
X132500D01*
Y59000D01*
X131500D01*
Y60000D01*
X129500D01*
Y59000D01*
X128500D01*
Y57000D01*
X129500D01*
X133500Y60500D02*
Y59500D01*
X135500D01*
Y60500D01*
X136500D01*
Y62500D01*
X135500D01*
Y63500D01*
X133500D01*
Y62500D01*
X132500D01*
Y60500D01*
X133500D01*
X129500D02*
Y59500D01*
X131500D01*
Y60500D01*
X132500D01*
Y62500D01*
X131500D01*
Y63500D01*
X129500D01*
Y62500D01*
X128500D01*
Y60500D01*
X129500D01*
X133500Y64000D02*
Y63000D01*
X135500D01*
Y64000D01*
X136500D01*
Y66000D01*
X135500D01*
Y67000D01*
X133500D01*
Y66000D01*
X132500D01*
Y64000D01*
X133500D01*
X158500Y113500D02*
Y112500D01*
X160500D01*
Y113500D01*
X161500D01*
Y115500D01*
X160500D01*
Y116500D01*
X158500D01*
Y115500D01*
X157500D01*
Y113500D01*
X158500D01*
X154500D02*
Y112500D01*
X156500D01*
Y113500D01*
X157500D01*
Y115500D01*
X156500D01*
Y116500D01*
X154500D01*
Y115500D01*
X153500D01*
Y113500D01*
X154500D01*
X150500D02*
Y112500D01*
X152500D01*
Y113500D01*
X153500D01*
Y115500D01*
X152500D01*
Y116500D01*
X150500D01*
Y115500D01*
X149500D01*
Y113500D01*
X150500D01*
X142500D02*
Y112500D01*
X144500D01*
Y113500D01*
X145500D01*
Y115500D01*
X144500D01*
Y116500D01*
X142500D01*
Y115500D01*
X141500D01*
Y113500D01*
X142500D01*
X154500Y109500D02*
Y108500D01*
X156500D01*
Y109500D01*
X157500D01*
Y111500D01*
X156500D01*
Y112500D01*
X154500D01*
Y111500D01*
X153500D01*
Y109500D01*
X154500D01*
X158500D02*
Y108500D01*
X160500D01*
Y109500D01*
X161500D01*
Y111500D01*
X160500D01*
Y112500D01*
X158500D01*
Y111500D01*
X157500D01*
Y109500D01*
X158500D01*
X150500D02*
Y108500D01*
X152500D01*
Y109500D01*
X153500D01*
Y111500D01*
X152500D01*
Y112500D01*
X150500D01*
Y111500D01*
X149500D01*
Y109500D01*
X150500D01*
X146500D02*
Y108500D01*
X148500D01*
Y109500D01*
X149500D01*
Y111500D01*
X148500D01*
Y112500D01*
X146500D01*
Y111500D01*
X145500D01*
Y109500D01*
X146500D01*
X142500D02*
Y108500D01*
X144500D01*
Y109500D01*
X145500D01*
Y111500D01*
X144500D01*
Y112500D01*
X142500D01*
Y111500D01*
X141500D01*
Y109500D01*
X142500D01*
X146500Y113500D02*
Y112500D01*
X148500D01*
Y113500D01*
X149500D01*
Y115500D01*
X148500D01*
Y116500D01*
X146500D01*
Y115500D01*
X145500D01*
Y113500D01*
X146500D01*
X140500Y125000D02*
Y124000D01*
X142500D01*
Y125000D01*
X143500D01*
Y127000D01*
X142500D01*
Y128000D01*
X140500D01*
Y127000D01*
X139500D01*
Y125000D01*
X140500D01*
Y129000D02*
Y128000D01*
X142500D01*
Y129000D01*
X143500D01*
Y131000D01*
X142500D01*
Y132000D01*
X140500D01*
Y131000D01*
X139500D01*
Y129000D01*
X140500D01*
Y133000D02*
Y132000D01*
X142500D01*
Y133000D01*
X143500D01*
Y135000D01*
X142500D01*
Y136000D01*
X140500D01*
Y135000D01*
X139500D01*
Y133000D01*
X140500D01*
X144500D02*
Y132000D01*
X146500D01*
Y133000D01*
X147500D01*
Y135000D01*
X146500D01*
Y136000D01*
X144500D01*
Y135000D01*
X143500D01*
Y133000D01*
X144500D01*
X123000Y27500D02*
Y26500D01*
X125000D01*
Y27500D01*
X126000D01*
Y29500D01*
X125000D01*
Y30500D01*
X123000D01*
Y29500D01*
X122000D01*
Y27500D01*
X123000D01*
X155500Y42500D02*
Y41500D01*
X157500D01*
Y42500D01*
X158500D01*
Y44500D01*
X157500D01*
Y45500D01*
X155500D01*
Y44500D01*
X154500D01*
Y42500D01*
X155500D01*
X144500Y125000D02*
Y124000D01*
X146500D01*
Y125000D01*
X147500D01*
Y127000D01*
X146500D01*
Y128000D01*
X144500D01*
Y127000D01*
X143500D01*
Y125000D01*
X144500D01*
Y129000D02*
Y128000D01*
X146500D01*
Y129000D01*
X147500D01*
Y131000D01*
X146500D01*
Y132000D01*
X144500D01*
Y131000D01*
X143500D01*
Y129000D01*
X144500D01*
X152500Y36500D02*
Y35500D01*
X154500D01*
Y36500D01*
X155500D01*
Y38500D01*
X154500D01*
Y39500D01*
X152500D01*
Y38500D01*
X151500D01*
Y36500D01*
X152500D01*
D52*
X72654Y97531D02*
G03*
X72654Y97531I-2000J0D01*
G01*
Y113279D02*
G03*
X72654Y113279I-2000J0D01*
G01*
X29346Y51468D02*
G03*
X29346Y51468I-2000J0D01*
G01*
X72654Y35721D02*
G03*
X72654Y35721I-2000J0D01*
G01*
X29346Y97531D02*
G03*
X29346Y97531I-2000J0D01*
G01*
Y35721D02*
G03*
X29346Y35721I-2000J0D01*
G01*
Y113279D02*
G03*
X29346Y113279I-2000J0D01*
G01*
X72654Y51468D02*
G03*
X72654Y51468I-2000J0D01*
G01*
X301654Y98032D02*
G03*
X301654Y98032I-2000J0D01*
G01*
Y113779D02*
G03*
X301654Y113779I-2000J0D01*
G01*
X258347Y51968D02*
G03*
X258347Y51968I-2000J0D01*
G01*
X301654Y36220D02*
G03*
X301654Y36220I-2000J0D01*
G01*
X258347Y98032D02*
G03*
X258347Y98032I-2000J0D01*
G01*
Y36220D02*
G03*
X258347Y36220I-2000J0D01*
G01*
Y113779D02*
G03*
X258347Y113779I-2000J0D01*
G01*
X301654Y51968D02*
G03*
X301654Y51968I-2000J0D01*
G01*
M02*
