G04*
G04 #@! TF.GenerationSoftware,Altium Limited,Altium Designer,23.0.1 (38)*
G04*
G04 Layer_Color=8388736*
%FSLAX25Y25*%
%MOIN*%
G70*
G04*
G04 #@! TF.SameCoordinates,AE5763C0-F2EE-4BCA-89C6-8F578BEF2D51*
G04*
G04*
G04 #@! TF.FilePolarity,Positive*
G04*
G01*
G75*
%ADD10C,0.00787*%
G36*
X155859Y129498D02*
X155887D01*
X155922Y129494D01*
X155961Y129492D01*
X156006Y129486D01*
X156055Y129479D01*
X156106Y129471D01*
X156159Y129459D01*
X156214Y129447D01*
X156269Y129431D01*
X156326Y129412D01*
X156379Y129390D01*
X156432Y129365D01*
X156481Y129335D01*
X156483Y129333D01*
X156492Y129327D01*
X156504Y129318D01*
X156522Y129304D01*
X156543Y129288D01*
X156569Y129267D01*
X156596Y129241D01*
X156624Y129214D01*
X156655Y129183D01*
X156686Y129145D01*
X156720Y129106D01*
X156751Y129065D01*
X156782Y129018D01*
X156814Y128967D01*
X156843Y128914D01*
X156869Y128857D01*
X156871Y128853D01*
X156875Y128843D01*
X156880Y128826D01*
X156888Y128802D01*
X156900Y128773D01*
X156910Y128740D01*
X156922Y128698D01*
X156933Y128655D01*
X156947Y128606D01*
X156959Y128555D01*
X156969Y128498D01*
X156978Y128440D01*
X156988Y128379D01*
X156994Y128316D01*
X156998Y128250D01*
X157000Y128183D01*
Y128181D01*
Y128179D01*
Y128173D01*
Y128165D01*
X156998Y128146D01*
Y128116D01*
X156996Y128083D01*
X156992Y128044D01*
X156988Y127999D01*
X156980Y127950D01*
X156973Y127899D01*
X156963Y127844D01*
X156951Y127787D01*
X156937Y127728D01*
X156920Y127671D01*
X156900Y127613D01*
X156877Y127554D01*
X156851Y127499D01*
X156849Y127495D01*
X156843Y127485D01*
X156835Y127471D01*
X156824Y127450D01*
X156808Y127426D01*
X156788Y127397D01*
X156767Y127368D01*
X156741Y127332D01*
X156714Y127297D01*
X156683Y127262D01*
X156647Y127225D01*
X156608Y127187D01*
X156567Y127152D01*
X156524Y127117D01*
X156477Y127083D01*
X156426Y127054D01*
X156422Y127052D01*
X156414Y127048D01*
X156398Y127040D01*
X156377Y127030D01*
X156351Y127019D01*
X156320Y127005D01*
X156285Y126991D01*
X156245Y126978D01*
X156202Y126964D01*
X156155Y126950D01*
X156104Y126936D01*
X156051Y126925D01*
X155995Y126915D01*
X155938Y126907D01*
X155877Y126903D01*
X155816Y126901D01*
X155799D01*
X155779Y126903D01*
X155754D01*
X155720Y126907D01*
X155683Y126911D01*
X155640Y126917D01*
X155595Y126925D01*
X155546Y126934D01*
X155495Y126948D01*
X155442Y126964D01*
X155389Y126981D01*
X155336Y127005D01*
X155283Y127030D01*
X155230Y127060D01*
X155181Y127093D01*
X155177Y127095D01*
X155169Y127103D01*
X155158Y127113D01*
X155140Y127128D01*
X155118Y127148D01*
X155095Y127172D01*
X155068Y127201D01*
X155040Y127232D01*
X155011Y127270D01*
X154981Y127309D01*
X154950Y127354D01*
X154920Y127403D01*
X154893Y127454D01*
X154868Y127511D01*
X154844Y127571D01*
X154823Y127634D01*
X155150Y127710D01*
Y127707D01*
X155154Y127699D01*
X155160Y127685D01*
X155166Y127665D01*
X155175Y127644D01*
X155187Y127617D01*
X155199Y127589D01*
X155215Y127558D01*
X155250Y127493D01*
X155295Y127426D01*
X155318Y127395D01*
X155346Y127364D01*
X155375Y127336D01*
X155405Y127311D01*
X155406Y127309D01*
X155412Y127305D01*
X155422Y127299D01*
X155434Y127291D01*
X155452Y127281D01*
X155471Y127271D01*
X155493Y127260D01*
X155518Y127248D01*
X155548Y127236D01*
X155579Y127225D01*
X155614Y127215D01*
X155651Y127205D01*
X155691Y127197D01*
X155732Y127191D01*
X155775Y127187D01*
X155822Y127185D01*
X155850D01*
X155871Y127187D01*
X155895Y127189D01*
X155924Y127193D01*
X155955Y127197D01*
X155991Y127203D01*
X156028Y127211D01*
X156067Y127219D01*
X156108Y127230D01*
X156149Y127244D01*
X156189Y127260D01*
X156230Y127279D01*
X156269Y127299D01*
X156306Y127324D01*
X156308Y127326D01*
X156314Y127330D01*
X156324Y127338D01*
X156338Y127350D01*
X156353Y127364D01*
X156371Y127381D01*
X156392Y127401D01*
X156412Y127422D01*
X156436Y127448D01*
X156457Y127477D01*
X156481Y127507D01*
X156502Y127540D01*
X156524Y127577D01*
X156545Y127614D01*
X156563Y127656D01*
X156579Y127699D01*
Y127701D01*
X156582Y127709D01*
X156587Y127722D01*
X156590Y127740D01*
X156596Y127760D01*
X156604Y127785D01*
X156610Y127814D01*
X156618Y127846D01*
X156626Y127881D01*
X156632Y127918D01*
X156639Y127960D01*
X156645Y128001D01*
X156653Y128089D01*
X156657Y128181D01*
Y128185D01*
Y128195D01*
Y128212D01*
X156655Y128234D01*
Y128263D01*
X156651Y128295D01*
X156649Y128332D01*
X156645Y128371D01*
X156641Y128414D01*
X156633Y128459D01*
X156618Y128553D01*
X156594Y128649D01*
X156581Y128696D01*
X156565Y128742D01*
X156563Y128744D01*
X156561Y128751D01*
X156555Y128765D01*
X156547Y128781D01*
X156537Y128800D01*
X156526Y128824D01*
X156510Y128849D01*
X156492Y128875D01*
X156475Y128904D01*
X156453Y128934D01*
X156430Y128963D01*
X156402Y128992D01*
X156375Y129022D01*
X156343Y129049D01*
X156310Y129075D01*
X156275Y129098D01*
X156273Y129100D01*
X156265Y129104D01*
X156255Y129110D01*
X156240Y129116D01*
X156222Y129126D01*
X156200Y129136D01*
X156175Y129145D01*
X156147Y129157D01*
X156116Y129169D01*
X156083Y129179D01*
X156047Y129188D01*
X156010Y129198D01*
X155973Y129204D01*
X155932Y129210D01*
X155891Y129214D01*
X155848Y129216D01*
X155836D01*
X155820Y129214D01*
X155800D01*
X155777Y129210D01*
X155749Y129208D01*
X155718Y129202D01*
X155685Y129196D01*
X155648Y129186D01*
X155610Y129177D01*
X155571Y129163D01*
X155530Y129147D01*
X155491Y129130D01*
X155452Y129108D01*
X155412Y129083D01*
X155375Y129055D01*
X155373Y129053D01*
X155367Y129047D01*
X155358Y129037D01*
X155344Y129026D01*
X155328Y129008D01*
X155310Y128987D01*
X155291Y128963D01*
X155269Y128936D01*
X155248Y128902D01*
X155226Y128867D01*
X155205Y128828D01*
X155183Y128785D01*
X155162Y128740D01*
X155144Y128689D01*
X155126Y128634D01*
X155113Y128577D01*
X154779Y128661D01*
Y128663D01*
X154781Y128665D01*
Y128671D01*
X154785Y128679D01*
X154791Y128700D01*
X154801Y128728D01*
X154813Y128763D01*
X154826Y128802D01*
X154846Y128845D01*
X154866Y128892D01*
X154891Y128943D01*
X154919Y128994D01*
X154950Y129045D01*
X154983Y129098D01*
X155022Y129149D01*
X155064Y129198D01*
X155109Y129243D01*
X155158Y129286D01*
X155162Y129288D01*
X155169Y129296D01*
X155185Y129306D01*
X155207Y129320D01*
X155232Y129335D01*
X155263Y129353D01*
X155301Y129373D01*
X155342Y129392D01*
X155387Y129414D01*
X155438Y129431D01*
X155493Y129451D01*
X155552Y129467D01*
X155614Y129480D01*
X155679Y129490D01*
X155748Y129498D01*
X155820Y129500D01*
X155848D01*
X155859Y129498D01*
D02*
G37*
G36*
X154123Y129453D02*
Y129443D01*
X154121Y129428D01*
Y129404D01*
X154119Y129375D01*
X154115Y129341D01*
X154111Y129302D01*
X154107Y129257D01*
X154101Y129206D01*
X154093Y129151D01*
X154084Y129092D01*
X154072Y129030D01*
X154060Y128963D01*
X154044Y128892D01*
X154027Y128818D01*
X154007Y128742D01*
Y128740D01*
X154005Y128738D01*
X154003Y128732D01*
X154001Y128722D01*
X153999Y128712D01*
X153995Y128700D01*
X153991Y128687D01*
X153986Y128669D01*
X153976Y128632D01*
X153960Y128589D01*
X153944Y128538D01*
X153925Y128483D01*
X153903Y128424D01*
X153880Y128359D01*
X153854Y128293D01*
X153825Y128222D01*
X153794Y128152D01*
X153760Y128079D01*
X153725Y128005D01*
X153688Y127932D01*
Y127930D01*
X153686Y127928D01*
X153682Y127922D01*
X153678Y127914D01*
X153666Y127895D01*
X153650Y127867D01*
X153631Y127834D01*
X153609Y127795D01*
X153582Y127752D01*
X153552Y127703D01*
X153521Y127654D01*
X153488Y127599D01*
X153451Y127546D01*
X153411Y127489D01*
X153329Y127379D01*
X153286Y127324D01*
X153243Y127273D01*
X154474D01*
Y126978D01*
X152847D01*
Y127219D01*
X152849Y127221D01*
X152857Y127230D01*
X152870Y127244D01*
X152888Y127266D01*
X152910Y127291D01*
X152935Y127321D01*
X152964Y127358D01*
X152998Y127399D01*
X153031Y127446D01*
X153070Y127497D01*
X153109Y127552D01*
X153151Y127613D01*
X153194Y127677D01*
X153237Y127746D01*
X153280Y127818D01*
X153325Y127897D01*
Y127899D01*
X153327Y127901D01*
X153331Y127907D01*
X153335Y127916D01*
X153341Y127926D01*
X153347Y127938D01*
X153354Y127954D01*
X153364Y127969D01*
X153384Y128008D01*
X153405Y128053D01*
X153431Y128106D01*
X153458Y128163D01*
X153488Y128228D01*
X153517Y128295D01*
X153547Y128367D01*
X153578Y128442D01*
X153607Y128520D01*
X153635Y128600D01*
X153662Y128683D01*
X153688Y128767D01*
Y128771D01*
X153692Y128781D01*
X153695Y128798D01*
X153703Y128822D01*
X153709Y128851D01*
X153719Y128887D01*
X153727Y128926D01*
X153737Y128971D01*
X153746Y129020D01*
X153756Y129075D01*
X153766Y129131D01*
X153776Y129190D01*
X153786Y129255D01*
X153794Y129320D01*
X153799Y129388D01*
X153805Y129457D01*
X154123D01*
Y129453D01*
D02*
G37*
G36*
X105479Y31487D02*
X105146D01*
Y34000D01*
X105479D01*
Y31487D01*
D02*
G37*
G36*
X103833Y32036D02*
X103835Y32038D01*
X103839Y32040D01*
X103845Y32046D01*
X103853Y32054D01*
X103864Y32063D01*
X103878Y32075D01*
X103894Y32087D01*
X103911Y32103D01*
X103931Y32118D01*
X103955Y32134D01*
X103978Y32152D01*
X104004Y32169D01*
X104062Y32209D01*
X104127Y32248D01*
X104129Y32250D01*
X104135Y32252D01*
X104145Y32258D01*
X104156Y32265D01*
X104174Y32273D01*
X104192Y32283D01*
X104213Y32295D01*
X104235Y32307D01*
X104286Y32332D01*
X104339Y32359D01*
X104395Y32385D01*
X104450Y32406D01*
Y32109D01*
X104446Y32107D01*
X104439Y32103D01*
X104425Y32097D01*
X104407Y32087D01*
X104384Y32075D01*
X104358Y32062D01*
X104329Y32044D01*
X104297Y32026D01*
X104262Y32007D01*
X104227Y31983D01*
X104150Y31934D01*
X104074Y31877D01*
X104000Y31815D01*
X103998Y31813D01*
X103992Y31807D01*
X103982Y31797D01*
X103968Y31785D01*
X103953Y31769D01*
X103933Y31752D01*
X103913Y31730D01*
X103892Y31707D01*
X103847Y31656D01*
X103802Y31599D01*
X103760Y31538D01*
X103741Y31509D01*
X103725Y31477D01*
X103525D01*
Y34000D01*
X103833D01*
Y32036D01*
D02*
G37*
G36*
X199000Y83195D02*
X197036D01*
X197038Y83193D01*
X197040Y83189D01*
X197046Y83183D01*
X197054Y83175D01*
X197064Y83164D01*
X197075Y83150D01*
X197087Y83134D01*
X197103Y83117D01*
X197118Y83097D01*
X197134Y83073D01*
X197152Y83050D01*
X197169Y83024D01*
X197209Y82966D01*
X197248Y82901D01*
X197250Y82899D01*
X197252Y82893D01*
X197258Y82883D01*
X197265Y82872D01*
X197273Y82854D01*
X197283Y82836D01*
X197295Y82815D01*
X197307Y82793D01*
X197332Y82742D01*
X197360Y82689D01*
X197385Y82632D01*
X197406Y82578D01*
X197109D01*
X197107Y82582D01*
X197103Y82589D01*
X197097Y82603D01*
X197087Y82621D01*
X197075Y82644D01*
X197062Y82670D01*
X197044Y82699D01*
X197026Y82730D01*
X197007Y82766D01*
X196983Y82801D01*
X196934Y82877D01*
X196877Y82954D01*
X196815Y83028D01*
X196813Y83030D01*
X196807Y83036D01*
X196797Y83046D01*
X196785Y83060D01*
X196770Y83075D01*
X196752Y83095D01*
X196730Y83115D01*
X196707Y83136D01*
X196656Y83181D01*
X196599Y83226D01*
X196538Y83267D01*
X196509Y83287D01*
X196477Y83303D01*
Y83503D01*
X199000D01*
Y83195D01*
D02*
G37*
G36*
Y80500D02*
X196487D01*
Y80833D01*
X198704D01*
Y82070D01*
X199000D01*
Y80500D01*
D02*
G37*
D10*
X166547Y123791D02*
Y135209D01*
X147453D02*
X166547D01*
X147453Y123791D02*
Y135209D01*
Y123791D02*
X166547D01*
X116857Y28409D02*
Y39591D01*
X94101D02*
X116857D01*
X94101Y28409D02*
Y39591D01*
Y28409D02*
X116857D01*
X164847Y40618D02*
X233154D01*
Y120382D01*
X164847D02*
X233154D01*
X164847Y40618D02*
Y120382D01*
M02*
