G04*
G04 #@! TF.GenerationSoftware,Altium Limited,Altium Designer,23.0.1 (38)*
G04*
G04 Layer_Color=128*
%FSLAX25Y25*%
%MOIN*%
G70*
G04*
G04 #@! TF.SameCoordinates,AE5763C0-F2EE-4BCA-89C6-8F578BEF2D51*
G04*
G04*
G04 #@! TF.FilePolarity,Positive*
G04*
G01*
G75*
%ADD12C,0.00500*%
D12*
X98471Y34000D02*
X102487D01*
X100479Y31992D02*
Y36008D01*
X108471Y34000D02*
X112487D01*
X110479Y31992D02*
Y36008D01*
X67504Y97531D02*
X73803D01*
X70653Y94382D02*
Y100681D01*
X67504Y113279D02*
X73803D01*
X70653Y110130D02*
Y116429D01*
X24197Y51468D02*
X30496D01*
X27347Y48319D02*
Y54618D01*
X67504Y35721D02*
X73803D01*
X70653Y32571D02*
Y38870D01*
X24197Y97531D02*
X30496D01*
X27347Y94382D02*
Y100681D01*
X24197Y35721D02*
X30496D01*
X27347Y32571D02*
Y38870D01*
X24197Y113279D02*
X30496D01*
X27347Y110130D02*
Y116429D01*
X67504Y51468D02*
X73803D01*
X70653Y48319D02*
Y54618D01*
X3937Y11811D02*
X19685D01*
X11811Y3937D02*
Y19685D01*
X3937Y133858D02*
X19685D01*
X11811Y125984D02*
Y141732D01*
X303150Y133858D02*
X318898D01*
X311024Y125984D02*
Y141732D01*
X303150Y11811D02*
X318898D01*
X311024Y3937D02*
Y19685D01*
X135165Y79500D02*
X139102D01*
X137133Y77531D02*
Y81468D01*
X166532Y34500D02*
X170468D01*
X168500Y32531D02*
Y36468D01*
X25532Y15000D02*
X29469D01*
X27500Y13032D02*
Y16969D01*
X34032Y133000D02*
X37969D01*
X36000Y131032D02*
Y134968D01*
X187031Y130500D02*
X190969D01*
X189000Y128532D02*
Y132468D01*
X296504Y98032D02*
X302803D01*
X299654Y94882D02*
Y101181D01*
X296504Y113779D02*
X302803D01*
X299654Y110630D02*
Y116929D01*
X253197Y51968D02*
X259496D01*
X256347Y48819D02*
Y55118D01*
X296504Y36220D02*
X302803D01*
X299654Y33071D02*
Y39370D01*
X253197Y98032D02*
X259496D01*
X256347Y94882D02*
Y101181D01*
X253197Y36220D02*
X259496D01*
X256347Y33071D02*
Y39370D01*
X253197Y113779D02*
X259496D01*
X256347Y110630D02*
Y116929D01*
X296504Y51968D02*
X302803D01*
X299654Y48819D02*
Y55118D01*
X115508Y65500D02*
X116492D01*
X116000Y65008D02*
Y65992D01*
X145508Y34000D02*
X146492D01*
X146000Y33508D02*
Y34492D01*
X134008Y58000D02*
X134992D01*
X134500Y57508D02*
Y58492D01*
X120008Y72000D02*
X120992D01*
X120500Y71508D02*
Y72492D01*
X106595Y52000D02*
X107579D01*
X107087Y51508D02*
Y52492D01*
X106535Y59000D02*
X107520D01*
X107028Y58508D02*
Y59492D01*
X130008Y65000D02*
X130992D01*
X130500Y64508D02*
Y65492D01*
X162508Y65500D02*
X163492D01*
X163000Y65008D02*
Y65992D01*
X162508Y61500D02*
X163492D01*
X163000Y61008D02*
Y61992D01*
X162508Y57500D02*
X163492D01*
X163000Y57008D02*
Y57992D01*
X158508Y57500D02*
X159492D01*
X159000Y57008D02*
Y57992D01*
X158508Y61500D02*
X159492D01*
X159000Y61008D02*
Y61992D01*
X154508Y57500D02*
X155492D01*
X155000Y57008D02*
Y57992D01*
X154508Y61500D02*
X155492D01*
X155000Y61008D02*
Y61992D01*
X104008Y87000D02*
X104992D01*
X104500Y86508D02*
Y87492D01*
X138008Y28390D02*
X138992D01*
X138500Y27898D02*
Y28882D01*
X130508Y28500D02*
X131492D01*
X131000Y28008D02*
Y28992D01*
X269008Y56500D02*
X269992D01*
X269500Y56008D02*
Y56992D01*
X274008Y56500D02*
X274992D01*
X274500Y56008D02*
Y56992D01*
X279008Y56500D02*
X279992D01*
X279500Y56008D02*
Y56992D01*
X284008Y56500D02*
X284992D01*
X284500Y56008D02*
Y56992D01*
X284008Y52500D02*
X284992D01*
X284500Y52008D02*
Y52992D01*
X279008Y52500D02*
X279992D01*
X279500Y52008D02*
Y52992D01*
X274008Y52500D02*
X274992D01*
X274500Y52008D02*
Y52992D01*
X269008Y52500D02*
X269992D01*
X269500Y52008D02*
Y52992D01*
X284008Y48500D02*
X284992D01*
X284500Y48008D02*
Y48992D01*
X279008Y48500D02*
X279992D01*
X279500Y48008D02*
Y48992D01*
X274008Y48500D02*
X274992D01*
X274500Y48008D02*
Y48992D01*
X269008Y48500D02*
X269992D01*
X269500Y48008D02*
Y48992D01*
X284008Y44500D02*
X284992D01*
X284500Y44008D02*
Y44992D01*
X279008Y44500D02*
X279992D01*
X279500Y44008D02*
Y44992D01*
X274008Y44500D02*
X274992D01*
X274500Y44008D02*
Y44992D01*
X269008Y44500D02*
X269992D01*
X269500Y44008D02*
Y44992D01*
X284008Y40500D02*
X284992D01*
X284500Y40008D02*
Y40992D01*
X279008Y40500D02*
X279992D01*
X279500Y40008D02*
Y40992D01*
X274008Y40500D02*
X274992D01*
X274500Y40008D02*
Y40992D01*
X269008Y40500D02*
X269992D01*
X269500Y40008D02*
Y40992D01*
X284008Y36500D02*
X284992D01*
X284500Y36008D02*
Y36992D01*
X279008Y36500D02*
X279992D01*
X279500Y36008D02*
Y36992D01*
X274008Y36500D02*
X274992D01*
X274500Y36008D02*
Y36992D01*
X269008Y36500D02*
X269992D01*
X269500Y36008D02*
Y36992D01*
X284008Y32500D02*
X284992D01*
X284500Y32008D02*
Y32992D01*
X279008Y32500D02*
X279992D01*
X279500Y32008D02*
Y32992D01*
X274008Y32500D02*
X274992D01*
X274500Y32008D02*
Y32992D01*
X269008Y32500D02*
X269992D01*
X269500Y32008D02*
Y32992D01*
X284008Y28500D02*
X284992D01*
X284500Y28008D02*
Y28992D01*
X279008Y28500D02*
X279992D01*
X279500Y28008D02*
Y28992D01*
X274008Y28500D02*
X274992D01*
X274500Y28008D02*
Y28992D01*
X269008Y28500D02*
X269992D01*
X269500Y28008D02*
Y28992D01*
X40008Y28000D02*
X40992D01*
X40500Y27508D02*
Y28492D01*
X45008Y28000D02*
X45992D01*
X45500Y27508D02*
Y28492D01*
X50008Y28000D02*
X50992D01*
X50500Y27508D02*
Y28492D01*
X55008Y28000D02*
X55992D01*
X55500Y27508D02*
Y28492D01*
X40008Y32000D02*
X40992D01*
X40500Y31508D02*
Y32492D01*
X45008Y32000D02*
X45992D01*
X45500Y31508D02*
Y32492D01*
X50008Y32000D02*
X50992D01*
X50500Y31508D02*
Y32492D01*
X55008Y32000D02*
X55992D01*
X55500Y31508D02*
Y32492D01*
X40008Y36000D02*
X40992D01*
X40500Y35508D02*
Y36492D01*
X45008Y36000D02*
X45992D01*
X45500Y35508D02*
Y36492D01*
X50008Y36000D02*
X50992D01*
X50500Y35508D02*
Y36492D01*
X55008Y36000D02*
X55992D01*
X55500Y35508D02*
Y36492D01*
X40008Y40000D02*
X40992D01*
X40500Y39508D02*
Y40492D01*
X45008Y40000D02*
X45992D01*
X45500Y39508D02*
Y40492D01*
X50008Y40000D02*
X50992D01*
X50500Y39508D02*
Y40492D01*
X55008Y40000D02*
X55992D01*
X55500Y39508D02*
Y40492D01*
X40008Y44000D02*
X40992D01*
X40500Y43508D02*
Y44492D01*
X45008Y44000D02*
X45992D01*
X45500Y43508D02*
Y44492D01*
X50008Y44000D02*
X50992D01*
X50500Y43508D02*
Y44492D01*
X55008Y44000D02*
X55992D01*
X55500Y43508D02*
Y44492D01*
X40008Y48000D02*
X40992D01*
X40500Y47508D02*
Y48492D01*
X45008Y48000D02*
X45992D01*
X45500Y47508D02*
Y48492D01*
X50008Y48000D02*
X50992D01*
X50500Y47508D02*
Y48492D01*
X55008Y48000D02*
X55992D01*
X55500Y47508D02*
Y48492D01*
X40008Y52000D02*
X40992D01*
X40500Y51508D02*
Y52492D01*
X45008Y52000D02*
X45992D01*
X45500Y51508D02*
Y52492D01*
X50008Y52000D02*
X50992D01*
X50500Y51508D02*
Y52492D01*
X55008Y52000D02*
X55992D01*
X55500Y51508D02*
Y52492D01*
X55008Y56000D02*
X55992D01*
X55500Y55508D02*
Y56492D01*
X50008Y56000D02*
X50992D01*
X50500Y55508D02*
Y56492D01*
X45008Y56000D02*
X45992D01*
X45500Y55508D02*
Y56492D01*
X40008Y56000D02*
X40992D01*
X40500Y55508D02*
Y56492D01*
X106508Y45000D02*
X107492D01*
X107000Y44508D02*
Y45492D01*
X150008Y61500D02*
X150992D01*
X150500Y61008D02*
Y61992D01*
X150508Y57000D02*
X151492D01*
X151000Y56508D02*
Y57492D01*
X146508Y57000D02*
X147492D01*
X147000Y56508D02*
Y57492D01*
X145008Y61500D02*
X145992D01*
X145500Y61008D02*
Y61992D01*
X141508Y61500D02*
X142492D01*
X142000Y61008D02*
Y61992D01*
X137508Y61500D02*
X138492D01*
X138000Y61008D02*
Y61992D01*
X132008Y55000D02*
X132992D01*
X132500Y54508D02*
Y55492D01*
X130008Y58000D02*
X130992D01*
X130500Y57508D02*
Y58492D01*
X134008Y61500D02*
X134992D01*
X134500Y61008D02*
Y61992D01*
X130008Y61500D02*
X130992D01*
X130500Y61008D02*
Y61992D01*
X134008Y65000D02*
X134992D01*
X134500Y64508D02*
Y65492D01*
X159008Y114500D02*
X159992D01*
X159500Y114008D02*
Y114992D01*
X155008Y114500D02*
X155992D01*
X155500Y114008D02*
Y114992D01*
X151008Y114500D02*
X151992D01*
X151500Y114008D02*
Y114992D01*
X143008Y114500D02*
X143992D01*
X143500Y114008D02*
Y114992D01*
X155008Y110500D02*
X155992D01*
X155500Y110008D02*
Y110992D01*
X159008Y110500D02*
X159992D01*
X159500Y110008D02*
Y110992D01*
X151008Y110500D02*
X151992D01*
X151500Y110008D02*
Y110992D01*
X147008Y110500D02*
X147992D01*
X147500Y110008D02*
Y110992D01*
X143008Y110500D02*
X143992D01*
X143500Y110008D02*
Y110992D01*
X147008Y114500D02*
X147992D01*
X147500Y114008D02*
Y114992D01*
X141008Y126000D02*
X141992D01*
X141500Y125508D02*
Y126492D01*
X141008Y130000D02*
X141992D01*
X141500Y129508D02*
Y130492D01*
X141008Y134000D02*
X141992D01*
X141500Y133508D02*
Y134492D01*
X145008Y134000D02*
X145992D01*
X145500Y133508D02*
Y134492D01*
X123508Y28500D02*
X124492D01*
X124000Y28008D02*
Y28992D01*
X156008Y43500D02*
X156992D01*
X156500Y43008D02*
Y43992D01*
X145008Y126000D02*
X145992D01*
X145500Y125508D02*
Y126492D01*
X145008Y130000D02*
X145992D01*
X145500Y129508D02*
Y130492D01*
X153008Y37500D02*
X153992D01*
X153500Y37008D02*
Y37992D01*
M02*
