G04*
G04 #@! TF.GenerationSoftware,Altium Limited,Altium Designer,23.0.1 (38)*
G04*
G04 Layer_Color=16711935*
%FSLAX25Y25*%
%MOIN*%
G70*
G04*
G04 #@! TF.SameCoordinates,AE5763C0-F2EE-4BCA-89C6-8F578BEF2D51*
G04*
G04*
G04 #@! TF.FilePolarity,Negative*
G04*
G01*
G75*
%ADD35C,0.06181*%
%ADD36R,0.06181X0.06181*%
%ADD37O,0.18517X0.13595*%
%ADD38C,0.06800*%
%ADD39O,0.08674X0.07099*%
%ADD40O,0.07099X0.08674*%
%ADD41C,0.03162*%
D35*
X100479Y34000D02*
D03*
D36*
X110479D02*
D03*
D37*
X70653Y97531D02*
D03*
Y113279D02*
D03*
X27347Y51468D02*
D03*
X70653Y35721D02*
D03*
X27347Y97531D02*
D03*
Y35721D02*
D03*
Y113279D02*
D03*
X70653Y51468D02*
D03*
X299654Y98032D02*
D03*
Y113779D02*
D03*
X256347Y51968D02*
D03*
X299654Y36220D02*
D03*
X256347Y98032D02*
D03*
Y36220D02*
D03*
Y113779D02*
D03*
X299654Y51968D02*
D03*
D38*
X11811Y11811D02*
D03*
Y133858D02*
D03*
X311024D02*
D03*
Y11811D02*
D03*
D39*
X137133Y79500D02*
D03*
X168500Y34500D02*
D03*
D40*
X27500Y15000D02*
D03*
X36000Y133000D02*
D03*
X189000Y130500D02*
D03*
D41*
X116000Y65500D02*
D03*
X146000Y34000D02*
D03*
X134500Y58000D02*
D03*
X120500Y72000D02*
D03*
X107087Y52000D02*
D03*
X107028Y59000D02*
D03*
X130500Y65000D02*
D03*
X163000Y65500D02*
D03*
Y61500D02*
D03*
Y57500D02*
D03*
X159000D02*
D03*
Y61500D02*
D03*
X155000Y57500D02*
D03*
Y61500D02*
D03*
X104500Y87000D02*
D03*
X138500Y28390D02*
D03*
X131000Y28500D02*
D03*
X269500Y56500D02*
D03*
X274500D02*
D03*
X279500D02*
D03*
X284500D02*
D03*
Y52500D02*
D03*
X279500D02*
D03*
X274500D02*
D03*
X269500D02*
D03*
X284500Y48500D02*
D03*
X279500D02*
D03*
X274500D02*
D03*
X269500D02*
D03*
X284500Y44500D02*
D03*
X279500D02*
D03*
X274500D02*
D03*
X269500D02*
D03*
X284500Y40500D02*
D03*
X279500D02*
D03*
X274500D02*
D03*
X269500D02*
D03*
X284500Y36500D02*
D03*
X279500D02*
D03*
X274500D02*
D03*
X269500D02*
D03*
X284500Y32500D02*
D03*
X279500D02*
D03*
X274500D02*
D03*
X269500D02*
D03*
X284500Y28500D02*
D03*
X279500D02*
D03*
X274500D02*
D03*
X269500D02*
D03*
X40500Y28000D02*
D03*
X45500D02*
D03*
X50500D02*
D03*
X55500D02*
D03*
X40500Y32000D02*
D03*
X45500D02*
D03*
X50500D02*
D03*
X55500D02*
D03*
X40500Y36000D02*
D03*
X45500D02*
D03*
X50500D02*
D03*
X55500D02*
D03*
X40500Y40000D02*
D03*
X45500D02*
D03*
X50500D02*
D03*
X55500D02*
D03*
X40500Y44000D02*
D03*
X45500D02*
D03*
X50500D02*
D03*
X55500D02*
D03*
X40500Y48000D02*
D03*
X45500D02*
D03*
X50500D02*
D03*
X55500D02*
D03*
X40500Y52000D02*
D03*
X45500D02*
D03*
X50500D02*
D03*
X55500D02*
D03*
Y56000D02*
D03*
X50500D02*
D03*
X45500D02*
D03*
X40500D02*
D03*
X107000Y45000D02*
D03*
X150500Y61500D02*
D03*
X151000Y57000D02*
D03*
X147000D02*
D03*
X145500Y61500D02*
D03*
X142000D02*
D03*
X138000D02*
D03*
X132500Y55000D02*
D03*
X130500Y58000D02*
D03*
X134500Y61500D02*
D03*
X130500D02*
D03*
X134500Y65000D02*
D03*
X159500Y114500D02*
D03*
X155500D02*
D03*
X151500D02*
D03*
X143500D02*
D03*
X155500Y110500D02*
D03*
X159500D02*
D03*
X151500D02*
D03*
X147500D02*
D03*
X143500D02*
D03*
X147500Y114500D02*
D03*
X141500Y126000D02*
D03*
Y130000D02*
D03*
Y134000D02*
D03*
X145500D02*
D03*
X124000Y28500D02*
D03*
X156500Y43500D02*
D03*
X145500Y126000D02*
D03*
Y130000D02*
D03*
X153500Y37500D02*
D03*
M02*
