G04*
G04 #@! TF.GenerationSoftware,Altium Limited,Altium Designer,23.0.1 (38)*
G04*
G04 Layer_Color=8421504*
%FSLAX25Y25*%
%MOIN*%
G70*
G04*
G04 #@! TF.SameCoordinates,AE5763C0-F2EE-4BCA-89C6-8F578BEF2D51*
G04*
G04*
G04 #@! TF.FilePolarity,Positive*
G04*
G01*
G75*
%ADD15R,0.01181X0.02559*%
%ADD16R,0.02559X0.01181*%
%ADD17R,0.16535X0.07480*%
%ADD18R,0.04921X0.09843*%
%ADD19R,0.03740X0.03347*%
%ADD20R,0.03937X0.03543*%
%ADD21R,0.48504X0.15059*%
%ADD22R,0.03543X0.03937*%
%ADD23R,0.02362X0.02520*%
%ADD24R,0.02953X0.02362*%
%ADD25R,0.02520X0.02362*%
%ADD26R,0.03347X0.03740*%
G36*
X152500Y66307D02*
X154961D01*
Y64732D01*
X138425D01*
Y67587D01*
X140492D01*
Y71524D01*
X142657D01*
Y69476D01*
X145413D01*
Y71524D01*
X147579D01*
Y69476D01*
X150335D01*
Y71524D01*
X152500D01*
Y66307D01*
D02*
G37*
G36*
X136358Y63551D02*
X154961D01*
Y61189D01*
X152500D01*
Y57752D01*
X154961D01*
Y55390D01*
X144350D01*
Y59890D01*
X136358D01*
Y53413D01*
X128976D01*
Y67587D01*
X136358D01*
Y63551D01*
D02*
G37*
G36*
X154961Y52634D02*
X152500D01*
Y49476D01*
X151319D01*
Y51642D01*
X150531D01*
Y49476D01*
X149350D01*
Y51642D01*
X148563D01*
Y49476D01*
X147382D01*
Y51642D01*
X146595D01*
Y49476D01*
X145413D01*
Y51642D01*
X144626D01*
Y49476D01*
X143445D01*
Y54209D01*
X154961D01*
Y52634D01*
D02*
G37*
G36*
X141673Y49476D02*
X140492D01*
Y55390D01*
X137146D01*
Y58126D01*
X141673D01*
Y49476D01*
D02*
G37*
D15*
X139114Y50756D02*
D03*
X137146D02*
D03*
X135177D02*
D03*
X133209D02*
D03*
X131240D02*
D03*
X129272D02*
D03*
Y70244D02*
D03*
X131240D02*
D03*
X133209D02*
D03*
X135177D02*
D03*
X137146D02*
D03*
X139114D02*
D03*
D16*
X126319Y52626D02*
D03*
Y54594D02*
D03*
Y56563D02*
D03*
Y58531D02*
D03*
Y60500D02*
D03*
Y62468D02*
D03*
Y64437D02*
D03*
Y66405D02*
D03*
Y68374D02*
D03*
D17*
X151500Y104914D02*
D03*
X123941D02*
D03*
D18*
X150307Y129500D02*
D03*
X163693D02*
D03*
D19*
X124000Y31941D02*
D03*
Y37059D02*
D03*
X131124Y37059D02*
D03*
Y31941D02*
D03*
D20*
X138500Y31842D02*
D03*
Y37157D02*
D03*
D21*
X199000Y112459D02*
D03*
Y48541D02*
D03*
D22*
X146843Y44076D02*
D03*
X152157D02*
D03*
D23*
X149142Y37760D02*
D03*
X145678D02*
D03*
X127732Y78000D02*
D03*
X124268D02*
D03*
D24*
X103764Y65000D02*
D03*
X99236D02*
D03*
X128764Y83560D02*
D03*
X124236D02*
D03*
D25*
X120500Y69000D02*
D03*
Y65535D02*
D03*
D26*
X115559Y45000D02*
D03*
X110441D02*
D03*
X115500Y59000D02*
D03*
X110382D02*
D03*
X115559Y52000D02*
D03*
X110441D02*
D03*
M02*
