G04*
G04 #@! TF.GenerationSoftware,Altium Limited,Altium Designer,23.0.1 (38)*
G04*
G04 Layer_Physical_Order=1*
G04 Layer_Color=255*
%FSLAX25Y25*%
%MOIN*%
G70*
G04*
G04 #@! TF.SameCoordinates,AE5763C0-F2EE-4BCA-89C6-8F578BEF2D51*
G04*
G04*
G04 #@! TF.FilePolarity,Positive*
G04*
G01*
G75*
%ADD14C,0.01000*%
%ADD15R,0.01181X0.02559*%
%ADD16R,0.02559X0.01181*%
%ADD17R,0.16535X0.07480*%
%ADD18R,0.04921X0.09843*%
%ADD19R,0.03740X0.03347*%
%ADD20R,0.03937X0.03543*%
%ADD21R,0.48504X0.15059*%
%ADD22R,0.03543X0.03937*%
%ADD23R,0.02362X0.02520*%
%ADD24R,0.02953X0.02362*%
%ADD25R,0.02520X0.02362*%
%ADD26R,0.03347X0.03740*%
%ADD35C,0.06181*%
%ADD36R,0.06181X0.06181*%
%ADD42R,0.01181X0.01181*%
%ADD43R,0.00984X0.02559*%
%ADD44R,0.01181X0.02362*%
%ADD45O,0.17717X0.12795*%
%ADD46C,0.06000*%
%ADD47O,0.07874X0.06299*%
%ADD48O,0.06299X0.07874*%
%ADD49C,0.02362*%
G36*
X136500Y141146D02*
X136465Y97249D01*
X164799D01*
X164848Y74200D01*
X154806Y64500D01*
X148272Y64500D01*
X148170Y64732D01*
X144806D01*
X144720Y64500D01*
X138425Y64500D01*
Y64732D01*
Y67513D01*
Y67587D01*
X140492D01*
Y71524D01*
X140551D01*
Y72878D01*
X144000Y76450D01*
X144075Y82568D01*
X140551Y85500D01*
X140016D01*
X139698Y85713D01*
X139196Y85813D01*
X129999D01*
X129497Y85713D01*
X129221Y85528D01*
X121972D01*
Y84000D01*
X2983D01*
X2006Y141143D01*
X2357Y141500D01*
X6796D01*
X6942Y141022D01*
X6290Y140586D01*
X5083Y139380D01*
X4135Y137961D01*
X3483Y136385D01*
X3150Y134711D01*
Y133005D01*
X3483Y131332D01*
X4135Y129755D01*
X5083Y128337D01*
X6290Y127130D01*
X7708Y126183D01*
X9285Y125530D01*
X10958Y125197D01*
X12664D01*
X14337Y125530D01*
X15914Y126183D01*
X17332Y127130D01*
X18539Y128337D01*
X19487Y129755D01*
X20140Y131332D01*
X20472Y133005D01*
Y134711D01*
X20140Y136385D01*
X19487Y137961D01*
X18539Y139380D01*
X17332Y140586D01*
X16681Y141022D01*
X16826Y141500D01*
X136146D01*
X136500Y141146D01*
D02*
G37*
G36*
X157500Y120500D02*
X158000Y120000D01*
X163500D01*
Y98052D01*
X137500D01*
Y142000D01*
X157500D01*
Y120500D01*
D02*
G37*
G36*
X306574Y141903D02*
X306463Y141228D01*
X305502Y140586D01*
X304296Y139380D01*
X303348Y137961D01*
X302695Y136385D01*
X302362Y134711D01*
Y133005D01*
X302695Y131332D01*
X303348Y129755D01*
X304296Y128337D01*
X305502Y127130D01*
X306921Y126183D01*
X308497Y125530D01*
X310171Y125197D01*
X311877D01*
X313550Y125530D01*
X315126Y126183D01*
X316545Y127130D01*
X317751Y128337D01*
X318500Y129457D01*
X319000Y129306D01*
Y89000D01*
X165620D01*
X165602Y97251D01*
X165571Y97404D01*
X165541Y97556D01*
X165540Y97557D01*
X165540Y97558D01*
X165454Y97686D01*
X165367Y97817D01*
X165366Y97817D01*
X165366Y97818D01*
X165236Y97904D01*
X165106Y97991D01*
X165105Y97991D01*
X165105Y97991D01*
X165000Y98012D01*
Y121000D01*
X159000D01*
X158509Y141642D01*
X158858Y142000D01*
X306500D01*
X306574Y141903D01*
D02*
G37*
G36*
X319500Y14495D02*
X319303Y14456D01*
X318699Y15914D01*
X317751Y17332D01*
X316545Y18539D01*
X315126Y19487D01*
X313550Y20140D01*
X311877Y20472D01*
X310171D01*
X308497Y20140D01*
X306921Y19487D01*
X305502Y18539D01*
X304296Y17332D01*
X303348Y15914D01*
X302695Y14337D01*
X302362Y12664D01*
Y10958D01*
X302695Y9285D01*
X303348Y7708D01*
X304296Y6290D01*
X305502Y5083D01*
X306921Y4135D01*
X308497Y3483D01*
X310171Y3150D01*
X311877D01*
X313550Y3483D01*
X315126Y4135D01*
X316545Y5083D01*
X317751Y6290D01*
X318699Y7708D01*
X319303Y9166D01*
X319500Y9127D01*
Y1500D01*
X2140D01*
X2001Y1640D01*
X2500Y64500D01*
X86000D01*
Y35500D01*
X99500Y22000D01*
X139397D01*
X148030Y31468D01*
Y35500D01*
X148642D01*
Y37760D01*
X149642D01*
Y35500D01*
X151323D01*
Y36551D01*
X151517Y36589D01*
X151651Y36265D01*
X152264Y35651D01*
X153000Y35346D01*
Y37500D01*
Y39654D01*
X152264Y39349D01*
X151651Y38735D01*
X151517Y38411D01*
X151323Y38449D01*
Y40020D01*
X149337D01*
X149262Y40202D01*
X150168Y41107D01*
X151657D01*
Y44076D01*
X152657D01*
Y41107D01*
X154929D01*
Y41729D01*
X155111Y41805D01*
X155264Y41651D01*
X156000Y41346D01*
Y43500D01*
X157000D01*
Y41346D01*
X157736Y41651D01*
X158349Y42265D01*
X158562Y42780D01*
X158756Y42814D01*
X163000Y38205D01*
Y30000D01*
X173114D01*
X176166Y35504D01*
X231500Y36000D01*
Y57000D01*
X231000Y57500D01*
X173973D01*
X170489Y55011D01*
X144000D01*
Y59500D01*
X136500D01*
Y58577D01*
X136404Y58433D01*
X136358Y58204D01*
Y55312D01*
X136404Y55082D01*
X136500Y54939D01*
Y53500D01*
X136358D01*
Y53413D01*
X128976D01*
Y67587D01*
X136358D01*
Y67500D01*
X136500D01*
Y63551D01*
X154961D01*
Y63500D01*
X155011D01*
X157422Y65911D01*
X165406Y73623D01*
X165411Y73629D01*
X165417Y73634D01*
X165500Y73758D01*
X165585Y73880D01*
X165586Y73888D01*
X165591Y73895D01*
X165620Y74041D01*
X165638Y74127D01*
X166500Y74989D01*
Y86500D01*
X319500D01*
Y14495D01*
D02*
G37*
G36*
X141673Y49476D02*
X140492D01*
Y55390D01*
X137146D01*
Y58126D01*
X141673D01*
Y49476D01*
D02*
G37*
G36*
X223500Y56000D02*
Y40500D01*
X175500D01*
X168500Y47500D01*
X158356D01*
X156739Y49117D01*
X156313Y49402D01*
X155811Y49502D01*
X152500D01*
Y49476D01*
X151319D01*
Y49502D01*
X150531D01*
Y49476D01*
X149350D01*
Y49502D01*
X148563D01*
Y49476D01*
X147382D01*
Y49502D01*
X146595D01*
Y49476D01*
X145413D01*
Y49502D01*
X144626D01*
Y49476D01*
X143445D01*
Y49512D01*
X143418Y49538D01*
Y54209D01*
X172000D01*
X174659Y56011D01*
X223500Y56000D01*
D02*
G37*
%LPC*%
G36*
X154000Y39654D02*
Y38000D01*
X155654D01*
X155349Y38735D01*
X154736Y39349D01*
X154000Y39654D01*
D02*
G37*
G36*
X155654Y37000D02*
X154000D01*
Y35346D01*
X154736Y35651D01*
X155349Y36265D01*
X155654Y37000D01*
D02*
G37*
G36*
X28000Y19907D02*
Y15500D01*
X31685D01*
Y15787D01*
X31543Y16871D01*
X31125Y17880D01*
X30459Y18747D01*
X29593Y19412D01*
X28583Y19830D01*
X28000Y19907D01*
D02*
G37*
G36*
X27000D02*
X26417Y19830D01*
X25407Y19412D01*
X24541Y18747D01*
X23875Y17880D01*
X23457Y16871D01*
X23315Y15787D01*
Y15500D01*
X27000D01*
Y19907D01*
D02*
G37*
G36*
X31685Y14500D02*
X28000D01*
Y10093D01*
X28583Y10170D01*
X29593Y10588D01*
X30459Y11253D01*
X31125Y12120D01*
X31543Y13129D01*
X31685Y14213D01*
Y14500D01*
D02*
G37*
G36*
X27000D02*
X23315D01*
Y14213D01*
X23457Y13129D01*
X23875Y12120D01*
X24541Y11253D01*
X25407Y10588D01*
X26417Y10170D01*
X27000Y10093D01*
Y14500D01*
D02*
G37*
G36*
X12664Y20472D02*
X10958D01*
X9285Y20140D01*
X7708Y19487D01*
X6290Y18539D01*
X5083Y17332D01*
X4135Y15914D01*
X3483Y14337D01*
X3150Y12664D01*
Y10958D01*
X3483Y9285D01*
X4135Y7708D01*
X5083Y6290D01*
X6290Y5083D01*
X7708Y4135D01*
X9285Y3483D01*
X10958Y3150D01*
X12664D01*
X14337Y3483D01*
X15914Y4135D01*
X17332Y5083D01*
X18539Y6290D01*
X19487Y7708D01*
X20140Y9285D01*
X20472Y10958D01*
Y12664D01*
X20140Y14337D01*
X19487Y15914D01*
X18539Y17332D01*
X17332Y18539D01*
X15914Y19487D01*
X14337Y20140D01*
X12664Y20472D01*
D02*
G37*
G36*
X149350Y51642D02*
X148563D01*
Y51335D01*
X149350D01*
Y51642D01*
D02*
G37*
G36*
X147382D02*
X146595D01*
Y51335D01*
X147382D01*
Y51642D01*
D02*
G37*
%LPD*%
D14*
X116000Y65500D02*
X116018Y65518D01*
X120482D02*
X120500Y65535D01*
X116018Y65518D02*
X120482D01*
X145678Y37760D02*
X145839Y37599D01*
Y34161D02*
Y37599D01*
Y34161D02*
X146000Y34000D01*
X139008Y49140D02*
Y50665D01*
Y49140D02*
X143179Y44969D01*
X138917Y50756D02*
X139008Y50665D01*
X135177Y39783D02*
X135577Y39384D01*
X131000Y39990D02*
X133209Y42198D01*
Y50854D01*
X137146Y45883D02*
X145269Y37760D01*
X135177Y39783D02*
Y50854D01*
X135577Y39384D02*
X136077D01*
X137146Y45883D02*
Y50854D01*
X136077Y39384D02*
X138303Y37157D01*
X116732Y53370D02*
X116929D01*
X122091Y58531D01*
X126327Y54504D02*
X126417Y54594D01*
X124866Y54504D02*
X126327D01*
X116939Y60370D02*
X117069Y60500D01*
X115559Y52197D02*
X116732Y53370D01*
X115559Y45197D02*
X124866Y54504D01*
X122091Y58531D02*
X126417D01*
X117069Y60500D02*
X126417D01*
X116673Y60370D02*
X116939D01*
X133209Y61895D02*
Y66021D01*
X127691Y66500D02*
X130500D01*
X125560Y66475D02*
X126487D01*
X149445Y59539D02*
X150016Y58969D01*
X133209Y66021D02*
Y70244D01*
X142000Y61500D02*
X145500D01*
X138000D02*
X142000D01*
X134500D02*
X138000D01*
X133604D02*
X134500D01*
X126487Y66475D02*
X126508Y66496D01*
X126417Y66405D02*
X126487Y66475D01*
X125539Y66496D02*
X125560Y66475D01*
X125539Y66496D02*
Y66538D01*
X127687Y66496D02*
X127691Y66500D01*
X126508Y66496D02*
X127687D01*
X130500Y66500D02*
X130980Y66021D01*
X133209D01*
Y61895D02*
X133604Y61500D01*
X148356Y59539D02*
X148425Y59470D01*
X145500Y61500D02*
X147461Y59539D01*
X148356D02*
X149445D01*
X147461D02*
X148356D01*
X126354Y56500D02*
X130500D01*
X132250Y54750D01*
X134229Y65000D02*
X134500D01*
X120500Y69000D02*
Y72000D01*
X107087Y52000D02*
X110441D01*
X107028Y59000D02*
X110382D01*
X138500Y28390D02*
Y31842D01*
X103000Y24500D02*
X139000D01*
X131000Y28500D02*
Y31817D01*
X94804Y32696D02*
X103000Y24500D01*
X139000D02*
X142500Y28000D01*
Y33354D01*
X141173Y34681D02*
X142500Y33354D01*
X104059Y65000D02*
X104740Y64319D01*
Y64024D02*
X106295Y62468D01*
X126417D01*
X103764Y65000D02*
X104059D01*
X104740Y64024D02*
Y64319D01*
X94804Y60568D02*
X99236Y65000D01*
X94804Y32696D02*
Y60568D01*
X141173Y34681D02*
Y34681D01*
X138697Y37157D02*
X141173Y34681D01*
X138303Y37157D02*
X138697D01*
X129999Y84500D02*
X139196D01*
X129059Y83560D02*
X129999Y84500D01*
X128764Y83560D02*
X129059D01*
X139196Y84500D02*
X142358Y81338D01*
X139114Y70146D02*
Y74454D01*
X139545Y74849D02*
X142358Y77662D01*
X139114Y74454D02*
X139510Y74849D01*
X139545D01*
X124236Y83560D02*
X124268Y83529D01*
Y78000D02*
Y83529D01*
X129523Y77632D02*
X135177Y71978D01*
Y70146D02*
Y71978D01*
X127732Y78000D02*
X128100Y77632D01*
X129523D01*
X137146Y70146D02*
Y73420D01*
X137055Y70236D02*
X137146Y70146D01*
X142358Y77662D02*
Y81338D01*
X136000Y74565D02*
Y78367D01*
X137133Y79500D01*
X136000Y74565D02*
X137146Y73420D01*
X166699Y36301D02*
Y37301D01*
X155811Y48189D02*
X166699Y37301D01*
X142912Y48189D02*
X155811D01*
X166699Y36301D02*
X168500Y34500D01*
X142157Y48943D02*
X142912Y48189D01*
X142157Y48943D02*
Y49118D01*
X141200Y50075D02*
X142157Y49118D01*
X141091Y50075D02*
X141200D01*
X141083Y50083D02*
Y50854D01*
Y50083D02*
X141091Y50075D01*
X110479Y34000D02*
X115863D01*
X131150Y50764D02*
X131240Y50854D01*
X131150Y49287D02*
Y50764D01*
X115863Y34000D02*
X131150Y49287D01*
X124000Y28500D02*
Y31941D01*
X100500Y34000D02*
X107500Y41000D01*
X100479Y34000D02*
X100500D01*
X129272Y50386D02*
Y50854D01*
X119886Y41000D02*
X129272Y50386D01*
X107500Y41000D02*
X119886D01*
X124000Y37059D02*
X124021D01*
X124021Y37059D02*
X131124D01*
X124021Y37059D02*
X124021Y37059D01*
X115559Y52000D02*
Y52197D01*
X115500Y59000D02*
Y59197D01*
X116673Y60370D01*
X143179Y44969D02*
X145950D01*
X146843Y44076D01*
X145269Y37760D02*
X145678D01*
X107000Y45000D02*
X110441D01*
X126327Y56472D02*
X126354Y56500D01*
X131000Y31817D02*
X131124Y31941D01*
X131000Y37183D02*
Y39990D01*
Y37183D02*
X131124Y37059D01*
X120500Y65535D02*
X120579D01*
X121677Y64437D01*
X126417D01*
X115559Y45000D02*
Y45197D01*
D15*
X139114Y50756D02*
D03*
X137146D02*
D03*
X135177D02*
D03*
X133209D02*
D03*
X131240D02*
D03*
X129272D02*
D03*
Y70244D02*
D03*
X131240D02*
D03*
X133209D02*
D03*
X135177D02*
D03*
X137146D02*
D03*
X139114D02*
D03*
D16*
X126319Y52626D02*
D03*
Y54594D02*
D03*
Y56563D02*
D03*
Y58531D02*
D03*
Y60500D02*
D03*
Y62468D02*
D03*
Y64437D02*
D03*
Y66405D02*
D03*
Y68374D02*
D03*
D17*
X151500Y104914D02*
D03*
X123941D02*
D03*
D18*
X150307Y129500D02*
D03*
X163693D02*
D03*
D19*
X124000Y31941D02*
D03*
Y37059D02*
D03*
X131124Y37059D02*
D03*
Y31941D02*
D03*
D20*
X138500Y31842D02*
D03*
Y37157D02*
D03*
D21*
X199000Y112459D02*
D03*
Y48541D02*
D03*
D22*
X146843Y44076D02*
D03*
X152157D02*
D03*
D23*
X149142Y37760D02*
D03*
X145678D02*
D03*
X127732Y78000D02*
D03*
X124268D02*
D03*
D24*
X103764Y65000D02*
D03*
X99236D02*
D03*
X128764Y83560D02*
D03*
X124236D02*
D03*
D25*
X120500Y69000D02*
D03*
Y65535D02*
D03*
D26*
X115559Y45000D02*
D03*
X110441D02*
D03*
X115500Y59000D02*
D03*
X110382D02*
D03*
X115559Y52000D02*
D03*
X110441D02*
D03*
D35*
X100479Y34000D02*
D03*
D36*
X110479D02*
D03*
D42*
X148425Y59470D02*
D03*
X147972Y52925D02*
D03*
D43*
X141083Y50854D02*
D03*
D44*
X146496Y67104D02*
D03*
D45*
X70653Y97531D02*
D03*
Y113279D02*
D03*
X27347Y51468D02*
D03*
X70653Y35721D02*
D03*
X27347Y97531D02*
D03*
Y35721D02*
D03*
Y113279D02*
D03*
X70653Y51468D02*
D03*
X299654Y98032D02*
D03*
Y113779D02*
D03*
X256347Y51968D02*
D03*
X299654Y36220D02*
D03*
X256347Y98032D02*
D03*
Y36220D02*
D03*
Y113779D02*
D03*
X299654Y51968D02*
D03*
D46*
X11811Y11811D02*
D03*
Y133858D02*
D03*
X311024D02*
D03*
Y11811D02*
D03*
D47*
X137133Y79500D02*
D03*
X168500Y34500D02*
D03*
D48*
X27500Y15000D02*
D03*
X36000Y133000D02*
D03*
X189000Y130500D02*
D03*
D49*
X116000Y65500D02*
D03*
X146000Y34000D02*
D03*
X134500Y58000D02*
D03*
X120500Y72000D02*
D03*
X107087Y52000D02*
D03*
X107028Y59000D02*
D03*
X130500Y65000D02*
D03*
X163000Y65500D02*
D03*
Y61500D02*
D03*
Y57500D02*
D03*
X159000D02*
D03*
Y61500D02*
D03*
X155000Y57500D02*
D03*
Y61500D02*
D03*
X104500Y87000D02*
D03*
X138500Y28390D02*
D03*
X131000Y28500D02*
D03*
X269500Y56500D02*
D03*
X274500D02*
D03*
X279500D02*
D03*
X284500D02*
D03*
Y52500D02*
D03*
X279500D02*
D03*
X274500D02*
D03*
X269500D02*
D03*
X284500Y48500D02*
D03*
X279500D02*
D03*
X274500D02*
D03*
X269500D02*
D03*
X284500Y44500D02*
D03*
X279500D02*
D03*
X274500D02*
D03*
X269500D02*
D03*
X284500Y40500D02*
D03*
X279500D02*
D03*
X274500D02*
D03*
X269500D02*
D03*
X284500Y36500D02*
D03*
X279500D02*
D03*
X274500D02*
D03*
X269500D02*
D03*
X284500Y32500D02*
D03*
X279500D02*
D03*
X274500D02*
D03*
X269500D02*
D03*
X284500Y28500D02*
D03*
X279500D02*
D03*
X274500D02*
D03*
X269500D02*
D03*
X40500Y28000D02*
D03*
X45500D02*
D03*
X50500D02*
D03*
X55500D02*
D03*
X40500Y32000D02*
D03*
X45500D02*
D03*
X50500D02*
D03*
X55500D02*
D03*
X40500Y36000D02*
D03*
X45500D02*
D03*
X50500D02*
D03*
X55500D02*
D03*
X40500Y40000D02*
D03*
X45500D02*
D03*
X50500D02*
D03*
X55500D02*
D03*
X40500Y44000D02*
D03*
X45500D02*
D03*
X50500D02*
D03*
X55500D02*
D03*
X40500Y48000D02*
D03*
X45500D02*
D03*
X50500D02*
D03*
X55500D02*
D03*
X40500Y52000D02*
D03*
X45500D02*
D03*
X50500D02*
D03*
X55500D02*
D03*
Y56000D02*
D03*
X50500D02*
D03*
X45500D02*
D03*
X40500D02*
D03*
X107000Y45000D02*
D03*
X150500Y61500D02*
D03*
X151000Y57000D02*
D03*
X147000D02*
D03*
X145500Y61500D02*
D03*
X142000D02*
D03*
X138000D02*
D03*
X132500Y55000D02*
D03*
X130500Y58000D02*
D03*
X134500Y61500D02*
D03*
X130500D02*
D03*
X134500Y65000D02*
D03*
X159500Y114500D02*
D03*
X155500D02*
D03*
X151500D02*
D03*
X143500D02*
D03*
X155500Y110500D02*
D03*
X159500D02*
D03*
X151500D02*
D03*
X147500D02*
D03*
X143500D02*
D03*
X147500Y114500D02*
D03*
X141500Y126000D02*
D03*
Y130000D02*
D03*
Y134000D02*
D03*
X145500D02*
D03*
X124000Y28500D02*
D03*
X156500Y43500D02*
D03*
X145500Y126000D02*
D03*
Y130000D02*
D03*
X153500Y37500D02*
D03*
M02*
