G04*
G04 #@! TF.GenerationSoftware,Altium Limited,Altium Designer,23.0.1 (38)*
G04*
G04 Layer_Physical_Order=3*
G04 Layer_Color=16440176*
%FSLAX25Y25*%
%MOIN*%
G70*
G04*
G04 #@! TF.SameCoordinates,AE5763C0-F2EE-4BCA-89C6-8F578BEF2D51*
G04*
G04*
G04 #@! TF.FilePolarity,Positive*
G04*
G01*
G75*
%ADD35C,0.06181*%
%ADD36R,0.06181X0.06181*%
%ADD45O,0.17717X0.12795*%
%ADD46C,0.06000*%
%ADD47O,0.07874X0.06299*%
%ADD48O,0.06299X0.07874*%
%ADD49C,0.02362*%
G36*
X306574Y141903D02*
X306463Y141228D01*
X305502Y140586D01*
X304296Y139380D01*
X303348Y137961D01*
X302695Y136385D01*
X302362Y134711D01*
Y133005D01*
X302695Y131332D01*
X303348Y129755D01*
X304296Y128337D01*
X305502Y127130D01*
X306921Y126183D01*
X308497Y125530D01*
X310171Y125197D01*
X311877D01*
X313550Y125530D01*
X315126Y126183D01*
X316545Y127130D01*
X317751Y128337D01*
X318699Y129755D01*
X319000Y130482D01*
X319500Y130382D01*
Y15287D01*
X319000Y15188D01*
X318699Y15914D01*
X317751Y17332D01*
X316545Y18539D01*
X315126Y19487D01*
X313550Y20140D01*
X311877Y20472D01*
X310171D01*
X308497Y20140D01*
X306921Y19487D01*
X305502Y18539D01*
X304296Y17332D01*
X303348Y15914D01*
X302695Y14337D01*
X302362Y12664D01*
Y10958D01*
X302695Y9285D01*
X303348Y7708D01*
X304296Y6290D01*
X305502Y5083D01*
X306921Y4135D01*
X308497Y3483D01*
X310171Y3150D01*
X311877D01*
X313550Y3483D01*
X315126Y4135D01*
X316545Y5083D01*
X317751Y6290D01*
X318699Y7708D01*
X319000Y8434D01*
X319500Y8335D01*
Y2000D01*
X319000Y1500D01*
X2000D01*
X1501Y141646D01*
X1854Y142000D01*
X7287D01*
X7361Y141903D01*
X7250Y141228D01*
X6290Y140586D01*
X5083Y139380D01*
X4135Y137961D01*
X3483Y136385D01*
X3150Y134711D01*
Y133005D01*
X3483Y131332D01*
X4135Y129755D01*
X5083Y128337D01*
X6290Y127130D01*
X7708Y126183D01*
X9285Y125530D01*
X10958Y125197D01*
X12664D01*
X14337Y125530D01*
X15914Y126183D01*
X17332Y127130D01*
X18539Y128337D01*
X19487Y129755D01*
X20140Y131332D01*
X20472Y133005D01*
Y134711D01*
X20140Y136385D01*
X19487Y137961D01*
X18539Y139380D01*
X17332Y140586D01*
X16372Y141228D01*
X16261Y141903D01*
X16335Y142000D01*
X306500D01*
X306574Y141903D01*
D02*
G37*
%LPC*%
G36*
X36000Y137758D02*
X34972Y137623D01*
X34014Y137226D01*
X33192Y136595D01*
X32561Y135773D01*
X32164Y134815D01*
X32029Y133787D01*
Y132213D01*
X32164Y131185D01*
X32561Y130227D01*
X33192Y129405D01*
X34014Y128774D01*
X34972Y128377D01*
X36000Y128242D01*
X37028Y128377D01*
X37986Y128774D01*
X38808Y129405D01*
X39439Y130227D01*
X39836Y131185D01*
X39971Y132213D01*
Y133787D01*
X39836Y134815D01*
X39439Y135773D01*
X38808Y136595D01*
X37986Y137226D01*
X37028Y137623D01*
X36000Y137758D01*
D02*
G37*
G36*
X189000Y135258D02*
X187972Y135123D01*
X187014Y134726D01*
X186192Y134095D01*
X185561Y133273D01*
X185164Y132315D01*
X185029Y131287D01*
Y129713D01*
X185164Y128685D01*
X185561Y127727D01*
X186192Y126905D01*
X187014Y126274D01*
X187972Y125877D01*
X189000Y125742D01*
X190028Y125877D01*
X190986Y126274D01*
X191808Y126905D01*
X192439Y127727D01*
X192836Y128685D01*
X192971Y129713D01*
Y131287D01*
X192836Y132315D01*
X192439Y133273D01*
X191808Y134095D01*
X190986Y134726D01*
X190028Y135123D01*
X189000Y135258D01*
D02*
G37*
G36*
X302114Y120999D02*
X297193D01*
X295784Y120861D01*
X294430Y120450D01*
X293182Y119783D01*
X292088Y118885D01*
X291190Y117791D01*
X290523Y116542D01*
X290112Y115188D01*
X289973Y113779D01*
X290112Y112371D01*
X290523Y111017D01*
X291190Y109768D01*
X292088Y108674D01*
X293182Y107776D01*
X294430Y107109D01*
X295784Y106699D01*
X297193Y106560D01*
X302114D01*
X303523Y106699D01*
X304877Y107109D01*
X306125Y107776D01*
X307219Y108674D01*
X308117Y109768D01*
X308784Y111017D01*
X309195Y112371D01*
X309334Y113779D01*
X309195Y115188D01*
X308784Y116542D01*
X308117Y117791D01*
X307219Y118885D01*
X306125Y119783D01*
X304877Y120450D01*
X303523Y120861D01*
X302114Y120999D01*
D02*
G37*
G36*
X258807D02*
X253886D01*
X252477Y120861D01*
X251123Y120450D01*
X249875Y119783D01*
X248781Y118885D01*
X247883Y117791D01*
X247216Y116542D01*
X246805Y115188D01*
X246666Y113779D01*
X246805Y112371D01*
X247216Y111017D01*
X247883Y109768D01*
X248781Y108674D01*
X249875Y107776D01*
X251123Y107109D01*
X252477Y106699D01*
X253886Y106560D01*
X258807D01*
X260216Y106699D01*
X261570Y107109D01*
X262818Y107776D01*
X263912Y108674D01*
X264810Y109768D01*
X265477Y111017D01*
X265888Y112371D01*
X266027Y113779D01*
X265888Y115188D01*
X265477Y116542D01*
X264810Y117791D01*
X263912Y118885D01*
X262818Y119783D01*
X261570Y120450D01*
X260216Y120861D01*
X258807Y120999D01*
D02*
G37*
G36*
X73114Y120499D02*
X68193D01*
X66784Y120361D01*
X65430Y119950D01*
X64182Y119283D01*
X63088Y118385D01*
X62190Y117291D01*
X61523Y116042D01*
X61112Y114688D01*
X60973Y113279D01*
X61112Y111871D01*
X61523Y110517D01*
X62190Y109268D01*
X63088Y108174D01*
X64182Y107276D01*
X65430Y106609D01*
X66784Y106199D01*
X68193Y106060D01*
X73114D01*
X74523Y106199D01*
X75877Y106609D01*
X77125Y107276D01*
X78219Y108174D01*
X79117Y109268D01*
X79784Y110517D01*
X80195Y111871D01*
X80334Y113279D01*
X80195Y114688D01*
X79784Y116042D01*
X79117Y117291D01*
X78219Y118385D01*
X77125Y119283D01*
X75877Y119950D01*
X74523Y120361D01*
X73114Y120499D01*
D02*
G37*
G36*
X29807D02*
X24886D01*
X23477Y120361D01*
X22123Y119950D01*
X20875Y119283D01*
X19781Y118385D01*
X18883Y117291D01*
X18216Y116042D01*
X17805Y114688D01*
X17666Y113279D01*
X17805Y111871D01*
X18216Y110517D01*
X18883Y109268D01*
X19781Y108174D01*
X20875Y107276D01*
X22123Y106609D01*
X23477Y106199D01*
X24886Y106060D01*
X29807D01*
X31216Y106199D01*
X32570Y106609D01*
X33818Y107276D01*
X34912Y108174D01*
X35810Y109268D01*
X36477Y110517D01*
X36888Y111871D01*
X37027Y113279D01*
X36888Y114688D01*
X36477Y116042D01*
X35810Y117291D01*
X34912Y118385D01*
X33818Y119283D01*
X32570Y119950D01*
X31216Y120361D01*
X29807Y120499D01*
D02*
G37*
G36*
X302114Y105251D02*
X297193D01*
X295784Y105113D01*
X294430Y104702D01*
X293182Y104034D01*
X292088Y103137D01*
X291190Y102043D01*
X290523Y100794D01*
X290112Y99440D01*
X289973Y98032D01*
X290112Y96623D01*
X290523Y95269D01*
X291190Y94020D01*
X292088Y92926D01*
X293182Y92028D01*
X294430Y91361D01*
X295784Y90950D01*
X297193Y90812D01*
X302114D01*
X303523Y90950D01*
X304877Y91361D01*
X306125Y92028D01*
X307219Y92926D01*
X308117Y94020D01*
X308784Y95269D01*
X309195Y96623D01*
X309334Y98032D01*
X309195Y99440D01*
X308784Y100794D01*
X308117Y102043D01*
X307219Y103137D01*
X306125Y104034D01*
X304877Y104702D01*
X303523Y105113D01*
X302114Y105251D01*
D02*
G37*
G36*
X258807D02*
X253886D01*
X252477Y105113D01*
X251123Y104702D01*
X249875Y104034D01*
X248781Y103137D01*
X247883Y102043D01*
X247216Y100794D01*
X246805Y99440D01*
X246666Y98032D01*
X246805Y96623D01*
X247216Y95269D01*
X247883Y94020D01*
X248781Y92926D01*
X249875Y92028D01*
X251123Y91361D01*
X252477Y90950D01*
X253886Y90812D01*
X258807D01*
X260216Y90950D01*
X261570Y91361D01*
X262818Y92028D01*
X263912Y92926D01*
X264810Y94020D01*
X265477Y95269D01*
X265888Y96623D01*
X266027Y98032D01*
X265888Y99440D01*
X265477Y100794D01*
X264810Y102043D01*
X263912Y103137D01*
X262818Y104034D01*
X261570Y104702D01*
X260216Y105113D01*
X258807Y105251D01*
D02*
G37*
G36*
X73114Y104751D02*
X68193D01*
X66784Y104613D01*
X65430Y104202D01*
X64182Y103534D01*
X63088Y102637D01*
X62190Y101543D01*
X61523Y100294D01*
X61112Y98940D01*
X60973Y97531D01*
X61112Y96123D01*
X61523Y94769D01*
X62190Y93520D01*
X63088Y92426D01*
X64182Y91528D01*
X65430Y90861D01*
X66784Y90450D01*
X68193Y90312D01*
X73114D01*
X74523Y90450D01*
X75877Y90861D01*
X77125Y91528D01*
X78219Y92426D01*
X79117Y93520D01*
X79784Y94769D01*
X80195Y96123D01*
X80334Y97531D01*
X80195Y98940D01*
X79784Y100294D01*
X79117Y101543D01*
X78219Y102637D01*
X77125Y103534D01*
X75877Y104202D01*
X74523Y104613D01*
X73114Y104751D01*
D02*
G37*
G36*
X29807D02*
X24886D01*
X23477Y104613D01*
X22123Y104202D01*
X20875Y103534D01*
X19781Y102637D01*
X18883Y101543D01*
X18216Y100294D01*
X17805Y98940D01*
X17666Y97531D01*
X17805Y96123D01*
X18216Y94769D01*
X18883Y93520D01*
X19781Y92426D01*
X20875Y91528D01*
X22123Y90861D01*
X23477Y90450D01*
X24886Y90312D01*
X29807D01*
X31216Y90450D01*
X32570Y90861D01*
X33818Y91528D01*
X34912Y92426D01*
X35810Y93520D01*
X36477Y94769D01*
X36888Y96123D01*
X37027Y97531D01*
X36888Y98940D01*
X36477Y100294D01*
X35810Y101543D01*
X34912Y102637D01*
X33818Y103534D01*
X32570Y104202D01*
X31216Y104613D01*
X29807Y104751D01*
D02*
G37*
G36*
X104892Y88968D02*
X104108D01*
X103385Y88669D01*
X102831Y88115D01*
X102532Y87392D01*
Y86608D01*
X102831Y85885D01*
X103385Y85331D01*
X104108Y85031D01*
X104892D01*
X105615Y85331D01*
X106169Y85885D01*
X106468Y86608D01*
Y87392D01*
X106169Y88115D01*
X105615Y88669D01*
X104892Y88968D01*
D02*
G37*
G36*
X137921Y83471D02*
X136346D01*
X135318Y83336D01*
X134360Y82939D01*
X133538Y82308D01*
X132907Y81485D01*
X132510Y80528D01*
X132375Y79500D01*
X132510Y78472D01*
X132907Y77514D01*
X133538Y76692D01*
X134360Y76061D01*
X135318Y75664D01*
X136346Y75529D01*
X137921D01*
X138949Y75664D01*
X139906Y76061D01*
X140729Y76692D01*
X141360Y77514D01*
X141756Y78472D01*
X141892Y79500D01*
X141756Y80528D01*
X141360Y81485D01*
X140729Y82308D01*
X139906Y82939D01*
X138949Y83336D01*
X137921Y83471D01*
D02*
G37*
G36*
X121000Y74154D02*
Y72500D01*
X122654D01*
X122349Y73235D01*
X121736Y73849D01*
X121000Y74154D01*
D02*
G37*
G36*
X120000D02*
X119264Y73849D01*
X118651Y73235D01*
X118346Y72500D01*
X120000D01*
Y74154D01*
D02*
G37*
G36*
X122654Y71500D02*
X121000D01*
Y69846D01*
X121736Y70151D01*
X122349Y70764D01*
X122654Y71500D01*
D02*
G37*
G36*
X120000D02*
X118346D01*
X118651Y70764D01*
X119264Y70151D01*
X120000Y69846D01*
Y71500D01*
D02*
G37*
G36*
X116392Y67469D02*
X115608D01*
X114885Y67169D01*
X114331Y66615D01*
X114032Y65892D01*
Y65108D01*
X114331Y64385D01*
X114885Y63831D01*
X115608Y63532D01*
X116392D01*
X117115Y63831D01*
X117669Y64385D01*
X117968Y65108D01*
Y65892D01*
X117669Y66615D01*
X117115Y67169D01*
X116392Y67469D01*
D02*
G37*
G36*
X107528Y61154D02*
Y59500D01*
X109181D01*
X108877Y60236D01*
X108263Y60849D01*
X107528Y61154D01*
D02*
G37*
G36*
X106528D02*
X105792Y60849D01*
X105178Y60236D01*
X104874Y59500D01*
X106528D01*
Y61154D01*
D02*
G37*
G36*
X109181Y58500D02*
X107528D01*
Y56846D01*
X108263Y57151D01*
X108877Y57765D01*
X109181Y58500D01*
D02*
G37*
G36*
X106528D02*
X104874D01*
X105178Y57765D01*
X105792Y57151D01*
X106528Y56846D01*
Y58500D01*
D02*
G37*
G36*
X107587Y54154D02*
Y52500D01*
X109240D01*
X108936Y53236D01*
X108322Y53849D01*
X107587Y54154D01*
D02*
G37*
G36*
X106587D02*
X105851Y53849D01*
X105238Y53236D01*
X104933Y52500D01*
X106587D01*
Y54154D01*
D02*
G37*
G36*
X109240Y51500D02*
X107587D01*
Y49846D01*
X108322Y50151D01*
X108936Y50765D01*
X109240Y51500D01*
D02*
G37*
G36*
X106587D02*
X104933D01*
X105238Y50765D01*
X105851Y50151D01*
X106587Y49846D01*
Y51500D01*
D02*
G37*
G36*
X107500Y47154D02*
Y45500D01*
X109154D01*
X108849Y46235D01*
X108236Y46849D01*
X107500Y47154D01*
D02*
G37*
G36*
X106500D02*
X105764Y46849D01*
X105151Y46235D01*
X104846Y45500D01*
X106500D01*
Y47154D01*
D02*
G37*
G36*
X157000Y45654D02*
Y44000D01*
X158654D01*
X158349Y44736D01*
X157736Y45349D01*
X157000Y45654D01*
D02*
G37*
G36*
X156000D02*
X155264Y45349D01*
X154651Y44736D01*
X154346Y44000D01*
X156000D01*
Y45654D01*
D02*
G37*
G36*
X109154Y44500D02*
X107500D01*
Y42846D01*
X108236Y43151D01*
X108849Y43764D01*
X109154Y44500D01*
D02*
G37*
G36*
X106500D02*
X104846D01*
X105151Y43764D01*
X105764Y43151D01*
X106500Y42846D01*
Y44500D01*
D02*
G37*
G36*
X158654Y43000D02*
X157000D01*
Y41346D01*
X157736Y41651D01*
X158349Y42265D01*
X158654Y43000D01*
D02*
G37*
G36*
X156000D02*
X154346D01*
X154651Y42265D01*
X155264Y41651D01*
X156000Y41346D01*
Y43000D01*
D02*
G37*
G36*
X154000Y39654D02*
Y38000D01*
X155654D01*
X155349Y38735D01*
X154736Y39349D01*
X154000Y39654D01*
D02*
G37*
G36*
X153000D02*
X152264Y39349D01*
X151651Y38735D01*
X151346Y38000D01*
X153000D01*
Y39654D01*
D02*
G37*
G36*
X155654Y37000D02*
X154000D01*
Y35346D01*
X154736Y35651D01*
X155349Y36265D01*
X155654Y37000D01*
D02*
G37*
G36*
X153000D02*
X151346D01*
X151651Y36265D01*
X152264Y35651D01*
X153000Y35346D01*
Y37000D01*
D02*
G37*
G36*
X146392Y35969D02*
X145608D01*
X144885Y35669D01*
X144331Y35115D01*
X144032Y34392D01*
Y33608D01*
X144331Y32885D01*
X144885Y32331D01*
X145608Y32032D01*
X146392D01*
X147115Y32331D01*
X147669Y32885D01*
X147968Y33608D01*
Y34392D01*
X147669Y35115D01*
X147115Y35669D01*
X146392Y35969D01*
D02*
G37*
G36*
X169287Y38471D02*
X167713D01*
X166685Y38336D01*
X165727Y37939D01*
X164905Y37308D01*
X164274Y36485D01*
X163877Y35528D01*
X163742Y34500D01*
X163877Y33472D01*
X164274Y32515D01*
X164905Y31692D01*
X165727Y31061D01*
X166685Y30664D01*
X167713Y30529D01*
X169287D01*
X170315Y30664D01*
X171273Y31061D01*
X172095Y31692D01*
X172726Y32515D01*
X173123Y33472D01*
X173258Y34500D01*
X173123Y35528D01*
X172726Y36485D01*
X172095Y37308D01*
X171273Y37939D01*
X170315Y38336D01*
X169287Y38471D01*
D02*
G37*
G36*
X114357Y37878D02*
X106601D01*
Y30122D01*
X114357D01*
Y37878D01*
D02*
G37*
G36*
X100990D02*
X99969D01*
X98983Y37614D01*
X98098Y37103D01*
X97376Y36381D01*
X96866Y35497D01*
X96601Y34510D01*
Y33490D01*
X96866Y32503D01*
X97376Y31619D01*
X98098Y30897D01*
X98983Y30386D01*
X99969Y30122D01*
X100990D01*
X101976Y30386D01*
X102860Y30897D01*
X103582Y31619D01*
X104093Y32503D01*
X104357Y33490D01*
Y34510D01*
X104093Y35497D01*
X103582Y36381D01*
X102860Y37103D01*
X101976Y37614D01*
X100990Y37878D01*
D02*
G37*
G36*
X124500Y30654D02*
Y29000D01*
X126154D01*
X125849Y29735D01*
X125235Y30349D01*
X124500Y30654D01*
D02*
G37*
G36*
X123500D02*
X122765Y30349D01*
X122151Y29735D01*
X121846Y29000D01*
X123500D01*
Y30654D01*
D02*
G37*
G36*
X139000Y30544D02*
Y28890D01*
X140654D01*
X140349Y29625D01*
X139735Y30239D01*
X139000Y30544D01*
D02*
G37*
G36*
X138000D02*
X137265Y30239D01*
X136651Y29625D01*
X136346Y28890D01*
X138000D01*
Y30544D01*
D02*
G37*
G36*
X131392Y30468D02*
X130608D01*
X129885Y30169D01*
X129331Y29615D01*
X129032Y28892D01*
Y28108D01*
X129331Y27385D01*
X129885Y26831D01*
X130608Y26531D01*
X131392D01*
X132115Y26831D01*
X132669Y27385D01*
X132968Y28108D01*
Y28892D01*
X132669Y29615D01*
X132115Y30169D01*
X131392Y30468D01*
D02*
G37*
G36*
X126154Y28000D02*
X124500D01*
Y26346D01*
X125235Y26651D01*
X125849Y27264D01*
X126154Y28000D01*
D02*
G37*
G36*
X123500D02*
X121846D01*
X122151Y27264D01*
X122765Y26651D01*
X123500Y26346D01*
Y28000D01*
D02*
G37*
G36*
X140654Y27890D02*
X139000D01*
Y26236D01*
X139735Y26541D01*
X140349Y27154D01*
X140654Y27890D01*
D02*
G37*
G36*
X138000D02*
X136346D01*
X136651Y27154D01*
X137265Y26541D01*
X138000Y26236D01*
Y27890D01*
D02*
G37*
G36*
X28000Y19907D02*
Y15500D01*
X31685D01*
Y15787D01*
X31543Y16871D01*
X31125Y17880D01*
X30459Y18747D01*
X29593Y19412D01*
X28583Y19830D01*
X28000Y19907D01*
D02*
G37*
G36*
X27000D02*
X26417Y19830D01*
X25407Y19412D01*
X24541Y18747D01*
X23875Y17880D01*
X23457Y16871D01*
X23315Y15787D01*
Y15500D01*
X27000D01*
Y19907D01*
D02*
G37*
G36*
X31685Y14500D02*
X28000D01*
Y10093D01*
X28583Y10170D01*
X29593Y10588D01*
X30459Y11253D01*
X31125Y12120D01*
X31543Y13129D01*
X31685Y14213D01*
Y14500D01*
D02*
G37*
G36*
X27000D02*
X23315D01*
Y14213D01*
X23457Y13129D01*
X23875Y12120D01*
X24541Y11253D01*
X25407Y10588D01*
X26417Y10170D01*
X27000Y10093D01*
Y14500D01*
D02*
G37*
G36*
X12664Y20472D02*
X10958D01*
X9285Y20140D01*
X7708Y19487D01*
X6290Y18539D01*
X5083Y17332D01*
X4135Y15914D01*
X3483Y14337D01*
X3150Y12664D01*
Y10958D01*
X3483Y9285D01*
X4135Y7708D01*
X5083Y6290D01*
X6290Y5083D01*
X7708Y4135D01*
X9285Y3483D01*
X10958Y3150D01*
X12664D01*
X14337Y3483D01*
X15914Y4135D01*
X17332Y5083D01*
X18539Y6290D01*
X19487Y7708D01*
X20140Y9285D01*
X20472Y10958D01*
Y12664D01*
X20140Y14337D01*
X19487Y15914D01*
X18539Y17332D01*
X17332Y18539D01*
X15914Y19487D01*
X14337Y20140D01*
X12664Y20472D01*
D02*
G37*
%LPD*%
D35*
X100479Y34000D02*
D03*
D36*
X110479D02*
D03*
D45*
X70653Y97531D02*
D03*
Y113279D02*
D03*
X27347Y51468D02*
D03*
X70653Y35721D02*
D03*
X27347Y97531D02*
D03*
Y35721D02*
D03*
Y113279D02*
D03*
X70653Y51468D02*
D03*
X299654Y98032D02*
D03*
Y113779D02*
D03*
X256347Y51968D02*
D03*
X299654Y36220D02*
D03*
X256347Y98032D02*
D03*
Y36220D02*
D03*
Y113779D02*
D03*
X299654Y51968D02*
D03*
D46*
X11811Y11811D02*
D03*
Y133858D02*
D03*
X311024D02*
D03*
Y11811D02*
D03*
D47*
X137133Y79500D02*
D03*
X168500Y34500D02*
D03*
D48*
X27500Y15000D02*
D03*
X36000Y133000D02*
D03*
X189000Y130500D02*
D03*
D49*
X116000Y65500D02*
D03*
X146000Y34000D02*
D03*
X134500Y58000D02*
D03*
X120500Y72000D02*
D03*
X107087Y52000D02*
D03*
X107028Y59000D02*
D03*
X130500Y65000D02*
D03*
X163000Y65500D02*
D03*
Y61500D02*
D03*
Y57500D02*
D03*
X159000D02*
D03*
Y61500D02*
D03*
X155000Y57500D02*
D03*
Y61500D02*
D03*
X104500Y87000D02*
D03*
X138500Y28390D02*
D03*
X131000Y28500D02*
D03*
X269500Y56500D02*
D03*
X274500D02*
D03*
X279500D02*
D03*
X284500D02*
D03*
Y52500D02*
D03*
X279500D02*
D03*
X274500D02*
D03*
X269500D02*
D03*
X284500Y48500D02*
D03*
X279500D02*
D03*
X274500D02*
D03*
X269500D02*
D03*
X284500Y44500D02*
D03*
X279500D02*
D03*
X274500D02*
D03*
X269500D02*
D03*
X284500Y40500D02*
D03*
X279500D02*
D03*
X274500D02*
D03*
X269500D02*
D03*
X284500Y36500D02*
D03*
X279500D02*
D03*
X274500D02*
D03*
X269500D02*
D03*
X284500Y32500D02*
D03*
X279500D02*
D03*
X274500D02*
D03*
X269500D02*
D03*
X284500Y28500D02*
D03*
X279500D02*
D03*
X274500D02*
D03*
X269500D02*
D03*
X40500Y28000D02*
D03*
X45500D02*
D03*
X50500D02*
D03*
X55500D02*
D03*
X40500Y32000D02*
D03*
X45500D02*
D03*
X50500D02*
D03*
X55500D02*
D03*
X40500Y36000D02*
D03*
X45500D02*
D03*
X50500D02*
D03*
X55500D02*
D03*
X40500Y40000D02*
D03*
X45500D02*
D03*
X50500D02*
D03*
X55500D02*
D03*
X40500Y44000D02*
D03*
X45500D02*
D03*
X50500D02*
D03*
X55500D02*
D03*
X40500Y48000D02*
D03*
X45500D02*
D03*
X50500D02*
D03*
X55500D02*
D03*
X40500Y52000D02*
D03*
X45500D02*
D03*
X50500D02*
D03*
X55500D02*
D03*
Y56000D02*
D03*
X50500D02*
D03*
X45500D02*
D03*
X40500D02*
D03*
X107000Y45000D02*
D03*
X150500Y61500D02*
D03*
X151000Y57000D02*
D03*
X147000D02*
D03*
X145500Y61500D02*
D03*
X142000D02*
D03*
X138000D02*
D03*
X132500Y55000D02*
D03*
X130500Y58000D02*
D03*
X134500Y61500D02*
D03*
X130500D02*
D03*
X134500Y65000D02*
D03*
X159500Y114500D02*
D03*
X155500D02*
D03*
X151500D02*
D03*
X143500D02*
D03*
X155500Y110500D02*
D03*
X159500D02*
D03*
X151500D02*
D03*
X147500D02*
D03*
X143500D02*
D03*
X147500Y114500D02*
D03*
X141500Y126000D02*
D03*
Y130000D02*
D03*
Y134000D02*
D03*
X145500D02*
D03*
X124000Y28500D02*
D03*
X156500Y43500D02*
D03*
X145500Y126000D02*
D03*
Y130000D02*
D03*
X153500Y37500D02*
D03*
M02*
