G04*
G04 #@! TF.GenerationSoftware,Altium Limited,Altium Designer,23.0.1 (38)*
G04*
G04 Layer_Color=255*
%FSLAX25Y25*%
%MOIN*%
G70*
G04*
G04 #@! TF.SameCoordinates,AE5763C0-F2EE-4BCA-89C6-8F578BEF2D51*
G04*
G04*
G04 #@! TF.FilePolarity,Positive*
G04*
G01*
G75*
%ADD15R,0.01181X0.02559*%
%ADD16R,0.02559X0.01181*%
%ADD17R,0.16535X0.07480*%
%ADD18R,0.04921X0.09843*%
%ADD19R,0.03740X0.03347*%
%ADD20R,0.03937X0.03543*%
%ADD21R,0.48504X0.15059*%
%ADD22R,0.03543X0.03937*%
%ADD23R,0.02362X0.02520*%
%ADD24R,0.02953X0.02362*%
%ADD25R,0.02520X0.02362*%
%ADD26R,0.03347X0.03740*%
%ADD35C,0.06181*%
%ADD36R,0.06181X0.06181*%
%ADD42R,0.01181X0.01181*%
%ADD43R,0.00984X0.02559*%
%ADD44R,0.01181X0.02362*%
%ADD45O,0.17717X0.12795*%
%ADD46C,0.06000*%
%ADD47O,0.07874X0.06299*%
%ADD48O,0.06299X0.07874*%
D15*
X139114Y50756D02*
D03*
X137146D02*
D03*
X135177D02*
D03*
X133209D02*
D03*
X131240D02*
D03*
X129272D02*
D03*
Y70244D02*
D03*
X131240D02*
D03*
X133209D02*
D03*
X135177D02*
D03*
X137146D02*
D03*
X139114D02*
D03*
D16*
X126319Y52626D02*
D03*
Y54594D02*
D03*
Y56563D02*
D03*
Y58531D02*
D03*
Y60500D02*
D03*
Y62468D02*
D03*
Y64437D02*
D03*
Y66405D02*
D03*
Y68374D02*
D03*
D17*
X151500Y104914D02*
D03*
X123941D02*
D03*
D18*
X150307Y129500D02*
D03*
X163693D02*
D03*
D19*
X124000Y31941D02*
D03*
Y37059D02*
D03*
X131124Y37059D02*
D03*
Y31941D02*
D03*
D20*
X138500Y31842D02*
D03*
Y37157D02*
D03*
D21*
X199000Y112459D02*
D03*
Y48541D02*
D03*
D22*
X146843Y44076D02*
D03*
X152157D02*
D03*
D23*
X149142Y37760D02*
D03*
X145678D02*
D03*
X127732Y78000D02*
D03*
X124268D02*
D03*
D24*
X103764Y65000D02*
D03*
X99236D02*
D03*
X128764Y83560D02*
D03*
X124236D02*
D03*
D25*
X120500Y69000D02*
D03*
Y65535D02*
D03*
D26*
X115559Y45000D02*
D03*
X110441D02*
D03*
X115500Y59000D02*
D03*
X110382D02*
D03*
X115559Y52000D02*
D03*
X110441D02*
D03*
D35*
X100479Y34000D02*
D03*
D36*
X110479D02*
D03*
D42*
X148425Y59470D02*
D03*
X147972Y52925D02*
D03*
D43*
X141083Y50854D02*
D03*
D44*
X146496Y67104D02*
D03*
D45*
X70653Y97531D02*
D03*
Y113279D02*
D03*
X27347Y51468D02*
D03*
X70653Y35721D02*
D03*
X27347Y97531D02*
D03*
Y35721D02*
D03*
Y113279D02*
D03*
X70653Y51468D02*
D03*
X299654Y98032D02*
D03*
Y113779D02*
D03*
X256347Y51968D02*
D03*
X299654Y36220D02*
D03*
X256347Y98032D02*
D03*
Y36220D02*
D03*
Y113779D02*
D03*
X299654Y51968D02*
D03*
D46*
X11811Y11811D02*
D03*
Y133858D02*
D03*
X311024D02*
D03*
Y11811D02*
D03*
D47*
X137133Y79500D02*
D03*
X168500Y34500D02*
D03*
D48*
X27500Y15000D02*
D03*
X36000Y133000D02*
D03*
X189000Y130500D02*
D03*
M02*
