G04*
G04 #@! TF.GenerationSoftware,Altium Limited,Altium Designer,23.0.1 (38)*
G04*
G04 Layer_Color=16711935*
%FSLAX25Y25*%
%MOIN*%
G70*
G04*
G04 #@! TF.SameCoordinates,AE5763C0-F2EE-4BCA-89C6-8F578BEF2D51*
G04*
G04*
G04 #@! TF.FilePolarity,Positive*
G04*
G01*
G75*
%ADD10C,0.00787*%
%ADD12C,0.00500*%
%ADD50C,0.00394*%
D10*
X151811Y73905D02*
G03*
X151811Y73905I-394J0D01*
G01*
D12*
X126221Y50657D02*
Y70342D01*
Y50657D02*
X153779D01*
Y70342D01*
X126221D02*
X153779D01*
D50*
X122130Y31055D02*
X125870D01*
X122130Y37945D02*
X125870D01*
X122130Y31055D02*
Y37945D01*
X125870Y31055D02*
Y37945D01*
X129254Y37945D02*
X132994D01*
X129254Y31055D02*
X132994D01*
Y37945D01*
X129254Y31055D02*
Y37945D01*
X136630Y31055D02*
X140370D01*
X136630Y37945D02*
X140370D01*
X136630Y31055D02*
Y37945D01*
X140370Y31055D02*
Y37945D01*
X146055Y45946D02*
X152945D01*
X146055Y42206D02*
X152945D01*
X146055D02*
Y45946D01*
X152945Y42206D02*
Y45946D01*
X149438Y36736D02*
Y38783D01*
X145383Y36736D02*
Y38783D01*
Y36736D02*
X149438D01*
X145383Y38783D02*
X149438D01*
X99433Y63917D02*
X103567D01*
X99433Y66083D02*
X103567D01*
Y63917D02*
Y66083D01*
X99433Y63917D02*
Y66083D01*
X124433Y82477D02*
X128567D01*
X124433Y84643D02*
X128567D01*
Y82477D02*
Y84643D01*
X124433Y82477D02*
Y84643D01*
X128028Y76976D02*
Y79024D01*
X123972Y76976D02*
Y79024D01*
Y76976D02*
X128028D01*
X123972Y79024D02*
X128028D01*
X119476Y69295D02*
X121524D01*
X119476Y65240D02*
X121524D01*
Y69295D01*
X119476Y65240D02*
Y69295D01*
X109555Y43130D02*
X116445D01*
X109555Y46870D02*
X116445D01*
Y43130D02*
Y46870D01*
X109555Y43130D02*
Y46870D01*
X109496Y57130D02*
X116386D01*
X109496Y60870D02*
X116386D01*
Y57130D02*
Y60870D01*
X109496Y57130D02*
Y60870D01*
X109555Y50130D02*
X116445D01*
X109555Y53870D02*
X116445D01*
Y50130D02*
Y53870D01*
X109555Y50130D02*
Y53870D01*
M02*
