G04*
G04 #@! TF.GenerationSoftware,Altium Limited,Altium Designer,23.0.1 (38)*
G04*
G04 Layer_Color=32768*
%FSLAX25Y25*%
%MOIN*%
G70*
G04*
G04 #@! TF.SameCoordinates,AE5763C0-F2EE-4BCA-89C6-8F578BEF2D51*
G04*
G04*
G04 #@! TF.FilePolarity,Positive*
G04*
G01*
G75*
%ADD50C,0.00394*%
%ADD51C,0.00197*%
D50*
X124000Y32630D02*
Y36370D01*
X122130Y34500D02*
X125870D01*
X131124Y32630D02*
Y36370D01*
X129254Y34500D02*
X132994D01*
X138500Y32630D02*
Y36370D01*
X136630Y34500D02*
X140370D01*
X149500Y42206D02*
Y45946D01*
X147630Y44076D02*
X151370D01*
X146387Y37760D02*
X148434D01*
X147410Y36736D02*
Y38783D01*
X101500Y63917D02*
Y66083D01*
X100417Y65000D02*
X102583D01*
X96677Y62835D02*
X106323D01*
X96677Y67165D02*
X106323D01*
Y62835D02*
Y67165D01*
X96677Y62835D02*
Y67165D01*
X126500Y82477D02*
Y84643D01*
X125417Y83560D02*
X127583D01*
X121677Y81395D02*
X131323D01*
X121677Y85725D02*
X131323D01*
Y81395D02*
Y85725D01*
X121677Y81395D02*
Y85725D01*
X124976Y78000D02*
X127024D01*
X126000Y76976D02*
Y79024D01*
X120500Y66244D02*
Y68291D01*
X119476Y67268D02*
X121524D01*
X113000Y43130D02*
Y46870D01*
X111130Y45000D02*
X114870D01*
X112941Y57130D02*
Y60870D01*
X111071Y59000D02*
X114811D01*
X113000Y50130D02*
Y53870D01*
X111130Y52000D02*
X114870D01*
D51*
X155945Y48492D02*
Y72508D01*
X124055Y48492D02*
X155945D01*
X124055D02*
Y72508D01*
X155945D01*
X121047Y29185D02*
X126953D01*
X121047Y39815D02*
X126953D01*
X121047Y29185D02*
Y39815D01*
X126953Y29185D02*
Y39815D01*
X128171Y39815D02*
X134077D01*
X128171Y29185D02*
X134077D01*
Y39815D01*
X128171Y29185D02*
Y39815D01*
X135547Y29185D02*
X141453D01*
X135547Y39815D02*
X141453D01*
X135547Y29185D02*
Y39815D01*
X141453Y29185D02*
Y39815D01*
X144185Y47029D02*
X154815D01*
X144185Y41123D02*
X154815D01*
X144185D02*
Y47029D01*
X154815Y41123D02*
Y47029D01*
X151150Y35791D02*
Y39728D01*
X143670Y35791D02*
Y39728D01*
Y35791D02*
X151150D01*
X143670Y39728D02*
X151150D01*
X129740Y76032D02*
Y79969D01*
X122260Y76032D02*
Y79969D01*
Y76032D02*
X129740D01*
X122260Y79969D02*
X129740D01*
X118532Y71008D02*
X122468D01*
X118532Y63528D02*
X122468D01*
Y71008D01*
X118532Y63528D02*
Y71008D01*
X107685Y42047D02*
X118315D01*
X107685Y47953D02*
X118315D01*
Y42047D02*
Y47953D01*
X107685Y42047D02*
Y47953D01*
X107626Y56047D02*
X118256D01*
X107626Y61953D02*
X118256D01*
Y56047D02*
Y61953D01*
X107626Y56047D02*
Y61953D01*
X107685Y49047D02*
X118315D01*
X107685Y54953D02*
X118315D01*
Y49047D02*
Y54953D01*
X107685Y49047D02*
Y54953D01*
M02*
