G04*
G04 #@! TF.GenerationSoftware,Altium Limited,Altium Designer,23.6.0 (18)*
G04*
G04 Layer_Color=128*
%FSLAX44Y44*%
%MOMM*%
G71*
G04*
G04 #@! TF.SameCoordinates,BDD1234D-291B-4935-850E-A0033F3BDFF5*
G04*
G04*
G04 #@! TF.FilePolarity,Positive*
G04*
G01*
G75*
%ADD38C,0.1270*%
D38*
X323680Y-278130D02*
X334180D01*
X328930Y-283380D02*
Y-272880D01*
X323680Y-252730D02*
X334180D01*
X328930Y-257980D02*
Y-247480D01*
X114300Y-346710D02*
X141300D01*
X127800Y-360210D02*
Y-333210D01*
X214300Y-346710D02*
X241300D01*
X227800Y-360210D02*
Y-333210D01*
X135300Y-246710D02*
X145300D01*
X140300Y-251710D02*
Y-241710D01*
X172800Y-246710D02*
X182800D01*
X177800Y-251710D02*
Y-241710D01*
X210300Y-246710D02*
X220300D01*
X215300Y-251710D02*
Y-241710D01*
X42960Y-117400D02*
X51960D01*
X47460Y-121900D02*
Y-112900D01*
X42960Y-73400D02*
X51960D01*
X47460Y-77900D02*
Y-68900D01*
X142500Y-177000D02*
X145500D01*
X144000Y-178500D02*
Y-175500D01*
X293500Y-147000D02*
X296500D01*
X295000Y-148500D02*
Y-145500D01*
X307110Y-147320D02*
X310110D01*
X308610Y-148820D02*
Y-145820D01*
X293140Y-135890D02*
X296140D01*
X294640Y-137390D02*
Y-134390D01*
X238530Y-57150D02*
X241530D01*
X240030Y-58650D02*
Y-55650D01*
X227100Y-57150D02*
X230100D01*
X228600Y-58650D02*
Y-55650D01*
M02*
