G04*
G04 #@! TF.GenerationSoftware,Altium Limited,Altium Designer,23.6.0 (18)*
G04*
G04 Layer_Physical_Order=2*
G04 Layer_Color=16711680*
%FSLAX44Y44*%
%MOMM*%
G71*
G04*
G04 #@! TF.SameCoordinates,BDD1234D-291B-4935-850E-A0033F3BDFF5*
G04*
G04*
G04 #@! TF.FilePolarity,Positive*
G04*
G01*
G75*
%ADD32C,1.6000*%
%ADD33C,3.7000*%
%ADD34O,1.6000X2.0000*%
%ADD35R,1.6000X2.0000*%
%ADD36C,0.7000*%
G36*
X397410Y-397410D02*
X4000D01*
Y-40000D01*
X397410D01*
Y-397410D01*
D02*
G37*
%LPC*%
G36*
X48848Y-62860D02*
X48730D01*
Y-72130D01*
X58000D01*
Y-72012D01*
X57282Y-69332D01*
X55894Y-66928D01*
X53932Y-64966D01*
X51528Y-63578D01*
X48848Y-62860D01*
D02*
G37*
G36*
X46190D02*
X46072D01*
X43392Y-63578D01*
X40988Y-64966D01*
X39026Y-66928D01*
X37638Y-69332D01*
X36920Y-72012D01*
Y-72130D01*
X46190D01*
Y-62860D01*
D02*
G37*
G36*
X58000Y-74670D02*
X48730D01*
Y-83940D01*
X48848D01*
X51528Y-83222D01*
X53932Y-81834D01*
X55894Y-79872D01*
X57282Y-77468D01*
X58000Y-74788D01*
Y-74670D01*
D02*
G37*
G36*
X46190D02*
X36920D01*
Y-74788D01*
X37638Y-77468D01*
X39026Y-79872D01*
X40988Y-81834D01*
X43392Y-83222D01*
X46072Y-83940D01*
X46190D01*
Y-74670D01*
D02*
G37*
G36*
X48848Y-106860D02*
X48730D01*
Y-116130D01*
X58000D01*
Y-116012D01*
X57282Y-113332D01*
X55894Y-110928D01*
X53932Y-108966D01*
X51528Y-107578D01*
X48848Y-106860D01*
D02*
G37*
G36*
X46190D02*
X46072D01*
X43392Y-107578D01*
X40988Y-108966D01*
X39026Y-110928D01*
X37638Y-113332D01*
X36920Y-116012D01*
Y-116130D01*
X46190D01*
Y-106860D01*
D02*
G37*
G36*
X58000Y-118670D02*
X48730D01*
Y-127940D01*
X48848D01*
X51528Y-127222D01*
X53932Y-125834D01*
X55894Y-123872D01*
X57282Y-121468D01*
X58000Y-118788D01*
Y-118670D01*
D02*
G37*
G36*
X46190D02*
X36920D01*
Y-118788D01*
X37638Y-121468D01*
X39026Y-123872D01*
X40988Y-125834D01*
X43392Y-127222D01*
X46072Y-127940D01*
X46190D01*
Y-118670D01*
D02*
G37*
G36*
X225840Y-234170D02*
X204760D01*
Y-259250D01*
X225840D01*
Y-234170D01*
D02*
G37*
G36*
X177800Y-234079D02*
X175049Y-234441D01*
X172484Y-235503D01*
X170283Y-237193D01*
X168593Y-239394D01*
X167531Y-241959D01*
X167169Y-244710D01*
Y-248710D01*
X167531Y-251462D01*
X168593Y-254025D01*
X170283Y-256227D01*
X172484Y-257917D01*
X175049Y-258979D01*
X177800Y-259341D01*
X180551Y-258979D01*
X183116Y-257917D01*
X185317Y-256227D01*
X187007Y-254025D01*
X188069Y-251462D01*
X188431Y-248710D01*
Y-244710D01*
X188069Y-241959D01*
X187007Y-239394D01*
X185317Y-237193D01*
X183116Y-235503D01*
X180551Y-234441D01*
X177800Y-234079D01*
D02*
G37*
G36*
X330318Y-242190D02*
X327542D01*
X324862Y-242908D01*
X322458Y-244296D01*
X320496Y-246258D01*
X319108Y-248662D01*
X318390Y-251342D01*
Y-254118D01*
X319108Y-256798D01*
X320496Y-259202D01*
X322458Y-261164D01*
X324862Y-262552D01*
X327542Y-263270D01*
X330318D01*
X332998Y-262552D01*
X335402Y-261164D01*
X337364Y-259202D01*
X338752Y-256798D01*
X339470Y-254118D01*
Y-251342D01*
X338752Y-248662D01*
X337364Y-246258D01*
X335402Y-244296D01*
X332998Y-242908D01*
X330318Y-242190D01*
D02*
G37*
G36*
Y-267590D02*
X327542D01*
X324862Y-268308D01*
X322458Y-269696D01*
X320496Y-271658D01*
X319108Y-274062D01*
X318390Y-276742D01*
Y-279518D01*
X319108Y-282198D01*
X320496Y-284602D01*
X322458Y-286564D01*
X324862Y-287952D01*
X327542Y-288670D01*
X330318D01*
X332998Y-287952D01*
X335402Y-286564D01*
X337364Y-284602D01*
X338752Y-282198D01*
X339470Y-279518D01*
Y-276742D01*
X338752Y-274062D01*
X337364Y-271658D01*
X335402Y-269696D01*
X332998Y-268308D01*
X330318Y-267590D01*
D02*
G37*
G36*
X229872Y-325670D02*
X229070D01*
Y-345440D01*
X248840D01*
Y-344638D01*
X248031Y-340573D01*
X246445Y-336744D01*
X244143Y-333298D01*
X241212Y-330367D01*
X237766Y-328065D01*
X233937Y-326479D01*
X229872Y-325670D01*
D02*
G37*
G36*
X226530D02*
X225728D01*
X221663Y-326479D01*
X217834Y-328065D01*
X214388Y-330367D01*
X211457Y-333298D01*
X209155Y-336744D01*
X207569Y-340573D01*
X206760Y-344638D01*
Y-345440D01*
X226530D01*
Y-325670D01*
D02*
G37*
G36*
X129872D02*
X129070D01*
Y-345440D01*
X148840D01*
Y-344638D01*
X148031Y-340573D01*
X146445Y-336744D01*
X144143Y-333298D01*
X141212Y-330367D01*
X137766Y-328065D01*
X133937Y-326479D01*
X129872Y-325670D01*
D02*
G37*
G36*
X126530D02*
X125728D01*
X121663Y-326479D01*
X117834Y-328065D01*
X114388Y-330367D01*
X111457Y-333298D01*
X109155Y-336744D01*
X107569Y-340573D01*
X106760Y-344638D01*
Y-345440D01*
X126530D01*
Y-325670D01*
D02*
G37*
G36*
X248840Y-347980D02*
X229070D01*
Y-367750D01*
X229872D01*
X233937Y-366941D01*
X237766Y-365355D01*
X241212Y-363053D01*
X244143Y-360122D01*
X246445Y-356676D01*
X248031Y-352847D01*
X248840Y-348782D01*
Y-347980D01*
D02*
G37*
G36*
X226530D02*
X206760D01*
Y-348782D01*
X207569Y-352847D01*
X209155Y-356676D01*
X211457Y-360122D01*
X214388Y-363053D01*
X217834Y-365355D01*
X221663Y-366941D01*
X225728Y-367750D01*
X226530D01*
Y-347980D01*
D02*
G37*
G36*
X148840D02*
X129070D01*
Y-367750D01*
X129872D01*
X133937Y-366941D01*
X137766Y-365355D01*
X141212Y-363053D01*
X144143Y-360122D01*
X146445Y-356676D01*
X148031Y-352847D01*
X148840Y-348782D01*
Y-347980D01*
D02*
G37*
G36*
X126530D02*
X106760D01*
Y-348782D01*
X107569Y-352847D01*
X109155Y-356676D01*
X111457Y-360122D01*
X114388Y-363053D01*
X117834Y-365355D01*
X121663Y-366941D01*
X125728Y-367750D01*
X126530D01*
Y-347980D01*
D02*
G37*
%LPD*%
D32*
X328930Y-278130D02*
D03*
Y-252730D02*
D03*
X47460Y-117400D02*
D03*
Y-73400D02*
D03*
D33*
X127800Y-346710D02*
D03*
X227800D02*
D03*
D34*
X140300Y-246710D02*
D03*
X177800D02*
D03*
D35*
X215300D02*
D03*
D36*
X144000Y-177000D02*
D03*
X295000Y-147000D02*
D03*
X308610Y-147320D02*
D03*
X294640Y-135890D02*
D03*
X240030Y-57150D02*
D03*
X228600D02*
D03*
M02*
