G04*
G04 #@! TF.GenerationSoftware,Altium Limited,Altium Designer,23.6.0 (18)*
G04*
G04 Layer_Color=65535*
%FSLAX44Y44*%
%MOMM*%
G71*
G04*
G04 #@! TF.SameCoordinates,BDD1234D-291B-4935-850E-A0033F3BDFF5*
G04*
G04*
G04 #@! TF.FilePolarity,Positive*
G04*
G01*
G75*
%ADD10C,0.2540*%
%ADD11C,0.2000*%
G36*
X49770Y-247476D02*
X50985D01*
Y-247523D01*
X51686D01*
Y-247570D01*
X52247D01*
Y-247616D01*
X52761D01*
Y-247663D01*
X53182D01*
Y-247710D01*
X53556D01*
Y-247757D01*
X53930D01*
Y-247803D01*
X54257D01*
Y-247850D01*
X54584D01*
Y-247897D01*
X54911D01*
Y-247943D01*
X55192D01*
Y-247990D01*
X55472D01*
Y-248037D01*
X55706D01*
Y-248084D01*
X55986D01*
Y-248130D01*
X56220D01*
Y-248177D01*
X56454D01*
Y-248224D01*
X56688D01*
Y-248271D01*
X56874D01*
Y-248317D01*
X57108D01*
Y-248364D01*
X57295D01*
Y-248411D01*
X57529D01*
Y-248458D01*
X57716D01*
Y-248504D01*
X57903D01*
Y-248551D01*
X58090D01*
Y-248598D01*
X58277D01*
Y-248645D01*
X58464D01*
Y-248691D01*
X58651D01*
Y-248738D01*
X58791D01*
Y-248785D01*
X58978D01*
Y-248832D01*
X59165D01*
Y-248878D01*
X59305D01*
Y-248925D01*
X59492D01*
Y-248972D01*
X59632D01*
Y-249018D01*
X59772D01*
Y-249065D01*
X59959D01*
Y-249112D01*
X60100D01*
Y-249159D01*
X60240D01*
Y-249205D01*
X60380D01*
Y-249252D01*
X60520D01*
Y-249299D01*
X60707D01*
Y-249346D01*
X60848D01*
Y-249392D01*
X60988D01*
Y-249439D01*
X61128D01*
Y-249486D01*
X61221D01*
Y-249533D01*
X61362D01*
Y-249579D01*
X61502D01*
Y-249626D01*
X61642D01*
Y-249673D01*
X61782D01*
Y-249720D01*
X61876D01*
Y-249766D01*
X62016D01*
Y-249813D01*
X62156D01*
Y-249860D01*
X62296D01*
Y-249907D01*
X62390D01*
Y-249953D01*
X62530D01*
Y-250000D01*
X62624D01*
Y-250047D01*
X62764D01*
Y-250093D01*
X62857D01*
Y-250140D01*
X62997D01*
Y-250187D01*
X63091D01*
Y-250234D01*
X63231D01*
Y-250280D01*
X63325D01*
Y-250327D01*
X63465D01*
Y-250374D01*
X63558D01*
Y-250421D01*
X63652D01*
Y-250467D01*
X63792D01*
Y-250514D01*
X63886D01*
Y-250561D01*
X63979D01*
Y-250608D01*
X64119D01*
Y-250654D01*
X64213D01*
Y-250701D01*
X64306D01*
Y-250748D01*
X64400D01*
Y-250795D01*
X64540D01*
Y-250841D01*
X64633D01*
Y-250888D01*
X64727D01*
Y-250935D01*
X64820D01*
Y-250982D01*
X64914D01*
Y-251028D01*
X65054D01*
Y-251075D01*
X65148D01*
Y-251122D01*
X65241D01*
Y-251168D01*
X65335D01*
Y-251215D01*
X65428D01*
Y-251262D01*
X65521D01*
Y-251309D01*
X65615D01*
Y-251355D01*
X65708D01*
Y-251402D01*
X65802D01*
Y-251449D01*
X65895D01*
Y-251496D01*
X65989D01*
Y-251542D01*
X66082D01*
Y-251589D01*
X66176D01*
Y-251636D01*
X66269D01*
Y-251683D01*
X66363D01*
Y-251729D01*
X66456D01*
Y-251776D01*
X66550D01*
Y-251823D01*
X66597D01*
Y-251870D01*
X66690D01*
Y-251916D01*
X66783D01*
Y-251963D01*
X66877D01*
Y-252010D01*
X66971D01*
Y-252057D01*
X67064D01*
Y-252103D01*
X67157D01*
Y-252150D01*
X67204D01*
Y-252197D01*
X67298D01*
Y-252243D01*
X67391D01*
Y-252290D01*
X67485D01*
Y-252337D01*
X67531D01*
Y-252384D01*
X67625D01*
Y-252430D01*
X67718D01*
Y-252477D01*
X67812D01*
Y-252524D01*
X67859D01*
Y-252571D01*
X67952D01*
Y-252617D01*
X68046D01*
Y-252664D01*
X68139D01*
Y-252711D01*
X68186D01*
Y-252758D01*
X68279D01*
Y-252804D01*
X68373D01*
Y-252851D01*
X68419D01*
Y-252898D01*
X68513D01*
Y-252945D01*
X68606D01*
Y-252991D01*
X68653D01*
Y-253038D01*
X68747D01*
Y-253085D01*
X68793D01*
Y-253132D01*
X68887D01*
Y-253178D01*
X68980D01*
Y-253225D01*
X69027D01*
Y-253272D01*
X69120D01*
Y-253319D01*
X69167D01*
Y-253365D01*
X69261D01*
Y-253412D01*
X69354D01*
Y-253459D01*
X69401D01*
Y-253505D01*
X69495D01*
Y-253552D01*
X69541D01*
Y-253599D01*
X69635D01*
Y-253646D01*
X69681D01*
Y-253692D01*
X69775D01*
Y-253739D01*
X69822D01*
Y-253786D01*
X69915D01*
Y-253833D01*
X69962D01*
Y-253880D01*
X70055D01*
Y-253926D01*
X70102D01*
Y-253973D01*
X70196D01*
Y-254020D01*
X70242D01*
Y-254066D01*
X70336D01*
Y-254113D01*
X70382D01*
Y-254160D01*
X70429D01*
Y-254207D01*
X70523D01*
Y-254253D01*
X70570D01*
Y-254300D01*
X70663D01*
Y-254347D01*
X70710D01*
Y-254394D01*
X70803D01*
Y-254440D01*
X70850D01*
Y-254487D01*
X70897D01*
Y-254534D01*
X70990D01*
Y-254581D01*
X71037D01*
Y-254627D01*
X71130D01*
Y-254674D01*
X71177D01*
Y-254721D01*
X71224D01*
Y-254767D01*
X71317D01*
Y-254814D01*
X71364D01*
Y-254861D01*
X71411D01*
Y-254908D01*
X71504D01*
Y-254954D01*
X71551D01*
Y-255001D01*
X71598D01*
Y-255048D01*
X71691D01*
Y-255095D01*
X71738D01*
Y-255142D01*
X71785D01*
Y-255188D01*
X71878D01*
Y-255235D01*
X71925D01*
Y-255282D01*
X71972D01*
Y-255328D01*
X72065D01*
Y-255375D01*
X72112D01*
Y-255422D01*
X72159D01*
Y-255469D01*
X72252D01*
Y-255515D01*
X72299D01*
Y-255562D01*
X72346D01*
Y-255609D01*
X72392D01*
Y-255656D01*
X72486D01*
Y-255702D01*
X72533D01*
Y-255749D01*
X72579D01*
Y-255796D01*
X72626D01*
Y-255843D01*
X72720D01*
Y-255889D01*
X72766D01*
Y-255936D01*
X72813D01*
Y-255983D01*
X72860D01*
Y-256029D01*
X72953D01*
Y-256076D01*
X73000D01*
Y-256123D01*
X73047D01*
Y-256170D01*
X73094D01*
Y-256217D01*
X73140D01*
Y-256263D01*
X73234D01*
Y-256310D01*
X73280D01*
Y-256357D01*
X73327D01*
Y-256403D01*
X73374D01*
Y-256450D01*
X73421D01*
Y-256497D01*
X73467D01*
Y-256544D01*
X73561D01*
Y-256590D01*
X73608D01*
Y-256637D01*
X73654D01*
Y-256684D01*
X73701D01*
Y-256731D01*
X73748D01*
Y-256777D01*
X73795D01*
Y-256824D01*
X73888D01*
Y-256871D01*
X73935D01*
Y-256918D01*
X73982D01*
Y-256964D01*
X74028D01*
Y-257011D01*
X74075D01*
Y-257058D01*
X74122D01*
Y-257104D01*
X74169D01*
Y-257151D01*
X74215D01*
Y-257198D01*
X74309D01*
Y-257245D01*
X74356D01*
Y-257292D01*
X74402D01*
Y-257338D01*
X74449D01*
Y-257385D01*
X74496D01*
Y-257432D01*
X74542D01*
Y-257479D01*
X74589D01*
Y-257525D01*
X74636D01*
Y-257572D01*
X74683D01*
Y-257619D01*
X74729D01*
Y-257665D01*
X74776D01*
Y-257712D01*
X74870D01*
Y-257759D01*
X74916D01*
Y-257806D01*
X74963D01*
Y-257852D01*
X75010D01*
Y-257899D01*
X75057D01*
Y-257946D01*
X75103D01*
Y-257993D01*
X75150D01*
Y-258039D01*
X75197D01*
Y-258086D01*
X75244D01*
Y-258133D01*
X75290D01*
Y-258180D01*
X75337D01*
Y-258226D01*
X75384D01*
Y-258273D01*
X75430D01*
Y-258320D01*
X75477D01*
Y-258367D01*
X75524D01*
Y-258413D01*
X75571D01*
Y-258460D01*
X75617D01*
Y-258507D01*
X75664D01*
Y-258554D01*
X75711D01*
Y-258600D01*
X75758D01*
Y-258647D01*
X75804D01*
Y-258694D01*
X75851D01*
Y-258741D01*
X75898D01*
Y-258787D01*
X75945D01*
Y-258834D01*
X75991D01*
Y-258881D01*
X76038D01*
Y-258927D01*
X76085D01*
Y-258974D01*
X76132D01*
Y-259021D01*
X76178D01*
Y-259068D01*
X76225D01*
Y-259114D01*
X76272D01*
Y-259161D01*
X76319D01*
Y-259208D01*
X76365D01*
Y-259255D01*
X76412D01*
Y-259301D01*
X76459D01*
Y-259348D01*
X76505D01*
Y-259395D01*
X76552D01*
Y-259488D01*
X76599D01*
Y-259535D01*
X76646D01*
Y-259582D01*
X76693D01*
Y-259629D01*
X76739D01*
Y-259675D01*
X76786D01*
Y-259722D01*
X76833D01*
Y-259769D01*
X76880D01*
Y-259816D01*
X76926D01*
Y-259862D01*
X76973D01*
Y-259909D01*
X77020D01*
Y-259956D01*
X77066D01*
Y-260049D01*
X77113D01*
Y-260096D01*
X77160D01*
Y-260143D01*
X77207D01*
Y-260189D01*
X77253D01*
Y-260236D01*
X77300D01*
Y-260283D01*
X77347D01*
Y-260330D01*
X77394D01*
Y-260376D01*
X77440D01*
Y-260470D01*
X77487D01*
Y-260517D01*
X77534D01*
Y-260563D01*
X77581D01*
Y-260610D01*
X77627D01*
Y-260657D01*
X77674D01*
Y-260704D01*
X77721D01*
Y-260797D01*
X77768D01*
Y-260844D01*
X77814D01*
Y-260891D01*
X77861D01*
Y-260937D01*
X77908D01*
Y-260984D01*
X77955D01*
Y-261031D01*
X78001D01*
Y-261124D01*
X78048D01*
Y-261171D01*
X78095D01*
Y-261218D01*
X78141D01*
Y-261264D01*
X78188D01*
Y-261311D01*
X78235D01*
Y-261405D01*
X78282D01*
Y-261451D01*
X78328D01*
Y-261498D01*
X78375D01*
Y-261545D01*
X78422D01*
Y-261638D01*
X78469D01*
Y-261685D01*
X78515D01*
Y-261732D01*
X78562D01*
Y-261779D01*
X78609D01*
Y-261872D01*
X78656D01*
Y-261919D01*
X78702D01*
Y-261966D01*
X78749D01*
Y-262012D01*
X78796D01*
Y-262106D01*
X78843D01*
Y-262153D01*
X78889D01*
Y-262199D01*
X78936D01*
Y-262293D01*
X78983D01*
Y-262339D01*
X79029D01*
Y-262386D01*
X79076D01*
Y-262480D01*
X79123D01*
Y-262526D01*
X79170D01*
Y-262573D01*
X79216D01*
Y-262667D01*
X79263D01*
Y-262713D01*
X79310D01*
Y-262760D01*
X79357D01*
Y-262854D01*
X79403D01*
Y-262900D01*
X79450D01*
Y-262947D01*
X79497D01*
Y-263041D01*
X79544D01*
Y-263087D01*
X79590D01*
Y-263134D01*
X79637D01*
Y-263228D01*
X79684D01*
Y-263274D01*
X79731D01*
Y-263368D01*
X79777D01*
Y-263414D01*
X79824D01*
Y-263461D01*
X79871D01*
Y-263555D01*
X79918D01*
Y-263601D01*
X79964D01*
Y-263695D01*
X80011D01*
Y-263742D01*
X80058D01*
Y-263835D01*
X80105D01*
Y-263882D01*
X80151D01*
Y-263929D01*
X80198D01*
Y-264022D01*
X80245D01*
Y-264069D01*
X80292D01*
Y-264162D01*
X80338D01*
Y-264209D01*
X80385D01*
Y-264303D01*
X80432D01*
Y-264349D01*
X80478D01*
Y-264443D01*
X80525D01*
Y-264489D01*
X80572D01*
Y-264583D01*
X80619D01*
Y-264630D01*
X80665D01*
Y-264723D01*
X80712D01*
Y-264770D01*
X80759D01*
Y-264863D01*
X80806D01*
Y-264910D01*
X80852D01*
Y-265004D01*
X80899D01*
Y-265097D01*
X80946D01*
Y-265144D01*
X80993D01*
Y-265237D01*
X81039D01*
Y-265284D01*
X81086D01*
Y-265378D01*
X81133D01*
Y-265471D01*
X81180D01*
Y-265518D01*
X81226D01*
Y-265611D01*
X81273D01*
Y-265658D01*
X81320D01*
Y-265751D01*
X81367D01*
Y-265845D01*
X81413D01*
Y-265892D01*
X81460D01*
Y-265985D01*
X81507D01*
Y-266079D01*
X81553D01*
Y-266126D01*
X81600D01*
Y-266219D01*
X81647D01*
Y-266312D01*
X81694D01*
Y-266406D01*
X81741D01*
Y-266453D01*
X81787D01*
Y-266546D01*
X81834D01*
Y-266640D01*
X81881D01*
Y-266733D01*
X81927D01*
Y-266780D01*
X81974D01*
Y-266873D01*
X82021D01*
Y-266967D01*
X82068D01*
Y-267060D01*
X82114D01*
Y-267107D01*
X82161D01*
Y-267201D01*
X82208D01*
Y-267294D01*
X82255D01*
Y-267388D01*
X82301D01*
Y-267481D01*
X82348D01*
Y-267574D01*
X82395D01*
Y-267668D01*
X82442D01*
Y-267715D01*
X82488D01*
Y-267808D01*
X82535D01*
Y-267902D01*
X82582D01*
Y-267995D01*
X82628D01*
Y-268089D01*
X82675D01*
Y-268182D01*
X82722D01*
Y-268276D01*
X82769D01*
Y-268369D01*
X82816D01*
Y-268463D01*
X82862D01*
Y-268556D01*
X82909D01*
Y-268650D01*
X82956D01*
Y-268743D01*
X83003D01*
Y-268836D01*
X83049D01*
Y-268930D01*
X83096D01*
Y-269023D01*
X83143D01*
Y-269117D01*
X83189D01*
Y-269210D01*
X83236D01*
Y-269350D01*
X83283D01*
Y-269444D01*
X83330D01*
Y-269538D01*
X83376D01*
Y-269631D01*
X83423D01*
Y-269725D01*
X83470D01*
Y-269865D01*
X83517D01*
Y-269958D01*
X83563D01*
Y-270052D01*
X83610D01*
Y-270145D01*
X83657D01*
Y-270285D01*
X83704D01*
Y-270379D01*
X83750D01*
Y-270472D01*
X83797D01*
Y-270613D01*
X83844D01*
Y-270706D01*
X83890D01*
Y-270800D01*
X83937D01*
Y-270940D01*
X83984D01*
Y-271033D01*
X84031D01*
Y-271173D01*
X84078D01*
Y-271267D01*
X84124D01*
Y-271407D01*
X84171D01*
Y-271501D01*
X84218D01*
Y-271641D01*
X84264D01*
Y-271734D01*
X84311D01*
Y-271875D01*
X84358D01*
Y-271968D01*
X84405D01*
Y-272108D01*
X84451D01*
Y-272248D01*
X84498D01*
Y-272389D01*
X84545D01*
Y-272482D01*
X84592D01*
Y-272622D01*
X84638D01*
Y-272763D01*
X84685D01*
Y-272903D01*
X84732D01*
Y-273043D01*
X84779D01*
Y-273137D01*
X84825D01*
Y-273277D01*
X84872D01*
Y-273417D01*
X84919D01*
Y-273557D01*
X84966D01*
Y-273744D01*
X85012D01*
Y-273884D01*
X85059D01*
Y-274025D01*
X85106D01*
Y-274165D01*
X85153D01*
Y-274305D01*
X85199D01*
Y-274492D01*
X85246D01*
Y-274632D01*
X85293D01*
Y-274772D01*
X85339D01*
Y-274959D01*
X85386D01*
Y-275100D01*
X85433D01*
Y-275287D01*
X85480D01*
Y-275474D01*
X85526D01*
Y-275614D01*
X85573D01*
Y-275801D01*
X85620D01*
Y-275988D01*
X85667D01*
Y-276175D01*
X85713D01*
Y-276362D01*
X85760D01*
Y-276549D01*
X85807D01*
Y-276735D01*
X85854D01*
Y-276969D01*
X85900D01*
Y-277156D01*
X85947D01*
Y-277390D01*
X85994D01*
Y-277577D01*
X86041D01*
Y-277811D01*
X86087D01*
Y-278044D01*
X86134D01*
Y-278278D01*
X86181D01*
Y-278558D01*
X86228D01*
Y-278792D01*
X86274D01*
Y-279073D01*
X86321D01*
Y-279353D01*
X86368D01*
Y-279680D01*
X86414D01*
Y-280007D01*
X86461D01*
Y-280335D01*
X86508D01*
Y-280709D01*
X86555D01*
Y-281082D01*
X86601D01*
Y-281503D01*
X86648D01*
Y-282017D01*
X86695D01*
Y-282578D01*
X86742D01*
Y-283279D01*
X86788D01*
Y-284494D01*
X86835D01*
Y-286364D01*
X86788D01*
Y-287579D01*
X86742D01*
Y-288280D01*
X86695D01*
Y-288841D01*
X86648D01*
Y-289356D01*
X86601D01*
Y-289776D01*
X86555D01*
Y-290150D01*
X86508D01*
Y-290524D01*
X86461D01*
Y-290851D01*
X86414D01*
Y-291178D01*
X86368D01*
Y-291506D01*
X86321D01*
Y-291786D01*
X86274D01*
Y-292066D01*
X86228D01*
Y-292300D01*
X86181D01*
Y-292581D01*
X86134D01*
Y-292814D01*
X86087D01*
Y-293048D01*
X86041D01*
Y-293282D01*
X85994D01*
Y-293469D01*
X85947D01*
Y-293702D01*
X85900D01*
Y-293889D01*
X85854D01*
Y-294123D01*
X85807D01*
Y-294310D01*
X85760D01*
Y-294497D01*
X85713D01*
Y-294684D01*
X85667D01*
Y-294871D01*
X85620D01*
Y-295058D01*
X85573D01*
Y-295245D01*
X85526D01*
Y-295385D01*
X85480D01*
Y-295572D01*
X85433D01*
Y-295759D01*
X85386D01*
Y-295899D01*
X85339D01*
Y-296086D01*
X85293D01*
Y-296226D01*
X85246D01*
Y-296367D01*
X85199D01*
Y-296553D01*
X85153D01*
Y-296694D01*
X85106D01*
Y-296834D01*
X85059D01*
Y-296974D01*
X85012D01*
Y-297114D01*
X84966D01*
Y-297301D01*
X84919D01*
Y-297442D01*
X84872D01*
Y-297582D01*
X84825D01*
Y-297722D01*
X84779D01*
Y-297815D01*
X84732D01*
Y-297956D01*
X84685D01*
Y-298096D01*
X84638D01*
Y-298236D01*
X84592D01*
Y-298376D01*
X84545D01*
Y-298470D01*
X84498D01*
Y-298610D01*
X84451D01*
Y-298750D01*
X84405D01*
Y-298890D01*
X84358D01*
Y-298984D01*
X84311D01*
Y-299124D01*
X84264D01*
Y-299218D01*
X84218D01*
Y-299358D01*
X84171D01*
Y-299451D01*
X84124D01*
Y-299592D01*
X84078D01*
Y-299685D01*
X84031D01*
Y-299825D01*
X83984D01*
Y-299919D01*
X83937D01*
Y-300059D01*
X83890D01*
Y-300152D01*
X83844D01*
Y-300246D01*
X83797D01*
Y-300386D01*
X83750D01*
Y-300480D01*
X83704D01*
Y-300573D01*
X83657D01*
Y-300713D01*
X83610D01*
Y-300807D01*
X83563D01*
Y-300900D01*
X83517D01*
Y-300994D01*
X83470D01*
Y-301134D01*
X83423D01*
Y-301227D01*
X83376D01*
Y-301321D01*
X83330D01*
Y-301415D01*
X83283D01*
Y-301508D01*
X83236D01*
Y-301648D01*
X83189D01*
Y-301742D01*
X83143D01*
Y-301835D01*
X83096D01*
Y-301929D01*
X83049D01*
Y-302022D01*
X83003D01*
Y-302116D01*
X82956D01*
Y-302209D01*
X82909D01*
Y-302303D01*
X82862D01*
Y-302396D01*
X82816D01*
Y-302489D01*
X82769D01*
Y-302583D01*
X82722D01*
Y-302677D01*
X82675D01*
Y-302770D01*
X82628D01*
Y-302864D01*
X82582D01*
Y-302957D01*
X82535D01*
Y-303050D01*
X82488D01*
Y-303144D01*
X82442D01*
Y-303191D01*
X82395D01*
Y-303284D01*
X82348D01*
Y-303378D01*
X82301D01*
Y-303471D01*
X82255D01*
Y-303565D01*
X82208D01*
Y-303658D01*
X82161D01*
Y-303752D01*
X82114D01*
Y-303798D01*
X82068D01*
Y-303892D01*
X82021D01*
Y-303985D01*
X81974D01*
Y-304079D01*
X81927D01*
Y-304125D01*
X81881D01*
Y-304219D01*
X81834D01*
Y-304312D01*
X81787D01*
Y-304406D01*
X81741D01*
Y-304453D01*
X81694D01*
Y-304546D01*
X81647D01*
Y-304640D01*
X81600D01*
Y-304733D01*
X81553D01*
Y-304780D01*
X81507D01*
Y-304873D01*
X81460D01*
Y-304967D01*
X81413D01*
Y-305014D01*
X81367D01*
Y-305107D01*
X81320D01*
Y-305201D01*
X81273D01*
Y-305247D01*
X81226D01*
Y-305341D01*
X81180D01*
Y-305387D01*
X81133D01*
Y-305481D01*
X81086D01*
Y-305574D01*
X81039D01*
Y-305621D01*
X80993D01*
Y-305715D01*
X80946D01*
Y-305761D01*
X80899D01*
Y-305855D01*
X80852D01*
Y-305948D01*
X80806D01*
Y-305995D01*
X80759D01*
Y-306089D01*
X80712D01*
Y-306135D01*
X80665D01*
Y-306229D01*
X80619D01*
Y-306276D01*
X80572D01*
Y-306369D01*
X80525D01*
Y-306416D01*
X80478D01*
Y-306509D01*
X80432D01*
Y-306556D01*
X80385D01*
Y-306649D01*
X80338D01*
Y-306696D01*
X80292D01*
Y-306790D01*
X80245D01*
Y-306836D01*
X80198D01*
Y-306930D01*
X80151D01*
Y-306977D01*
X80105D01*
Y-307023D01*
X80058D01*
Y-307117D01*
X80011D01*
Y-307164D01*
X79964D01*
Y-307257D01*
X79918D01*
Y-307304D01*
X79871D01*
Y-307397D01*
X79824D01*
Y-307444D01*
X79777D01*
Y-307491D01*
X79731D01*
Y-307584D01*
X79684D01*
Y-307631D01*
X79637D01*
Y-307724D01*
X79590D01*
Y-307771D01*
X79544D01*
Y-307818D01*
X79497D01*
Y-307911D01*
X79450D01*
Y-307958D01*
X79403D01*
Y-308005D01*
X79357D01*
Y-308098D01*
X79310D01*
Y-308145D01*
X79263D01*
Y-308192D01*
X79216D01*
Y-308285D01*
X79170D01*
Y-308332D01*
X79123D01*
Y-308379D01*
X79076D01*
Y-308472D01*
X79029D01*
Y-308519D01*
X78983D01*
Y-308566D01*
X78936D01*
Y-308659D01*
X78889D01*
Y-308706D01*
X78843D01*
Y-308753D01*
X78796D01*
Y-308846D01*
X78749D01*
Y-308893D01*
X78702D01*
Y-308940D01*
X78656D01*
Y-308986D01*
X78609D01*
Y-309080D01*
X78562D01*
Y-309127D01*
X78515D01*
Y-309173D01*
X78469D01*
Y-309220D01*
X78422D01*
Y-309314D01*
X78375D01*
Y-309360D01*
X78328D01*
Y-309407D01*
X78282D01*
Y-309454D01*
X78235D01*
Y-309547D01*
X78188D01*
Y-309594D01*
X78141D01*
Y-309641D01*
X78095D01*
Y-309688D01*
X78048D01*
Y-309734D01*
X78001D01*
Y-309828D01*
X77955D01*
Y-309874D01*
X77908D01*
Y-309921D01*
X77861D01*
Y-309968D01*
X77814D01*
Y-310015D01*
X77768D01*
Y-310061D01*
X77721D01*
Y-310155D01*
X77674D01*
Y-310202D01*
X77627D01*
Y-310249D01*
X77581D01*
Y-310295D01*
X77534D01*
Y-310342D01*
X77487D01*
Y-310389D01*
X77440D01*
Y-310482D01*
X77394D01*
Y-310529D01*
X77347D01*
Y-310576D01*
X77300D01*
Y-310622D01*
X77253D01*
Y-310669D01*
X77207D01*
Y-310716D01*
X77160D01*
Y-310763D01*
X77113D01*
Y-310809D01*
X77066D01*
Y-310903D01*
X77020D01*
Y-310950D01*
X76973D01*
Y-310996D01*
X76926D01*
Y-311043D01*
X76880D01*
Y-311090D01*
X76833D01*
Y-311136D01*
X76786D01*
Y-311183D01*
X76739D01*
Y-311230D01*
X76693D01*
Y-311277D01*
X76646D01*
Y-311324D01*
X76599D01*
Y-311370D01*
X76552D01*
Y-311464D01*
X76505D01*
Y-311511D01*
X76459D01*
Y-311557D01*
X76412D01*
Y-311604D01*
X76365D01*
Y-311651D01*
X76319D01*
Y-311697D01*
X76272D01*
Y-311744D01*
X76225D01*
Y-311791D01*
X76178D01*
Y-311838D01*
X76132D01*
Y-311884D01*
X76085D01*
Y-311931D01*
X76038D01*
Y-311978D01*
X75991D01*
Y-312025D01*
X75945D01*
Y-312071D01*
X75898D01*
Y-312118D01*
X75851D01*
Y-312165D01*
X75804D01*
Y-312212D01*
X75758D01*
Y-312258D01*
X75711D01*
Y-312305D01*
X75664D01*
Y-312352D01*
X75617D01*
Y-312398D01*
X75571D01*
Y-312445D01*
X75524D01*
Y-312492D01*
X75477D01*
Y-312539D01*
X75430D01*
Y-312586D01*
X75384D01*
Y-312632D01*
X75337D01*
Y-312679D01*
X75290D01*
Y-312726D01*
X75244D01*
Y-312773D01*
X75197D01*
Y-312819D01*
X75150D01*
Y-312866D01*
X75103D01*
Y-312913D01*
X75057D01*
Y-312959D01*
X75010D01*
Y-313006D01*
X74963D01*
Y-313053D01*
X74916D01*
Y-313100D01*
X74870D01*
Y-313146D01*
X74776D01*
Y-313193D01*
X74729D01*
Y-313240D01*
X74683D01*
Y-313287D01*
X74636D01*
Y-313333D01*
X74589D01*
Y-313380D01*
X74542D01*
Y-313427D01*
X74496D01*
Y-313474D01*
X74449D01*
Y-313520D01*
X74402D01*
Y-313567D01*
X74356D01*
Y-313614D01*
X74309D01*
Y-313661D01*
X74215D01*
Y-313707D01*
X74169D01*
Y-313754D01*
X74122D01*
Y-313801D01*
X74075D01*
Y-313848D01*
X74028D01*
Y-313894D01*
X73982D01*
Y-313941D01*
X73935D01*
Y-313988D01*
X73888D01*
Y-314034D01*
X73795D01*
Y-314081D01*
X73748D01*
Y-314128D01*
X73701D01*
Y-314175D01*
X73654D01*
Y-314221D01*
X73608D01*
Y-314268D01*
X73561D01*
Y-314315D01*
X73467D01*
Y-314362D01*
X73421D01*
Y-314408D01*
X73374D01*
Y-314455D01*
X73327D01*
Y-314502D01*
X73280D01*
Y-314549D01*
X73234D01*
Y-314595D01*
X73140D01*
Y-314642D01*
X73094D01*
Y-314689D01*
X73047D01*
Y-314736D01*
X73000D01*
Y-314782D01*
X72953D01*
Y-314829D01*
X72860D01*
Y-314876D01*
X72813D01*
Y-314923D01*
X72766D01*
Y-314969D01*
X72720D01*
Y-315016D01*
X72626D01*
Y-315063D01*
X72579D01*
Y-315110D01*
X72533D01*
Y-315156D01*
X72486D01*
Y-315203D01*
X72392D01*
Y-315250D01*
X72346D01*
Y-315296D01*
X72299D01*
Y-315343D01*
X72252D01*
Y-315390D01*
X72159D01*
Y-315437D01*
X72112D01*
Y-315483D01*
X72065D01*
Y-315530D01*
X71972D01*
Y-315577D01*
X71925D01*
Y-315624D01*
X71878D01*
Y-315670D01*
X71785D01*
Y-315717D01*
X71738D01*
Y-315764D01*
X71691D01*
Y-315811D01*
X71598D01*
Y-315857D01*
X71551D01*
Y-315904D01*
X71504D01*
Y-315951D01*
X71411D01*
Y-315998D01*
X71364D01*
Y-316044D01*
X71317D01*
Y-316091D01*
X71224D01*
Y-316138D01*
X71177D01*
Y-316185D01*
X71130D01*
Y-316231D01*
X71037D01*
Y-316278D01*
X70990D01*
Y-316325D01*
X70897D01*
Y-316371D01*
X70850D01*
Y-316418D01*
X70803D01*
Y-316465D01*
X70710D01*
Y-316512D01*
X70663D01*
Y-316558D01*
X70570D01*
Y-316605D01*
X70523D01*
Y-316652D01*
X70429D01*
Y-316699D01*
X70382D01*
Y-316745D01*
X70336D01*
Y-316792D01*
X70242D01*
Y-316839D01*
X70196D01*
Y-316886D01*
X70102D01*
Y-316932D01*
X70055D01*
Y-316979D01*
X69962D01*
Y-317026D01*
X69915D01*
Y-317073D01*
X69822D01*
Y-317119D01*
X69775D01*
Y-317166D01*
X69681D01*
Y-317213D01*
X69635D01*
Y-317260D01*
X69541D01*
Y-317306D01*
X69495D01*
Y-317353D01*
X69401D01*
Y-317400D01*
X69354D01*
Y-317446D01*
X69261D01*
Y-317493D01*
X69167D01*
Y-317540D01*
X69120D01*
Y-317587D01*
X69027D01*
Y-317633D01*
X68980D01*
Y-317680D01*
X68887D01*
Y-317727D01*
X68793D01*
Y-317774D01*
X68747D01*
Y-317820D01*
X68653D01*
Y-317867D01*
X68606D01*
Y-317914D01*
X68513D01*
Y-317961D01*
X68419D01*
Y-318007D01*
X68373D01*
Y-318054D01*
X68279D01*
Y-318101D01*
X68186D01*
Y-318148D01*
X68139D01*
Y-318194D01*
X68046D01*
Y-318241D01*
X67952D01*
Y-318288D01*
X67859D01*
Y-318335D01*
X67812D01*
Y-318381D01*
X67718D01*
Y-318428D01*
X67625D01*
Y-318475D01*
X67531D01*
Y-318521D01*
X67485D01*
Y-318568D01*
X67391D01*
Y-318615D01*
X67298D01*
Y-318662D01*
X67204D01*
Y-318708D01*
X67157D01*
Y-318755D01*
X67064D01*
Y-318802D01*
X66971D01*
Y-318849D01*
X66877D01*
Y-318895D01*
X66783D01*
Y-318942D01*
X66690D01*
Y-318989D01*
X66597D01*
Y-319036D01*
X66550D01*
Y-319082D01*
X66456D01*
Y-319129D01*
X66363D01*
Y-319176D01*
X66269D01*
Y-319223D01*
X66176D01*
Y-319269D01*
X66082D01*
Y-319316D01*
X65989D01*
Y-319363D01*
X65895D01*
Y-319410D01*
X65802D01*
Y-319456D01*
X65708D01*
Y-319503D01*
X65615D01*
Y-319550D01*
X65521D01*
Y-319597D01*
X65428D01*
Y-319643D01*
X65335D01*
Y-319690D01*
X65241D01*
Y-319737D01*
X65148D01*
Y-319783D01*
X65054D01*
Y-319830D01*
X64914D01*
Y-319877D01*
X64820D01*
Y-319924D01*
X64727D01*
Y-319970D01*
X64633D01*
Y-320017D01*
X64540D01*
Y-320064D01*
X64400D01*
Y-320111D01*
X64306D01*
Y-320157D01*
X64213D01*
Y-320204D01*
X64119D01*
Y-320251D01*
X63979D01*
Y-320298D01*
X63886D01*
Y-320344D01*
X63792D01*
Y-320391D01*
X63652D01*
Y-320438D01*
X63558D01*
Y-320485D01*
X63465D01*
Y-320531D01*
X63325D01*
Y-320578D01*
X63231D01*
Y-320625D01*
X63091D01*
Y-320672D01*
X62997D01*
Y-320718D01*
X62857D01*
Y-320765D01*
X62764D01*
Y-320812D01*
X62624D01*
Y-320858D01*
X62530D01*
Y-320905D01*
X62390D01*
Y-320952D01*
X62296D01*
Y-320999D01*
X62156D01*
Y-321045D01*
X62016D01*
Y-321092D01*
X61876D01*
Y-321139D01*
X61782D01*
Y-321186D01*
X61642D01*
Y-321232D01*
X61502D01*
Y-321279D01*
X61362D01*
Y-321326D01*
X61221D01*
Y-321373D01*
X61128D01*
Y-321419D01*
X60988D01*
Y-321466D01*
X60848D01*
Y-321513D01*
X60707D01*
Y-321560D01*
X60520D01*
Y-321606D01*
X60380D01*
Y-321653D01*
X60240D01*
Y-321700D01*
X60100D01*
Y-321747D01*
X59959D01*
Y-321793D01*
X59772D01*
Y-321840D01*
X59632D01*
Y-321887D01*
X59492D01*
Y-321934D01*
X59305D01*
Y-321980D01*
X59165D01*
Y-322027D01*
X58978D01*
Y-322074D01*
X58791D01*
Y-322121D01*
X58651D01*
Y-322167D01*
X58464D01*
Y-322214D01*
X58277D01*
Y-322261D01*
X58090D01*
Y-322308D01*
X57903D01*
Y-322354D01*
X57716D01*
Y-322401D01*
X57529D01*
Y-322448D01*
X57295D01*
Y-322495D01*
X57108D01*
Y-322541D01*
X56874D01*
Y-322588D01*
X56688D01*
Y-322635D01*
X56454D01*
Y-322681D01*
X56220D01*
Y-322728D01*
X55986D01*
Y-322775D01*
X55706D01*
Y-322822D01*
X55472D01*
Y-322868D01*
X55192D01*
Y-322915D01*
X54911D01*
Y-322962D01*
X54584D01*
Y-323009D01*
X54257D01*
Y-323055D01*
X53930D01*
Y-323102D01*
X53556D01*
Y-323149D01*
X53182D01*
Y-323196D01*
X52761D01*
Y-323242D01*
X52247D01*
Y-323289D01*
X51686D01*
Y-323336D01*
X50985D01*
Y-323382D01*
X49770D01*
Y-323429D01*
X47900D01*
Y-323382D01*
X46685D01*
Y-323336D01*
X45984D01*
Y-323289D01*
X45423D01*
Y-323242D01*
X44909D01*
Y-323196D01*
X44488D01*
Y-323149D01*
X44114D01*
Y-323102D01*
X43741D01*
Y-323055D01*
X43413D01*
Y-323009D01*
X43086D01*
Y-322962D01*
X42759D01*
Y-322915D01*
X42478D01*
Y-322868D01*
X42198D01*
Y-322822D01*
X41964D01*
Y-322775D01*
X41684D01*
Y-322728D01*
X41450D01*
Y-322681D01*
X41217D01*
Y-322635D01*
X40983D01*
Y-322588D01*
X40796D01*
Y-322541D01*
X40562D01*
Y-322495D01*
X40375D01*
Y-322448D01*
X40141D01*
Y-322401D01*
X39955D01*
Y-322354D01*
X39767D01*
Y-322308D01*
X39581D01*
Y-322261D01*
X39394D01*
Y-322214D01*
X39207D01*
Y-322167D01*
X39020D01*
Y-322121D01*
X38879D01*
Y-322074D01*
X38693D01*
Y-322027D01*
X38505D01*
Y-321980D01*
X38365D01*
Y-321934D01*
X38178D01*
Y-321887D01*
X38038D01*
Y-321840D01*
X37898D01*
Y-321793D01*
X37711D01*
Y-321747D01*
X37571D01*
Y-321700D01*
X37431D01*
Y-321653D01*
X37290D01*
Y-321606D01*
X37150D01*
Y-321560D01*
X36963D01*
Y-321513D01*
X36823D01*
Y-321466D01*
X36683D01*
Y-321419D01*
X36542D01*
Y-321373D01*
X36449D01*
Y-321326D01*
X36309D01*
Y-321279D01*
X36168D01*
Y-321232D01*
X36028D01*
Y-321186D01*
X35888D01*
Y-321139D01*
X35795D01*
Y-321092D01*
X35654D01*
Y-321045D01*
X35514D01*
Y-320999D01*
X35374D01*
Y-320952D01*
X35280D01*
Y-320905D01*
X35140D01*
Y-320858D01*
X35047D01*
Y-320812D01*
X34906D01*
Y-320765D01*
X34813D01*
Y-320718D01*
X34673D01*
Y-320672D01*
X34579D01*
Y-320625D01*
X34439D01*
Y-320578D01*
X34346D01*
Y-320531D01*
X34205D01*
Y-320485D01*
X34112D01*
Y-320438D01*
X34018D01*
Y-320391D01*
X33878D01*
Y-320344D01*
X33785D01*
Y-320298D01*
X33691D01*
Y-320251D01*
X33551D01*
Y-320204D01*
X33458D01*
Y-320157D01*
X33364D01*
Y-320111D01*
X33271D01*
Y-320064D01*
X33130D01*
Y-320017D01*
X33037D01*
Y-319970D01*
X32943D01*
Y-319924D01*
X32850D01*
Y-319877D01*
X32756D01*
Y-319830D01*
X32616D01*
Y-319783D01*
X32523D01*
Y-319737D01*
X32429D01*
Y-319690D01*
X32336D01*
Y-319643D01*
X32242D01*
Y-319597D01*
X32149D01*
Y-319550D01*
X32055D01*
Y-319503D01*
X31962D01*
Y-319456D01*
X31868D01*
Y-319410D01*
X31775D01*
Y-319363D01*
X31681D01*
Y-319316D01*
X31588D01*
Y-319269D01*
X31495D01*
Y-319223D01*
X31401D01*
Y-319176D01*
X31307D01*
Y-319129D01*
X31214D01*
Y-319082D01*
X31121D01*
Y-319036D01*
X31074D01*
Y-318989D01*
X30980D01*
Y-318942D01*
X30887D01*
Y-318895D01*
X30793D01*
Y-318849D01*
X30700D01*
Y-318802D01*
X30606D01*
Y-318755D01*
X30513D01*
Y-318708D01*
X30466D01*
Y-318662D01*
X30373D01*
Y-318615D01*
X30279D01*
Y-318568D01*
X30186D01*
Y-318521D01*
X30139D01*
Y-318475D01*
X30045D01*
Y-318428D01*
X29952D01*
Y-318381D01*
X29859D01*
Y-318335D01*
X29812D01*
Y-318288D01*
X29718D01*
Y-318241D01*
X29625D01*
Y-318194D01*
X29531D01*
Y-318148D01*
X29485D01*
Y-318101D01*
X29391D01*
Y-318054D01*
X29298D01*
Y-318007D01*
X29251D01*
Y-317961D01*
X29157D01*
Y-317914D01*
X29064D01*
Y-317867D01*
X29017D01*
Y-317820D01*
X28924D01*
Y-317774D01*
X28877D01*
Y-317727D01*
X28784D01*
Y-317680D01*
X28690D01*
Y-317633D01*
X28643D01*
Y-317587D01*
X28550D01*
Y-317540D01*
X28503D01*
Y-317493D01*
X28410D01*
Y-317446D01*
X28316D01*
Y-317400D01*
X28269D01*
Y-317353D01*
X28176D01*
Y-317306D01*
X28129D01*
Y-317260D01*
X28036D01*
Y-317213D01*
X27989D01*
Y-317166D01*
X27895D01*
Y-317119D01*
X27849D01*
Y-317073D01*
X27755D01*
Y-317026D01*
X27708D01*
Y-316979D01*
X27615D01*
Y-316932D01*
X27568D01*
Y-316886D01*
X27475D01*
Y-316839D01*
X27428D01*
Y-316792D01*
X27335D01*
Y-316745D01*
X27288D01*
Y-316699D01*
X27241D01*
Y-316652D01*
X27148D01*
Y-316605D01*
X27101D01*
Y-316558D01*
X27007D01*
Y-316512D01*
X26961D01*
Y-316465D01*
X26867D01*
Y-316418D01*
X26820D01*
Y-316371D01*
X26774D01*
Y-316325D01*
X26680D01*
Y-316278D01*
X26633D01*
Y-316231D01*
X26540D01*
Y-316185D01*
X26493D01*
Y-316138D01*
X26446D01*
Y-316091D01*
X26353D01*
Y-316044D01*
X26306D01*
Y-315998D01*
X26260D01*
Y-315951D01*
X26166D01*
Y-315904D01*
X26119D01*
Y-315857D01*
X26073D01*
Y-315811D01*
X25979D01*
Y-315764D01*
X25932D01*
Y-315717D01*
X25886D01*
Y-315670D01*
X25792D01*
Y-315624D01*
X25745D01*
Y-315577D01*
X25699D01*
Y-315530D01*
X25605D01*
Y-315483D01*
X25558D01*
Y-315437D01*
X25512D01*
Y-315390D01*
X25418D01*
Y-315343D01*
X25371D01*
Y-315296D01*
X25325D01*
Y-315250D01*
X25278D01*
Y-315203D01*
X25185D01*
Y-315156D01*
X25138D01*
Y-315110D01*
X25091D01*
Y-315063D01*
X25044D01*
Y-315016D01*
X24951D01*
Y-314969D01*
X24904D01*
Y-314923D01*
X24857D01*
Y-314876D01*
X24811D01*
Y-314829D01*
X24717D01*
Y-314782D01*
X24670D01*
Y-314736D01*
X24624D01*
Y-314689D01*
X24577D01*
Y-314642D01*
X24530D01*
Y-314595D01*
X24437D01*
Y-314549D01*
X24390D01*
Y-314502D01*
X24343D01*
Y-314455D01*
X24296D01*
Y-314408D01*
X24250D01*
Y-314362D01*
X24203D01*
Y-314315D01*
X24109D01*
Y-314268D01*
X24063D01*
Y-314221D01*
X24016D01*
Y-314175D01*
X23969D01*
Y-314128D01*
X23923D01*
Y-314081D01*
X23876D01*
Y-314034D01*
X23782D01*
Y-313988D01*
X23736D01*
Y-313941D01*
X23689D01*
Y-313894D01*
X23642D01*
Y-313848D01*
X23595D01*
Y-313801D01*
X23549D01*
Y-313754D01*
X23502D01*
Y-313707D01*
X23455D01*
Y-313661D01*
X23362D01*
Y-313614D01*
X23315D01*
Y-313567D01*
X23268D01*
Y-313520D01*
X23221D01*
Y-313474D01*
X23175D01*
Y-313427D01*
X23128D01*
Y-313380D01*
X23081D01*
Y-313333D01*
X23034D01*
Y-313287D01*
X22988D01*
Y-313240D01*
X22941D01*
Y-313193D01*
X22894D01*
Y-313146D01*
X22801D01*
Y-313100D01*
X22754D01*
Y-313053D01*
X22707D01*
Y-313006D01*
X22661D01*
Y-312959D01*
X22614D01*
Y-312913D01*
X22567D01*
Y-312866D01*
X22520D01*
Y-312819D01*
X22474D01*
Y-312773D01*
X22427D01*
Y-312726D01*
X22380D01*
Y-312679D01*
X22333D01*
Y-312632D01*
X22287D01*
Y-312586D01*
X22240D01*
Y-312539D01*
X22193D01*
Y-312492D01*
X22146D01*
Y-312445D01*
X22100D01*
Y-312398D01*
X22053D01*
Y-312352D01*
X22006D01*
Y-312305D01*
X21959D01*
Y-312258D01*
X21913D01*
Y-312212D01*
X21866D01*
Y-312165D01*
X21819D01*
Y-312118D01*
X21772D01*
Y-312071D01*
X21726D01*
Y-312025D01*
X21679D01*
Y-311978D01*
X21632D01*
Y-311931D01*
X21586D01*
Y-311884D01*
X21539D01*
Y-311838D01*
X21492D01*
Y-311791D01*
X21445D01*
Y-311744D01*
X21398D01*
Y-311697D01*
X21352D01*
Y-311651D01*
X21305D01*
Y-311604D01*
X21258D01*
Y-311557D01*
X21212D01*
Y-311511D01*
X21165D01*
Y-311464D01*
X21118D01*
Y-311370D01*
X21071D01*
Y-311324D01*
X21025D01*
Y-311277D01*
X20978D01*
Y-311230D01*
X20931D01*
Y-311183D01*
X20884D01*
Y-311136D01*
X20838D01*
Y-311090D01*
X20791D01*
Y-311043D01*
X20744D01*
Y-310996D01*
X20697D01*
Y-310950D01*
X20651D01*
Y-310903D01*
X20604D01*
Y-310809D01*
X20557D01*
Y-310763D01*
X20510D01*
Y-310716D01*
X20464D01*
Y-310669D01*
X20417D01*
Y-310622D01*
X20370D01*
Y-310576D01*
X20324D01*
Y-310529D01*
X20277D01*
Y-310482D01*
X20230D01*
Y-310389D01*
X20183D01*
Y-310342D01*
X20136D01*
Y-310295D01*
X20090D01*
Y-310249D01*
X20043D01*
Y-310202D01*
X19996D01*
Y-310155D01*
X19950D01*
Y-310061D01*
X19903D01*
Y-310015D01*
X19856D01*
Y-309968D01*
X19809D01*
Y-309921D01*
X19763D01*
Y-309874D01*
X19716D01*
Y-309828D01*
X19669D01*
Y-309734D01*
X19622D01*
Y-309688D01*
X19576D01*
Y-309641D01*
X19529D01*
Y-309594D01*
X19482D01*
Y-309547D01*
X19435D01*
Y-309454D01*
X19389D01*
Y-309407D01*
X19342D01*
Y-309360D01*
X19295D01*
Y-309314D01*
X19248D01*
Y-309220D01*
X19202D01*
Y-309173D01*
X19155D01*
Y-309127D01*
X19108D01*
Y-309080D01*
X19061D01*
Y-308986D01*
X19015D01*
Y-308940D01*
X18968D01*
Y-308893D01*
X18921D01*
Y-308846D01*
X18874D01*
Y-308753D01*
X18828D01*
Y-308706D01*
X18781D01*
Y-308659D01*
X18734D01*
Y-308566D01*
X18688D01*
Y-308519D01*
X18641D01*
Y-308472D01*
X18594D01*
Y-308379D01*
X18547D01*
Y-308332D01*
X18501D01*
Y-308285D01*
X18454D01*
Y-308192D01*
X18407D01*
Y-308145D01*
X18360D01*
Y-308098D01*
X18314D01*
Y-308005D01*
X18267D01*
Y-307958D01*
X18220D01*
Y-307911D01*
X18173D01*
Y-307818D01*
X18127D01*
Y-307771D01*
X18080D01*
Y-307724D01*
X18033D01*
Y-307631D01*
X17987D01*
Y-307584D01*
X17940D01*
Y-307491D01*
X17893D01*
Y-307444D01*
X17846D01*
Y-307397D01*
X17800D01*
Y-307304D01*
X17753D01*
Y-307257D01*
X17706D01*
Y-307164D01*
X17659D01*
Y-307117D01*
X17613D01*
Y-307023D01*
X17566D01*
Y-306977D01*
X17519D01*
Y-306930D01*
X17472D01*
Y-306836D01*
X17426D01*
Y-306790D01*
X17379D01*
Y-306696D01*
X17332D01*
Y-306649D01*
X17285D01*
Y-306556D01*
X17239D01*
Y-306509D01*
X17192D01*
Y-306416D01*
X17145D01*
Y-306369D01*
X17098D01*
Y-306276D01*
X17052D01*
Y-306229D01*
X17005D01*
Y-306135D01*
X16958D01*
Y-306089D01*
X16911D01*
Y-305995D01*
X16865D01*
Y-305948D01*
X16818D01*
Y-305855D01*
X16771D01*
Y-305761D01*
X16724D01*
Y-305715D01*
X16678D01*
Y-305621D01*
X16631D01*
Y-305574D01*
X16584D01*
Y-305481D01*
X16537D01*
Y-305387D01*
X16491D01*
Y-305341D01*
X16444D01*
Y-305247D01*
X16397D01*
Y-305201D01*
X16351D01*
Y-305107D01*
X16304D01*
Y-305014D01*
X16257D01*
Y-304967D01*
X16210D01*
Y-304873D01*
X16164D01*
Y-304780D01*
X16117D01*
Y-304733D01*
X16070D01*
Y-304640D01*
X16023D01*
Y-304546D01*
X15977D01*
Y-304453D01*
X15930D01*
Y-304406D01*
X15883D01*
Y-304312D01*
X15836D01*
Y-304219D01*
X15790D01*
Y-304125D01*
X15743D01*
Y-304079D01*
X15696D01*
Y-303985D01*
X15649D01*
Y-303892D01*
X15603D01*
Y-303798D01*
X15556D01*
Y-303752D01*
X15509D01*
Y-303658D01*
X15462D01*
Y-303565D01*
X15416D01*
Y-303471D01*
X15369D01*
Y-303378D01*
X15322D01*
Y-303284D01*
X15275D01*
Y-303191D01*
X15229D01*
Y-303144D01*
X15182D01*
Y-303050D01*
X15135D01*
Y-302957D01*
X15089D01*
Y-302864D01*
X15042D01*
Y-302770D01*
X14995D01*
Y-302677D01*
X14948D01*
Y-302583D01*
X14902D01*
Y-302489D01*
X14855D01*
Y-302396D01*
X14808D01*
Y-302303D01*
X14761D01*
Y-302209D01*
X14715D01*
Y-302116D01*
X14668D01*
Y-302022D01*
X14621D01*
Y-301929D01*
X14574D01*
Y-301835D01*
X14528D01*
Y-301742D01*
X14481D01*
Y-301648D01*
X14434D01*
Y-301508D01*
X14387D01*
Y-301415D01*
X14341D01*
Y-301321D01*
X14294D01*
Y-301227D01*
X14247D01*
Y-301134D01*
X14201D01*
Y-300994D01*
X14154D01*
Y-300900D01*
X14107D01*
Y-300807D01*
X14060D01*
Y-300713D01*
X14014D01*
Y-300573D01*
X13967D01*
Y-300480D01*
X13920D01*
Y-300386D01*
X13873D01*
Y-300246D01*
X13827D01*
Y-300152D01*
X13780D01*
Y-300059D01*
X13733D01*
Y-299919D01*
X13686D01*
Y-299825D01*
X13640D01*
Y-299685D01*
X13593D01*
Y-299592D01*
X13546D01*
Y-299451D01*
X13499D01*
Y-299358D01*
X13453D01*
Y-299218D01*
X13406D01*
Y-299124D01*
X13359D01*
Y-298984D01*
X13312D01*
Y-298890D01*
X13266D01*
Y-298750D01*
X13219D01*
Y-298610D01*
X13172D01*
Y-298470D01*
X13125D01*
Y-298376D01*
X13079D01*
Y-298236D01*
X13032D01*
Y-298096D01*
X12985D01*
Y-297956D01*
X12938D01*
Y-297815D01*
X12892D01*
Y-297722D01*
X12845D01*
Y-297582D01*
X12798D01*
Y-297442D01*
X12751D01*
Y-297301D01*
X12705D01*
Y-297114D01*
X12658D01*
Y-296974D01*
X12611D01*
Y-296834D01*
X12565D01*
Y-296694D01*
X12518D01*
Y-296553D01*
X12471D01*
Y-296367D01*
X12424D01*
Y-296226D01*
X12378D01*
Y-296086D01*
X12331D01*
Y-295899D01*
X12284D01*
Y-295759D01*
X12237D01*
Y-295572D01*
X12191D01*
Y-295385D01*
X12144D01*
Y-295245D01*
X12097D01*
Y-295058D01*
X12050D01*
Y-294871D01*
X12004D01*
Y-294684D01*
X11957D01*
Y-294497D01*
X11910D01*
Y-294310D01*
X11863D01*
Y-294123D01*
X11817D01*
Y-293889D01*
X11770D01*
Y-293702D01*
X11723D01*
Y-293469D01*
X11676D01*
Y-293282D01*
X11630D01*
Y-293048D01*
X11583D01*
Y-292814D01*
X11536D01*
Y-292581D01*
X11489D01*
Y-292300D01*
X11443D01*
Y-292066D01*
X11396D01*
Y-291786D01*
X11349D01*
Y-291506D01*
X11303D01*
Y-291178D01*
X11256D01*
Y-290851D01*
X11209D01*
Y-290524D01*
X11162D01*
Y-290150D01*
X11116D01*
Y-289776D01*
X11069D01*
Y-289356D01*
X11022D01*
Y-288841D01*
X10975D01*
Y-288280D01*
X10929D01*
Y-287579D01*
X10882D01*
Y-286364D01*
X10835D01*
Y-284494D01*
X10882D01*
Y-283279D01*
X10929D01*
Y-282578D01*
X10975D01*
Y-282017D01*
X11022D01*
Y-281503D01*
X11069D01*
Y-281082D01*
X11116D01*
Y-280709D01*
X11162D01*
Y-280335D01*
X11209D01*
Y-280007D01*
X11256D01*
Y-279680D01*
X11303D01*
Y-279353D01*
X11349D01*
Y-279073D01*
X11396D01*
Y-278792D01*
X11443D01*
Y-278558D01*
X11489D01*
Y-278278D01*
X11536D01*
Y-278044D01*
X11583D01*
Y-277811D01*
X11630D01*
Y-277577D01*
X11676D01*
Y-277390D01*
X11723D01*
Y-277156D01*
X11770D01*
Y-276969D01*
X11817D01*
Y-276735D01*
X11863D01*
Y-276549D01*
X11910D01*
Y-276362D01*
X11957D01*
Y-276175D01*
X12004D01*
Y-275988D01*
X12050D01*
Y-275801D01*
X12097D01*
Y-275614D01*
X12144D01*
Y-275474D01*
X12191D01*
Y-275287D01*
X12237D01*
Y-275100D01*
X12284D01*
Y-274959D01*
X12331D01*
Y-274772D01*
X12378D01*
Y-274632D01*
X12424D01*
Y-274492D01*
X12471D01*
Y-274305D01*
X12518D01*
Y-274165D01*
X12565D01*
Y-274025D01*
X12611D01*
Y-273884D01*
X12658D01*
Y-273744D01*
X12705D01*
Y-273557D01*
X12751D01*
Y-273417D01*
X12798D01*
Y-273277D01*
X12845D01*
Y-273137D01*
X12892D01*
Y-273043D01*
X12938D01*
Y-272903D01*
X12985D01*
Y-272763D01*
X13032D01*
Y-272622D01*
X13079D01*
Y-272482D01*
X13125D01*
Y-272389D01*
X13172D01*
Y-272248D01*
X13219D01*
Y-272108D01*
X13266D01*
Y-271968D01*
X13312D01*
Y-271875D01*
X13359D01*
Y-271734D01*
X13406D01*
Y-271641D01*
X13453D01*
Y-271501D01*
X13499D01*
Y-271407D01*
X13546D01*
Y-271267D01*
X13593D01*
Y-271173D01*
X13640D01*
Y-271033D01*
X13686D01*
Y-270940D01*
X13733D01*
Y-270800D01*
X13780D01*
Y-270706D01*
X13827D01*
Y-270613D01*
X13873D01*
Y-270472D01*
X13920D01*
Y-270379D01*
X13967D01*
Y-270285D01*
X14014D01*
Y-270145D01*
X14060D01*
Y-270052D01*
X14107D01*
Y-269958D01*
X14154D01*
Y-269865D01*
X14201D01*
Y-269725D01*
X14247D01*
Y-269631D01*
X14294D01*
Y-269538D01*
X14341D01*
Y-269444D01*
X14387D01*
Y-269350D01*
X14434D01*
Y-269210D01*
X14481D01*
Y-269117D01*
X14528D01*
Y-269023D01*
X14574D01*
Y-268930D01*
X14621D01*
Y-268836D01*
X14668D01*
Y-268743D01*
X14715D01*
Y-268650D01*
X14761D01*
Y-268556D01*
X14808D01*
Y-268463D01*
X14855D01*
Y-268369D01*
X14902D01*
Y-268276D01*
X14948D01*
Y-268182D01*
X14995D01*
Y-268089D01*
X15042D01*
Y-267995D01*
X15089D01*
Y-267902D01*
X15135D01*
Y-267808D01*
X15182D01*
Y-267715D01*
X15229D01*
Y-267668D01*
X15275D01*
Y-267574D01*
X15322D01*
Y-267481D01*
X15369D01*
Y-267388D01*
X15416D01*
Y-267294D01*
X15462D01*
Y-267201D01*
X15509D01*
Y-267107D01*
X15556D01*
Y-267060D01*
X15603D01*
Y-266967D01*
X15649D01*
Y-266873D01*
X15696D01*
Y-266780D01*
X15743D01*
Y-266733D01*
X15790D01*
Y-266640D01*
X15836D01*
Y-266546D01*
X15883D01*
Y-266453D01*
X15930D01*
Y-266406D01*
X15977D01*
Y-266312D01*
X16023D01*
Y-266219D01*
X16070D01*
Y-266126D01*
X16117D01*
Y-266079D01*
X16164D01*
Y-265985D01*
X16210D01*
Y-265892D01*
X16257D01*
Y-265845D01*
X16304D01*
Y-265751D01*
X16351D01*
Y-265658D01*
X16397D01*
Y-265611D01*
X16444D01*
Y-265518D01*
X16491D01*
Y-265471D01*
X16537D01*
Y-265378D01*
X16584D01*
Y-265284D01*
X16631D01*
Y-265237D01*
X16678D01*
Y-265144D01*
X16724D01*
Y-265097D01*
X16771D01*
Y-265004D01*
X16818D01*
Y-264910D01*
X16865D01*
Y-264863D01*
X16911D01*
Y-264770D01*
X16958D01*
Y-264723D01*
X17005D01*
Y-264630D01*
X17052D01*
Y-264583D01*
X17098D01*
Y-264489D01*
X17145D01*
Y-264443D01*
X17192D01*
Y-264349D01*
X17239D01*
Y-264303D01*
X17285D01*
Y-264209D01*
X17332D01*
Y-264162D01*
X17379D01*
Y-264069D01*
X17426D01*
Y-264022D01*
X17472D01*
Y-263929D01*
X17519D01*
Y-263882D01*
X17566D01*
Y-263835D01*
X17613D01*
Y-263742D01*
X17659D01*
Y-263695D01*
X17706D01*
Y-263601D01*
X17753D01*
Y-263555D01*
X17800D01*
Y-263461D01*
X17846D01*
Y-263414D01*
X17893D01*
Y-263368D01*
X17940D01*
Y-263274D01*
X17987D01*
Y-263228D01*
X18033D01*
Y-263134D01*
X18080D01*
Y-263087D01*
X18127D01*
Y-263041D01*
X18173D01*
Y-262947D01*
X18220D01*
Y-262900D01*
X18267D01*
Y-262854D01*
X18314D01*
Y-262760D01*
X18360D01*
Y-262713D01*
X18407D01*
Y-262667D01*
X18454D01*
Y-262573D01*
X18501D01*
Y-262526D01*
X18547D01*
Y-262480D01*
X18594D01*
Y-262386D01*
X18641D01*
Y-262339D01*
X18688D01*
Y-262293D01*
X18734D01*
Y-262199D01*
X18781D01*
Y-262153D01*
X18828D01*
Y-262106D01*
X18874D01*
Y-262012D01*
X18921D01*
Y-261966D01*
X18968D01*
Y-261919D01*
X19015D01*
Y-261872D01*
X19061D01*
Y-261779D01*
X19108D01*
Y-261732D01*
X19155D01*
Y-261685D01*
X19202D01*
Y-261638D01*
X19248D01*
Y-261545D01*
X19295D01*
Y-261498D01*
X19342D01*
Y-261451D01*
X19389D01*
Y-261405D01*
X19435D01*
Y-261311D01*
X19482D01*
Y-261264D01*
X19529D01*
Y-261218D01*
X19576D01*
Y-261171D01*
X19622D01*
Y-261124D01*
X19669D01*
Y-261031D01*
X19716D01*
Y-260984D01*
X19763D01*
Y-260937D01*
X19809D01*
Y-260891D01*
X19856D01*
Y-260844D01*
X19903D01*
Y-260797D01*
X19950D01*
Y-260704D01*
X19996D01*
Y-260657D01*
X20043D01*
Y-260610D01*
X20090D01*
Y-260563D01*
X20136D01*
Y-260517D01*
X20183D01*
Y-260470D01*
X20230D01*
Y-260376D01*
X20277D01*
Y-260330D01*
X20324D01*
Y-260283D01*
X20370D01*
Y-260236D01*
X20417D01*
Y-260189D01*
X20464D01*
Y-260143D01*
X20510D01*
Y-260096D01*
X20557D01*
Y-260049D01*
X20604D01*
Y-259956D01*
X20651D01*
Y-259909D01*
X20697D01*
Y-259862D01*
X20744D01*
Y-259816D01*
X20791D01*
Y-259769D01*
X20838D01*
Y-259722D01*
X20884D01*
Y-259675D01*
X20931D01*
Y-259629D01*
X20978D01*
Y-259582D01*
X21025D01*
Y-259535D01*
X21071D01*
Y-259488D01*
X21118D01*
Y-259395D01*
X21165D01*
Y-259348D01*
X21212D01*
Y-259301D01*
X21258D01*
Y-259255D01*
X21305D01*
Y-259208D01*
X21352D01*
Y-259161D01*
X21398D01*
Y-259114D01*
X21445D01*
Y-259068D01*
X21492D01*
Y-259021D01*
X21539D01*
Y-258974D01*
X21586D01*
Y-258927D01*
X21632D01*
Y-258881D01*
X21679D01*
Y-258834D01*
X21726D01*
Y-258787D01*
X21772D01*
Y-258741D01*
X21819D01*
Y-258694D01*
X21866D01*
Y-258647D01*
X21913D01*
Y-258600D01*
X21959D01*
Y-258554D01*
X22006D01*
Y-258507D01*
X22053D01*
Y-258460D01*
X22100D01*
Y-258413D01*
X22146D01*
Y-258367D01*
X22193D01*
Y-258320D01*
X22240D01*
Y-258273D01*
X22287D01*
Y-258226D01*
X22333D01*
Y-258180D01*
X22380D01*
Y-258133D01*
X22427D01*
Y-258086D01*
X22474D01*
Y-258039D01*
X22520D01*
Y-257993D01*
X22567D01*
Y-257946D01*
X22614D01*
Y-257899D01*
X22661D01*
Y-257852D01*
X22707D01*
Y-257806D01*
X22754D01*
Y-257759D01*
X22801D01*
Y-257712D01*
X22894D01*
Y-257665D01*
X22941D01*
Y-257619D01*
X22988D01*
Y-257572D01*
X23034D01*
Y-257525D01*
X23081D01*
Y-257479D01*
X23128D01*
Y-257432D01*
X23175D01*
Y-257385D01*
X23221D01*
Y-257338D01*
X23268D01*
Y-257292D01*
X23315D01*
Y-257245D01*
X23362D01*
Y-257198D01*
X23455D01*
Y-257151D01*
X23502D01*
Y-257104D01*
X23549D01*
Y-257058D01*
X23595D01*
Y-257011D01*
X23642D01*
Y-256964D01*
X23689D01*
Y-256918D01*
X23736D01*
Y-256871D01*
X23782D01*
Y-256824D01*
X23876D01*
Y-256777D01*
X23923D01*
Y-256731D01*
X23969D01*
Y-256684D01*
X24016D01*
Y-256637D01*
X24063D01*
Y-256590D01*
X24109D01*
Y-256544D01*
X24203D01*
Y-256497D01*
X24250D01*
Y-256450D01*
X24296D01*
Y-256403D01*
X24343D01*
Y-256357D01*
X24390D01*
Y-256310D01*
X24437D01*
Y-256263D01*
X24530D01*
Y-256217D01*
X24577D01*
Y-256170D01*
X24624D01*
Y-256123D01*
X24670D01*
Y-256076D01*
X24717D01*
Y-256029D01*
X24811D01*
Y-255983D01*
X24857D01*
Y-255936D01*
X24904D01*
Y-255889D01*
X24951D01*
Y-255843D01*
X25044D01*
Y-255796D01*
X25091D01*
Y-255749D01*
X25138D01*
Y-255702D01*
X25185D01*
Y-255656D01*
X25278D01*
Y-255609D01*
X25325D01*
Y-255562D01*
X25371D01*
Y-255515D01*
X25418D01*
Y-255469D01*
X25512D01*
Y-255422D01*
X25558D01*
Y-255375D01*
X25605D01*
Y-255328D01*
X25699D01*
Y-255282D01*
X25745D01*
Y-255235D01*
X25792D01*
Y-255188D01*
X25886D01*
Y-255142D01*
X25932D01*
Y-255095D01*
X25979D01*
Y-255048D01*
X26073D01*
Y-255001D01*
X26119D01*
Y-254954D01*
X26166D01*
Y-254908D01*
X26260D01*
Y-254861D01*
X26306D01*
Y-254814D01*
X26353D01*
Y-254767D01*
X26446D01*
Y-254721D01*
X26493D01*
Y-254674D01*
X26540D01*
Y-254627D01*
X26633D01*
Y-254581D01*
X26680D01*
Y-254534D01*
X26774D01*
Y-254487D01*
X26820D01*
Y-254440D01*
X26867D01*
Y-254394D01*
X26961D01*
Y-254347D01*
X27007D01*
Y-254300D01*
X27101D01*
Y-254253D01*
X27148D01*
Y-254207D01*
X27241D01*
Y-254160D01*
X27288D01*
Y-254113D01*
X27335D01*
Y-254066D01*
X27428D01*
Y-254020D01*
X27475D01*
Y-253973D01*
X27568D01*
Y-253926D01*
X27615D01*
Y-253880D01*
X27708D01*
Y-253833D01*
X27755D01*
Y-253786D01*
X27849D01*
Y-253739D01*
X27895D01*
Y-253692D01*
X27989D01*
Y-253646D01*
X28036D01*
Y-253599D01*
X28129D01*
Y-253552D01*
X28176D01*
Y-253505D01*
X28269D01*
Y-253459D01*
X28316D01*
Y-253412D01*
X28410D01*
Y-253365D01*
X28503D01*
Y-253319D01*
X28550D01*
Y-253272D01*
X28643D01*
Y-253225D01*
X28690D01*
Y-253178D01*
X28784D01*
Y-253132D01*
X28877D01*
Y-253085D01*
X28924D01*
Y-253038D01*
X29017D01*
Y-252991D01*
X29064D01*
Y-252945D01*
X29157D01*
Y-252898D01*
X29251D01*
Y-252851D01*
X29298D01*
Y-252804D01*
X29391D01*
Y-252758D01*
X29485D01*
Y-252711D01*
X29531D01*
Y-252664D01*
X29625D01*
Y-252617D01*
X29718D01*
Y-252571D01*
X29812D01*
Y-252524D01*
X29859D01*
Y-252477D01*
X29952D01*
Y-252430D01*
X30045D01*
Y-252384D01*
X30139D01*
Y-252337D01*
X30186D01*
Y-252290D01*
X30279D01*
Y-252243D01*
X30373D01*
Y-252197D01*
X30466D01*
Y-252150D01*
X30513D01*
Y-252103D01*
X30606D01*
Y-252057D01*
X30700D01*
Y-252010D01*
X30793D01*
Y-251963D01*
X30887D01*
Y-251916D01*
X30980D01*
Y-251870D01*
X31074D01*
Y-251823D01*
X31121D01*
Y-251776D01*
X31214D01*
Y-251729D01*
X31307D01*
Y-251683D01*
X31401D01*
Y-251636D01*
X31495D01*
Y-251589D01*
X31588D01*
Y-251542D01*
X31681D01*
Y-251496D01*
X31775D01*
Y-251449D01*
X31868D01*
Y-251402D01*
X31962D01*
Y-251355D01*
X32055D01*
Y-251309D01*
X32149D01*
Y-251262D01*
X32242D01*
Y-251215D01*
X32336D01*
Y-251168D01*
X32429D01*
Y-251122D01*
X32523D01*
Y-251075D01*
X32616D01*
Y-251028D01*
X32756D01*
Y-250982D01*
X32850D01*
Y-250935D01*
X32943D01*
Y-250888D01*
X33037D01*
Y-250841D01*
X33130D01*
Y-250795D01*
X33271D01*
Y-250748D01*
X33364D01*
Y-250701D01*
X33458D01*
Y-250654D01*
X33551D01*
Y-250608D01*
X33691D01*
Y-250561D01*
X33785D01*
Y-250514D01*
X33878D01*
Y-250467D01*
X34018D01*
Y-250421D01*
X34112D01*
Y-250374D01*
X34205D01*
Y-250327D01*
X34346D01*
Y-250280D01*
X34439D01*
Y-250234D01*
X34579D01*
Y-250187D01*
X34673D01*
Y-250140D01*
X34813D01*
Y-250093D01*
X34906D01*
Y-250047D01*
X35047D01*
Y-250000D01*
X35140D01*
Y-249953D01*
X35280D01*
Y-249907D01*
X35374D01*
Y-249860D01*
X35514D01*
Y-249813D01*
X35654D01*
Y-249766D01*
X35795D01*
Y-249720D01*
X35888D01*
Y-249673D01*
X36028D01*
Y-249626D01*
X36168D01*
Y-249579D01*
X36309D01*
Y-249533D01*
X36449D01*
Y-249486D01*
X36542D01*
Y-249439D01*
X36683D01*
Y-249392D01*
X36823D01*
Y-249346D01*
X36963D01*
Y-249299D01*
X37150D01*
Y-249252D01*
X37290D01*
Y-249205D01*
X37431D01*
Y-249159D01*
X37571D01*
Y-249112D01*
X37711D01*
Y-249065D01*
X37898D01*
Y-249018D01*
X38038D01*
Y-248972D01*
X38178D01*
Y-248925D01*
X38365D01*
Y-248878D01*
X38505D01*
Y-248832D01*
X38693D01*
Y-248785D01*
X38879D01*
Y-248738D01*
X39020D01*
Y-248691D01*
X39207D01*
Y-248645D01*
X39394D01*
Y-248598D01*
X39581D01*
Y-248551D01*
X39767D01*
Y-248504D01*
X39955D01*
Y-248458D01*
X40141D01*
Y-248411D01*
X40375D01*
Y-248364D01*
X40562D01*
Y-248317D01*
X40796D01*
Y-248271D01*
X40983D01*
Y-248224D01*
X41217D01*
Y-248177D01*
X41450D01*
Y-248130D01*
X41684D01*
Y-248084D01*
X41964D01*
Y-248037D01*
X42198D01*
Y-247990D01*
X42478D01*
Y-247943D01*
X42759D01*
Y-247897D01*
X43086D01*
Y-247850D01*
X43413D01*
Y-247803D01*
X43741D01*
Y-247757D01*
X44114D01*
Y-247710D01*
X44488D01*
Y-247663D01*
X44909D01*
Y-247616D01*
X45423D01*
Y-247570D01*
X45984D01*
Y-247523D01*
X46685D01*
Y-247476D01*
X47900D01*
Y-247429D01*
X49770D01*
Y-247476D01*
D02*
G37*
G36*
X22484Y-363216D02*
X21941D01*
Y-363488D01*
X21669D01*
Y-364031D01*
X21397D01*
Y-364303D01*
X21125D01*
Y-364575D01*
X20854D01*
Y-365118D01*
X20582D01*
Y-365390D01*
X20310D01*
Y-365662D01*
X20038D01*
Y-365934D01*
X19766D01*
Y-366477D01*
X19495D01*
Y-366749D01*
X19223D01*
Y-367021D01*
X18951D01*
Y-367293D01*
X18679D01*
Y-367564D01*
X18408D01*
Y-367836D01*
X18136D01*
Y-368108D01*
X17864D01*
Y-368380D01*
X17592D01*
Y-368652D01*
X17320D01*
Y-368923D01*
X17049D01*
Y-369195D01*
X16777D01*
Y-369467D01*
X16505D01*
Y-369739D01*
X16233D01*
Y-370010D01*
X15962D01*
Y-370282D01*
X15690D01*
Y-370554D01*
X15418D01*
Y-370826D01*
X15146D01*
Y-371097D01*
X14603D01*
Y-371369D01*
X14331D01*
Y-371641D01*
X14059D01*
Y-371913D01*
X13787D01*
Y-372185D01*
X13244D01*
Y-372456D01*
X12972D01*
Y-372728D01*
X12700D01*
Y-373000D01*
X12157D01*
Y-373272D01*
X11885D01*
Y-373544D01*
X11613D01*
Y-373815D01*
X11342D01*
Y-374087D01*
X11070D01*
Y-362944D01*
X22484D01*
Y-363216D01*
D02*
G37*
G36*
X89070Y-378436D02*
Y-378707D01*
Y-379794D01*
X80645D01*
Y-376261D01*
X88254D01*
Y-372728D01*
X80645D01*
Y-369467D01*
X88798D01*
Y-369195D01*
X89070D01*
Y-378436D01*
D02*
G37*
G36*
X23300Y-366206D02*
X23843D01*
Y-366477D01*
X24115D01*
Y-366749D01*
X24387D01*
Y-367021D01*
X24930D01*
Y-367293D01*
X25202D01*
Y-367564D01*
X25474D01*
Y-367836D01*
X25746D01*
Y-368108D01*
X26017D01*
Y-368380D01*
X26289D01*
Y-368652D01*
X26833D01*
Y-368923D01*
X27104D01*
Y-369195D01*
X27376D01*
Y-369467D01*
X27648D01*
Y-369739D01*
X27920D01*
Y-370282D01*
X28192D01*
Y-370554D01*
X28463D01*
Y-370826D01*
X28735D01*
Y-371097D01*
X29007D01*
Y-371369D01*
X29279D01*
Y-371641D01*
X29550D01*
Y-371913D01*
X29822D01*
Y-372456D01*
X30094D01*
Y-372728D01*
X30366D01*
Y-373000D01*
X30638D01*
Y-373544D01*
X30909D01*
Y-373815D01*
X31181D01*
Y-374631D01*
X30909D01*
Y-375174D01*
X30638D01*
Y-375718D01*
X30366D01*
Y-375989D01*
X30094D01*
Y-376261D01*
X29822D01*
Y-376805D01*
X29550D01*
Y-377077D01*
X29279D01*
Y-377348D01*
X29007D01*
Y-377620D01*
X28735D01*
Y-377892D01*
X28463D01*
Y-378164D01*
X28192D01*
Y-378436D01*
X27920D01*
Y-378707D01*
X27648D01*
Y-378979D01*
X27376D01*
Y-379251D01*
X27104D01*
Y-379523D01*
X26833D01*
Y-379794D01*
X26561D01*
Y-380066D01*
X26289D01*
Y-380338D01*
X26017D01*
Y-380610D01*
X25746D01*
Y-380882D01*
X25474D01*
Y-381153D01*
X25202D01*
Y-381425D01*
X24659D01*
Y-381697D01*
X24387D01*
Y-381969D01*
X24115D01*
Y-382240D01*
X23571D01*
Y-382512D01*
X23028D01*
Y-382784D01*
X22484D01*
Y-382512D01*
X21941D01*
Y-382240D01*
X21397D01*
Y-381969D01*
X21125D01*
Y-381697D01*
X20854D01*
Y-381425D01*
X20310D01*
Y-381153D01*
X20038D01*
Y-380882D01*
X19766D01*
Y-380610D01*
X19495D01*
Y-380338D01*
X19223D01*
Y-380066D01*
X18951D01*
Y-379794D01*
X18679D01*
Y-379523D01*
X18408D01*
Y-379251D01*
X18136D01*
Y-378979D01*
X17592D01*
Y-378707D01*
X17320D01*
Y-378436D01*
X17049D01*
Y-377892D01*
X16777D01*
Y-377620D01*
X16505D01*
Y-377348D01*
X16233D01*
Y-377077D01*
X15962D01*
Y-376805D01*
X15690D01*
Y-376533D01*
X15418D01*
Y-376261D01*
X15146D01*
Y-375718D01*
X14875D01*
Y-375446D01*
X14603D01*
Y-374902D01*
X14331D01*
Y-373815D01*
X14603D01*
Y-373272D01*
X14875D01*
Y-373000D01*
X15146D01*
Y-372456D01*
X15418D01*
Y-372185D01*
X15690D01*
Y-371913D01*
X15962D01*
Y-371641D01*
X16233D01*
Y-371369D01*
X16505D01*
Y-370826D01*
X16777D01*
Y-370554D01*
X17049D01*
Y-370282D01*
X17320D01*
Y-370010D01*
X17592D01*
Y-369739D01*
X17864D01*
Y-369467D01*
X18136D01*
Y-369195D01*
X18408D01*
Y-368923D01*
X18951D01*
Y-368652D01*
X19223D01*
Y-368380D01*
X19495D01*
Y-368108D01*
X19766D01*
Y-367836D01*
X20038D01*
Y-367564D01*
X20310D01*
Y-367293D01*
X20582D01*
Y-367021D01*
X21125D01*
Y-366749D01*
X21397D01*
Y-366477D01*
X21669D01*
Y-366206D01*
X22213D01*
Y-365934D01*
X23300D01*
Y-366206D01*
D02*
G37*
G36*
X89070Y-365934D02*
X75753D01*
Y-383056D01*
X76024D01*
Y-383327D01*
X88798D01*
Y-383056D01*
X89070D01*
Y-385774D01*
X11070D01*
Y-374359D01*
X11342D01*
Y-374902D01*
X11613D01*
Y-375174D01*
X12157D01*
Y-375446D01*
X12429D01*
Y-375718D01*
X12700D01*
Y-375989D01*
X13244D01*
Y-376261D01*
X13516D01*
Y-376533D01*
X13787D01*
Y-376805D01*
X14331D01*
Y-377077D01*
X14603D01*
Y-377348D01*
X14875D01*
Y-377620D01*
X15146D01*
Y-377892D01*
X15418D01*
Y-378164D01*
X15690D01*
Y-378436D01*
X16233D01*
Y-378707D01*
X16505D01*
Y-378979D01*
X16777D01*
Y-379251D01*
X17049D01*
Y-379523D01*
X17320D01*
Y-379794D01*
X17592D01*
Y-380066D01*
X17864D01*
Y-380338D01*
X18136D01*
Y-380610D01*
X18408D01*
Y-380882D01*
X18679D01*
Y-381153D01*
X18951D01*
Y-381697D01*
X19223D01*
Y-381969D01*
X19495D01*
Y-382240D01*
X19766D01*
Y-382512D01*
X20038D01*
Y-382784D01*
X20310D01*
Y-383327D01*
X20582D01*
Y-383599D01*
X20854D01*
Y-383871D01*
X21125D01*
Y-384143D01*
X21397D01*
Y-384686D01*
X21669D01*
Y-384958D01*
X21941D01*
Y-385502D01*
X23300D01*
Y-385230D01*
X23571D01*
Y-384686D01*
X23843D01*
Y-384415D01*
X24115D01*
Y-384143D01*
X24387D01*
Y-383599D01*
X24659D01*
Y-383327D01*
X24930D01*
Y-383056D01*
X25202D01*
Y-382784D01*
X25474D01*
Y-382512D01*
X25746D01*
Y-381969D01*
X26017D01*
Y-381697D01*
X26289D01*
Y-381425D01*
X26561D01*
Y-381153D01*
X26833D01*
Y-380882D01*
X27104D01*
Y-380610D01*
X27376D01*
Y-380338D01*
X27648D01*
Y-380066D01*
X27920D01*
Y-379794D01*
X28192D01*
Y-379523D01*
X28463D01*
Y-379251D01*
X28735D01*
Y-378979D01*
X29007D01*
Y-378707D01*
X29279D01*
Y-378436D01*
X29550D01*
Y-378164D01*
X29822D01*
Y-377892D01*
X30366D01*
Y-377620D01*
X30638D01*
Y-377348D01*
X30909D01*
Y-377077D01*
X31181D01*
Y-376805D01*
X31453D01*
Y-376533D01*
X31997D01*
Y-376261D01*
X32268D01*
Y-375989D01*
X32540D01*
Y-375718D01*
X33084D01*
Y-375446D01*
X33355D01*
Y-375174D01*
X33899D01*
Y-374902D01*
X34171D01*
Y-373815D01*
X33899D01*
Y-373544D01*
X33355D01*
Y-373272D01*
X33084D01*
Y-373000D01*
X32812D01*
Y-372728D01*
X32268D01*
Y-372456D01*
X31997D01*
Y-372185D01*
X31725D01*
Y-371913D01*
X31181D01*
Y-371641D01*
X30909D01*
Y-371369D01*
X30638D01*
Y-371097D01*
X30366D01*
Y-370826D01*
X30094D01*
Y-370554D01*
X29550D01*
Y-370282D01*
X29279D01*
Y-370010D01*
X29007D01*
Y-369739D01*
X28735D01*
Y-369467D01*
X28463D01*
Y-369195D01*
X28192D01*
Y-368923D01*
X27920D01*
Y-368652D01*
X27648D01*
Y-368380D01*
X27376D01*
Y-368108D01*
X27104D01*
Y-367836D01*
X26833D01*
Y-367564D01*
X26561D01*
Y-367021D01*
X26289D01*
Y-366749D01*
X26017D01*
Y-366477D01*
X25746D01*
Y-366206D01*
X25474D01*
Y-365934D01*
X25202D01*
Y-365662D01*
X24930D01*
Y-365118D01*
X24659D01*
Y-364847D01*
X24387D01*
Y-364575D01*
X24115D01*
Y-364031D01*
X23843D01*
Y-363760D01*
X23571D01*
Y-363488D01*
X23300D01*
Y-363216D01*
X23028D01*
Y-362944D01*
X89070D01*
Y-365934D01*
D02*
G37*
%LPC*%
G36*
X77020Y-292768D02*
X76225D01*
Y-292814D01*
X75898D01*
Y-292861D01*
X75664D01*
Y-292908D01*
X75524D01*
Y-292955D01*
X75384D01*
Y-293001D01*
X75244D01*
Y-293048D01*
X75150D01*
Y-293095D01*
X75057D01*
Y-293141D01*
X74963D01*
Y-293188D01*
X74870D01*
Y-293235D01*
X74823D01*
Y-293282D01*
X74729D01*
Y-293328D01*
X74683D01*
Y-293375D01*
X74636D01*
Y-293422D01*
X74589D01*
Y-293469D01*
X74542D01*
Y-293515D01*
X74496D01*
Y-293562D01*
X74449D01*
Y-293609D01*
X74402D01*
Y-293656D01*
X74356D01*
Y-293702D01*
X74309D01*
Y-293749D01*
X74262D01*
Y-293796D01*
X74215D01*
Y-293843D01*
X74169D01*
Y-293936D01*
X74122D01*
Y-293983D01*
X74075D01*
Y-294076D01*
X74028D01*
Y-294170D01*
X73982D01*
Y-294263D01*
X73935D01*
Y-294357D01*
X73888D01*
Y-294450D01*
X73841D01*
Y-294544D01*
X73795D01*
Y-294684D01*
X73748D01*
Y-294824D01*
X73701D01*
Y-295011D01*
X73654D01*
Y-295245D01*
X73608D01*
Y-295619D01*
X73561D01*
Y-296133D01*
X73608D01*
Y-296460D01*
X73654D01*
Y-296647D01*
X73701D01*
Y-296787D01*
X73748D01*
Y-296927D01*
X73795D01*
Y-297021D01*
X73841D01*
Y-297114D01*
X73888D01*
Y-297208D01*
X73935D01*
Y-297255D01*
X73982D01*
Y-297348D01*
X74028D01*
Y-297395D01*
X74075D01*
Y-297442D01*
X74122D01*
Y-297488D01*
X74169D01*
Y-297535D01*
X74215D01*
Y-297582D01*
X74262D01*
Y-297628D01*
X74309D01*
Y-297675D01*
X74356D01*
Y-297722D01*
X74449D01*
Y-297769D01*
X74496D01*
Y-297815D01*
X74589D01*
Y-297862D01*
X74636D01*
Y-297909D01*
X74729D01*
Y-297956D01*
X74870D01*
Y-298002D01*
X74963D01*
Y-298049D01*
X75150D01*
Y-298096D01*
X75337D01*
Y-298143D01*
X75711D01*
Y-298189D01*
X76365D01*
Y-298143D01*
X76739D01*
Y-298096D01*
X76926D01*
Y-298049D01*
X77066D01*
Y-298002D01*
X77207D01*
Y-297956D01*
X77300D01*
Y-297909D01*
X77394D01*
Y-297862D01*
X77487D01*
Y-297815D01*
X77581D01*
Y-297769D01*
X77627D01*
Y-297722D01*
X77721D01*
Y-297675D01*
X77768D01*
Y-297628D01*
X77814D01*
Y-297582D01*
X77861D01*
Y-297535D01*
X77908D01*
Y-297488D01*
X78001D01*
Y-297395D01*
X78048D01*
Y-297348D01*
X78095D01*
Y-297301D01*
X78141D01*
Y-297255D01*
X78188D01*
Y-297208D01*
X78235D01*
Y-297114D01*
X78282D01*
Y-297068D01*
X78328D01*
Y-296974D01*
X78375D01*
Y-296927D01*
X78422D01*
Y-296834D01*
X78469D01*
Y-296740D01*
X78515D01*
Y-296647D01*
X78562D01*
Y-296507D01*
X78609D01*
Y-296413D01*
X78656D01*
Y-296226D01*
X78702D01*
Y-296133D01*
X77066D01*
Y-296226D01*
X77020D01*
Y-296320D01*
X76973D01*
Y-296413D01*
X76926D01*
Y-296507D01*
X76880D01*
Y-296553D01*
X76833D01*
Y-296600D01*
X76786D01*
Y-296647D01*
X76739D01*
Y-296694D01*
X76646D01*
Y-296740D01*
X76599D01*
Y-296787D01*
X76459D01*
Y-296834D01*
X75945D01*
Y-296787D01*
X75804D01*
Y-296740D01*
X75711D01*
Y-296694D01*
X75664D01*
Y-296647D01*
X75617D01*
Y-296600D01*
X75571D01*
Y-296553D01*
X75524D01*
Y-296507D01*
X75477D01*
Y-296413D01*
X75430D01*
Y-296320D01*
X75384D01*
Y-296133D01*
X75337D01*
Y-295385D01*
X75384D01*
Y-295198D01*
X75430D01*
Y-295058D01*
X75477D01*
Y-294918D01*
X75524D01*
Y-294824D01*
X75571D01*
Y-294731D01*
X75617D01*
Y-294684D01*
X75664D01*
Y-294590D01*
X75711D01*
Y-294544D01*
X75758D01*
Y-294497D01*
X75804D01*
Y-294450D01*
X75851D01*
Y-294403D01*
X75898D01*
Y-294357D01*
X75945D01*
Y-294310D01*
X76038D01*
Y-294263D01*
X76085D01*
Y-294216D01*
X76178D01*
Y-294170D01*
X76365D01*
Y-294123D01*
X76833D01*
Y-294170D01*
X76973D01*
Y-294216D01*
X77066D01*
Y-294263D01*
X77113D01*
Y-294310D01*
X77160D01*
Y-294357D01*
X77207D01*
Y-294403D01*
X77253D01*
Y-294544D01*
X77300D01*
Y-294777D01*
X78843D01*
Y-294731D01*
X78889D01*
Y-294590D01*
X78843D01*
Y-294170D01*
X78796D01*
Y-293983D01*
X78749D01*
Y-293936D01*
Y-293889D01*
X78702D01*
Y-293749D01*
X78656D01*
Y-293702D01*
X78609D01*
Y-293609D01*
X78562D01*
Y-293562D01*
X78515D01*
Y-293469D01*
X78469D01*
Y-293422D01*
X78422D01*
Y-293375D01*
X78375D01*
Y-293328D01*
X78328D01*
Y-293282D01*
X78235D01*
Y-293235D01*
X78188D01*
Y-293188D01*
X78141D01*
Y-293141D01*
X78048D01*
Y-293095D01*
X78001D01*
Y-293048D01*
X77908D01*
Y-293001D01*
X77768D01*
Y-292955D01*
X77674D01*
Y-292908D01*
X77534D01*
Y-292861D01*
X77300D01*
Y-292814D01*
X77020D01*
Y-292768D01*
D02*
G37*
G36*
X63138Y-292908D02*
X61362D01*
Y-293001D01*
X61315D01*
Y-293141D01*
X61268D01*
Y-293235D01*
X61221D01*
Y-293328D01*
X61175D01*
Y-293422D01*
X61128D01*
Y-293515D01*
X61081D01*
Y-293609D01*
X61034D01*
Y-293702D01*
X60988D01*
Y-293843D01*
X60941D01*
Y-293936D01*
X60894D01*
Y-294030D01*
X60848D01*
Y-294123D01*
X60801D01*
Y-294216D01*
X60754D01*
Y-294310D01*
X60707D01*
Y-294403D01*
X60661D01*
Y-294544D01*
X60614D01*
Y-294637D01*
X60567D01*
Y-294731D01*
X60520D01*
Y-294824D01*
X60474D01*
Y-294918D01*
X60427D01*
Y-295011D01*
X60380D01*
Y-295105D01*
X60333D01*
Y-295245D01*
X60287D01*
Y-295338D01*
X60240D01*
Y-295432D01*
X60193D01*
Y-295525D01*
X60146D01*
Y-295619D01*
X60100D01*
Y-295712D01*
X60053D01*
Y-295852D01*
X60006D01*
Y-295946D01*
X59959D01*
Y-296086D01*
X59913D01*
Y-296133D01*
X59866D01*
Y-296039D01*
X59913D01*
Y-295292D01*
X59866D01*
Y-294357D01*
X59819D01*
Y-293375D01*
X59772D01*
Y-292908D01*
X58043D01*
Y-293188D01*
X58090D01*
Y-293562D01*
X58137D01*
Y-293983D01*
X58183D01*
Y-294357D01*
X58230D01*
Y-294731D01*
X58277D01*
Y-295105D01*
X58323D01*
Y-295478D01*
X58370D01*
Y-295852D01*
X58417D01*
Y-296226D01*
X58464D01*
Y-296647D01*
X58510D01*
Y-297021D01*
X58557D01*
Y-297395D01*
X58604D01*
Y-297769D01*
X58651D01*
Y-298049D01*
X60333D01*
Y-297956D01*
X60380D01*
Y-297862D01*
X60427D01*
Y-297815D01*
X60474D01*
Y-297722D01*
X60520D01*
Y-297628D01*
X60567D01*
Y-297535D01*
X60614D01*
Y-297442D01*
X60661D01*
Y-297395D01*
X60707D01*
Y-297301D01*
X60754D01*
Y-297208D01*
X60801D01*
Y-297114D01*
X60848D01*
Y-297021D01*
X60894D01*
Y-296927D01*
X60941D01*
Y-296881D01*
X60988D01*
Y-296787D01*
X61034D01*
Y-296694D01*
X61081D01*
Y-296600D01*
X61128D01*
Y-296507D01*
X61175D01*
Y-296460D01*
X61221D01*
Y-296367D01*
X61268D01*
Y-296273D01*
X61315D01*
Y-296180D01*
X61362D01*
Y-296086D01*
X61408D01*
Y-296039D01*
X61455D01*
Y-295946D01*
X61502D01*
Y-295852D01*
X61549D01*
Y-295806D01*
Y-295759D01*
X61595D01*
Y-295665D01*
X61642D01*
Y-295572D01*
X61689D01*
Y-295525D01*
X61736D01*
Y-295432D01*
X61782D01*
Y-295338D01*
X61829D01*
Y-295245D01*
X61876D01*
Y-295151D01*
X61922D01*
Y-295105D01*
X61969D01*
Y-295011D01*
X62016D01*
Y-294918D01*
X62063D01*
Y-294824D01*
X62109D01*
Y-294731D01*
X62156D01*
Y-294637D01*
X62203D01*
Y-294590D01*
X62250D01*
Y-294497D01*
X62296D01*
Y-294403D01*
X62343D01*
Y-294310D01*
X62390D01*
Y-294216D01*
X62437D01*
Y-294170D01*
X62483D01*
Y-294076D01*
X62530D01*
Y-293983D01*
X62577D01*
Y-293889D01*
X62624D01*
Y-293796D01*
X62670D01*
Y-293702D01*
X62717D01*
Y-293656D01*
X62764D01*
Y-293562D01*
X62811D01*
Y-293469D01*
X62857D01*
Y-293375D01*
X62904D01*
Y-293282D01*
X62951D01*
Y-293235D01*
X62997D01*
Y-293141D01*
X63044D01*
Y-293048D01*
X63091D01*
Y-292955D01*
X63138D01*
Y-292908D01*
D02*
G37*
G36*
X57482D02*
X55893D01*
Y-292955D01*
X55846D01*
Y-293188D01*
X55799D01*
Y-293375D01*
X55753D01*
Y-293609D01*
X55706D01*
Y-293843D01*
X55659D01*
Y-294076D01*
X55613D01*
Y-294263D01*
X55566D01*
Y-294497D01*
X55519D01*
Y-294731D01*
X55472D01*
Y-294918D01*
X55426D01*
Y-295151D01*
X55379D01*
Y-295385D01*
X55332D01*
Y-295619D01*
X55285D01*
Y-295806D01*
X55239D01*
Y-296039D01*
X55192D01*
Y-296226D01*
X55145D01*
Y-296320D01*
X55098D01*
Y-296413D01*
X55052D01*
Y-296507D01*
X55005D01*
Y-296553D01*
X54958D01*
Y-296647D01*
X54911D01*
Y-296694D01*
X54818D01*
Y-296740D01*
X54771D01*
Y-296787D01*
X54678D01*
Y-296834D01*
X54491D01*
Y-296881D01*
X54164D01*
Y-296834D01*
X54023D01*
Y-296787D01*
X53930D01*
Y-296740D01*
X53836D01*
Y-296694D01*
X53790D01*
Y-296600D01*
X53743D01*
Y-296507D01*
X53696D01*
Y-296320D01*
X53649D01*
Y-296180D01*
X53696D01*
Y-295899D01*
X53743D01*
Y-295665D01*
X53790D01*
Y-295432D01*
X53836D01*
Y-295245D01*
X53883D01*
Y-295011D01*
X53930D01*
Y-294824D01*
X53977D01*
Y-294590D01*
X54023D01*
Y-294357D01*
X54070D01*
Y-294170D01*
X54117D01*
Y-293936D01*
X54164D01*
Y-293749D01*
X54210D01*
Y-293515D01*
X54257D01*
Y-293282D01*
X54304D01*
Y-293095D01*
X54351D01*
Y-292908D01*
X52715D01*
Y-293141D01*
X52668D01*
Y-293328D01*
X52621D01*
Y-293562D01*
X52574D01*
Y-293796D01*
X52528D01*
Y-293983D01*
X52481D01*
Y-294216D01*
X52434D01*
Y-294450D01*
X52387D01*
Y-294637D01*
X52341D01*
Y-294871D01*
X52294D01*
Y-295105D01*
X52247D01*
Y-295292D01*
X52200D01*
Y-295525D01*
X52154D01*
Y-295759D01*
X52107D01*
Y-295993D01*
X52060D01*
Y-296320D01*
X52014D01*
Y-296600D01*
Y-296647D01*
Y-296694D01*
X52060D01*
Y-296927D01*
X52107D01*
Y-297114D01*
X52154D01*
Y-297208D01*
X52200D01*
Y-297301D01*
X52247D01*
Y-297395D01*
X52294D01*
Y-297442D01*
X52341D01*
Y-297535D01*
X52387D01*
Y-297582D01*
X52434D01*
Y-297628D01*
X52481D01*
Y-297675D01*
X52528D01*
Y-297722D01*
X52574D01*
Y-297769D01*
X52668D01*
Y-297815D01*
X52715D01*
Y-297862D01*
X52808D01*
Y-297909D01*
X52902D01*
Y-297956D01*
X52995D01*
Y-298002D01*
X53135D01*
Y-298049D01*
X53275D01*
Y-298096D01*
X53509D01*
Y-298143D01*
X53883D01*
Y-298189D01*
X54631D01*
Y-298143D01*
X55005D01*
Y-298096D01*
X55239D01*
Y-298049D01*
X55379D01*
Y-298002D01*
X55519D01*
Y-297956D01*
X55613D01*
Y-297909D01*
X55706D01*
Y-297862D01*
X55799D01*
Y-297815D01*
X55846D01*
Y-297769D01*
X55940D01*
Y-297722D01*
X55986D01*
Y-297675D01*
X56033D01*
Y-297628D01*
X56080D01*
Y-297582D01*
X56127D01*
Y-297535D01*
X56173D01*
Y-297488D01*
X56220D01*
Y-297442D01*
X56267D01*
Y-297395D01*
X56314D01*
Y-297348D01*
X56360D01*
Y-297301D01*
X56407D01*
Y-297208D01*
X56454D01*
Y-297114D01*
X56501D01*
Y-297021D01*
X56547D01*
Y-296927D01*
X56594D01*
Y-296834D01*
X56641D01*
Y-296694D01*
X56688D01*
Y-296553D01*
X56734D01*
Y-296413D01*
X56781D01*
Y-296226D01*
X56828D01*
Y-295993D01*
X56874D01*
Y-295759D01*
X56921D01*
Y-295572D01*
X56968D01*
Y-295338D01*
X57015D01*
Y-295105D01*
X57062D01*
Y-294871D01*
X57108D01*
Y-294684D01*
X57155D01*
Y-294450D01*
X57202D01*
Y-294216D01*
X57249D01*
Y-294030D01*
X57295D01*
Y-293796D01*
X57342D01*
Y-293562D01*
X57389D01*
Y-293328D01*
X57435D01*
Y-293141D01*
X57482D01*
Y-292908D01*
D02*
G37*
G36*
X82395Y-276502D02*
X70476D01*
Y-276549D01*
X69822D01*
Y-276595D01*
X69307D01*
Y-276642D01*
X68934D01*
Y-276689D01*
X68560D01*
Y-276735D01*
X68232D01*
Y-276782D01*
X67905D01*
Y-276829D01*
X67625D01*
Y-276876D01*
X67391D01*
Y-276922D01*
X67111D01*
Y-276969D01*
X66877D01*
Y-277016D01*
X66690D01*
Y-277063D01*
X66456D01*
Y-277110D01*
X66269D01*
Y-277156D01*
X66036D01*
Y-277203D01*
X65849D01*
Y-277250D01*
X65662D01*
Y-277296D01*
X65475D01*
Y-277343D01*
X65335D01*
Y-277390D01*
X65148D01*
Y-277437D01*
X64961D01*
Y-277483D01*
X64820D01*
Y-277530D01*
X64633D01*
Y-277577D01*
X64493D01*
Y-277624D01*
X64353D01*
Y-277670D01*
X64213D01*
Y-277717D01*
X64073D01*
Y-277764D01*
X63932D01*
Y-277811D01*
X63792D01*
Y-277857D01*
X63652D01*
Y-277904D01*
X63512D01*
Y-277951D01*
X63372D01*
Y-277997D01*
X63231D01*
Y-278044D01*
X63138D01*
Y-278091D01*
X62997D01*
Y-278138D01*
X62857D01*
Y-278185D01*
X62764D01*
Y-278231D01*
X62624D01*
Y-278278D01*
X62530D01*
Y-278325D01*
X62390D01*
Y-278372D01*
X62296D01*
Y-278418D01*
X62156D01*
Y-278465D01*
X62063D01*
Y-278512D01*
X61922D01*
Y-278558D01*
X61829D01*
Y-278605D01*
X61736D01*
Y-278652D01*
X61595D01*
Y-278699D01*
X61502D01*
Y-278745D01*
X61408D01*
Y-278792D01*
X61315D01*
Y-278839D01*
X61221D01*
Y-278886D01*
X61128D01*
Y-278932D01*
X60988D01*
Y-278979D01*
X60894D01*
Y-279026D01*
X60801D01*
Y-279073D01*
X60707D01*
Y-279119D01*
X60614D01*
Y-279166D01*
X60520D01*
Y-279213D01*
X60427D01*
Y-279259D01*
X60333D01*
Y-279306D01*
X60240D01*
Y-279353D01*
X60146D01*
Y-279400D01*
X60053D01*
Y-279447D01*
X59959D01*
Y-279493D01*
X59913D01*
Y-279540D01*
X59819D01*
Y-279587D01*
X59726D01*
Y-279634D01*
X59632D01*
Y-279680D01*
X59539D01*
Y-279727D01*
X59445D01*
Y-279774D01*
X59398D01*
Y-279820D01*
X59305D01*
Y-279867D01*
X59212D01*
Y-279914D01*
X59118D01*
Y-279961D01*
X59071D01*
Y-280007D01*
X58978D01*
Y-280054D01*
X58884D01*
Y-280101D01*
X58838D01*
Y-280148D01*
X58744D01*
Y-280194D01*
X58651D01*
Y-280241D01*
X58604D01*
Y-280288D01*
X58510D01*
Y-280335D01*
X58417D01*
Y-280381D01*
X58370D01*
Y-280428D01*
X58277D01*
Y-280475D01*
X58230D01*
Y-280522D01*
X58137D01*
Y-280568D01*
X58090D01*
Y-280615D01*
X57996D01*
Y-280662D01*
X57903D01*
Y-280709D01*
X57856D01*
Y-280755D01*
X57763D01*
Y-280802D01*
X57716D01*
Y-280849D01*
X57622D01*
Y-280896D01*
X57576D01*
Y-280942D01*
X57529D01*
Y-280989D01*
X57435D01*
Y-281036D01*
X57389D01*
Y-281082D01*
X57295D01*
Y-281129D01*
X57249D01*
Y-281176D01*
X57155D01*
Y-281223D01*
X57108D01*
Y-281269D01*
X57062D01*
Y-281316D01*
X56968D01*
Y-281363D01*
X56921D01*
Y-281410D01*
X56828D01*
Y-281456D01*
X56781D01*
Y-281503D01*
X56734D01*
Y-281550D01*
X56641D01*
Y-281597D01*
X56594D01*
Y-281643D01*
X56547D01*
Y-281690D01*
X56454D01*
Y-281737D01*
X56407D01*
Y-281784D01*
X56360D01*
Y-281830D01*
X56314D01*
Y-281877D01*
X56220D01*
Y-281924D01*
X56173D01*
Y-281971D01*
X56127D01*
Y-282017D01*
X56033D01*
Y-282064D01*
X55986D01*
Y-282111D01*
X55940D01*
Y-282157D01*
X55893D01*
Y-282204D01*
X55799D01*
Y-282251D01*
X55753D01*
Y-282298D01*
X55706D01*
Y-282344D01*
X55659D01*
Y-282391D01*
X55613D01*
Y-282438D01*
X55519D01*
Y-282485D01*
X55472D01*
Y-282531D01*
X55426D01*
Y-282578D01*
X55379D01*
Y-282625D01*
X55332D01*
Y-282672D01*
X55285D01*
Y-282718D01*
X55192D01*
Y-282765D01*
X55145D01*
Y-282812D01*
X55098D01*
Y-282859D01*
X55052D01*
Y-282905D01*
X55005D01*
Y-282952D01*
X54958D01*
Y-282999D01*
X54911D01*
Y-283046D01*
X54818D01*
Y-283092D01*
X54771D01*
Y-283139D01*
X54724D01*
Y-283186D01*
X54678D01*
Y-283232D01*
X54631D01*
Y-283279D01*
X54584D01*
Y-283326D01*
X54538D01*
Y-283373D01*
X54491D01*
Y-283419D01*
X54444D01*
Y-283466D01*
X54397D01*
Y-283513D01*
X54351D01*
Y-283560D01*
X54304D01*
Y-283606D01*
X54257D01*
Y-283653D01*
X54210D01*
Y-283700D01*
X54164D01*
Y-283747D01*
X54070D01*
Y-283793D01*
X54023D01*
Y-283840D01*
X53977D01*
Y-283887D01*
X53930D01*
Y-283934D01*
X53883D01*
Y-283980D01*
X53836D01*
Y-284027D01*
X53790D01*
Y-284074D01*
X53743D01*
Y-284121D01*
X53696D01*
Y-284167D01*
X53649D01*
Y-284214D01*
X53603D01*
Y-284261D01*
X53556D01*
Y-284307D01*
X53509D01*
Y-284354D01*
X53463D01*
Y-284401D01*
X53416D01*
Y-284448D01*
X53369D01*
Y-284494D01*
X53322D01*
Y-284541D01*
X53275D01*
Y-284588D01*
X53229D01*
Y-284635D01*
X53182D01*
Y-284681D01*
X53135D01*
Y-284728D01*
X53089D01*
Y-284775D01*
X53042D01*
Y-284822D01*
X52995D01*
Y-284868D01*
X52948D01*
Y-284915D01*
X52855D01*
Y-284962D01*
X52808D01*
Y-285009D01*
X52761D01*
Y-285055D01*
X52715D01*
Y-285102D01*
X52668D01*
Y-285149D01*
X52621D01*
Y-285196D01*
X52574D01*
Y-285242D01*
X52528D01*
Y-285289D01*
X52481D01*
Y-285336D01*
X52434D01*
Y-285382D01*
X52387D01*
Y-285429D01*
X52341D01*
Y-285476D01*
X52294D01*
Y-285523D01*
X52247D01*
Y-285569D01*
X52200D01*
Y-285616D01*
X52154D01*
Y-285663D01*
X52107D01*
Y-285710D01*
X52060D01*
Y-285756D01*
X51967D01*
Y-285803D01*
X51920D01*
Y-285850D01*
X51873D01*
Y-285897D01*
X51827D01*
Y-285943D01*
X51780D01*
Y-285990D01*
X51733D01*
Y-286037D01*
X51640D01*
Y-286084D01*
X51593D01*
Y-286130D01*
X51546D01*
Y-286177D01*
X51453D01*
Y-286224D01*
X51406D01*
Y-286271D01*
X51359D01*
Y-286317D01*
X51266D01*
Y-286364D01*
X51219D01*
Y-286411D01*
X51172D01*
Y-286458D01*
X51079D01*
Y-286504D01*
X51032D01*
Y-286551D01*
X50939D01*
Y-286598D01*
X50845D01*
Y-286644D01*
X50798D01*
Y-286691D01*
X50705D01*
Y-286738D01*
X50658D01*
Y-286785D01*
X50565D01*
Y-286831D01*
X50471D01*
Y-286878D01*
X50378D01*
Y-286925D01*
X50331D01*
Y-286972D01*
X50237D01*
Y-287019D01*
X50144D01*
Y-287065D01*
X50050D01*
Y-287112D01*
X49957D01*
Y-287159D01*
X49817D01*
Y-287205D01*
X49723D01*
Y-287252D01*
X49630D01*
Y-287299D01*
X49536D01*
Y-287346D01*
X49396D01*
Y-287392D01*
X49256D01*
Y-287439D01*
X49162D01*
Y-287486D01*
X49022D01*
Y-287533D01*
X48882D01*
Y-287579D01*
X48742D01*
Y-287626D01*
X48555D01*
Y-287673D01*
X48368D01*
Y-287720D01*
X48181D01*
Y-287766D01*
X47994D01*
Y-287813D01*
X47713D01*
Y-287860D01*
X47433D01*
Y-287906D01*
X47059D01*
Y-287953D01*
X44348D01*
Y-288000D01*
X25652D01*
Y-288047D01*
X25418D01*
Y-288093D01*
X25231D01*
Y-288140D01*
X25091D01*
Y-288187D01*
X24997D01*
Y-288234D01*
X24857D01*
Y-288280D01*
X24764D01*
Y-288327D01*
X24670D01*
Y-288374D01*
X24624D01*
Y-288421D01*
X24530D01*
Y-288467D01*
X24437D01*
Y-288514D01*
X24390D01*
Y-288561D01*
X24343D01*
Y-288608D01*
X24250D01*
Y-288654D01*
X24203D01*
Y-288701D01*
X24156D01*
Y-288748D01*
X24109D01*
Y-288795D01*
X24016D01*
Y-288841D01*
X23969D01*
Y-288888D01*
X23923D01*
Y-288935D01*
X23876D01*
Y-288981D01*
X23829D01*
Y-289028D01*
X23782D01*
Y-289075D01*
X23736D01*
Y-289122D01*
X23689D01*
Y-289168D01*
X23642D01*
Y-289215D01*
X23595D01*
Y-289262D01*
X23549D01*
Y-289309D01*
X23502D01*
Y-289356D01*
X23455D01*
Y-289402D01*
X23408D01*
Y-289449D01*
X23362D01*
Y-289496D01*
X23315D01*
Y-289542D01*
X23268D01*
Y-289589D01*
X23221D01*
Y-289636D01*
X23175D01*
Y-289683D01*
X23128D01*
Y-289729D01*
X23081D01*
Y-289776D01*
X22988D01*
Y-289823D01*
X22941D01*
Y-289870D01*
X22894D01*
Y-289916D01*
X22847D01*
Y-289963D01*
X22801D01*
Y-290010D01*
X22754D01*
Y-290057D01*
X22707D01*
Y-290103D01*
X22661D01*
Y-290150D01*
X22614D01*
Y-290197D01*
X22567D01*
Y-290243D01*
X22520D01*
Y-290290D01*
X22474D01*
Y-290337D01*
X22427D01*
Y-290384D01*
X22380D01*
Y-290431D01*
X22333D01*
Y-290477D01*
X22287D01*
Y-290524D01*
X22240D01*
Y-290571D01*
X22193D01*
Y-290618D01*
X22146D01*
Y-290664D01*
X22100D01*
Y-290711D01*
X22006D01*
Y-290758D01*
X21959D01*
Y-290804D01*
X21913D01*
Y-290851D01*
X21866D01*
Y-290898D01*
X21819D01*
Y-290945D01*
X21772D01*
Y-290991D01*
X21726D01*
Y-291038D01*
X21679D01*
Y-291085D01*
X21632D01*
Y-291132D01*
X21586D01*
Y-291178D01*
X21539D01*
Y-291225D01*
X21492D01*
Y-291272D01*
X21445D01*
Y-291319D01*
X21398D01*
Y-291365D01*
X21352D01*
Y-291412D01*
X21305D01*
Y-291459D01*
X21258D01*
Y-291506D01*
X21212D01*
Y-291552D01*
X21165D01*
Y-291599D01*
X21118D01*
Y-291646D01*
X21071D01*
Y-291693D01*
X20978D01*
Y-291739D01*
X20931D01*
Y-291786D01*
X20884D01*
Y-291833D01*
X20838D01*
Y-291880D01*
X20791D01*
Y-291926D01*
X20744D01*
Y-291973D01*
X20697D01*
Y-292020D01*
X20651D01*
Y-292066D01*
X20604D01*
Y-292113D01*
X20557D01*
Y-292160D01*
X20510D01*
Y-292207D01*
X20464D01*
Y-292253D01*
X20417D01*
Y-292300D01*
X20370D01*
Y-292347D01*
X20324D01*
Y-292394D01*
X20277D01*
Y-292440D01*
X20230D01*
Y-292487D01*
X20183D01*
Y-292534D01*
X20136D01*
Y-292581D01*
X20090D01*
Y-292627D01*
X20043D01*
Y-292674D01*
X19950D01*
Y-292721D01*
X19903D01*
Y-292768D01*
X19856D01*
Y-292814D01*
X19809D01*
Y-292861D01*
X19763D01*
Y-292908D01*
X19716D01*
Y-292955D01*
X19669D01*
Y-293001D01*
X19622D01*
Y-293048D01*
X19576D01*
Y-293095D01*
X19529D01*
Y-293141D01*
X19482D01*
Y-293188D01*
X19435D01*
Y-293235D01*
X19389D01*
Y-293282D01*
X19342D01*
Y-293328D01*
X19295D01*
Y-293375D01*
X19248D01*
Y-293422D01*
X19202D01*
Y-293469D01*
X19155D01*
Y-293515D01*
X19108D01*
Y-293562D01*
X19061D01*
Y-293609D01*
X19015D01*
Y-293656D01*
X18921D01*
Y-293702D01*
X18874D01*
Y-293749D01*
X18828D01*
Y-293796D01*
X18781D01*
Y-293843D01*
X18734D01*
Y-293889D01*
X18688D01*
Y-293936D01*
X18641D01*
Y-293983D01*
X18594D01*
Y-294030D01*
X18547D01*
Y-294076D01*
X18501D01*
Y-294123D01*
X18454D01*
Y-294170D01*
X18407D01*
Y-294216D01*
X18360D01*
Y-294263D01*
X18314D01*
Y-294310D01*
X18267D01*
Y-294357D01*
X18220D01*
Y-294403D01*
X18173D01*
Y-294450D01*
X18127D01*
Y-294497D01*
X18080D01*
Y-294544D01*
X18033D01*
Y-294590D01*
X17940D01*
Y-294637D01*
X17893D01*
Y-294684D01*
X17846D01*
Y-294731D01*
X17800D01*
Y-294777D01*
X17753D01*
Y-294824D01*
X17706D01*
Y-294871D01*
X17659D01*
Y-294918D01*
X17613D01*
Y-294964D01*
X17566D01*
Y-295011D01*
X17519D01*
Y-295058D01*
X17472D01*
Y-295105D01*
X17426D01*
Y-295151D01*
X17379D01*
Y-295198D01*
X17332D01*
Y-295245D01*
X17285D01*
Y-295292D01*
X17239D01*
Y-295338D01*
X17192D01*
Y-295385D01*
X17145D01*
Y-295432D01*
X17098D01*
Y-295478D01*
X17052D01*
Y-295525D01*
X17005D01*
Y-295572D01*
X16911D01*
Y-295619D01*
X16865D01*
Y-295665D01*
X16818D01*
Y-295712D01*
X16771D01*
Y-295759D01*
X16724D01*
Y-295806D01*
X16678D01*
Y-295852D01*
X16631D01*
Y-295899D01*
X16584D01*
Y-295946D01*
X16537D01*
Y-295993D01*
X16491D01*
Y-296039D01*
X16444D01*
Y-296086D01*
X16397D01*
Y-296133D01*
X16351D01*
Y-296180D01*
X16304D01*
Y-296226D01*
X16257D01*
Y-296273D01*
X16210D01*
Y-296320D01*
X16164D01*
Y-296367D01*
X16117D01*
Y-296413D01*
X16070D01*
Y-296460D01*
X16023D01*
Y-296507D01*
X15977D01*
Y-296553D01*
X15883D01*
Y-296600D01*
X15836D01*
Y-296647D01*
X15790D01*
Y-296694D01*
X15743D01*
Y-296740D01*
X15696D01*
Y-296787D01*
X15649D01*
Y-296834D01*
X15603D01*
Y-296881D01*
X15556D01*
Y-296927D01*
X15509D01*
Y-296974D01*
X15462D01*
Y-297021D01*
X15416D01*
Y-297068D01*
X15369D01*
Y-297114D01*
X15322D01*
Y-297161D01*
X15275D01*
Y-297208D01*
X15229D01*
Y-297255D01*
X15182D01*
Y-297348D01*
X15229D01*
Y-297442D01*
X15275D01*
Y-297488D01*
X20230D01*
Y-297442D01*
X20277D01*
Y-297395D01*
X20324D01*
Y-297301D01*
X20370D01*
Y-297208D01*
X20417D01*
Y-297161D01*
X20464D01*
Y-297068D01*
X20510D01*
Y-297021D01*
X20557D01*
Y-296927D01*
X20604D01*
Y-296881D01*
X20651D01*
Y-296787D01*
X20697D01*
Y-296740D01*
X20744D01*
Y-296694D01*
X20791D01*
Y-296600D01*
X20838D01*
Y-296553D01*
X20884D01*
Y-296507D01*
X20931D01*
Y-296460D01*
X20978D01*
Y-296367D01*
X21025D01*
Y-296320D01*
X21071D01*
Y-296273D01*
X21118D01*
Y-296226D01*
X21165D01*
Y-296133D01*
X21212D01*
Y-296086D01*
X21258D01*
Y-296039D01*
X21305D01*
Y-295993D01*
X21352D01*
Y-295946D01*
X21398D01*
Y-295899D01*
X21445D01*
Y-295806D01*
X21492D01*
Y-295759D01*
X21539D01*
Y-295712D01*
X21586D01*
Y-295665D01*
X21632D01*
Y-295619D01*
X21679D01*
Y-295572D01*
X21726D01*
Y-295525D01*
X21772D01*
Y-295478D01*
X21819D01*
Y-295432D01*
X21866D01*
Y-295385D01*
X21913D01*
Y-295338D01*
X21959D01*
Y-295292D01*
X22006D01*
Y-295245D01*
X22053D01*
Y-295198D01*
X22100D01*
Y-295151D01*
X22146D01*
Y-295105D01*
X22193D01*
Y-295058D01*
X22240D01*
Y-295011D01*
X22287D01*
Y-294964D01*
X22333D01*
Y-294918D01*
X22380D01*
Y-294871D01*
X22427D01*
Y-294824D01*
X22474D01*
Y-294777D01*
X22520D01*
Y-294731D01*
X22567D01*
Y-294684D01*
X22661D01*
Y-294637D01*
X22707D01*
Y-294590D01*
X22754D01*
Y-294544D01*
X22801D01*
Y-294497D01*
X22847D01*
Y-294450D01*
X22894D01*
Y-294403D01*
X22941D01*
Y-294357D01*
X23034D01*
Y-294310D01*
X23081D01*
Y-294263D01*
X23128D01*
Y-294216D01*
X23175D01*
Y-294170D01*
X23221D01*
Y-294123D01*
X23315D01*
Y-294076D01*
X23362D01*
Y-294030D01*
X23408D01*
Y-293983D01*
X23455D01*
Y-293936D01*
X23549D01*
Y-293889D01*
X23595D01*
Y-293843D01*
X23642D01*
Y-293796D01*
X33037D01*
Y-293749D01*
X35140D01*
Y-293702D01*
X36309D01*
Y-293656D01*
X37150D01*
Y-293609D01*
X37851D01*
Y-293562D01*
X38412D01*
Y-293515D01*
X38879D01*
Y-293469D01*
X39347D01*
Y-293422D01*
X39721D01*
Y-293375D01*
X40095D01*
Y-293328D01*
X40469D01*
Y-293282D01*
X40796D01*
Y-293235D01*
X41076D01*
Y-293188D01*
X41403D01*
Y-293141D01*
X41684D01*
Y-293095D01*
X41918D01*
Y-293048D01*
X42198D01*
Y-293001D01*
X42432D01*
Y-292955D01*
X42665D01*
Y-292908D01*
X42899D01*
Y-292861D01*
X43086D01*
Y-292814D01*
X43320D01*
Y-292768D01*
X43507D01*
Y-292721D01*
X43694D01*
Y-292674D01*
X43881D01*
Y-292627D01*
X44068D01*
Y-292581D01*
X44208D01*
Y-292534D01*
X44395D01*
Y-292487D01*
X44535D01*
Y-292440D01*
X44722D01*
Y-292394D01*
X44862D01*
Y-292347D01*
X45002D01*
Y-292300D01*
X45143D01*
Y-292253D01*
X45283D01*
Y-292207D01*
X45423D01*
Y-292160D01*
X45563D01*
Y-292113D01*
X45657D01*
Y-292066D01*
X45797D01*
Y-292020D01*
X45937D01*
Y-291973D01*
X46031D01*
Y-291926D01*
X46171D01*
Y-291880D01*
X46264D01*
Y-291833D01*
X46405D01*
Y-291786D01*
X46498D01*
Y-291739D01*
X46592D01*
Y-291693D01*
X46685D01*
Y-291646D01*
X46779D01*
Y-291599D01*
X46919D01*
Y-291552D01*
X47012D01*
Y-291506D01*
X47106D01*
Y-291459D01*
X47199D01*
Y-291412D01*
X47293D01*
Y-291365D01*
X47340D01*
Y-291319D01*
X47433D01*
Y-291272D01*
X47526D01*
Y-291225D01*
X47620D01*
Y-291178D01*
X47713D01*
Y-291132D01*
X47807D01*
Y-291085D01*
X47854D01*
Y-291038D01*
X47947D01*
Y-290991D01*
X48041D01*
Y-290945D01*
X48087D01*
Y-290898D01*
X48181D01*
Y-290851D01*
X48274D01*
Y-290804D01*
X48321D01*
Y-290758D01*
X48415D01*
Y-290711D01*
X48461D01*
Y-290664D01*
X48555D01*
Y-290618D01*
X48601D01*
Y-290571D01*
X48695D01*
Y-290524D01*
X48742D01*
Y-290477D01*
X48835D01*
Y-290431D01*
X48882D01*
Y-290384D01*
X48929D01*
Y-290337D01*
X49022D01*
Y-290290D01*
X49069D01*
Y-290243D01*
X49116D01*
Y-290197D01*
X49209D01*
Y-290150D01*
X49256D01*
Y-290103D01*
X49303D01*
Y-290057D01*
X49396D01*
Y-290010D01*
X49443D01*
Y-289963D01*
X49489D01*
Y-289916D01*
X49536D01*
Y-289870D01*
X49630D01*
Y-289823D01*
X49676D01*
Y-289776D01*
X49723D01*
Y-289729D01*
X49770D01*
Y-289683D01*
X49864D01*
Y-289636D01*
X49910D01*
Y-289589D01*
X49957D01*
Y-289542D01*
X50004D01*
Y-289496D01*
X50050D01*
Y-289449D01*
X50097D01*
Y-289402D01*
X50191D01*
Y-289356D01*
X50237D01*
Y-289309D01*
X50284D01*
Y-289262D01*
X50331D01*
Y-289215D01*
X50378D01*
Y-289168D01*
X50424D01*
Y-289122D01*
X50471D01*
Y-289075D01*
X50565D01*
Y-289028D01*
X50611D01*
Y-288981D01*
X50658D01*
Y-288935D01*
X50705D01*
Y-288888D01*
X50752D01*
Y-288841D01*
X50798D01*
Y-288795D01*
X50845D01*
Y-288748D01*
X50892D01*
Y-288701D01*
X50939D01*
Y-288654D01*
X50985D01*
Y-288608D01*
X51032D01*
Y-288561D01*
X51125D01*
Y-288514D01*
X51172D01*
Y-288467D01*
X51219D01*
Y-288421D01*
X51266D01*
Y-288374D01*
X51312D01*
Y-288327D01*
X51359D01*
Y-288280D01*
X51406D01*
Y-288234D01*
X51453D01*
Y-288187D01*
X51499D01*
Y-288140D01*
X51546D01*
Y-288093D01*
X51593D01*
Y-288047D01*
X51640D01*
Y-288000D01*
X51686D01*
Y-287953D01*
X51733D01*
Y-287906D01*
X51780D01*
Y-287860D01*
X51827D01*
Y-287813D01*
X51920D01*
Y-287766D01*
X51967D01*
Y-287720D01*
X52014D01*
Y-287673D01*
X52060D01*
Y-287626D01*
X52107D01*
Y-287579D01*
X52154D01*
Y-287533D01*
X52200D01*
Y-287486D01*
X52247D01*
Y-287439D01*
X52294D01*
Y-287392D01*
X52341D01*
Y-287346D01*
X52387D01*
Y-287299D01*
X52434D01*
Y-287252D01*
X52481D01*
Y-287205D01*
X52528D01*
Y-287159D01*
X52574D01*
Y-287112D01*
X52621D01*
Y-287065D01*
X52668D01*
Y-287019D01*
X52761D01*
Y-286972D01*
X52808D01*
Y-286925D01*
X52855D01*
Y-286878D01*
X52902D01*
Y-286831D01*
X52948D01*
Y-286785D01*
X52995D01*
Y-286738D01*
X53042D01*
Y-286691D01*
X53089D01*
Y-286644D01*
X53135D01*
Y-286598D01*
X53182D01*
Y-286551D01*
X53229D01*
Y-286504D01*
X53275D01*
Y-286458D01*
X53369D01*
Y-286411D01*
X53416D01*
Y-286364D01*
X53463D01*
Y-286317D01*
X53509D01*
Y-286271D01*
X53556D01*
Y-286224D01*
X53603D01*
Y-286177D01*
X53649D01*
Y-286130D01*
X53696D01*
Y-286084D01*
X53743D01*
Y-286037D01*
X53790D01*
Y-285990D01*
X53883D01*
Y-285943D01*
X53930D01*
Y-285897D01*
X53977D01*
Y-285850D01*
X54023D01*
Y-285803D01*
X54070D01*
Y-285756D01*
X54117D01*
Y-285710D01*
X54164D01*
Y-285663D01*
X54257D01*
Y-285616D01*
X54304D01*
Y-285569D01*
X54351D01*
Y-285523D01*
X54397D01*
Y-285476D01*
X54444D01*
Y-285429D01*
X54491D01*
Y-285382D01*
X54584D01*
Y-285336D01*
X54631D01*
Y-285289D01*
X54678D01*
Y-285242D01*
X54724D01*
Y-285196D01*
X54771D01*
Y-285149D01*
X54865D01*
Y-285102D01*
X54911D01*
Y-285055D01*
X54958D01*
Y-285009D01*
X55005D01*
Y-284962D01*
X55052D01*
Y-284915D01*
X55145D01*
Y-284868D01*
X55192D01*
Y-284822D01*
X55239D01*
Y-284775D01*
X55285D01*
Y-284728D01*
X55332D01*
Y-284681D01*
X55426D01*
Y-284635D01*
X55472D01*
Y-284588D01*
X55519D01*
Y-284541D01*
X55566D01*
Y-284494D01*
X55659D01*
Y-284448D01*
X55706D01*
Y-284401D01*
X55753D01*
Y-284354D01*
X55799D01*
Y-284307D01*
X55893D01*
Y-284261D01*
X55940D01*
Y-284214D01*
X55986D01*
Y-284167D01*
X56080D01*
Y-284121D01*
X56127D01*
Y-284074D01*
X56173D01*
Y-284027D01*
X56267D01*
Y-283980D01*
X56314D01*
Y-283934D01*
X56407D01*
Y-283887D01*
X56454D01*
Y-283840D01*
X56501D01*
Y-283793D01*
X56594D01*
Y-283747D01*
X56688D01*
Y-283700D01*
X56734D01*
Y-283653D01*
X56828D01*
Y-283606D01*
X56874D01*
Y-283560D01*
X56968D01*
Y-283513D01*
X57062D01*
Y-283466D01*
X57155D01*
Y-283419D01*
X57249D01*
Y-283373D01*
X57342D01*
Y-283326D01*
X57435D01*
Y-283279D01*
X57529D01*
Y-283232D01*
X57622D01*
Y-283186D01*
X57716D01*
Y-283139D01*
X57809D01*
Y-283092D01*
X57903D01*
Y-283046D01*
X58043D01*
Y-282999D01*
X58137D01*
Y-282952D01*
X58277D01*
Y-282905D01*
X58417D01*
Y-282859D01*
X58557D01*
Y-282812D01*
X58651D01*
Y-282765D01*
X58838D01*
Y-282718D01*
X58978D01*
Y-282672D01*
X59118D01*
Y-282625D01*
X59305D01*
Y-282578D01*
X59445D01*
Y-282531D01*
X59632D01*
Y-282485D01*
X59819D01*
Y-282438D01*
X60053D01*
Y-282391D01*
X60287D01*
Y-282344D01*
X60520D01*
Y-282298D01*
X60754D01*
Y-282251D01*
X61034D01*
Y-282204D01*
X61315D01*
Y-282157D01*
X61689D01*
Y-282111D01*
X62016D01*
Y-282064D01*
X62437D01*
Y-282017D01*
X62904D01*
Y-281971D01*
X63465D01*
Y-281924D01*
X64119D01*
Y-281877D01*
X64914D01*
Y-281830D01*
X65989D01*
Y-281784D01*
X67391D01*
Y-281737D01*
X69401D01*
Y-281690D01*
X71645D01*
Y-281643D01*
X73608D01*
Y-281597D01*
X75197D01*
Y-281550D01*
X76505D01*
Y-281503D01*
X77534D01*
Y-281456D01*
X77581D01*
Y-281410D01*
X77627D01*
Y-281363D01*
X77674D01*
Y-281316D01*
X77721D01*
Y-281269D01*
X77768D01*
Y-281223D01*
X77814D01*
Y-281176D01*
X77908D01*
Y-281129D01*
X77955D01*
Y-281082D01*
X78001D01*
Y-281036D01*
X78048D01*
Y-280989D01*
X78095D01*
Y-280942D01*
X78141D01*
Y-280896D01*
X78188D01*
Y-280849D01*
X78235D01*
Y-280802D01*
X78282D01*
Y-280755D01*
X78328D01*
Y-280709D01*
X78375D01*
Y-280662D01*
X78422D01*
Y-280615D01*
X78469D01*
Y-280568D01*
X78515D01*
Y-280522D01*
X78562D01*
Y-280475D01*
X78609D01*
Y-280428D01*
X78656D01*
Y-280381D01*
X78702D01*
Y-280335D01*
X78749D01*
Y-280288D01*
X78796D01*
Y-280241D01*
X78843D01*
Y-280194D01*
X78889D01*
Y-280148D01*
X78983D01*
Y-280101D01*
X79029D01*
Y-280054D01*
X79076D01*
Y-280007D01*
X79123D01*
Y-279961D01*
X79170D01*
Y-279914D01*
X79216D01*
Y-279867D01*
X79263D01*
Y-279820D01*
X79310D01*
Y-279774D01*
X79357D01*
Y-279727D01*
X79403D01*
Y-279680D01*
X79450D01*
Y-279634D01*
X79497D01*
Y-279587D01*
X79544D01*
Y-279540D01*
X79590D01*
Y-279493D01*
X79637D01*
Y-279447D01*
X79684D01*
Y-279400D01*
X79731D01*
Y-279353D01*
X79777D01*
Y-279306D01*
X79824D01*
Y-279259D01*
X79871D01*
Y-279213D01*
X79918D01*
Y-279166D01*
X79964D01*
Y-279119D01*
X80058D01*
Y-279073D01*
X80105D01*
Y-279026D01*
X80151D01*
Y-278979D01*
X80198D01*
Y-278932D01*
X80245D01*
Y-278886D01*
X80292D01*
Y-278839D01*
X80338D01*
Y-278792D01*
X80385D01*
Y-278745D01*
X80432D01*
Y-278699D01*
X80478D01*
Y-278652D01*
X80525D01*
Y-278605D01*
X80572D01*
Y-278558D01*
X80619D01*
Y-278512D01*
X80665D01*
Y-278465D01*
X80712D01*
Y-278418D01*
X80759D01*
Y-278372D01*
X80806D01*
Y-278325D01*
X80852D01*
Y-278278D01*
X80899D01*
Y-278231D01*
X80946D01*
Y-278185D01*
X80993D01*
Y-278138D01*
X81086D01*
Y-278091D01*
X81133D01*
Y-278044D01*
X81180D01*
Y-277997D01*
X81226D01*
Y-277951D01*
X81273D01*
Y-277904D01*
X81320D01*
Y-277857D01*
X81367D01*
Y-277811D01*
X81413D01*
Y-277764D01*
X81460D01*
Y-277717D01*
X81507D01*
Y-277670D01*
X81553D01*
Y-277624D01*
X81600D01*
Y-277577D01*
X81647D01*
Y-277530D01*
X81694D01*
Y-277483D01*
X81741D01*
Y-277437D01*
X81787D01*
Y-277390D01*
X81834D01*
Y-277343D01*
X81881D01*
Y-277296D01*
X81927D01*
Y-277250D01*
X81974D01*
Y-277203D01*
X82021D01*
Y-277156D01*
X82068D01*
Y-277110D01*
X82161D01*
Y-277063D01*
X82208D01*
Y-277016D01*
X82255D01*
Y-276969D01*
X82301D01*
Y-276922D01*
X82348D01*
Y-276876D01*
X82395D01*
Y-276829D01*
X82442D01*
Y-276735D01*
X82488D01*
Y-276595D01*
X82442D01*
Y-276549D01*
X82395D01*
Y-276502D01*
D02*
G37*
G36*
X73421Y-292908D02*
X69120D01*
Y-293095D01*
X69074D01*
Y-293328D01*
X69027D01*
Y-293562D01*
X68980D01*
Y-293749D01*
X68934D01*
Y-293983D01*
X68887D01*
Y-294216D01*
X68840D01*
Y-294450D01*
X68793D01*
Y-294637D01*
X68747D01*
Y-294871D01*
X68700D01*
Y-295105D01*
X68653D01*
Y-295292D01*
X68606D01*
Y-295525D01*
X68560D01*
Y-295759D01*
X68513D01*
Y-295946D01*
X68466D01*
Y-296180D01*
X68419D01*
Y-296413D01*
X68373D01*
Y-296600D01*
X68326D01*
Y-296834D01*
X68279D01*
Y-297068D01*
X68232D01*
Y-297301D01*
X68186D01*
Y-297488D01*
X68139D01*
Y-297722D01*
X68092D01*
Y-297956D01*
X68046D01*
Y-298049D01*
X72392D01*
Y-297862D01*
X72439D01*
Y-297675D01*
X72486D01*
Y-297442D01*
X72533D01*
Y-297208D01*
X72579D01*
Y-296974D01*
X72626D01*
Y-296787D01*
X72673D01*
Y-296694D01*
X72626D01*
Y-296647D01*
X69962D01*
Y-296553D01*
X70009D01*
Y-296320D01*
X70055D01*
Y-296086D01*
X70102D01*
Y-296039D01*
X72392D01*
Y-295806D01*
X72439D01*
Y-295619D01*
X72486D01*
Y-295385D01*
X72533D01*
Y-295151D01*
X72579D01*
Y-294964D01*
X72626D01*
Y-294824D01*
X70336D01*
Y-294777D01*
X70382D01*
Y-294590D01*
X70429D01*
Y-294357D01*
X70476D01*
Y-294263D01*
X73140D01*
Y-294123D01*
X73187D01*
Y-293889D01*
X73234D01*
Y-293656D01*
X73280D01*
Y-293422D01*
X73327D01*
Y-293235D01*
X73374D01*
Y-293001D01*
X73421D01*
Y-292908D01*
D02*
G37*
G36*
X67999D02*
X63745D01*
Y-293048D01*
X63699D01*
Y-293235D01*
X63652D01*
Y-293469D01*
X63605D01*
Y-293702D01*
X63558D01*
Y-293889D01*
X63512D01*
Y-294123D01*
X63465D01*
Y-294357D01*
X63418D01*
Y-294544D01*
X63372D01*
Y-294777D01*
X63325D01*
Y-295011D01*
X63278D01*
Y-295198D01*
X63231D01*
Y-295432D01*
X63184D01*
Y-295665D01*
X63138D01*
Y-295899D01*
X63091D01*
Y-296086D01*
X63044D01*
Y-296320D01*
X62997D01*
Y-296553D01*
X62951D01*
Y-296740D01*
X62904D01*
Y-296974D01*
X62857D01*
Y-297208D01*
X62811D01*
Y-297395D01*
X62764D01*
Y-297628D01*
X62717D01*
Y-297862D01*
X62670D01*
Y-298049D01*
X66971D01*
Y-298002D01*
X67017D01*
Y-297769D01*
X67064D01*
Y-297582D01*
X67111D01*
Y-297348D01*
X67157D01*
Y-297114D01*
X67204D01*
Y-296881D01*
X67251D01*
Y-296647D01*
X64587D01*
Y-296460D01*
X64633D01*
Y-296226D01*
X64680D01*
Y-296086D01*
X64727D01*
Y-296039D01*
X66971D01*
Y-295946D01*
X67017D01*
Y-295759D01*
X67064D01*
Y-295525D01*
X67111D01*
Y-295292D01*
X67157D01*
Y-295058D01*
X67204D01*
Y-294824D01*
X64961D01*
Y-294731D01*
X65007D01*
Y-294497D01*
X65054D01*
Y-294310D01*
X65101D01*
Y-294263D01*
X67765D01*
Y-294030D01*
X67812D01*
Y-293796D01*
X67859D01*
Y-293562D01*
X67905D01*
Y-293375D01*
X67952D01*
Y-293282D01*
Y-293235D01*
Y-293141D01*
X67999D01*
Y-292908D01*
D02*
G37*
G36*
X23300Y-366477D02*
X22213D01*
Y-366749D01*
X21669D01*
Y-367021D01*
X21397D01*
Y-367293D01*
X21125D01*
Y-367564D01*
X20582D01*
Y-367836D01*
X20310D01*
Y-368108D01*
X20038D01*
Y-368380D01*
X19766D01*
Y-368652D01*
X19495D01*
Y-368923D01*
X19223D01*
Y-369195D01*
X18679D01*
Y-369467D01*
X18408D01*
Y-369739D01*
X18136D01*
Y-370010D01*
X17864D01*
Y-370282D01*
X17592D01*
Y-370554D01*
X17320D01*
Y-370826D01*
X17049D01*
Y-371369D01*
X16777D01*
Y-371641D01*
X16505D01*
Y-371913D01*
X16233D01*
Y-372185D01*
X15962D01*
Y-372456D01*
X15690D01*
Y-372728D01*
X15418D01*
Y-373272D01*
X15146D01*
Y-373544D01*
X14875D01*
Y-374087D01*
X14603D01*
Y-374631D01*
X14875D01*
Y-375174D01*
X15146D01*
Y-375446D01*
X15418D01*
Y-375718D01*
X15690D01*
Y-376261D01*
X15962D01*
Y-376533D01*
X16233D01*
Y-376805D01*
X16505D01*
Y-377077D01*
X16777D01*
Y-377348D01*
X17049D01*
Y-377620D01*
X17320D01*
Y-377892D01*
X17592D01*
Y-378164D01*
X17864D01*
Y-378436D01*
X18136D01*
Y-378707D01*
X18408D01*
Y-378979D01*
X18679D01*
Y-379251D01*
X18951D01*
Y-379523D01*
X19223D01*
Y-379794D01*
X19495D01*
Y-380066D01*
X19766D01*
Y-380338D01*
X20038D01*
Y-380610D01*
X20310D01*
Y-380882D01*
X20854D01*
Y-381153D01*
X21125D01*
Y-381425D01*
X21397D01*
Y-381697D01*
X21669D01*
Y-381969D01*
X22213D01*
Y-382240D01*
X23300D01*
Y-381969D01*
X23843D01*
Y-381697D01*
X24115D01*
Y-381425D01*
X24387D01*
Y-381153D01*
X24930D01*
Y-380882D01*
X25202D01*
Y-380610D01*
X25474D01*
Y-380338D01*
X25746D01*
Y-380066D01*
X26017D01*
Y-379794D01*
X26289D01*
Y-379523D01*
X26561D01*
Y-379251D01*
X26833D01*
Y-378979D01*
X27104D01*
Y-378707D01*
X27376D01*
Y-378436D01*
X27648D01*
Y-378164D01*
X27920D01*
Y-377892D01*
X28192D01*
Y-377620D01*
X28463D01*
Y-377348D01*
X28735D01*
Y-377077D01*
X29007D01*
Y-376805D01*
X29279D01*
Y-376533D01*
X29550D01*
Y-375989D01*
X29822D01*
Y-375718D01*
X30094D01*
Y-375446D01*
X30366D01*
Y-374902D01*
X30638D01*
Y-373815D01*
X30366D01*
Y-373272D01*
X30094D01*
Y-373000D01*
X29822D01*
Y-372728D01*
X29550D01*
Y-372185D01*
X29279D01*
Y-371913D01*
X29007D01*
Y-371641D01*
X28735D01*
Y-371369D01*
X28463D01*
Y-371097D01*
X28192D01*
Y-370826D01*
X27920D01*
Y-370554D01*
X27648D01*
Y-370010D01*
X27376D01*
Y-369739D01*
X26833D01*
Y-369467D01*
X26561D01*
Y-369195D01*
X26289D01*
Y-368923D01*
X26017D01*
Y-368652D01*
X25746D01*
Y-368380D01*
X25474D01*
Y-368108D01*
X25202D01*
Y-367836D01*
X24930D01*
Y-367564D01*
X24387D01*
Y-367293D01*
X24115D01*
Y-367021D01*
X23843D01*
Y-366749D01*
X23300D01*
Y-366477D01*
D02*
G37*
%LPD*%
G36*
X22756Y-368923D02*
X23028D01*
Y-369739D01*
X23300D01*
Y-370282D01*
X23571D01*
Y-371097D01*
X23843D01*
Y-371913D01*
X23028D01*
Y-374359D01*
Y-374631D01*
Y-375446D01*
X22484D01*
Y-375174D01*
X22213D01*
Y-371913D01*
X21669D01*
Y-370826D01*
X21941D01*
Y-370010D01*
X22213D01*
Y-369195D01*
X22484D01*
Y-368380D01*
X22756D01*
Y-368923D01*
D02*
G37*
G36*
X25202Y-373000D02*
X26289D01*
Y-373544D01*
X26561D01*
Y-373815D01*
X26833D01*
Y-374087D01*
X27104D01*
Y-374902D01*
X26833D01*
Y-375174D01*
X26289D01*
Y-375446D01*
X25746D01*
Y-375718D01*
X24659D01*
Y-375989D01*
X20582D01*
Y-375718D01*
X19495D01*
Y-375446D01*
X18679D01*
Y-375174D01*
X18136D01*
Y-374902D01*
X17864D01*
Y-373815D01*
X18136D01*
Y-373544D01*
X18408D01*
Y-373272D01*
X18679D01*
Y-373000D01*
X19223D01*
Y-372728D01*
X20582D01*
Y-373000D01*
X20854D01*
Y-373272D01*
X20582D01*
Y-373544D01*
X20038D01*
Y-373815D01*
X19495D01*
Y-374359D01*
X19223D01*
Y-374631D01*
X19495D01*
Y-374902D01*
X19766D01*
Y-375174D01*
X20310D01*
Y-375446D01*
X21397D01*
Y-375718D01*
X24115D01*
Y-375446D01*
X25202D01*
Y-375174D01*
X26017D01*
Y-374902D01*
X26289D01*
Y-374631D01*
X26561D01*
Y-374087D01*
X26289D01*
Y-373815D01*
X26017D01*
Y-373544D01*
X24659D01*
Y-372728D01*
X25202D01*
Y-373000D01*
D02*
G37*
G36*
X23300Y-376805D02*
Y-377077D01*
Y-379794D01*
X21941D01*
Y-377892D01*
X22213D01*
Y-376261D01*
X23300D01*
Y-376805D01*
D02*
G37*
%LPC*%
G36*
X73307Y-365934D02*
X59990D01*
Y-383056D01*
X60261D01*
Y-383327D01*
X73035D01*
Y-383056D01*
X73307D01*
Y-379794D01*
X64882D01*
Y-376261D01*
X72491D01*
Y-372728D01*
X64882D01*
Y-369467D01*
X73035D01*
Y-369195D01*
X73307D01*
Y-365934D01*
D02*
G37*
G36*
X57544D02*
X44226D01*
Y-383056D01*
X44498D01*
Y-383327D01*
X57272D01*
Y-383056D01*
X57544D01*
Y-379794D01*
X49118D01*
Y-376261D01*
X56728D01*
Y-375989D01*
X57000D01*
Y-373000D01*
X56728D01*
Y-372728D01*
X49118D01*
Y-369467D01*
X57272D01*
Y-369195D01*
X57544D01*
Y-365934D01*
D02*
G37*
G36*
X42052D02*
X37160D01*
Y-383327D01*
X41781D01*
Y-383056D01*
X42052D01*
Y-365934D01*
D02*
G37*
G36*
X26833Y-383056D02*
X26289D01*
Y-383327D01*
X26017D01*
Y-383599D01*
X25746D01*
Y-384415D01*
Y-384686D01*
X26289D01*
Y-384958D01*
X26833D01*
Y-384686D01*
X27104D01*
Y-384415D01*
X27376D01*
Y-383599D01*
X27104D01*
Y-383327D01*
X26833D01*
Y-383056D01*
D02*
G37*
%LPD*%
G36*
X26289Y-384143D02*
X26017D01*
Y-383871D01*
X26289D01*
Y-384143D01*
D02*
G37*
G36*
X27104Y-384415D02*
X26833D01*
Y-384143D01*
Y-383871D01*
X27104D01*
Y-384415D01*
D02*
G37*
D10*
X348306Y-266499D02*
G03*
X348306Y-266499I-20000J0D01*
G01*
X239338Y-329154D02*
G03*
X116262Y-329154I-61538J-7556D01*
G01*
X124106Y-367710D02*
G03*
X231494Y-367710I53694J31000D01*
G01*
X225522Y-72390D02*
G03*
X225522Y-72390I-1270J0D01*
G01*
X265540Y-349798D02*
Y-360794D01*
X269205Y-357129D01*
X272871Y-360794D01*
Y-349798D01*
X278369Y-360794D02*
X282035D01*
X283867Y-358962D01*
Y-355296D01*
X282035Y-353464D01*
X278369D01*
X276536Y-355296D01*
Y-358962D01*
X278369Y-360794D01*
X287533Y-353464D02*
Y-360794D01*
Y-357129D01*
X289366Y-355296D01*
X291198Y-353464D01*
X293031D01*
X298529Y-360794D02*
Y-349798D01*
Y-357129D02*
X304028Y-353464D01*
X298529Y-357129D02*
X304028Y-360794D01*
X309526D02*
X315024D01*
X316857Y-358962D01*
X315024Y-357129D01*
X311359D01*
X309526Y-355296D01*
X311359Y-353464D01*
X316857D01*
X320522Y-349798D02*
Y-360794D01*
Y-355296D01*
X322355Y-353464D01*
X326021D01*
X327853Y-355296D01*
Y-360794D01*
X333351D02*
X337017D01*
X338850Y-358962D01*
Y-355296D01*
X337017Y-353464D01*
X333351D01*
X331519Y-355296D01*
Y-358962D01*
X333351Y-360794D01*
X342515Y-364460D02*
Y-353464D01*
X348013D01*
X349846Y-355296D01*
Y-358962D01*
X348013Y-360794D01*
X342515D01*
X271871Y-335631D02*
X270038Y-333798D01*
X266373D01*
X264540Y-335631D01*
Y-337464D01*
X266373Y-339296D01*
X270038D01*
X271871Y-341129D01*
Y-342962D01*
X270038Y-344795D01*
X266373D01*
X264540Y-342962D01*
X277369Y-344795D02*
X281035D01*
X282867Y-342962D01*
Y-339296D01*
X281035Y-337464D01*
X277369D01*
X275536Y-339296D01*
Y-342962D01*
X277369Y-344795D01*
X286533D02*
X290198D01*
X288366D01*
Y-333798D01*
X286533D01*
X303028D02*
Y-344795D01*
X297529D01*
X295697Y-342962D01*
Y-339296D01*
X297529Y-337464D01*
X303028D01*
X312191Y-344795D02*
X308526D01*
X306693Y-342962D01*
Y-339296D01*
X308526Y-337464D01*
X312191D01*
X314024Y-339296D01*
Y-341129D01*
X306693D01*
X317689Y-337464D02*
Y-344795D01*
Y-341129D01*
X319522Y-339296D01*
X321355Y-337464D01*
X323188D01*
X328686Y-344795D02*
X332351D01*
X330519D01*
Y-337464D01*
X328686D01*
X337850Y-344795D02*
Y-337464D01*
X343348D01*
X345181Y-339296D01*
Y-344795D01*
X352512Y-348460D02*
X354344D01*
X356177Y-346627D01*
Y-337464D01*
X350679D01*
X348846Y-339296D01*
Y-342962D01*
X350679Y-344795D01*
X356177D01*
X272871Y-317464D02*
X265540D01*
Y-322962D01*
X269205D01*
X265540D01*
Y-328460D01*
X278369Y-321129D02*
X282035D01*
X283867Y-322962D01*
Y-328460D01*
X278369D01*
X276536Y-326627D01*
X278369Y-324795D01*
X283867D01*
X287533Y-328460D02*
X291198D01*
X289366D01*
Y-317464D01*
X287533D01*
X296697Y-328460D02*
X300362D01*
X298529D01*
Y-317464D01*
X296697D01*
X324188Y-328460D02*
X316857D01*
X324188Y-321129D01*
Y-319296D01*
X322355Y-317464D01*
X318689D01*
X316857Y-319296D01*
X327853D02*
X329686Y-317464D01*
X333351D01*
X335184Y-319296D01*
Y-326627D01*
X333351Y-328460D01*
X329686D01*
X327853Y-326627D01*
Y-319296D01*
X346181Y-328460D02*
X338850D01*
X346181Y-321129D01*
Y-319296D01*
X344348Y-317464D01*
X340682D01*
X338850Y-319296D01*
X349846D02*
X351679Y-317464D01*
X355344D01*
X357177Y-319296D01*
Y-321129D01*
X355344Y-322962D01*
X353512D01*
X355344D01*
X357177Y-324795D01*
Y-326627D01*
X355344Y-328460D01*
X351679D01*
X349846Y-326627D01*
X265540Y-301464D02*
Y-310627D01*
X267373Y-312460D01*
X271038D01*
X272871Y-310627D01*
Y-301464D01*
X276536D02*
Y-308794D01*
X280202Y-312460D01*
X283867Y-308794D01*
Y-301464D01*
X294864D02*
X287533D01*
Y-312460D01*
X294864D01*
X287533Y-306962D02*
X291198D01*
X305860Y-301464D02*
X298529D01*
Y-312460D01*
X305860D01*
X298529Y-306962D02*
X302195D01*
X316857Y-303296D02*
X315024Y-301464D01*
X311359D01*
X309526Y-303296D01*
Y-310627D01*
X311359Y-312460D01*
X315024D01*
X316857Y-310627D01*
X331519Y-305129D02*
X338850Y-312460D01*
X335184Y-308794D01*
X338850Y-305129D01*
X331519Y-312460D01*
X353512Y-301464D02*
X357177D01*
X355344D01*
Y-312460D01*
X353512D01*
X357177D01*
X370006Y-301464D02*
X362675D01*
Y-312460D01*
X370006D01*
X362675Y-306962D02*
X366341D01*
X381003Y-301464D02*
X373672D01*
Y-312460D01*
X381003D01*
X373672Y-306962D02*
X377337D01*
X391999Y-301464D02*
X384668D01*
Y-312460D01*
X391999D01*
X384668Y-306962D02*
X388334D01*
X222304Y-192617D02*
Y-177383D01*
X229922D01*
X232461Y-179922D01*
Y-185000D01*
X229922Y-187539D01*
X222304D01*
X227383D02*
X232461Y-192617D01*
X247696D02*
X237539D01*
X247696Y-182461D01*
Y-179922D01*
X245157Y-177383D01*
X240078D01*
X237539Y-179922D01*
X150441Y-186932D02*
X147902Y-184393D01*
X142823D01*
X140284Y-186932D01*
Y-197088D01*
X142823Y-199627D01*
X147902D01*
X150441Y-197088D01*
X165676Y-199627D02*
X155519D01*
X165676Y-189471D01*
Y-186932D01*
X163137Y-184393D01*
X158058D01*
X155519Y-186932D01*
X325304Y-38617D02*
Y-23382D01*
X332922D01*
X335461Y-25922D01*
Y-31000D01*
X332922Y-33539D01*
X325304D01*
X330382D02*
X335461Y-38617D01*
X348157D02*
Y-23382D01*
X340539Y-31000D01*
X350696D01*
X353000Y-130078D02*
Y-119922D01*
X350461Y-117382D01*
X345382D01*
X342843Y-119922D01*
Y-130078D01*
X345382Y-132618D01*
X350461D01*
X347922Y-127539D02*
X353000Y-132618D01*
X350461D02*
X353000Y-130078D01*
X358078Y-132618D02*
X363157D01*
X360618D01*
Y-117382D01*
X358078Y-119922D01*
X142843Y-81383D02*
Y-94078D01*
X145382Y-96617D01*
X150461D01*
X153000Y-94078D01*
Y-81383D01*
X158078Y-96617D02*
X163157D01*
X160618D01*
Y-81383D01*
X158078Y-83922D01*
X237304Y-238617D02*
Y-223382D01*
X244922D01*
X247461Y-225922D01*
Y-231000D01*
X244922Y-233539D01*
X237304D01*
X242383D02*
X247461Y-238617D01*
X252539Y-225922D02*
X255078Y-223382D01*
X260157D01*
X262696Y-225922D01*
Y-228461D01*
X260157Y-231000D01*
X257617D01*
X260157D01*
X262696Y-233539D01*
Y-236078D01*
X260157Y-238617D01*
X255078D01*
X252539Y-236078D01*
X245000Y-121922D02*
X242461Y-119382D01*
X237383D01*
X234843Y-121922D01*
Y-132078D01*
X237383Y-134618D01*
X242461D01*
X245000Y-132078D01*
X250078Y-134618D02*
X255157D01*
X252618D01*
Y-119382D01*
X250078Y-121922D01*
X291373Y-196187D02*
Y-180952D01*
X298991D01*
X301530Y-183492D01*
Y-188570D01*
X298991Y-191109D01*
X291373D01*
X296452D02*
X301530Y-196187D01*
X306608D02*
X311687D01*
X309148D01*
Y-180952D01*
X306608Y-183492D01*
X40000Y-12383D02*
X34922D01*
X37461D01*
Y-25078D01*
X34922Y-27617D01*
X32383D01*
X29843Y-25078D01*
X45078Y-27617D02*
X50157D01*
X47618D01*
Y-12383D01*
X45078Y-14922D01*
X364843Y-255382D02*
Y-270618D01*
X372461D01*
X375000Y-268078D01*
Y-257922D01*
X372461Y-255382D01*
X364843D01*
X380078Y-270618D02*
X385157D01*
X382618D01*
Y-255382D01*
X380078Y-257922D01*
D11*
X220443Y-84785D02*
G03*
X220443Y-91135I0J-3175D01*
G01*
X208140Y-148840D02*
X253860D01*
Y-169160D02*
Y-148840D01*
X208140Y-169160D02*
X253860D01*
X208140D02*
Y-148840D01*
X268480Y-41910D02*
X314200D01*
X268480D02*
Y-21590D01*
X314200D01*
Y-41910D02*
Y-21590D01*
X312270Y-128480D02*
Y-122980D01*
X316770Y-111230D02*
X325270D01*
Y-140230D02*
Y-132230D01*
X315770Y-140230D02*
X325270D01*
Y-119230D02*
Y-111230D01*
X312270Y-128480D02*
Y-122980D01*
X316770Y-111230D02*
X325270D01*
Y-140230D02*
Y-132230D01*
X315770Y-140230D02*
X325270D01*
Y-119230D02*
Y-111230D01*
X234110Y-111630D02*
X256110D01*
Y-63630D01*
X234110D02*
X256110D01*
X234110Y-111630D02*
Y-63630D01*
X184000Y-171000D02*
Y-149000D01*
X136000D02*
X184000D01*
X136000Y-171000D02*
Y-149000D01*
Y-171000D02*
X184000D01*
X321310Y-269240D02*
X336550D01*
X328930Y-261620D02*
X336550Y-269240D01*
X321310D02*
X328930Y-261620D01*
X321310D02*
X336550D01*
X115300Y-246710D02*
X130050D01*
X150550D02*
X167550D01*
X188050D02*
X205050D01*
X225550D02*
X240300D01*
X115300Y-284210D02*
X127800Y-296710D01*
X226550Y-297960D02*
X240300Y-284210D01*
X115300D02*
Y-246710D01*
X240300Y-284210D02*
Y-246710D01*
X115300Y-284210D02*
X127800Y-296710D01*
X226550Y-297960D02*
X240300Y-284210D01*
X115300D02*
Y-246710D01*
X240300Y-284210D02*
Y-246710D01*
X88000Y-153820D02*
Y-36980D01*
X33030Y-144900D02*
X58030D01*
X33030Y-45900D02*
X58030D01*
X-9790Y-144930D02*
X3530D01*
X-9790D02*
Y-45870D01*
X3530D01*
X-12330Y-36980D02*
X88000D01*
X-12330Y-153820D02*
Y-36980D01*
Y-153820D02*
X88000D01*
X339090Y-212090D02*
Y-166370D01*
X318770Y-212090D02*
X339090D01*
X318770D02*
Y-166370D01*
X339090D01*
X169643Y-77060D02*
X220443D01*
X169643Y-98860D02*
Y-77060D01*
Y-98860D02*
X220443D01*
Y-91135D01*
Y-84785D02*
Y-77060D01*
M02*
