G04*
G04 #@! TF.GenerationSoftware,Altium Limited,Altium Designer,23.10.1 (27)*
G04*
G04 Layer_Color=8421504*
%FSLAX44Y44*%
%MOMM*%
G71*
G04*
G04 #@! TF.SameCoordinates,0AC736BD-E267-4969-BD77-996DE068DD07*
G04*
G04*
G04 #@! TF.FilePolarity,Positive*
G04*
G01*
G75*
%ADD12R,2.2500X0.5000*%
%ADD13R,2.5000X2.0000*%
%ADD14R,1.0000X1.6000*%
%ADD15R,0.9000X0.8000*%
%ADD16R,1.6000X1.0000*%
%ADD17O,0.6000X1.5500*%
%ADD18R,0.6000X1.5500*%
D12*
X74030Y-111400D02*
D03*
Y-103400D02*
D03*
Y-95400D02*
D03*
Y-87400D02*
D03*
Y-79400D02*
D03*
D13*
X72780Y-50900D02*
D03*
X18280D02*
D03*
X72780Y-139900D02*
D03*
X18280D02*
D03*
D14*
X247000Y-159000D02*
D03*
X215000D02*
D03*
X275340Y-31750D02*
D03*
X307340D02*
D03*
X176000Y-160000D02*
D03*
X144000D02*
D03*
D15*
X308770Y-116230D02*
D03*
Y-135230D02*
D03*
X328770Y-125730D02*
D03*
D16*
X245110Y-103630D02*
D03*
Y-71630D02*
D03*
X328930Y-205230D02*
D03*
Y-173230D02*
D03*
D17*
X175993Y-114960D02*
D03*
X188692D02*
D03*
X201392D02*
D03*
X214093D02*
D03*
X175993Y-60960D02*
D03*
X188692D02*
D03*
X201392D02*
D03*
D18*
X214093D02*
D03*
M02*
