G04*
G04 #@! TF.GenerationSoftware,Altium Limited,Altium Designer,23.0.1 (38)*
G04*
G04 Layer_Physical_Order=2*
G04 Layer_Color=36540*
%FSLAX25Y25*%
%MOIN*%
G70*
G04*
G04 #@! TF.SameCoordinates,8278F28E-5B15-4BE8-8149-663F5D52C5DE*
G04*
G04*
G04 #@! TF.FilePolarity,Positive*
G04*
G01*
G75*
%ADD63O,0.06693X0.04331*%
%ADD64C,0.06000*%
%ADD65C,0.11811*%
%ADD66C,0.09937*%
%ADD67C,0.15748*%
%ADD68R,0.07087X0.07087*%
%ADD69C,0.07087*%
%ADD70R,0.07087X0.07087*%
%ADD71O,0.07874X0.06299*%
%ADD72O,0.07087X0.09055*%
%ADD73R,0.06299X0.07874*%
%ADD74O,0.06299X0.07874*%
%ADD75C,0.04724*%
%ADD76C,0.05000*%
G36*
X325542Y232000D02*
X324250Y231137D01*
X323044Y229931D01*
X322096Y228512D01*
X321443Y226936D01*
X321110Y225262D01*
Y223556D01*
X321443Y221883D01*
X322096Y220307D01*
X323044Y218888D01*
X324250Y217682D01*
X325669Y216734D01*
X327245Y216081D01*
X328919Y215748D01*
X330625D01*
X332298Y216081D01*
X333874Y216734D01*
X335293Y217682D01*
X336499Y218888D01*
X337447Y220307D01*
X338000Y221641D01*
X338500Y221542D01*
Y118204D01*
X149496Y117640D01*
X149269Y117594D01*
X149039Y117548D01*
X149038Y117547D01*
X149036Y117547D01*
X148843Y117417D01*
X148649Y117287D01*
X148647Y117286D01*
X148646Y117285D01*
X148517Y117090D01*
X148388Y116897D01*
X148387Y116895D01*
X148386Y116893D01*
X148341Y116665D01*
X148296Y116436D01*
Y116432D01*
X147000Y116428D01*
X145000Y2000D01*
X5354D01*
X5001Y2354D01*
X5954Y221975D01*
X6455Y222023D01*
X6482Y221883D01*
X7135Y220307D01*
X8083Y218888D01*
X9290Y217682D01*
X10708Y216734D01*
X12285Y216081D01*
X13958Y215748D01*
X15664D01*
X17337Y216081D01*
X18914Y216734D01*
X20332Y217682D01*
X21539Y218888D01*
X22487Y220307D01*
X23140Y221883D01*
X23472Y223556D01*
Y225262D01*
X23140Y226936D01*
X22487Y228512D01*
X21539Y229931D01*
X20332Y231137D01*
X19041Y232000D01*
X19193Y232500D01*
X325390D01*
X325542Y232000D01*
D02*
G37*
%LPC*%
G36*
X101933Y216787D02*
X101067D01*
X100231Y216563D01*
X99481Y216131D01*
X98869Y215518D01*
X98437Y214769D01*
X98213Y213933D01*
Y213067D01*
X98437Y212231D01*
X98869Y211481D01*
X99481Y210869D01*
X100231Y210437D01*
X101067Y210213D01*
X101933D01*
X102769Y210437D01*
X103518Y210869D01*
X104131Y211481D01*
X104563Y212231D01*
X104787Y213067D01*
Y213933D01*
X104563Y214769D01*
X104131Y215518D01*
X103518Y216131D01*
X102769Y216563D01*
X101933Y216787D01*
D02*
G37*
G36*
X89433Y215287D02*
X88567D01*
X87731Y215063D01*
X86981Y214631D01*
X86369Y214019D01*
X85937Y213269D01*
X85713Y212433D01*
Y211567D01*
X85937Y210731D01*
X86369Y209981D01*
X86981Y209369D01*
X87731Y208937D01*
X88567Y208713D01*
X89433D01*
X90269Y208937D01*
X91018Y209369D01*
X91631Y209981D01*
X92063Y210731D01*
X92287Y211567D01*
Y212433D01*
X92063Y213269D01*
X91631Y214019D01*
X91018Y214631D01*
X90269Y215063D01*
X89433Y215287D01*
D02*
G37*
G36*
X82831Y214067D02*
X74169D01*
Y205405D01*
X82831D01*
Y214067D01*
D02*
G37*
G36*
X179459Y214370D02*
X177753D01*
X176080Y214037D01*
X174504Y213384D01*
X173085Y212436D01*
X171879Y211230D01*
X170931Y209811D01*
X170278Y208235D01*
X169945Y206562D01*
Y204856D01*
X170278Y203182D01*
X170931Y201606D01*
X171879Y200187D01*
X173085Y198981D01*
X174504Y198033D01*
X176080Y197380D01*
X177753Y197047D01*
X179459D01*
X181133Y197380D01*
X182709Y198033D01*
X184128Y198981D01*
X185334Y200187D01*
X186282Y201606D01*
X186935Y203182D01*
X187268Y204856D01*
Y206562D01*
X186935Y208235D01*
X186282Y209811D01*
X185334Y211230D01*
X184128Y212436D01*
X182709Y213384D01*
X181133Y214037D01*
X179459Y214370D01*
D02*
G37*
G36*
X308408Y214138D02*
X306702D01*
X305029Y213805D01*
X303452Y213152D01*
X302034Y212204D01*
X300827Y210998D01*
X299880Y209579D01*
X299227Y208003D01*
X298894Y206329D01*
Y204623D01*
X299227Y202950D01*
X299880Y201374D01*
X300827Y199955D01*
X302034Y198749D01*
X303452Y197801D01*
X305029Y197148D01*
X306702Y196815D01*
X308408D01*
X310082Y197148D01*
X311658Y197801D01*
X313076Y198749D01*
X314283Y199955D01*
X315231Y201374D01*
X315884Y202950D01*
X316216Y204623D01*
Y206329D01*
X315884Y208003D01*
X315231Y209579D01*
X314283Y210998D01*
X313076Y212204D01*
X311658Y213152D01*
X310082Y213805D01*
X308408Y214138D01*
D02*
G37*
G36*
X79070Y203831D02*
X77930D01*
X76828Y203536D01*
X75841Y202965D01*
X75035Y202159D01*
X74464Y201172D01*
X74169Y200070D01*
Y198930D01*
X74464Y197828D01*
X75035Y196841D01*
X75841Y196035D01*
X76828Y195464D01*
X77930Y195169D01*
X79070D01*
X80172Y195464D01*
X81159Y196035D01*
X81965Y196841D01*
X82536Y197828D01*
X82831Y198930D01*
Y200070D01*
X82536Y201172D01*
X81965Y202159D01*
X81159Y202965D01*
X80172Y203536D01*
X79070Y203831D01*
D02*
G37*
G36*
X22659Y207535D02*
X21341D01*
X20048Y207278D01*
X18830Y206774D01*
X17733Y206041D01*
X16801Y205109D01*
X16069Y204013D01*
X15564Y202795D01*
X15307Y201502D01*
Y200183D01*
X15564Y198890D01*
X16069Y197672D01*
X16801Y196576D01*
X17733Y195644D01*
X18830Y194911D01*
X20048Y194407D01*
X21341Y194150D01*
X22659D01*
X23952Y194407D01*
X25170Y194911D01*
X26267Y195644D01*
X27199Y196576D01*
X27931Y197672D01*
X28436Y198890D01*
X28693Y200183D01*
Y201502D01*
X28436Y202795D01*
X27931Y204013D01*
X27199Y205109D01*
X26267Y206041D01*
X25170Y206774D01*
X23952Y207278D01*
X22659Y207535D01*
D02*
G37*
G36*
X230000Y195257D02*
Y190370D01*
X234887D01*
X234739Y191111D01*
X234289Y192197D01*
X233636Y193175D01*
X232805Y194006D01*
X231827Y194659D01*
X230741Y195109D01*
X230000Y195257D01*
D02*
G37*
G36*
X228000D02*
X227259Y195109D01*
X226173Y194659D01*
X225195Y194006D01*
X224364Y193175D01*
X223711Y192197D01*
X223261Y191111D01*
X223113Y190370D01*
X228000D01*
Y195257D01*
D02*
G37*
G36*
X249258Y197256D02*
X247742D01*
X246278Y196864D01*
X244966Y196106D01*
X243894Y195034D01*
X243136Y193722D01*
X242744Y192258D01*
Y190742D01*
X243136Y189278D01*
X243894Y187966D01*
X244966Y186894D01*
X246278Y186136D01*
X247742Y185744D01*
X249258D01*
X250722Y186136D01*
X252034Y186894D01*
X253106Y187966D01*
X253864Y189278D01*
X254256Y190742D01*
Y192258D01*
X253864Y193722D01*
X253106Y195034D01*
X252034Y196106D01*
X250722Y196864D01*
X249258Y197256D01*
D02*
G37*
G36*
X79070Y193595D02*
X77930D01*
X76828Y193299D01*
X75841Y192729D01*
X75035Y191923D01*
X74464Y190935D01*
X74169Y189834D01*
Y188694D01*
X74464Y187592D01*
X75035Y186605D01*
X75841Y185798D01*
X76828Y185228D01*
X77930Y184933D01*
X79070D01*
X80172Y185228D01*
X81159Y185798D01*
X81965Y186605D01*
X82536Y187592D01*
X82831Y188694D01*
Y189834D01*
X82536Y190935D01*
X81965Y191923D01*
X81159Y192729D01*
X80172Y193299D01*
X79070Y193595D01*
D02*
G37*
G36*
X234887Y188370D02*
X230000D01*
Y183484D01*
X230741Y183631D01*
X231827Y184081D01*
X232805Y184734D01*
X233636Y185565D01*
X234289Y186543D01*
X234739Y187629D01*
X234887Y188370D01*
D02*
G37*
G36*
X228000D02*
X223113D01*
X223261Y187629D01*
X223711Y186543D01*
X224364Y185565D01*
X225195Y184734D01*
X226173Y184081D01*
X227259Y183631D01*
X228000Y183484D01*
Y188370D01*
D02*
G37*
G36*
X105433Y173287D02*
X104567D01*
X103731Y173063D01*
X102981Y172631D01*
X102369Y172019D01*
X101937Y171269D01*
X101713Y170433D01*
Y169567D01*
X101937Y168731D01*
X102369Y167982D01*
X102981Y167369D01*
X103731Y166937D01*
X104567Y166713D01*
X105433D01*
X106269Y166937D01*
X107018Y167369D01*
X107631Y167982D01*
X108063Y168731D01*
X108287Y169567D01*
Y170433D01*
X108063Y171269D01*
X107631Y172019D01*
X107018Y172631D01*
X106269Y173063D01*
X105433Y173287D01*
D02*
G37*
G36*
X329659Y175508D02*
X328341D01*
X327048Y175251D01*
X325830Y174746D01*
X324733Y174014D01*
X323801Y173081D01*
X323069Y171985D01*
X322564Y170767D01*
X322307Y169474D01*
Y168156D01*
X322564Y166863D01*
X323069Y165645D01*
X323801Y164549D01*
X324733Y163616D01*
X325830Y162884D01*
X327048Y162379D01*
X328341Y162122D01*
X329659D01*
X330952Y162379D01*
X332170Y162884D01*
X333266Y163616D01*
X334199Y164549D01*
X334931Y165645D01*
X335436Y166863D01*
X335693Y168156D01*
Y169474D01*
X335436Y170767D01*
X334931Y171985D01*
X334199Y173081D01*
X333266Y174014D01*
X332170Y174746D01*
X330952Y175251D01*
X329659Y175508D01*
D02*
G37*
G36*
X51933Y166287D02*
X51067D01*
X50231Y166063D01*
X49481Y165631D01*
X48869Y165018D01*
X48437Y164269D01*
X48213Y163433D01*
Y162567D01*
X48437Y161731D01*
X48869Y160982D01*
X49481Y160369D01*
X50231Y159937D01*
X51067Y159713D01*
X51933D01*
X52769Y159937D01*
X53518Y160369D01*
X54131Y160982D01*
X54563Y161731D01*
X54787Y162567D01*
Y163433D01*
X54563Y164269D01*
X54131Y165018D01*
X53518Y165631D01*
X52769Y166063D01*
X51933Y166287D01*
D02*
G37*
G36*
X249500Y158016D02*
Y153130D01*
X254386D01*
X254239Y153871D01*
X253789Y154957D01*
X253136Y155935D01*
X252305Y156766D01*
X251327Y157419D01*
X250241Y157869D01*
X249500Y158016D01*
D02*
G37*
G36*
X247500D02*
X246759Y157869D01*
X245673Y157419D01*
X244695Y156766D01*
X243864Y155935D01*
X243211Y154957D01*
X242761Y153871D01*
X242614Y153130D01*
X247500D01*
Y158016D01*
D02*
G37*
G36*
X47915Y157150D02*
X47085D01*
X46284Y156935D01*
X45566Y156520D01*
X44980Y155934D01*
X44565Y155216D01*
X44350Y154415D01*
Y153585D01*
X44565Y152784D01*
X44980Y152066D01*
X45566Y151480D01*
X46284Y151065D01*
X47085Y150850D01*
X47915D01*
X48716Y151065D01*
X49434Y151480D01*
X50020Y152066D01*
X50435Y152784D01*
X50650Y153585D01*
Y154415D01*
X50435Y155216D01*
X50020Y155934D01*
X49434Y156520D01*
X48716Y156935D01*
X47915Y157150D01*
D02*
G37*
G36*
X137915Y154150D02*
X137085D01*
X136284Y153935D01*
X135566Y153520D01*
X134980Y152934D01*
X134565Y152216D01*
X134350Y151415D01*
Y150585D01*
X134565Y149784D01*
X134980Y149066D01*
X135566Y148480D01*
X136284Y148065D01*
X137085Y147850D01*
X137915D01*
X138716Y148065D01*
X139434Y148480D01*
X140020Y149066D01*
X140435Y149784D01*
X140650Y150585D01*
Y151415D01*
X140435Y152216D01*
X140020Y152934D01*
X139434Y153520D01*
X138716Y153935D01*
X137915Y154150D01*
D02*
G37*
G36*
X127915D02*
X127085D01*
X126284Y153935D01*
X125566Y153520D01*
X124980Y152934D01*
X124565Y152216D01*
X124350Y151415D01*
Y150585D01*
X124565Y149784D01*
X124980Y149066D01*
X125566Y148480D01*
X126284Y148065D01*
X127085Y147850D01*
X127915D01*
X128716Y148065D01*
X129434Y148480D01*
X130020Y149066D01*
X130435Y149784D01*
X130650Y150585D01*
Y151415D01*
X130435Y152216D01*
X130020Y152934D01*
X129434Y153520D01*
X128716Y153935D01*
X127915Y154150D01*
D02*
G37*
G36*
X254386Y151130D02*
X249500D01*
Y146243D01*
X250241Y146391D01*
X251327Y146841D01*
X252305Y147494D01*
X253136Y148325D01*
X253789Y149303D01*
X254239Y150389D01*
X254386Y151130D01*
D02*
G37*
G36*
X247500D02*
X242614D01*
X242761Y150389D01*
X243211Y149303D01*
X243864Y148325D01*
X244695Y147494D01*
X245673Y146841D01*
X246759Y146391D01*
X247500Y146243D01*
Y151130D01*
D02*
G37*
G36*
X229758Y155756D02*
X228242D01*
X226778Y155364D01*
X225466Y154606D01*
X224394Y153534D01*
X223636Y152222D01*
X223244Y150758D01*
Y149242D01*
X223636Y147778D01*
X224394Y146466D01*
X225466Y145394D01*
X226778Y144636D01*
X228242Y144244D01*
X229758D01*
X231222Y144636D01*
X232534Y145394D01*
X233606Y146466D01*
X234364Y147778D01*
X234756Y149242D01*
Y150758D01*
X234364Y152222D01*
X233606Y153534D01*
X232534Y154606D01*
X231222Y155364D01*
X229758Y155756D01*
D02*
G37*
G36*
X47915Y147150D02*
X47085D01*
X46284Y146935D01*
X45566Y146520D01*
X44980Y145934D01*
X44565Y145216D01*
X44350Y144415D01*
Y143585D01*
X44565Y142784D01*
X44980Y142066D01*
X45566Y141480D01*
X46284Y141065D01*
X47085Y140850D01*
X47915D01*
X48716Y141065D01*
X49434Y141480D01*
X50020Y142066D01*
X50435Y142784D01*
X50650Y143585D01*
Y144415D01*
X50435Y145216D01*
X50020Y145934D01*
X49434Y146520D01*
X48716Y146935D01*
X47915Y147150D01*
D02*
G37*
G36*
X81433Y139287D02*
X80567D01*
X79731Y139063D01*
X78982Y138631D01*
X78369Y138019D01*
X77937Y137269D01*
X77713Y136433D01*
Y135567D01*
X77937Y134731D01*
X78369Y133982D01*
X78982Y133369D01*
X79731Y132937D01*
X80567Y132713D01*
X81433D01*
X82269Y132937D01*
X83018Y133369D01*
X83631Y133982D01*
X84063Y134731D01*
X84287Y135567D01*
Y136433D01*
X84063Y137269D01*
X83631Y138019D01*
X83018Y138631D01*
X82269Y139063D01*
X81433Y139287D01*
D02*
G37*
G36*
X18933Y137787D02*
X18067D01*
X17231Y137563D01*
X16481Y137131D01*
X15869Y136519D01*
X15437Y135769D01*
X15213Y134933D01*
Y134067D01*
X15437Y133231D01*
X15869Y132482D01*
X16481Y131869D01*
X17231Y131437D01*
X18067Y131213D01*
X18933D01*
X19769Y131437D01*
X20518Y131869D01*
X21131Y132482D01*
X21563Y133231D01*
X21787Y134067D01*
Y134933D01*
X21563Y135769D01*
X21131Y136519D01*
X20518Y137131D01*
X19769Y137563D01*
X18933Y137787D01*
D02*
G37*
G36*
X31433Y137287D02*
X30567D01*
X29731Y137063D01*
X28982Y136631D01*
X28369Y136019D01*
X27937Y135269D01*
X27713Y134433D01*
Y133567D01*
X27937Y132731D01*
X28369Y131982D01*
X28982Y131369D01*
X29731Y130937D01*
X30567Y130713D01*
X31433D01*
X32269Y130937D01*
X33018Y131369D01*
X33631Y131982D01*
X34063Y132731D01*
X34287Y133567D01*
Y134433D01*
X34063Y135269D01*
X33631Y136019D01*
X33018Y136631D01*
X32269Y137063D01*
X31433Y137287D01*
D02*
G37*
G36*
X170798Y144685D02*
X169092D01*
X167418Y144352D01*
X165842Y143699D01*
X164424Y142751D01*
X163217Y141545D01*
X162269Y140126D01*
X161616Y138550D01*
X161284Y136877D01*
Y135171D01*
X161616Y133497D01*
X162269Y131921D01*
X163217Y130502D01*
X164424Y129296D01*
X165842Y128348D01*
X167418Y127695D01*
X169092Y127362D01*
X170798D01*
X172471Y127695D01*
X174048Y128348D01*
X175466Y129296D01*
X176673Y130502D01*
X177620Y131921D01*
X178273Y133497D01*
X178606Y135171D01*
Y136877D01*
X178273Y138550D01*
X177620Y140126D01*
X176673Y141545D01*
X175466Y142751D01*
X174048Y143699D01*
X172471Y144352D01*
X170798Y144685D01*
D02*
G37*
G36*
X299747Y144453D02*
X298041D01*
X296367Y144120D01*
X294791Y143467D01*
X293372Y142519D01*
X292166Y141313D01*
X291218Y139894D01*
X290565Y138318D01*
X290232Y136644D01*
Y134938D01*
X290565Y133265D01*
X291218Y131689D01*
X292166Y130270D01*
X293372Y129064D01*
X294791Y128116D01*
X296367Y127463D01*
X298041Y127130D01*
X299747D01*
X301420Y127463D01*
X302996Y128116D01*
X304415Y129064D01*
X305622Y130270D01*
X306569Y131689D01*
X307222Y133265D01*
X307555Y134938D01*
Y136644D01*
X307222Y138318D01*
X306569Y139894D01*
X305622Y141313D01*
X304415Y142519D01*
X302996Y143467D01*
X301420Y144120D01*
X299747Y144453D01*
D02*
G37*
G36*
X27933Y123287D02*
X27067D01*
X26231Y123063D01*
X25482Y122631D01*
X24869Y122019D01*
X24437Y121269D01*
X24213Y120433D01*
Y119567D01*
X24437Y118731D01*
X24869Y117982D01*
X25482Y117369D01*
X26231Y116937D01*
X27067Y116713D01*
X27933D01*
X28769Y116937D01*
X29518Y117369D01*
X30131Y117982D01*
X30563Y118731D01*
X30787Y119567D01*
Y120433D01*
X30563Y121269D01*
X30131Y122019D01*
X29518Y122631D01*
X28769Y123063D01*
X27933Y123287D01*
D02*
G37*
G36*
X18831Y122831D02*
X10169D01*
Y114169D01*
X18831D01*
Y122831D01*
D02*
G37*
G36*
X38433Y118287D02*
X37567D01*
X36731Y118063D01*
X35982Y117631D01*
X35369Y117018D01*
X34937Y116269D01*
X34713Y115433D01*
Y114567D01*
X34937Y113731D01*
X35369Y112981D01*
X35982Y112369D01*
X36731Y111937D01*
X37567Y111713D01*
X38433D01*
X39269Y111937D01*
X40018Y112369D01*
X40631Y112981D01*
X41063Y113731D01*
X41287Y114567D01*
Y115433D01*
X41063Y116269D01*
X40631Y117018D01*
X40018Y117631D01*
X39269Y118063D01*
X38433Y118287D01*
D02*
G37*
G36*
X15500Y112657D02*
Y109500D01*
X19341D01*
X19330Y109583D01*
X18912Y110593D01*
X18247Y111460D01*
X17380Y112125D01*
X16371Y112543D01*
X15500Y112657D01*
D02*
G37*
G36*
X13500D02*
X12629Y112543D01*
X11620Y112125D01*
X10753Y111460D01*
X10088Y110593D01*
X9670Y109583D01*
X9659Y109500D01*
X13500D01*
Y112657D01*
D02*
G37*
G36*
X19341Y107500D02*
X15500D01*
Y104343D01*
X16371Y104457D01*
X17380Y104875D01*
X18247Y105541D01*
X18912Y106407D01*
X19330Y107417D01*
X19341Y107500D01*
D02*
G37*
G36*
X13500D02*
X9659D01*
X9670Y107417D01*
X10088Y106407D01*
X10753Y105541D01*
X11620Y104875D01*
X12629Y104457D01*
X13500Y104343D01*
Y107500D01*
D02*
G37*
G36*
X132933Y110287D02*
X132067D01*
X131231Y110063D01*
X130482Y109631D01*
X129869Y109019D01*
X129437Y108269D01*
X129213Y107433D01*
Y106567D01*
X129437Y105731D01*
X129869Y104982D01*
X130482Y104369D01*
X131231Y103937D01*
X132067Y103713D01*
X132933D01*
X133769Y103937D01*
X134519Y104369D01*
X135131Y104982D01*
X135563Y105731D01*
X135787Y106567D01*
Y107433D01*
X135563Y108269D01*
X135131Y109019D01*
X134519Y109631D01*
X133769Y110063D01*
X132933Y110287D01*
D02*
G37*
G36*
X15500Y102657D02*
Y99500D01*
X19341D01*
X19330Y99583D01*
X18912Y100593D01*
X18247Y101460D01*
X17380Y102125D01*
X16371Y102543D01*
X15500Y102657D01*
D02*
G37*
G36*
X13500D02*
X12629Y102543D01*
X11620Y102125D01*
X10753Y101460D01*
X10088Y100593D01*
X9670Y99583D01*
X9659Y99500D01*
X13500D01*
Y102657D01*
D02*
G37*
G36*
X19341Y97500D02*
X15500D01*
Y94343D01*
X16371Y94457D01*
X17380Y94875D01*
X18247Y95540D01*
X18912Y96407D01*
X19330Y97417D01*
X19341Y97500D01*
D02*
G37*
G36*
X13500D02*
X9659D01*
X9670Y97417D01*
X10088Y96407D01*
X10753Y95540D01*
X11620Y94875D01*
X12629Y94457D01*
X13500Y94343D01*
Y97500D01*
D02*
G37*
G36*
X15500Y92657D02*
Y89500D01*
X19341D01*
X19330Y89583D01*
X18912Y90593D01*
X18247Y91460D01*
X17380Y92125D01*
X16371Y92543D01*
X15500Y92657D01*
D02*
G37*
G36*
X13500D02*
X12629Y92543D01*
X11620Y92125D01*
X10753Y91460D01*
X10088Y90593D01*
X9670Y89583D01*
X9659Y89500D01*
X13500D01*
Y92657D01*
D02*
G37*
G36*
X19341Y87500D02*
X15500D01*
Y84343D01*
X16371Y84457D01*
X17380Y84875D01*
X18247Y85540D01*
X18912Y86407D01*
X19330Y87417D01*
X19341Y87500D01*
D02*
G37*
G36*
X13500D02*
X9659D01*
X9670Y87417D01*
X10088Y86407D01*
X10753Y85540D01*
X11620Y84875D01*
X12629Y84457D01*
X13500Y84343D01*
Y87500D01*
D02*
G37*
G36*
X109528Y85191D02*
X108662D01*
X107826Y84967D01*
X107076Y84534D01*
X106464Y83922D01*
X106032Y83172D01*
X105807Y82336D01*
Y81471D01*
X106032Y80634D01*
X106464Y79885D01*
X107076Y79273D01*
X107826Y78840D01*
X108662Y78616D01*
X109528D01*
X110364Y78840D01*
X111114Y79273D01*
X111725Y79885D01*
X112158Y80634D01*
X112382Y81471D01*
Y82336D01*
X112158Y83172D01*
X111725Y83922D01*
X111114Y84534D01*
X110364Y84967D01*
X109528Y85191D01*
D02*
G37*
G36*
X88933Y82287D02*
X88067D01*
X87231Y82063D01*
X86481Y81631D01*
X85869Y81019D01*
X85437Y80269D01*
X85213Y79433D01*
Y78567D01*
X85437Y77731D01*
X85869Y76982D01*
X86481Y76369D01*
X87231Y75937D01*
X88067Y75713D01*
X88933D01*
X89769Y75937D01*
X90518Y76369D01*
X91131Y76982D01*
X91563Y77731D01*
X91787Y78567D01*
Y79433D01*
X91563Y80269D01*
X91131Y81019D01*
X90518Y81631D01*
X89769Y82063D01*
X88933Y82287D01*
D02*
G37*
G36*
X79433Y73287D02*
X78567D01*
X77731Y73063D01*
X76982Y72631D01*
X76369Y72018D01*
X75937Y71269D01*
X75713Y70433D01*
Y69567D01*
X75937Y68731D01*
X76369Y67981D01*
X76982Y67369D01*
X77731Y66937D01*
X78567Y66713D01*
X79433D01*
X80269Y66937D01*
X81019Y67369D01*
X81631Y67981D01*
X82063Y68731D01*
X82287Y69567D01*
Y70433D01*
X82063Y71269D01*
X81631Y72018D01*
X81019Y72631D01*
X80269Y73063D01*
X79433Y73287D01*
D02*
G37*
G36*
X57933Y70787D02*
X57067D01*
X56231Y70563D01*
X55481Y70131D01*
X54869Y69519D01*
X54437Y68769D01*
X54213Y67933D01*
Y67067D01*
X54437Y66231D01*
X54869Y65482D01*
X55481Y64869D01*
X56231Y64437D01*
X57067Y64213D01*
X57933D01*
X58769Y64437D01*
X59518Y64869D01*
X60131Y65482D01*
X60563Y66231D01*
X60787Y67067D01*
Y67933D01*
X60563Y68769D01*
X60131Y69519D01*
X59518Y70131D01*
X58769Y70563D01*
X57933Y70787D01*
D02*
G37*
G36*
X100433Y70287D02*
X99567D01*
X98731Y70063D01*
X97982Y69631D01*
X97369Y69019D01*
X96937Y68269D01*
X96713Y67433D01*
Y66567D01*
X96937Y65731D01*
X97369Y64982D01*
X97982Y64369D01*
X98731Y63937D01*
X99567Y63713D01*
X100433D01*
X101269Y63937D01*
X102018Y64369D01*
X102631Y64982D01*
X103063Y65731D01*
X103287Y66567D01*
Y67433D01*
X103063Y68269D01*
X102631Y69019D01*
X102018Y69631D01*
X101269Y70063D01*
X100433Y70287D01*
D02*
G37*
G36*
X40142Y63693D02*
X39961D01*
Y61500D01*
X43154D01*
X42907Y62096D01*
X42399Y62758D01*
X41738Y63265D01*
X40968Y63584D01*
X40142Y63693D01*
D02*
G37*
G36*
X37961D02*
X37780D01*
X36953Y63584D01*
X36183Y63265D01*
X35522Y62758D01*
X35015Y62096D01*
X34768Y61500D01*
X37961D01*
Y63693D01*
D02*
G37*
G36*
X25181D02*
X25000D01*
Y61500D01*
X28193D01*
X27946Y62096D01*
X27439Y62758D01*
X26777Y63265D01*
X26007Y63584D01*
X25181Y63693D01*
D02*
G37*
G36*
X23000D02*
X22819D01*
X21993Y63584D01*
X21223Y63265D01*
X20561Y62758D01*
X20054Y62096D01*
X19807Y61500D01*
X23000D01*
Y63693D01*
D02*
G37*
G36*
X43154Y59500D02*
X39961D01*
Y57307D01*
X40142D01*
X40968Y57416D01*
X41738Y57735D01*
X42399Y58242D01*
X42907Y58904D01*
X43154Y59500D01*
D02*
G37*
G36*
X37961D02*
X34768D01*
X35015Y58904D01*
X35522Y58242D01*
X36183Y57735D01*
X36953Y57416D01*
X37780Y57307D01*
X37961D01*
Y59500D01*
D02*
G37*
G36*
X28193D02*
X25000D01*
Y57307D01*
X25181D01*
X26007Y57416D01*
X26777Y57735D01*
X27439Y58242D01*
X27946Y58904D01*
X28193Y59500D01*
D02*
G37*
G36*
X23000D02*
X19807D01*
X20054Y58904D01*
X20561Y58242D01*
X21223Y57735D01*
X21993Y57416D01*
X22819Y57307D01*
X23000D01*
Y59500D01*
D02*
G37*
G36*
X31433Y52287D02*
X30567D01*
X29731Y52063D01*
X28982Y51631D01*
X28369Y51019D01*
X27937Y50269D01*
X27713Y49433D01*
Y48567D01*
X27937Y47731D01*
X28369Y46981D01*
X28982Y46369D01*
X29731Y45937D01*
X30567Y45713D01*
X31433D01*
X32269Y45937D01*
X33018Y46369D01*
X33631Y46981D01*
X34063Y47731D01*
X34287Y48567D01*
Y49433D01*
X34063Y50269D01*
X33631Y51019D01*
X33018Y51631D01*
X32269Y52063D01*
X31433Y52287D01*
D02*
G37*
G36*
X73933Y51787D02*
X73067D01*
X72231Y51563D01*
X71482Y51131D01*
X70869Y50519D01*
X70437Y49769D01*
X70213Y48933D01*
Y48067D01*
X70437Y47231D01*
X70869Y46481D01*
X71482Y45869D01*
X72231Y45437D01*
X73067Y45213D01*
X73933D01*
X74769Y45437D01*
X75519Y45869D01*
X76131Y46481D01*
X76563Y47231D01*
X76787Y48067D01*
Y48933D01*
X76563Y49769D01*
X76131Y50519D01*
X75519Y51131D01*
X74769Y51563D01*
X73933Y51787D01*
D02*
G37*
G36*
X90415Y48150D02*
X89585D01*
X88784Y47935D01*
X88066Y47520D01*
X87480Y46934D01*
X87065Y46216D01*
X86850Y45415D01*
Y44585D01*
X87065Y43784D01*
X87480Y43066D01*
X88066Y42480D01*
X88784Y42065D01*
X89585Y41850D01*
X90415D01*
X91216Y42065D01*
X91934Y42480D01*
X92520Y43066D01*
X92935Y43784D01*
X93150Y44585D01*
Y45415D01*
X92935Y46216D01*
X92520Y46934D01*
X91934Y47520D01*
X91216Y47935D01*
X90415Y48150D01*
D02*
G37*
G36*
X30933Y42287D02*
X30067D01*
X29231Y42063D01*
X28482Y41631D01*
X27869Y41019D01*
X27437Y40269D01*
X27213Y39433D01*
Y38567D01*
X27437Y37731D01*
X27869Y36981D01*
X28482Y36369D01*
X29231Y35937D01*
X30067Y35713D01*
X30933D01*
X31769Y35937D01*
X32519Y36369D01*
X33131Y36981D01*
X33563Y37731D01*
X33787Y38567D01*
Y39433D01*
X33563Y40269D01*
X33131Y41019D01*
X32519Y41631D01*
X31769Y42063D01*
X30933Y42287D01*
D02*
G37*
G36*
X63433Y39787D02*
X62567D01*
X61731Y39563D01*
X60982Y39131D01*
X60369Y38519D01*
X59937Y37769D01*
X59713Y36933D01*
Y36067D01*
X59937Y35231D01*
X60369Y34481D01*
X60982Y33869D01*
X61731Y33437D01*
X62567Y33213D01*
X63433D01*
X64269Y33437D01*
X65018Y33869D01*
X65631Y34481D01*
X66063Y35231D01*
X66287Y36067D01*
Y36933D01*
X66063Y37769D01*
X65631Y38519D01*
X65018Y39131D01*
X64269Y39563D01*
X63433Y39787D01*
D02*
G37*
G36*
X90415Y38150D02*
X89585D01*
X88784Y37935D01*
X88066Y37520D01*
X87480Y36934D01*
X87065Y36216D01*
X86850Y35415D01*
Y34585D01*
X87065Y33784D01*
X87480Y33066D01*
X88066Y32480D01*
X88784Y32065D01*
X89585Y31850D01*
X90415D01*
X91216Y32065D01*
X91934Y32480D01*
X92520Y33066D01*
X92935Y33784D01*
X93150Y34585D01*
Y35415D01*
X92935Y36216D01*
X92520Y36934D01*
X91934Y37520D01*
X91216Y37935D01*
X90415Y38150D01*
D02*
G37*
G36*
X40142Y29677D02*
X39961D01*
Y27484D01*
X43154D01*
X42907Y28081D01*
X42399Y28742D01*
X41738Y29249D01*
X40968Y29568D01*
X40142Y29677D01*
D02*
G37*
G36*
X37961D02*
X37780D01*
X36953Y29568D01*
X36183Y29249D01*
X35522Y28742D01*
X35015Y28081D01*
X34768Y27484D01*
X37961D01*
Y29677D01*
D02*
G37*
G36*
X25181D02*
X25000D01*
Y27484D01*
X28193D01*
X27946Y28081D01*
X27439Y28742D01*
X26777Y29249D01*
X26007Y29568D01*
X25181Y29677D01*
D02*
G37*
G36*
X23000D02*
X22819D01*
X21993Y29568D01*
X21223Y29249D01*
X20561Y28742D01*
X20054Y28081D01*
X19807Y27484D01*
X23000D01*
Y29677D01*
D02*
G37*
G36*
X43154Y25484D02*
X39961D01*
Y23292D01*
X40142D01*
X40968Y23400D01*
X41738Y23719D01*
X42399Y24227D01*
X42907Y24888D01*
X43154Y25484D01*
D02*
G37*
G36*
X37961D02*
X34768D01*
X35015Y24888D01*
X35522Y24227D01*
X36183Y23719D01*
X36953Y23400D01*
X37780Y23292D01*
X37961D01*
Y25484D01*
D02*
G37*
G36*
X28193D02*
X25000D01*
Y23292D01*
X25181D01*
X26007Y23400D01*
X26777Y23719D01*
X27439Y24227D01*
X27946Y24888D01*
X28193Y25484D01*
D02*
G37*
G36*
X23000D02*
X19807D01*
X20054Y24888D01*
X20561Y24227D01*
X21223Y23719D01*
X21993Y23400D01*
X22819Y23292D01*
X23000D01*
Y25484D01*
D02*
G37*
G36*
X99158Y22935D02*
Y18500D01*
X102738D01*
X102584Y19670D01*
X102126Y20775D01*
X101398Y21725D01*
X100449Y22453D01*
X99344Y22911D01*
X99158Y22935D01*
D02*
G37*
G36*
X97158D02*
X96971Y22911D01*
X95866Y22453D01*
X94917Y21725D01*
X94189Y20775D01*
X93731Y19670D01*
X93577Y18500D01*
X97158D01*
Y22935D01*
D02*
G37*
G36*
X143937Y22724D02*
X136063D01*
Y13276D01*
X143937D01*
Y22724D01*
D02*
G37*
G36*
X130000Y22758D02*
X128972Y22623D01*
X128015Y22226D01*
X127192Y21595D01*
X126561Y20773D01*
X126164Y19815D01*
X126029Y18787D01*
Y17213D01*
X126164Y16185D01*
X126561Y15227D01*
X127192Y14405D01*
X128015Y13774D01*
X128972Y13377D01*
X130000Y13242D01*
X131028Y13377D01*
X131985Y13774D01*
X132808Y14405D01*
X133439Y15227D01*
X133836Y16185D01*
X133971Y17213D01*
Y18787D01*
X133836Y19815D01*
X133439Y20773D01*
X132808Y21595D01*
X131985Y22226D01*
X131028Y22623D01*
X130000Y22758D01*
D02*
G37*
G36*
X117842Y22852D02*
X116712Y22704D01*
X115658Y22267D01*
X114754Y21573D01*
X114060Y20668D01*
X113623Y19615D01*
X113475Y18484D01*
Y16516D01*
X113623Y15385D01*
X114060Y14332D01*
X114754Y13427D01*
X115658Y12733D01*
X116712Y12297D01*
X117842Y12148D01*
X118973Y12297D01*
X120027Y12733D01*
X120931Y13427D01*
X121625Y14332D01*
X122062Y15385D01*
X122211Y16516D01*
Y18484D01*
X122062Y19615D01*
X121625Y20668D01*
X120931Y21573D01*
X120027Y22267D01*
X118973Y22704D01*
X117842Y22852D01*
D02*
G37*
G36*
X102738Y16500D02*
X99158D01*
Y12065D01*
X99344Y12089D01*
X100449Y12547D01*
X101398Y13275D01*
X102126Y14224D01*
X102584Y15330D01*
X102738Y16500D01*
D02*
G37*
G36*
X97158D02*
X93577D01*
X93731Y15330D01*
X94189Y14224D01*
X94917Y13275D01*
X95866Y12547D01*
X96971Y12089D01*
X97158Y12065D01*
Y16500D01*
D02*
G37*
G36*
X15664Y20472D02*
X13958D01*
X12285Y20140D01*
X10708Y19487D01*
X9290Y18539D01*
X8083Y17332D01*
X7135Y15914D01*
X6482Y14337D01*
X6150Y12664D01*
Y10958D01*
X6482Y9285D01*
X7135Y7708D01*
X8083Y6290D01*
X9290Y5083D01*
X10708Y4135D01*
X12285Y3483D01*
X13958Y3150D01*
X15664D01*
X17337Y3483D01*
X18914Y4135D01*
X20332Y5083D01*
X21539Y6290D01*
X22487Y7708D01*
X23140Y9285D01*
X23472Y10958D01*
Y12664D01*
X23140Y14337D01*
X22487Y15914D01*
X21539Y17332D01*
X20332Y18539D01*
X18914Y19487D01*
X17337Y20140D01*
X15664Y20472D01*
D02*
G37*
%LPD*%
D63*
X38961Y60500D02*
D03*
Y26484D02*
D03*
X24000Y60500D02*
D03*
Y26484D02*
D03*
D64*
X14811Y224410D02*
D03*
X329772D02*
D03*
X14811Y11811D02*
D03*
D65*
X22000Y181315D02*
D03*
Y200842D02*
D03*
X329000Y188342D02*
D03*
Y168815D02*
D03*
D66*
X248500Y152130D02*
D03*
Y191500D02*
D03*
X229000Y189370D02*
D03*
Y150000D02*
D03*
D67*
X298894Y135791D02*
D03*
X307555Y205476D02*
D03*
X178606Y205709D02*
D03*
X169945Y136024D02*
D03*
D68*
X78500Y209736D02*
D03*
D69*
Y189264D02*
D03*
Y199500D02*
D03*
D70*
X14500Y118500D02*
D03*
D71*
Y108500D02*
D03*
Y98500D02*
D03*
Y88500D02*
D03*
D72*
X117842Y17500D02*
D03*
X98158D02*
D03*
D73*
X140000Y18000D02*
D03*
D74*
X130000D02*
D03*
D75*
X137500Y151000D02*
D03*
X127500D02*
D03*
X47500Y144000D02*
D03*
Y154000D02*
D03*
X90000Y45000D02*
D03*
Y35000D02*
D03*
D76*
X30500Y39000D02*
D03*
X31000Y49000D02*
D03*
X73500Y48500D02*
D03*
X134500Y70500D02*
D03*
X105000Y170000D02*
D03*
X125500Y70000D02*
D03*
X120500Y192000D02*
D03*
X51500Y163000D02*
D03*
X109095Y81903D02*
D03*
X38000Y115000D02*
D03*
X27500Y120000D02*
D03*
X101500Y213500D02*
D03*
X89000Y212000D02*
D03*
X146000Y170000D02*
D03*
X81000Y136000D02*
D03*
X48500Y92500D02*
D03*
X57500Y91500D02*
D03*
X58000Y76500D02*
D03*
X79000Y70000D02*
D03*
X88500Y79000D02*
D03*
X132500Y107000D02*
D03*
X100000Y67000D02*
D03*
X31000Y134000D02*
D03*
X18500Y134500D02*
D03*
X68000Y156500D02*
D03*
X101500Y95500D02*
D03*
X67500Y96000D02*
D03*
X97500Y54500D02*
D03*
X100000Y74500D02*
D03*
X57500Y42000D02*
D03*
Y67500D02*
D03*
X63000Y36500D02*
D03*
M02*
