G04*
G04 #@! TF.GenerationSoftware,Altium Limited,Altium Designer,23.0.1 (38)*
G04*
G04 Layer_Color=32768*
%FSLAX25Y25*%
%MOIN*%
G70*
G04*
G04 #@! TF.SameCoordinates,8278F28E-5B15-4BE8-8149-663F5D52C5DE*
G04*
G04*
G04 #@! TF.FilePolarity,Positive*
G04*
G01*
G75*
%ADD12C,0.00600*%
%ADD80C,0.00197*%
G36*
X165550Y83600D02*
X142900D01*
Y85590D01*
X113360D01*
Y83600D01*
X106450D01*
Y75725D01*
X104475D01*
Y40275D01*
X106450D01*
Y32400D01*
X113360D01*
Y30410D01*
X142900D01*
Y32400D01*
X165550D01*
Y83600D01*
D02*
G37*
D12*
Y32400D02*
Y83600D01*
X142900Y32400D02*
X165550D01*
X142900Y30410D02*
Y32400D01*
X113360Y30410D02*
X142900D01*
X113360D02*
Y32400D01*
X106450D02*
X113360D01*
X106450D02*
Y40275D01*
X104475D02*
X106450D01*
X104475D02*
Y75725D01*
X106450D01*
Y83600D01*
X113360D01*
Y85590D01*
X142900D01*
Y83600D02*
Y85590D01*
Y83600D02*
X165550D01*
D80*
X101791Y110165D02*
X105650D01*
Y111150D01*
X114547D01*
Y110165D02*
Y111150D01*
Y110165D02*
X118405D01*
X114547Y98354D02*
X118405D01*
X114547Y97370D02*
Y98354D01*
X105650Y97370D02*
X114547D01*
X105650D02*
Y98354D01*
X101791D02*
X105650D01*
X101791D02*
Y110165D01*
X118405Y98354D02*
Y110165D01*
M02*
