G04*
G04 #@! TF.GenerationSoftware,Altium Limited,Altium Designer,23.0.1 (38)*
G04*
G04 Layer_Color=128*
%FSLAX25Y25*%
%MOIN*%
G70*
G04*
G04 #@! TF.SameCoordinates,8278F28E-5B15-4BE8-8149-663F5D52C5DE*
G04*
G04*
G04 #@! TF.FilePolarity,Positive*
G04*
G01*
G75*
%ADD13C,0.00500*%
D13*
X37780Y60500D02*
X40142D01*
X38961Y59319D02*
Y61681D01*
X37780Y26484D02*
X40142D01*
X38961Y25303D02*
Y27665D01*
X22819Y60500D02*
X25181D01*
X24000Y59319D02*
Y61681D01*
X22819Y26484D02*
X25181D01*
X24000Y25303D02*
Y27665D01*
X6937Y224410D02*
X22685D01*
X14811Y216535D02*
Y232283D01*
X321898Y224410D02*
X337646D01*
X329772Y216535D02*
Y232283D01*
X18063Y181315D02*
X25937D01*
X22000Y177378D02*
Y185252D01*
X18063Y200842D02*
X25937D01*
X22000Y196906D02*
Y204780D01*
X6937Y11811D02*
X22685D01*
X14811Y3937D02*
Y19685D01*
X246138Y152130D02*
X250862D01*
X248500Y149768D02*
Y154492D01*
X294169Y135791D02*
X303618D01*
X298894Y131067D02*
Y140516D01*
X246138Y191500D02*
X250862D01*
X248500Y189138D02*
Y193862D01*
X302831Y205476D02*
X312280D01*
X307555Y200752D02*
Y210201D01*
X226638Y189370D02*
X231362D01*
X229000Y187008D02*
Y191732D01*
X173882Y205709D02*
X183331D01*
X178606Y200984D02*
Y210433D01*
X226638Y150000D02*
X231362D01*
X229000Y147638D02*
Y152362D01*
X165220Y136024D02*
X174669D01*
X169945Y131299D02*
Y140748D01*
X76138Y209736D02*
X80862D01*
X78500Y207374D02*
Y212098D01*
X76138Y189264D02*
X80862D01*
X78500Y186902D02*
Y191626D01*
X76138Y199500D02*
X80862D01*
X78500Y197138D02*
Y201862D01*
X12335Y118500D02*
X16665D01*
X14500Y116335D02*
Y120665D01*
X12335Y108500D02*
X16665D01*
X14500Y106335D02*
Y110665D01*
X12335Y98500D02*
X16665D01*
X14500Y96335D02*
Y100665D01*
X12335Y88500D02*
X16665D01*
X14500Y86335D02*
Y90665D01*
X115284Y17500D02*
X120402D01*
X117842Y14941D02*
Y20059D01*
X95598Y17500D02*
X100716D01*
X98158Y14941D02*
Y20059D01*
X138031Y18000D02*
X141969D01*
X140000Y16032D02*
Y19969D01*
X128032Y18000D02*
X131968D01*
X130000Y16032D02*
Y19969D01*
X136319Y151000D02*
X138681D01*
X137500Y149819D02*
Y152181D01*
X126319Y151000D02*
X128681D01*
X127500Y149819D02*
Y152181D01*
X46319Y144000D02*
X48681D01*
X47500Y142819D02*
Y145181D01*
X46319Y154000D02*
X48681D01*
X47500Y152819D02*
Y155181D01*
X88819Y45000D02*
X91181D01*
X90000Y43819D02*
Y46181D01*
X88819Y35000D02*
X91181D01*
X90000Y33819D02*
Y36181D01*
X325063Y188342D02*
X332937D01*
X329000Y184406D02*
Y192280D01*
X325063Y168815D02*
X332937D01*
X329000Y164878D02*
Y172752D01*
X29100Y39000D02*
X31900D01*
X30500Y37600D02*
Y40400D01*
X29600Y49000D02*
X32400D01*
X31000Y47600D02*
Y50400D01*
X72100Y48500D02*
X74900D01*
X73500Y47100D02*
Y49900D01*
X133100Y70500D02*
X135900D01*
X134500Y69100D02*
Y71900D01*
X103600Y170000D02*
X106400D01*
X105000Y168600D02*
Y171400D01*
X124100Y70000D02*
X126900D01*
X125500Y68600D02*
Y71400D01*
X119100Y192000D02*
X121900D01*
X120500Y190600D02*
Y193400D01*
X50100Y163000D02*
X52900D01*
X51500Y161600D02*
Y164400D01*
X107695Y81903D02*
X110495D01*
X109095Y80503D02*
Y83303D01*
X36600Y115000D02*
X39400D01*
X38000Y113600D02*
Y116400D01*
X26100Y120000D02*
X28900D01*
X27500Y118600D02*
Y121400D01*
X100100Y213500D02*
X102900D01*
X101500Y212100D02*
Y214900D01*
X87600Y212000D02*
X90400D01*
X89000Y210600D02*
Y213400D01*
X144600Y170000D02*
X147400D01*
X146000Y168600D02*
Y171400D01*
X79600Y136000D02*
X82400D01*
X81000Y134600D02*
Y137400D01*
X47100Y92500D02*
X49900D01*
X48500Y91100D02*
Y93900D01*
X56100Y91500D02*
X58900D01*
X57500Y90100D02*
Y92900D01*
X56600Y76500D02*
X59400D01*
X58000Y75100D02*
Y77900D01*
X77600Y70000D02*
X80400D01*
X79000Y68600D02*
Y71400D01*
X87100Y79000D02*
X89900D01*
X88500Y77600D02*
Y80400D01*
X131100Y107000D02*
X133900D01*
X132500Y105600D02*
Y108400D01*
X98600Y67000D02*
X101400D01*
X100000Y65600D02*
Y68400D01*
X29600Y134000D02*
X32400D01*
X31000Y132600D02*
Y135400D01*
X17100Y134500D02*
X19900D01*
X18500Y133100D02*
Y135900D01*
X66600Y156500D02*
X69400D01*
X68000Y155100D02*
Y157900D01*
X100100Y95500D02*
X102900D01*
X101500Y94100D02*
Y96900D01*
X66100Y96000D02*
X68900D01*
X67500Y94600D02*
Y97400D01*
X96100Y54500D02*
X98900D01*
X97500Y53100D02*
Y55900D01*
X98600Y74500D02*
X101400D01*
X100000Y73100D02*
Y75900D01*
X56100Y42000D02*
X58900D01*
X57500Y40600D02*
Y43400D01*
X56100Y67500D02*
X58900D01*
X57500Y66100D02*
Y68900D01*
X61600Y36500D02*
X64400D01*
X63000Y35100D02*
Y37900D01*
M02*
