G04*
G04 #@! TF.GenerationSoftware,Altium Limited,Altium Designer,23.0.1 (38)*
G04*
G04 Layer_Color=65535*
%FSLAX25Y25*%
%MOIN*%
G70*
G04*
G04 #@! TF.SameCoordinates,8278F28E-5B15-4BE8-8149-663F5D52C5DE*
G04*
G04*
G04 #@! TF.FilePolarity,Positive*
G04*
G01*
G75*
%ADD10C,0.01000*%
%ADD11C,0.00787*%
%ADD12C,0.00600*%
%ADD13C,0.00500*%
%ADD14C,0.00300*%
%ADD15C,0.00800*%
D10*
X17315Y206000D02*
G03*
X17315Y206000I-315J0D01*
G01*
X136894Y193500D02*
G03*
X136894Y193500I-394J0D01*
G01*
X97894Y208000D02*
G03*
X97894Y208000I-394J0D01*
G01*
X324315Y193500D02*
G03*
X324315Y193500I-315J0D01*
G01*
X34843Y109500D02*
X50842D01*
X34843Y96500D02*
X50842D01*
Y109500D01*
X34843Y96500D02*
Y109500D01*
X10500Y22992D02*
Y63992D01*
X43500Y22992D02*
Y63992D01*
X10500D02*
X43500D01*
X10500Y22992D02*
X43500D01*
X73500Y109000D02*
X88500D01*
X73500Y100000D02*
X88500D01*
Y109000D01*
X73500Y100000D02*
Y109000D01*
X14500Y208000D02*
X29500D01*
X14500Y173500D02*
Y208000D01*
Y173500D02*
X29500D01*
Y208000D01*
X241000Y125500D02*
Y217500D01*
X318000Y125500D02*
Y217500D01*
X241000Y125500D02*
X318000D01*
X241000Y217500D02*
X318000D01*
X145000Y195000D02*
X147000D01*
X154000D02*
Y203000D01*
X149000D02*
X154000D01*
X138000Y195000D02*
X139500D01*
X152500D02*
X154000D01*
X138000D02*
Y203000D01*
X143000D01*
X106500Y198500D02*
X107500D01*
X115000D02*
Y206500D01*
X110500D02*
X115000D01*
X99000Y198500D02*
X100000D01*
X114000D02*
X115000D01*
X99000D02*
Y206500D01*
X103500D01*
X120000Y177500D02*
X124500D01*
X120000Y169500D02*
Y177500D01*
Y169500D02*
X121000D01*
X126500D02*
X128500D01*
X134000D02*
X135000D01*
Y177500D01*
X130500D02*
X135000D01*
X56500Y176000D02*
X61000D01*
X56500Y168000D02*
Y176000D01*
Y168000D02*
X57500D01*
X63000D02*
X65000D01*
X70500D02*
X71500D01*
Y176000D01*
X67000D02*
X71500D01*
X159500Y124000D02*
X236500D01*
X159500Y216000D02*
X236500D01*
X159500Y124000D02*
Y216000D01*
X236500Y124000D02*
Y216000D01*
X83500Y184500D02*
Y214500D01*
X73500Y184500D02*
X83500D01*
X73500D02*
Y214500D01*
X83500D01*
X101000Y141000D02*
Y172000D01*
X81000Y141000D02*
X101000D01*
X81000D02*
Y172000D01*
X101000D01*
X9000Y124000D02*
X20000D01*
Y83500D02*
Y124000D01*
X8500Y83500D02*
X20000D01*
X8500D02*
Y124000D01*
X4500Y162000D02*
X35500D01*
Y142000D02*
Y162000D01*
X4500Y142000D02*
X35500D01*
X4500D02*
Y162000D01*
X122764Y11594D02*
Y23405D01*
X93236Y11594D02*
Y23405D01*
Y11594D02*
X122764D01*
X93236Y23405D02*
X122764D01*
X144500Y12500D02*
Y23500D01*
X125500Y12500D02*
X144500D01*
X125500D02*
Y23500D01*
X144500D01*
X64500Y64500D02*
X82000D01*
X64500Y52000D02*
X82000D01*
X64500D02*
Y64500D01*
X82000Y52000D02*
Y64500D01*
X336500Y161000D02*
Y195500D01*
X321500Y161000D02*
X336500D01*
X321500D02*
Y195500D01*
X336500D01*
X42499Y178835D02*
X37501D01*
Y181334D01*
X38334Y182167D01*
X40000D01*
X40833Y181334D01*
Y178835D01*
Y180501D02*
X42499Y182167D01*
X37501Y187165D02*
X38334Y185499D01*
X40000Y183833D01*
X41666D01*
X42499Y184666D01*
Y186332D01*
X41666Y187165D01*
X40833D01*
X40000Y186332D01*
Y183833D01*
X47124Y225780D02*
X46468Y226436D01*
X45156D01*
X44500Y225780D01*
Y225124D01*
X45156Y224468D01*
X46468D01*
X47124Y223812D01*
Y223156D01*
X46468Y222500D01*
X45156D01*
X44500Y223156D01*
X48436Y222500D02*
X49748D01*
X49092D01*
Y225124D01*
X48436D01*
X52372D02*
X53683D01*
X54339Y224468D01*
Y222500D01*
X52372D01*
X51715Y223156D01*
X52372Y223812D01*
X54339D01*
X55651Y222500D02*
Y225124D01*
X57619D01*
X58275Y224468D01*
Y222500D01*
X66147Y226436D02*
X63523D01*
Y224468D01*
X64835D01*
X63523D01*
Y222500D01*
X67458Y225124D02*
Y222500D01*
Y223812D01*
X68114Y224468D01*
X68770Y225124D01*
X69426D01*
X71394Y222500D02*
X72706D01*
X72050D01*
Y225124D01*
X71394D01*
X76642Y222500D02*
X75330D01*
X74674Y223156D01*
Y224468D01*
X75330Y225124D01*
X76642D01*
X77298Y224468D01*
Y223812D01*
X74674D01*
X78610Y222500D02*
X80578D01*
X81234Y223156D01*
X80578Y223812D01*
X79266D01*
X78610Y224468D01*
X79266Y225124D01*
X81234D01*
X84513Y222500D02*
X83201D01*
X82546Y223156D01*
Y224468D01*
X83201Y225124D01*
X84513D01*
X85169Y224468D01*
Y223812D01*
X82546D01*
X86481Y222500D02*
Y225124D01*
X88449D01*
X89105Y224468D01*
Y222500D01*
X44000Y233748D02*
Y229812D01*
X45968D01*
X46624Y230468D01*
Y233092D01*
X45968Y233748D01*
X44000D01*
X48592Y232436D02*
X49904D01*
X50560Y231780D01*
Y229812D01*
X48592D01*
X47936Y230468D01*
X48592Y231124D01*
X50560D01*
X51872Y229812D02*
Y232436D01*
X53839D01*
X54495Y231780D01*
Y229812D01*
X55807Y232436D02*
Y230468D01*
X56463Y229812D01*
X58431D01*
Y229156D01*
X57775Y228500D01*
X57119D01*
X58431Y229812D02*
Y232436D01*
X59743Y229812D02*
Y233748D01*
Y231124D02*
X61711Y232436D01*
X59743Y231124D02*
X61711Y229812D01*
X64335Y232436D02*
X65647D01*
X66303Y231780D01*
Y229812D01*
X64335D01*
X63679Y230468D01*
X64335Y231124D01*
X66303D01*
X71550Y233748D02*
X74174D01*
X72862D01*
Y229812D01*
X75486Y233748D02*
Y229812D01*
Y231780D01*
X76142Y232436D01*
X77454D01*
X78110Y231780D01*
Y229812D01*
X80078D02*
X81389D01*
X82046Y230468D01*
Y231780D01*
X81389Y232436D01*
X80078D01*
X79422Y231780D01*
Y230468D01*
X80078Y229812D01*
X83357Y232436D02*
Y229812D01*
Y231124D01*
X84013Y231780D01*
X84669Y232436D01*
X85325D01*
X87293Y233748D02*
Y229812D01*
X89261D01*
X89917Y230468D01*
Y231124D01*
Y231780D01*
X89261Y232436D01*
X87293D01*
X91229D02*
Y230468D01*
X91885Y229812D01*
X93853D01*
Y232436D01*
X95165D02*
Y229812D01*
Y231124D01*
X95821Y231780D01*
X96477Y232436D01*
X97132D01*
X99100Y229812D02*
Y232436D01*
X101068D01*
X101724Y231780D01*
Y229812D01*
X158500Y222000D02*
Y227998D01*
X161499D01*
X162499Y226998D01*
Y224999D01*
X161499Y223999D01*
X158500D01*
X165498Y222000D02*
X167497D01*
X168497Y223000D01*
Y224999D01*
X167497Y225999D01*
X165498D01*
X164498Y224999D01*
Y223000D01*
X165498Y222000D01*
X170496Y225999D02*
Y223000D01*
X171496Y222000D01*
X172495Y223000D01*
X173495Y222000D01*
X174495Y223000D01*
Y225999D01*
X179493Y222000D02*
X177494D01*
X176494Y223000D01*
Y224999D01*
X177494Y225999D01*
X179493D01*
X180493Y224999D01*
Y223999D01*
X176494D01*
X182492Y225999D02*
Y222000D01*
Y223999D01*
X183492Y224999D01*
X184492Y225999D01*
X185491D01*
X198487Y227998D02*
X194488D01*
Y222000D01*
X198487D01*
X194488Y224999D02*
X196488D01*
X200486Y222000D02*
Y225999D01*
X203485D01*
X204485Y224999D01*
Y222000D01*
X207484Y225999D02*
X209484D01*
X210483Y224999D01*
Y222000D01*
X207484D01*
X206485Y223000D01*
X207484Y223999D01*
X210483D01*
X212483Y227998D02*
Y222000D01*
X215482D01*
X216481Y223000D01*
Y223999D01*
Y224999D01*
X215482Y225999D01*
X212483D01*
X218481Y222000D02*
X220480D01*
X219480D01*
Y227998D01*
X218481D01*
X226478Y222000D02*
X224479D01*
X223479Y223000D01*
Y224999D01*
X224479Y225999D01*
X226478D01*
X227478Y224999D01*
Y223999D01*
X223479D01*
X235475Y227998D02*
Y222000D01*
X238474D01*
X239474Y223000D01*
Y223999D01*
X238474Y224999D01*
X235475D01*
X238474D01*
X239474Y225999D01*
Y226998D01*
X238474Y227998D01*
X235475D01*
X242473Y222000D02*
X244472D01*
X245472Y223000D01*
Y224999D01*
X244472Y225999D01*
X242473D01*
X241473Y224999D01*
Y223000D01*
X242473Y222000D01*
X248471Y225999D02*
X250470D01*
X251470Y224999D01*
Y222000D01*
X248471D01*
X247471Y223000D01*
X248471Y223999D01*
X251470D01*
X253469Y225999D02*
Y222000D01*
Y223999D01*
X254469Y224999D01*
X255469Y225999D01*
X256468D01*
X263466Y227998D02*
Y222000D01*
X260467D01*
X259467Y223000D01*
Y224999D01*
X260467Y225999D01*
X263466D01*
X24502Y8999D02*
X28500Y5001D01*
X24502D02*
X28500Y8999D01*
X24502Y7000D02*
X28500D01*
X26501Y5001D02*
Y8999D01*
X30500D02*
X31499Y9999D01*
X33499D01*
X34498Y8999D01*
Y8000D01*
X33499Y7000D01*
X32499D01*
X33499D01*
X34498Y6000D01*
Y5001D01*
X33499Y4001D01*
X31499D01*
X30500Y5001D01*
X26502Y230499D02*
X30500Y226501D01*
X26502D02*
X30500Y230499D01*
X26502Y228500D02*
X30500D01*
X28501Y226501D02*
Y230499D01*
X36498Y225501D02*
X32500D01*
X36498Y229500D01*
Y230499D01*
X35499Y231499D01*
X33499D01*
X32500Y230499D01*
X311001Y228499D02*
X315000Y224501D01*
X311001D02*
X315000Y228499D01*
X311001Y226500D02*
X315000D01*
X313001Y224501D02*
Y228499D01*
X316999Y223501D02*
X318999D01*
X317999D01*
Y229499D01*
X316999Y228499D01*
X99000Y8499D02*
X97001D01*
X98001D01*
Y3501D01*
X97001Y2501D01*
X96001D01*
X95002Y3501D01*
X104998Y8499D02*
X101000D01*
Y5500D01*
X102999Y6500D01*
X103999D01*
X104998Y5500D01*
Y3501D01*
X103999Y2501D01*
X101999D01*
X101000Y3501D01*
X13500Y81499D02*
X11501D01*
X12500D01*
Y76501D01*
X11501Y75501D01*
X10501D01*
X9501Y76501D01*
X15499Y75501D02*
X17499D01*
X16499D01*
Y81499D01*
X15499Y80499D01*
X325999Y204998D02*
X323999D01*
X324999D01*
Y200000D01*
X323999Y199000D01*
X323000D01*
X322000Y200000D01*
X331997Y199000D02*
X327998D01*
X331997Y202999D01*
Y203998D01*
X330997Y204998D01*
X328998D01*
X327998Y203998D01*
X20500Y170999D02*
X18501D01*
X19501D01*
Y166001D01*
X18501Y165001D01*
X17501D01*
X16502Y166001D01*
X22500Y169999D02*
X23499Y170999D01*
X25499D01*
X26498Y169999D01*
Y169000D01*
X25499Y168000D01*
X24499D01*
X25499D01*
X26498Y167000D01*
Y166001D01*
X25499Y165001D01*
X23499D01*
X22500Y166001D01*
X131500Y8999D02*
X129501D01*
X130501D01*
Y4001D01*
X129501Y3001D01*
X128501D01*
X127502Y4001D01*
X137498Y8999D02*
X135499Y7999D01*
X133500Y6000D01*
Y4001D01*
X134499Y3001D01*
X136499D01*
X137498Y4001D01*
Y5000D01*
X136499Y6000D01*
X133500D01*
X132002Y95999D02*
Y91001D01*
X133001Y90001D01*
X135001D01*
X136000Y91001D01*
Y95999D01*
X140999Y90001D02*
Y95999D01*
X138000Y93000D01*
X141998D01*
X65502Y49499D02*
Y44501D01*
X66501Y43501D01*
X68501D01*
X69500Y44501D01*
Y49499D01*
X71500Y48499D02*
X72499Y49499D01*
X74499D01*
X75498Y48499D01*
Y47500D01*
X74499Y46500D01*
X73499D01*
X74499D01*
X75498Y45500D01*
Y44501D01*
X74499Y43501D01*
X72499D01*
X71500Y44501D01*
X100500Y120198D02*
Y115200D01*
X101500Y114200D01*
X103499D01*
X104499Y115200D01*
Y120198D01*
X110497Y114200D02*
X106498D01*
X110497Y118199D01*
Y119198D01*
X109497Y120198D01*
X107498D01*
X106498Y119198D01*
X42501Y117999D02*
Y113001D01*
X43501Y112001D01*
X45500D01*
X46500Y113001D01*
Y117999D01*
X48499Y112001D02*
X50499D01*
X49499D01*
Y117999D01*
X48499Y116999D01*
X117499Y177002D02*
X111501D01*
Y180001D01*
X112501Y181000D01*
X114500D01*
X115500Y180001D01*
Y177002D01*
Y179001D02*
X117499Y181000D01*
X112501Y183000D02*
X111501Y183999D01*
Y185999D01*
X112501Y186998D01*
X113500D01*
X114500Y185999D01*
X115500Y186998D01*
X116499D01*
X117499Y185999D01*
Y183999D01*
X116499Y183000D01*
X115500D01*
X114500Y183999D01*
X113500Y183000D01*
X112501D01*
X114500Y183999D02*
Y185999D01*
X62502Y24501D02*
Y30499D01*
X65501D01*
X66501Y29499D01*
Y27500D01*
X65501Y26500D01*
X62502D01*
X64502D02*
X66501Y24501D01*
X68501D02*
X70500D01*
X69500D01*
Y30499D01*
X68501Y29499D01*
X73499D02*
X74499Y30499D01*
X76498D01*
X77498Y29499D01*
Y28500D01*
X76498Y27500D01*
X75498D01*
X76498D01*
X77498Y26500D01*
Y25501D01*
X76498Y24501D01*
X74499D01*
X73499Y25501D01*
X62100Y75900D02*
Y81898D01*
X65099D01*
X66099Y80898D01*
Y78899D01*
X65099Y77899D01*
X62100D01*
X64099D02*
X66099Y75900D01*
X68098D02*
X70097D01*
X69098D01*
Y81898D01*
X68098Y80898D01*
X77095Y75900D02*
X73096D01*
X77095Y79899D01*
Y80898D01*
X76095Y81898D01*
X74096D01*
X73096Y80898D01*
X52499Y60002D02*
X46501D01*
Y63001D01*
X47501Y64001D01*
X49500D01*
X50500Y63001D01*
Y60002D01*
Y62001D02*
X52499Y64001D01*
Y66000D02*
Y68000D01*
Y67000D01*
X46501D01*
X47501Y66000D01*
X52499Y70999D02*
Y72998D01*
Y71998D01*
X46501D01*
X47501Y70999D01*
X53499Y18502D02*
X47501D01*
Y21501D01*
X48501Y22501D01*
X50500D01*
X51500Y21501D01*
Y18502D01*
Y20502D02*
X53499Y22501D01*
Y24500D02*
Y26500D01*
Y25500D01*
X47501D01*
X48501Y24500D01*
X53499Y32498D02*
X47501D01*
X50500Y29499D01*
Y33498D01*
X34356Y79001D02*
Y84999D01*
X37355D01*
X38354Y83999D01*
Y82000D01*
X37355Y81000D01*
X34356D01*
X36355D02*
X38354Y79001D01*
X40354D02*
X42353D01*
X41353D01*
Y84999D01*
X40354Y83999D01*
X118499Y132502D02*
X112501D01*
Y135501D01*
X113501Y136501D01*
X115500D01*
X116500Y135501D01*
Y132502D01*
Y134502D02*
X118499Y136501D01*
Y138500D02*
Y140500D01*
Y139500D01*
X112501D01*
X113501Y138500D01*
Y143499D02*
X112501Y144499D01*
Y146498D01*
X113501Y147498D01*
X117499D01*
X118499Y146498D01*
Y144499D01*
X117499Y143499D01*
X113501D01*
X142499Y176502D02*
X136501D01*
Y179501D01*
X137501Y180500D01*
X139500D01*
X140500Y179501D01*
Y176502D01*
Y178501D02*
X142499Y180500D01*
X136501Y182500D02*
Y186498D01*
X137501D01*
X141499Y182500D01*
X142499D01*
X133999Y209502D02*
X128001D01*
Y212501D01*
X129001Y213500D01*
X131000D01*
X132000Y212501D01*
Y209502D01*
Y211501D02*
X133999Y213500D01*
X129001Y215500D02*
X128001Y216499D01*
Y218499D01*
X129001Y219498D01*
X130000D01*
X131000Y218499D01*
Y217499D01*
Y218499D01*
X132000Y219498D01*
X132999D01*
X133999Y218499D01*
Y216499D01*
X132999Y215500D01*
X123999Y211002D02*
X118001D01*
Y214001D01*
X119001Y215000D01*
X121000D01*
X122000Y214001D01*
Y211002D01*
Y213001D02*
X123999Y215000D01*
Y219999D02*
X118001D01*
X121000Y217000D01*
Y220998D01*
X52999Y179002D02*
X47001D01*
Y182001D01*
X48001Y183000D01*
X50000D01*
X51000Y182001D01*
Y179002D01*
Y181001D02*
X52999Y183000D01*
X51999Y185000D02*
X52999Y185999D01*
Y187999D01*
X51999Y188998D01*
X48001D01*
X47001Y187999D01*
Y185999D01*
X48001Y185000D01*
X49000D01*
X50000Y185999D01*
Y188998D01*
X60502Y134501D02*
Y140499D01*
X63501D01*
X64500Y139499D01*
Y137500D01*
X63501Y136500D01*
X60502D01*
X62501D02*
X64500Y134501D01*
X70498Y140499D02*
X66500D01*
Y137500D01*
X68499Y138500D01*
X69499D01*
X70498Y137500D01*
Y135501D01*
X69499Y134501D01*
X67499D01*
X66500Y135501D01*
X85502Y201001D02*
Y206999D01*
X88501D01*
X89500Y205999D01*
Y204000D01*
X88501Y203000D01*
X85502D01*
X87501D02*
X89500Y201001D01*
X95498D02*
X91500D01*
X95498Y205000D01*
Y205999D01*
X94499Y206999D01*
X92499D01*
X91500Y205999D01*
X125000Y182001D02*
Y185999D01*
X124001Y186999D01*
X122001D01*
X121002Y185999D01*
Y182001D01*
X122001Y181001D01*
X124001D01*
X123001Y183000D02*
X125000Y181001D01*
X124001D02*
X125000Y182001D01*
X130998Y181001D02*
X127000D01*
X130998Y185000D01*
Y185999D01*
X129999Y186999D01*
X127999D01*
X127000Y185999D01*
X60999Y182200D02*
Y186198D01*
X59999Y187198D01*
X58000D01*
X57000Y186198D01*
Y182200D01*
X58000Y181200D01*
X59999D01*
X58999Y183199D02*
X60999Y181200D01*
X59999D02*
X60999Y182200D01*
X62998Y181200D02*
X64997D01*
X63998D01*
Y187198D01*
X62998Y186198D01*
X90502Y132501D02*
Y138499D01*
X93501D01*
X94500Y137499D01*
Y135500D01*
X93501Y134500D01*
X90502D01*
X100498Y132501D02*
X96500D01*
X100498Y136500D01*
Y137499D01*
X99499Y138499D01*
X97499D01*
X96500Y137499D01*
X6001Y133501D02*
Y139499D01*
X9000D01*
X10000Y138499D01*
Y136500D01*
X9000Y135500D01*
X6001D01*
X11999Y133501D02*
X13999D01*
X12999D01*
Y139499D01*
X11999Y138499D01*
X148999Y207002D02*
X143001D01*
X145000Y209001D01*
X143001Y211000D01*
X148999D01*
Y216998D02*
Y213000D01*
X145000Y216998D01*
X144001D01*
X143001Y215999D01*
Y213999D01*
X144001Y213000D01*
X106001Y210501D02*
Y216499D01*
X108001Y214500D01*
X110000Y216499D01*
Y210501D01*
X111999D02*
X113999D01*
X112999D01*
Y216499D01*
X111999Y215499D01*
X323001Y132999D02*
Y127001D01*
Y129000D01*
X327000Y132999D01*
X324001Y130000D01*
X327000Y127001D01*
X328999D02*
X330999D01*
X329999D01*
Y132999D01*
X328999Y131999D01*
X147002Y131499D02*
Y125501D01*
Y127500D01*
X151000Y131499D01*
X148001Y128500D01*
X151000Y125501D01*
X156998D02*
X153000D01*
X156998Y129500D01*
Y130499D01*
X155999Y131499D01*
X153999D01*
X153000Y130499D01*
X37500Y20499D02*
X35501D01*
X36501D01*
Y15501D01*
X35501Y14501D01*
X34501D01*
X33502Y15501D01*
X42499Y14501D02*
Y20499D01*
X39500Y17500D01*
X43498D01*
X37199Y220198D02*
X33200D01*
Y217199D01*
X35199D01*
X33200D01*
Y214200D01*
X39198D02*
X41197D01*
X40198D01*
Y220198D01*
X39198Y219198D01*
X122502Y137999D02*
Y132001D01*
X125501D01*
X126500Y133001D01*
Y136999D01*
X125501Y137999D01*
X122502D01*
X131499Y132001D02*
Y137999D01*
X128500Y135000D01*
X132498D01*
X38502Y136499D02*
Y130501D01*
X41501D01*
X42500Y131501D01*
Y135499D01*
X41501Y136499D01*
X38502D01*
X44500Y135499D02*
X45499Y136499D01*
X47499D01*
X48498Y135499D01*
Y134500D01*
X47499Y133500D01*
X46499D01*
X47499D01*
X48498Y132500D01*
Y131501D01*
X47499Y130501D01*
X45499D01*
X44500Y131501D01*
X81502Y27499D02*
Y21501D01*
X84501D01*
X85500Y22501D01*
Y26499D01*
X84501Y27499D01*
X81502D01*
X91498D02*
X87500D01*
Y24500D01*
X89499Y25500D01*
X90499D01*
X91498Y24500D01*
Y22501D01*
X90499Y21501D01*
X88499D01*
X87500Y22501D01*
X75001Y96499D02*
Y90501D01*
X78000D01*
X79000Y91501D01*
Y95499D01*
X78000Y96499D01*
X75001D01*
X80999Y90501D02*
X82999D01*
X81999D01*
Y96499D01*
X80999Y95499D01*
X74502Y181999D02*
Y176001D01*
X77501D01*
X78500Y177001D01*
Y180999D01*
X77501Y181999D01*
X74502D01*
X84498Y176001D02*
X80500D01*
X84498Y180000D01*
Y180999D01*
X83499Y181999D01*
X81499D01*
X80500Y180999D01*
X89599Y71898D02*
X88599Y72898D01*
X86600D01*
X85600Y71898D01*
Y67900D01*
X86600Y66900D01*
X88599D01*
X89599Y67900D01*
X91598Y71898D02*
X92598Y72898D01*
X94597D01*
X95597Y71898D01*
Y70899D01*
X94597Y69899D01*
X95597Y68899D01*
Y67900D01*
X94597Y66900D01*
X92598D01*
X91598Y67900D01*
Y68899D01*
X92598Y69899D01*
X91598Y70899D01*
Y71898D01*
X92598Y69899D02*
X94597D01*
X123500Y118499D02*
X122501Y119499D01*
X120501D01*
X119502Y118499D01*
Y114501D01*
X120501Y113501D01*
X122501D01*
X123500Y114501D01*
X129498Y119499D02*
X127499Y118499D01*
X125500Y116500D01*
Y114501D01*
X126499Y113501D01*
X128499D01*
X129498Y114501D01*
Y115500D01*
X128499Y116500D01*
X125500D01*
X92001Y117000D02*
X91001Y116001D01*
Y114001D01*
X92001Y113002D01*
X95999D01*
X96999Y114001D01*
Y116001D01*
X95999Y117000D01*
X96999Y122998D02*
Y119000D01*
X93000Y122998D01*
X92001D01*
X91001Y121999D01*
Y119999D01*
X92001Y119000D01*
X82599Y125898D02*
X81599Y126898D01*
X79600D01*
X78600Y125898D01*
Y121900D01*
X79600Y120900D01*
X81599D01*
X82599Y121900D01*
X84598Y120900D02*
X86597D01*
X85598D01*
Y126898D01*
X84598Y125898D01*
X66001Y117500D02*
X65001Y116501D01*
Y114501D01*
X66001Y113502D01*
X69999D01*
X70999Y114501D01*
Y116501D01*
X69999Y117500D01*
X65001Y123498D02*
Y119500D01*
X68000D01*
X67000Y121499D01*
Y122499D01*
X68000Y123498D01*
X69999D01*
X70999Y122499D01*
Y120499D01*
X69999Y119500D01*
X56001Y118500D02*
X55001Y117501D01*
Y115501D01*
X56001Y114502D01*
X59999D01*
X60999Y115501D01*
Y117501D01*
X59999Y118500D01*
X60999Y123499D02*
X55001D01*
X58000Y120500D01*
Y124498D01*
X25501Y90000D02*
X24501Y89001D01*
Y87001D01*
X25501Y86002D01*
X29499D01*
X30499Y87001D01*
Y89001D01*
X29499Y90000D01*
X25501Y92000D02*
X24501Y92999D01*
Y94999D01*
X25501Y95998D01*
X26500D01*
X27500Y94999D01*
Y93999D01*
Y94999D01*
X28500Y95998D01*
X29499D01*
X30499Y94999D01*
Y92999D01*
X29499Y92000D01*
D11*
X100650Y108197D02*
G03*
X100650Y108197I-394J0D01*
G01*
X118000Y196000D02*
X125000D01*
X118000D02*
Y209000D01*
X125000D01*
Y196000D02*
Y209000D01*
X87000Y188500D02*
X89583D01*
X87000D02*
Y198500D01*
X93000D01*
Y188500D02*
Y198500D01*
X89583Y188500D02*
X93000D01*
X27886Y98063D02*
X31500D01*
Y113063D01*
X30000Y114563D02*
X31500Y113063D01*
X25000Y114563D02*
X30000D01*
X23500Y113063D02*
X25000Y114563D01*
X23500Y98063D02*
Y113063D01*
Y98063D02*
X27886D01*
X69500Y144886D02*
Y148500D01*
X59500D02*
X69500D01*
X59500Y142500D02*
Y148500D01*
Y142500D02*
X69500D01*
Y144886D01*
X123583Y98441D02*
X127000D01*
Y107941D01*
X126000Y108941D02*
X127000Y107941D01*
X122000Y108941D02*
X126000D01*
X121000Y107941D02*
X122000Y108941D01*
X121000Y98441D02*
Y107941D01*
Y98441D02*
X123583D01*
X137000Y173000D02*
X140614D01*
X137000Y163000D02*
Y173000D01*
Y163000D02*
X143000D01*
Y173000D01*
X140614D02*
X143000D01*
X132224Y151000D02*
X142362D01*
X122638D02*
X132776D01*
X137454Y141157D02*
Y160843D01*
X142362Y141157D02*
Y151000D01*
X122638Y141157D02*
X142362D01*
X122638D02*
Y160843D01*
X142362D01*
Y151000D02*
Y160843D01*
X111500Y172000D02*
X115114D01*
X111500Y162000D02*
Y172000D01*
Y162000D02*
X117500D01*
Y172000D01*
X115114D02*
X117500D01*
X114886Y149000D02*
X118500D01*
Y159000D01*
X112500D02*
X118500D01*
X112500Y149000D02*
Y159000D01*
Y149000D02*
X114886D01*
X47500Y139138D02*
Y149276D01*
Y148724D02*
Y158862D01*
X37657Y144046D02*
X57342D01*
X37657Y139138D02*
X47500D01*
X37657D02*
Y158862D01*
X57342D01*
Y139138D02*
Y158862D01*
X47500Y139138D02*
X57342D01*
X39886Y164500D02*
X43500D01*
Y174500D01*
X37500D02*
X43500D01*
X37500Y164500D02*
Y174500D01*
Y164500D02*
X39886D01*
X49886Y167000D02*
X53500D01*
Y177000D01*
X47500D02*
X53500D01*
X47500Y167000D02*
Y177000D01*
Y167000D02*
X49886D01*
X128000Y197500D02*
X130583D01*
X128000D02*
Y207500D01*
X134000D01*
Y197500D02*
Y207500D01*
X130583Y197500D02*
X134000D01*
X93583Y99500D02*
X97000D01*
Y109000D01*
X96000Y110000D02*
X97000Y109000D01*
X92000Y110000D02*
X96000D01*
X91000Y109000D02*
X92000Y110000D01*
X91000Y99500D02*
Y109000D01*
Y99500D02*
X93583D01*
X67583D02*
X71000D01*
Y109000D01*
X70000Y110000D02*
X71000Y109000D01*
X66000Y110000D02*
X70000D01*
X65000Y109000D02*
X66000Y110000D01*
X65000Y99500D02*
Y109000D01*
Y99500D02*
X67583D01*
X57886Y95000D02*
X61500D01*
Y110000D01*
X60000Y111500D02*
X61500Y110000D01*
X55000Y111500D02*
X60000D01*
X53500Y110000D02*
X55000Y111500D01*
X53500Y95000D02*
Y110000D01*
Y95000D02*
X57886D01*
X44500Y87500D02*
Y94500D01*
X32500D02*
X44500D01*
X32500Y92795D02*
Y94500D01*
Y87500D02*
X44500D01*
X32500D02*
Y92795D01*
X47000Y56500D02*
X50917D01*
X53000D01*
Y47500D02*
Y56500D01*
X47000Y47500D02*
X53000D01*
X47000D02*
Y56500D01*
X49583Y35000D02*
X53500D01*
X47500D02*
X49583D01*
X47500D02*
Y44000D01*
X53500D01*
Y35000D02*
Y44000D01*
X58583Y52500D02*
X62000D01*
Y62000D01*
X61000Y63000D02*
X62000Y62000D01*
X57000Y63000D02*
X61000D01*
X56000Y62000D02*
X57000Y63000D01*
X56000Y52500D02*
Y62000D01*
Y52500D02*
X58583D01*
X90000Y39724D02*
Y49862D01*
Y30138D02*
Y40276D01*
X80158Y44954D02*
X99843D01*
X90000Y49862D02*
X99843D01*
Y30138D02*
Y49862D01*
X80158Y30138D02*
X99843D01*
X80158D02*
Y49862D01*
X90000D01*
X77000Y33500D02*
Y39500D01*
X66000Y33500D02*
X77000D01*
X66000D02*
Y39500D01*
X77000D01*
X67362Y201000D02*
Y210842D01*
X32638D02*
X67362D01*
X32638Y191157D02*
Y210842D01*
Y191157D02*
X67362D01*
Y201000D01*
X71500Y66500D02*
Y72500D01*
X61500D02*
X71500D01*
X61500Y66500D02*
Y72500D01*
Y66500D02*
X71500D01*
X78000Y114917D02*
Y117500D01*
X87500D01*
X88500Y116500D01*
Y112500D02*
Y116500D01*
X87500Y111500D02*
X88500Y112500D01*
X78000Y111500D02*
X87500D01*
X78000D02*
Y114917D01*
X85000Y53000D02*
X87583D01*
X85000D02*
Y62500D01*
X86000Y63500D01*
X90000D01*
X91000Y62500D01*
Y53000D02*
Y62500D01*
X87583Y53000D02*
X91000D01*
D12*
X143210Y32900D02*
X165050D01*
X106950D02*
Y39965D01*
Y83100D02*
X113050D01*
X165050Y32900D02*
Y83100D01*
X106950Y32900D02*
X113050D01*
X106950Y76035D02*
Y83100D01*
X143210D02*
X165050D01*
D13*
X106634Y110441D02*
X113563D01*
X106634Y98079D02*
X113563D01*
D14*
X141615Y86540D02*
X138283Y83208D01*
Y86540D02*
X141615Y83208D01*
X139949Y86540D02*
Y83208D01*
X138283Y84874D02*
X141615D01*
D15*
X59334Y49833D02*
X58667Y50499D01*
X57334D01*
X56668Y49833D01*
Y47167D01*
X57334Y46501D01*
X58667D01*
X59334Y47167D01*
X60667Y50499D02*
X63332D01*
Y49833D01*
X60667Y47167D01*
Y46501D01*
M02*
