G04*
G04 #@! TF.GenerationSoftware,Altium Limited,Altium Designer,23.0.1 (38)*
G04*
G04 Layer_Physical_Order=3*
G04 Layer_Color=16440176*
%FSLAX25Y25*%
%MOIN*%
G70*
G04*
G04 #@! TF.SameCoordinates,8278F28E-5B15-4BE8-8149-663F5D52C5DE*
G04*
G04*
G04 #@! TF.FilePolarity,Positive*
G04*
G01*
G75*
%ADD62C,0.01500*%
%ADD63O,0.06693X0.04331*%
%ADD64C,0.06000*%
%ADD65C,0.11811*%
%ADD66C,0.09937*%
%ADD67C,0.15748*%
%ADD68R,0.07087X0.07087*%
%ADD69C,0.07087*%
%ADD70R,0.07087X0.07087*%
%ADD71O,0.07874X0.06299*%
%ADD72O,0.07087X0.09055*%
%ADD73R,0.06299X0.07874*%
%ADD74O,0.06299X0.07874*%
%ADD75C,0.04724*%
%ADD76C,0.05000*%
G36*
X145500Y55500D02*
X100635D01*
X100563Y55769D01*
X100131Y56519D01*
X99519Y57131D01*
X98769Y57563D01*
X97933Y57787D01*
X97067D01*
X96231Y57563D01*
X95933Y57391D01*
X95500Y57641D01*
Y127000D01*
X10500D01*
Y154000D01*
X44350D01*
Y153585D01*
X44565Y152784D01*
X44980Y152066D01*
X45566Y151480D01*
X46284Y151065D01*
X47085Y150850D01*
X47915D01*
X48716Y151065D01*
X49434Y151480D01*
X50020Y152066D01*
X50435Y152784D01*
X50650Y153585D01*
Y154000D01*
X65851D01*
X65982Y153869D01*
X66731Y153437D01*
X67567Y153213D01*
X68433D01*
X69269Y153437D01*
X70019Y153869D01*
X70149Y154000D01*
X125397D01*
X125540Y153593D01*
X125546Y153500D01*
X124980Y152934D01*
X124565Y152216D01*
X124350Y151415D01*
Y150585D01*
X124565Y149784D01*
X124980Y149066D01*
X125566Y148480D01*
X126284Y148065D01*
X127085Y147850D01*
X127915D01*
X128716Y148065D01*
X129434Y148480D01*
X130020Y149066D01*
X130435Y149784D01*
X130650Y150585D01*
Y151415D01*
X130435Y152216D01*
X130020Y152934D01*
X129454Y153500D01*
X129460Y153593D01*
X129603Y154000D01*
X135397D01*
X135540Y153593D01*
X135546Y153500D01*
X134980Y152934D01*
X134565Y152216D01*
X134350Y151415D01*
Y150585D01*
X134565Y149784D01*
X134980Y149066D01*
X135566Y148480D01*
X136284Y148065D01*
X137085Y147850D01*
X137915D01*
X138716Y148065D01*
X139434Y148480D01*
X140020Y149066D01*
X140435Y149784D01*
X140650Y150585D01*
Y151415D01*
X140435Y152216D01*
X140020Y152934D01*
X139454Y153500D01*
X139460Y153593D01*
X139603Y154000D01*
X145500D01*
Y55500D01*
D02*
G37*
G36*
X321443Y221883D02*
X322096Y220307D01*
X323044Y218888D01*
X324250Y217682D01*
X325669Y216734D01*
X327245Y216081D01*
X328919Y215748D01*
X330625D01*
X332298Y216081D01*
X333874Y216734D01*
X335293Y217682D01*
X336499Y218888D01*
X336522Y218921D01*
X337000Y218776D01*
Y130153D01*
X336538Y129962D01*
X336500Y130000D01*
X306042D01*
X305775Y130500D01*
X306569Y131689D01*
X307222Y133265D01*
X307555Y134938D01*
Y136644D01*
X307222Y138318D01*
X306569Y139894D01*
X305622Y141313D01*
X304415Y142519D01*
X302996Y143467D01*
X301420Y144120D01*
X299747Y144453D01*
X298041D01*
X296367Y144120D01*
X294791Y143467D01*
X293372Y142519D01*
X292166Y141313D01*
X291218Y139894D01*
X290565Y138318D01*
X290232Y136644D01*
Y134938D01*
X290565Y133265D01*
X291218Y131689D01*
X292012Y130500D01*
X291745Y130000D01*
X176824D01*
X176632Y130462D01*
X176673Y130502D01*
X177620Y131921D01*
X178273Y133497D01*
X178606Y135171D01*
Y136877D01*
X178273Y138550D01*
X177620Y140126D01*
X176673Y141545D01*
X175466Y142751D01*
X174048Y143699D01*
X172471Y144352D01*
X170798Y144685D01*
X169092D01*
X167418Y144352D01*
X165842Y143699D01*
X164424Y142751D01*
X163217Y141545D01*
X162269Y140126D01*
X161616Y138550D01*
X161284Y136877D01*
Y135171D01*
X161616Y133497D01*
X162269Y131921D01*
X163217Y130502D01*
X163258Y130462D01*
X163066Y130000D01*
X153000D01*
Y158000D01*
X152500Y158500D01*
X129068D01*
Y164000D01*
X128948Y164600D01*
X128608Y165108D01*
X122608Y171108D01*
X122100Y171448D01*
X121500Y171567D01*
X107891D01*
X107631Y172019D01*
X107018Y172631D01*
X106269Y173063D01*
X105433Y173287D01*
X104567D01*
X103731Y173063D01*
X102981Y172631D01*
X102369Y172019D01*
X101937Y171269D01*
X101713Y170433D01*
Y169567D01*
X101937Y168731D01*
X102369Y167982D01*
X102981Y167369D01*
X103731Y166937D01*
X104567Y166713D01*
X105433D01*
X106269Y166937D01*
X107018Y167369D01*
X107631Y167982D01*
X107891Y168432D01*
X120851D01*
X125933Y163351D01*
Y158500D01*
X70641D01*
X70631Y158519D01*
X70019Y159131D01*
X69493Y159434D01*
X69000Y222000D01*
X69500Y222500D01*
X321320D01*
X321443Y221883D01*
D02*
G37*
G36*
X75500Y1500D02*
X5500D01*
X5000Y2000D01*
X4373Y94645D01*
X4725Y95000D01*
X11874D01*
X12685Y94664D01*
X13713Y94529D01*
X15287D01*
X16315Y94664D01*
X17126Y95000D01*
X45698D01*
X45794Y94766D01*
X45859Y94500D01*
X45437Y93769D01*
X45213Y92933D01*
Y92067D01*
X45437Y91231D01*
X45869Y90482D01*
X46481Y89869D01*
X47231Y89437D01*
X48067Y89213D01*
X48933D01*
X49769Y89437D01*
X50519Y89869D01*
X51131Y90482D01*
X51563Y91231D01*
X51787Y92067D01*
Y92933D01*
X51563Y93769D01*
X51141Y94500D01*
X51205Y94766D01*
X51302Y95000D01*
X56009D01*
X56121Y94500D01*
X55481Y94131D01*
X54869Y93519D01*
X54437Y92769D01*
X54213Y91933D01*
Y91067D01*
X54437Y90231D01*
X54869Y89482D01*
X55481Y88869D01*
X56231Y88437D01*
X57067Y88213D01*
X57933D01*
X58769Y88437D01*
X59518Y88869D01*
X60131Y89482D01*
X60563Y90231D01*
X60787Y91067D01*
Y91933D01*
X60563Y92769D01*
X60131Y93519D01*
X59518Y94131D01*
X58879Y94500D01*
X58991Y95000D01*
X64365D01*
X64437Y94731D01*
X64869Y93981D01*
X65482Y93369D01*
X66231Y92937D01*
X67067Y92713D01*
X67933D01*
X68769Y92937D01*
X69519Y93369D01*
X70131Y93981D01*
X70563Y94731D01*
X70635Y95000D01*
X75500D01*
Y1500D01*
D02*
G37*
%LPC*%
G36*
X47915Y147150D02*
X47085D01*
X46284Y146935D01*
X45566Y146520D01*
X44980Y145934D01*
X44565Y145216D01*
X44350Y144415D01*
Y143585D01*
X44565Y142784D01*
X44980Y142066D01*
X45566Y141480D01*
X46284Y141065D01*
X47085Y140850D01*
X47915D01*
X48716Y141065D01*
X49434Y141480D01*
X50020Y142066D01*
X50435Y142784D01*
X50650Y143585D01*
Y144415D01*
X50435Y145216D01*
X50020Y145934D01*
X49434Y146520D01*
X48716Y146935D01*
X47915Y147150D01*
D02*
G37*
G36*
X101933Y98787D02*
X101067D01*
X100231Y98563D01*
X99481Y98131D01*
X98869Y97518D01*
X98437Y96769D01*
X98213Y95933D01*
Y95067D01*
X98437Y94231D01*
X98869Y93481D01*
X99481Y92869D01*
X100231Y92437D01*
X101067Y92213D01*
X101933D01*
X102769Y92437D01*
X103518Y92869D01*
X104131Y93481D01*
X104563Y94231D01*
X104787Y95067D01*
Y95933D01*
X104563Y96769D01*
X104131Y97518D01*
X103518Y98131D01*
X102769Y98563D01*
X101933Y98787D01*
D02*
G37*
G36*
X109528Y85191D02*
X108662D01*
X107826Y84967D01*
X107076Y84534D01*
X106464Y83922D01*
X106032Y83172D01*
X105807Y82336D01*
Y81471D01*
X106032Y80634D01*
X106464Y79885D01*
X107076Y79273D01*
X107826Y78840D01*
X108662Y78616D01*
X109528D01*
X110364Y78840D01*
X111114Y79273D01*
X111725Y79885D01*
X112158Y80634D01*
X112382Y81471D01*
Y82336D01*
X112158Y83172D01*
X111725Y83922D01*
X111114Y84534D01*
X110364Y84967D01*
X109528Y85191D01*
D02*
G37*
G36*
X100433Y77787D02*
X99567D01*
X98731Y77563D01*
X97982Y77131D01*
X97369Y76518D01*
X96937Y75769D01*
X96713Y74933D01*
Y74067D01*
X96937Y73231D01*
X97369Y72482D01*
X97982Y71869D01*
X98731Y71437D01*
X99567Y71213D01*
X100433D01*
X101269Y71437D01*
X102018Y71869D01*
X102631Y72482D01*
X103063Y73231D01*
X103287Y74067D01*
Y74933D01*
X103063Y75769D01*
X102631Y76518D01*
X102018Y77131D01*
X101269Y77563D01*
X100433Y77787D01*
D02*
G37*
G36*
X134933Y73787D02*
X134067D01*
X133231Y73563D01*
X132482Y73131D01*
X131869Y72518D01*
X131437Y71769D01*
X131213Y70933D01*
Y70067D01*
X131437Y69231D01*
X131869Y68481D01*
X132482Y67869D01*
X133231Y67437D01*
X134067Y67213D01*
X134933D01*
X135769Y67437D01*
X136519Y67869D01*
X137131Y68481D01*
X137563Y69231D01*
X137787Y70067D01*
Y70933D01*
X137563Y71769D01*
X137131Y72518D01*
X136519Y73131D01*
X135769Y73563D01*
X134933Y73787D01*
D02*
G37*
G36*
X125933Y73287D02*
X125067D01*
X124231Y73063D01*
X123482Y72631D01*
X122869Y72018D01*
X122437Y71269D01*
X122213Y70433D01*
Y69567D01*
X122437Y68731D01*
X122869Y67981D01*
X123482Y67369D01*
X124231Y66937D01*
X125067Y66713D01*
X125933D01*
X126769Y66937D01*
X127518Y67369D01*
X128131Y67981D01*
X128563Y68731D01*
X128787Y69567D01*
Y70433D01*
X128563Y71269D01*
X128131Y72018D01*
X127518Y72631D01*
X126769Y73063D01*
X125933Y73287D01*
D02*
G37*
G36*
X82831Y214067D02*
X74169D01*
Y205405D01*
X82831D01*
Y214067D01*
D02*
G37*
G36*
X179459Y214370D02*
X177753D01*
X176080Y214037D01*
X174504Y213384D01*
X173085Y212436D01*
X171879Y211230D01*
X170931Y209811D01*
X170278Y208235D01*
X169945Y206562D01*
Y204856D01*
X170278Y203182D01*
X170931Y201606D01*
X171879Y200187D01*
X173085Y198981D01*
X174504Y198033D01*
X176080Y197380D01*
X177753Y197047D01*
X179459D01*
X181133Y197380D01*
X182709Y198033D01*
X184128Y198981D01*
X185334Y200187D01*
X186282Y201606D01*
X186935Y203182D01*
X187268Y204856D01*
Y206562D01*
X186935Y208235D01*
X186282Y209811D01*
X185334Y211230D01*
X184128Y212436D01*
X182709Y213384D01*
X181133Y214037D01*
X179459Y214370D01*
D02*
G37*
G36*
X120933Y195287D02*
X120067D01*
X119231Y195063D01*
X118482Y194631D01*
X117869Y194018D01*
X117437Y193269D01*
X117213Y192433D01*
Y191567D01*
X117437Y190731D01*
X117869Y189981D01*
X118482Y189369D01*
X119231Y188937D01*
X120067Y188713D01*
X120933D01*
X121769Y188937D01*
X122519Y189369D01*
X123131Y189981D01*
X123563Y190731D01*
X123787Y191567D01*
Y192433D01*
X123563Y193269D01*
X123131Y194018D01*
X122519Y194631D01*
X121769Y195063D01*
X120933Y195287D01*
D02*
G37*
G36*
X249258Y197256D02*
X247742D01*
X246278Y196864D01*
X244966Y196106D01*
X243894Y195034D01*
X243136Y193722D01*
X242744Y192258D01*
Y190742D01*
X243136Y189278D01*
X243894Y187966D01*
X244966Y186894D01*
X246278Y186136D01*
X247742Y185744D01*
X249258D01*
X250722Y186136D01*
X252034Y186894D01*
X253106Y187966D01*
X253864Y189278D01*
X254256Y190742D01*
Y192258D01*
X253864Y193722D01*
X253106Y195034D01*
X252034Y196106D01*
X250722Y196864D01*
X249258Y197256D01*
D02*
G37*
G36*
X79070Y193595D02*
X77930D01*
X76828Y193299D01*
X75841Y192729D01*
X75035Y191923D01*
X74464Y190935D01*
X74169Y189834D01*
Y188694D01*
X74464Y187592D01*
X75035Y186605D01*
X75841Y185798D01*
X76828Y185228D01*
X77930Y184933D01*
X79070D01*
X80172Y185228D01*
X81159Y185798D01*
X81965Y186605D01*
X82536Y187592D01*
X82831Y188694D01*
Y189834D01*
X82536Y190935D01*
X81965Y191923D01*
X81159Y192729D01*
X80172Y193299D01*
X79070Y193595D01*
D02*
G37*
G36*
X229758Y195126D02*
X228242D01*
X226778Y194734D01*
X225466Y193976D01*
X224394Y192904D01*
X223636Y191592D01*
X223244Y190128D01*
Y188612D01*
X223636Y187148D01*
X224394Y185836D01*
X225466Y184764D01*
X226778Y184006D01*
X228242Y183614D01*
X229758D01*
X231222Y184006D01*
X232534Y184764D01*
X233606Y185836D01*
X234364Y187148D01*
X234756Y188612D01*
Y190128D01*
X234364Y191592D01*
X233606Y192904D01*
X232534Y193976D01*
X231222Y194734D01*
X229758Y195126D01*
D02*
G37*
G36*
X329659Y195035D02*
X328341D01*
X327048Y194778D01*
X325830Y194274D01*
X324733Y193541D01*
X323801Y192609D01*
X323069Y191513D01*
X322564Y190295D01*
X322307Y189002D01*
Y187683D01*
X322564Y186390D01*
X323069Y185172D01*
X323801Y184076D01*
X324733Y183144D01*
X325830Y182411D01*
X327048Y181907D01*
X328341Y181650D01*
X329659D01*
X330952Y181907D01*
X332170Y182411D01*
X333266Y183144D01*
X334199Y184076D01*
X334931Y185172D01*
X335436Y186390D01*
X335693Y187683D01*
Y189002D01*
X335436Y190295D01*
X334931Y191513D01*
X334199Y192609D01*
X333266Y193541D01*
X332170Y194274D01*
X330952Y194778D01*
X329659Y195035D01*
D02*
G37*
G36*
X146433Y173287D02*
X145567D01*
X144731Y173063D01*
X143982Y172631D01*
X143369Y172019D01*
X142937Y171269D01*
X142713Y170433D01*
Y169567D01*
X142937Y168731D01*
X143369Y167982D01*
X143982Y167369D01*
X144731Y166937D01*
X145567Y166713D01*
X146433D01*
X147269Y166937D01*
X148019Y167369D01*
X148631Y167982D01*
X149063Y168731D01*
X149287Y169567D01*
Y170433D01*
X149063Y171269D01*
X148631Y172019D01*
X148019Y172631D01*
X147269Y173063D01*
X146433Y173287D01*
D02*
G37*
G36*
X329659Y175508D02*
X328341D01*
X327048Y175251D01*
X325830Y174746D01*
X324733Y174014D01*
X323801Y173081D01*
X323069Y171985D01*
X322564Y170767D01*
X322307Y169474D01*
Y168156D01*
X322564Y166863D01*
X323069Y165645D01*
X323801Y164549D01*
X324733Y163616D01*
X325830Y162884D01*
X327048Y162379D01*
X328341Y162122D01*
X329659D01*
X330952Y162379D01*
X332170Y162884D01*
X333266Y163616D01*
X334199Y164549D01*
X334931Y165645D01*
X335436Y166863D01*
X335693Y168156D01*
Y169474D01*
X335436Y170767D01*
X334931Y171985D01*
X334199Y173081D01*
X333266Y174014D01*
X332170Y174746D01*
X330952Y175251D01*
X329659Y175508D01*
D02*
G37*
G36*
X249258Y157886D02*
X247742D01*
X246278Y157494D01*
X244966Y156736D01*
X243894Y155664D01*
X243136Y154352D01*
X242744Y152888D01*
Y151372D01*
X243136Y149908D01*
X243894Y148596D01*
X244966Y147524D01*
X246278Y146766D01*
X247742Y146374D01*
X249258D01*
X250722Y146766D01*
X252034Y147524D01*
X253106Y148596D01*
X253864Y149908D01*
X254256Y151372D01*
Y152888D01*
X253864Y154352D01*
X253106Y155664D01*
X252034Y156736D01*
X250722Y157494D01*
X249258Y157886D01*
D02*
G37*
G36*
X229758Y155756D02*
X228242D01*
X226778Y155364D01*
X225466Y154606D01*
X224394Y153534D01*
X223636Y152222D01*
X223244Y150758D01*
Y149242D01*
X223636Y147778D01*
X224394Y146466D01*
X225466Y145394D01*
X226778Y144636D01*
X228242Y144244D01*
X229758D01*
X231222Y144636D01*
X232534Y145394D01*
X233606Y146466D01*
X234364Y147778D01*
X234756Y149242D01*
Y150758D01*
X234364Y152222D01*
X233606Y153534D01*
X232534Y154606D01*
X231222Y155364D01*
X229758Y155756D01*
D02*
G37*
G36*
X15287Y92471D02*
X13713D01*
X12685Y92336D01*
X11727Y91939D01*
X10905Y91308D01*
X10274Y90486D01*
X9877Y89528D01*
X9742Y88500D01*
X9877Y87472D01*
X10274Y86515D01*
X10905Y85692D01*
X11727Y85061D01*
X12685Y84664D01*
X13713Y84529D01*
X15287D01*
X16315Y84664D01*
X17273Y85061D01*
X18095Y85692D01*
X18726Y86515D01*
X19123Y87472D01*
X19258Y88500D01*
X19123Y89528D01*
X18726Y90486D01*
X18095Y91308D01*
X17273Y91939D01*
X16315Y92336D01*
X15287Y92471D01*
D02*
G37*
G36*
X58433Y79787D02*
X57567D01*
X56731Y79563D01*
X55981Y79131D01*
X55369Y78518D01*
X54937Y77769D01*
X54713Y76933D01*
Y76067D01*
X54937Y75231D01*
X55369Y74481D01*
X55981Y73869D01*
X56731Y73437D01*
X57567Y73213D01*
X58433D01*
X59269Y73437D01*
X60018Y73869D01*
X60631Y74481D01*
X61063Y75231D01*
X61287Y76067D01*
Y76933D01*
X61063Y77769D01*
X60631Y78518D01*
X60018Y79131D01*
X59269Y79563D01*
X58433Y79787D01*
D02*
G37*
G36*
X40142Y63478D02*
X37780D01*
X37009Y63377D01*
X36290Y63079D01*
X35674Y62606D01*
X35200Y61989D01*
X34903Y61271D01*
X34801Y60500D01*
X34903Y59729D01*
X35200Y59011D01*
X35674Y58394D01*
X36290Y57921D01*
X37009Y57623D01*
X37780Y57522D01*
X40142D01*
X40913Y57623D01*
X41631Y57921D01*
X42248Y58394D01*
X42721Y59011D01*
X43018Y59729D01*
X43120Y60500D01*
X43018Y61271D01*
X42721Y61989D01*
X42248Y62606D01*
X41631Y63079D01*
X40913Y63377D01*
X40142Y63478D01*
D02*
G37*
G36*
X25181D02*
X22819D01*
X22048Y63377D01*
X21330Y63079D01*
X20713Y62606D01*
X20240Y61989D01*
X19942Y61271D01*
X19841Y60500D01*
X19942Y59729D01*
X20240Y59011D01*
X20713Y58394D01*
X21330Y57921D01*
X22048Y57623D01*
X22819Y57522D01*
X25181D01*
X25952Y57623D01*
X26670Y57921D01*
X27287Y58394D01*
X27760Y59011D01*
X28058Y59729D01*
X28159Y60500D01*
X28058Y61271D01*
X27760Y61989D01*
X27287Y62606D01*
X26670Y63079D01*
X25952Y63377D01*
X25181Y63478D01*
D02*
G37*
G36*
X57933Y45287D02*
X57067D01*
X56231Y45063D01*
X55481Y44631D01*
X54869Y44019D01*
X54437Y43269D01*
X54213Y42433D01*
Y41567D01*
X54437Y40731D01*
X54869Y39981D01*
X55481Y39369D01*
X56231Y38937D01*
X57067Y38713D01*
X57933D01*
X58769Y38937D01*
X59518Y39369D01*
X60131Y39981D01*
X60563Y40731D01*
X60787Y41567D01*
Y42433D01*
X60563Y43269D01*
X60131Y44019D01*
X59518Y44631D01*
X58769Y45063D01*
X57933Y45287D01*
D02*
G37*
G36*
X40142Y29463D02*
X37780D01*
X37009Y29361D01*
X36290Y29063D01*
X35674Y28590D01*
X35200Y27973D01*
X34903Y27255D01*
X34801Y26484D01*
X34903Y25713D01*
X35200Y24995D01*
X35674Y24378D01*
X36290Y23905D01*
X37009Y23607D01*
X37780Y23506D01*
X40142D01*
X40913Y23607D01*
X41631Y23905D01*
X42248Y24378D01*
X42721Y24995D01*
X43018Y25713D01*
X43120Y26484D01*
X43018Y27255D01*
X42721Y27973D01*
X42248Y28590D01*
X41631Y29063D01*
X40913Y29361D01*
X40142Y29463D01*
D02*
G37*
G36*
X25181D02*
X22819D01*
X22048Y29361D01*
X21330Y29063D01*
X20713Y28590D01*
X20240Y27973D01*
X19942Y27255D01*
X19841Y26484D01*
X19942Y25713D01*
X20240Y24995D01*
X20713Y24378D01*
X21330Y23905D01*
X22048Y23607D01*
X22819Y23506D01*
X25181D01*
X25952Y23607D01*
X26670Y23905D01*
X27287Y24378D01*
X27760Y24995D01*
X28058Y25713D01*
X28159Y26484D01*
X28058Y27255D01*
X27760Y27973D01*
X27287Y28590D01*
X26670Y29063D01*
X25952Y29361D01*
X25181Y29463D01*
D02*
G37*
G36*
X15664Y20472D02*
X13958D01*
X12285Y20140D01*
X10708Y19487D01*
X9290Y18539D01*
X8083Y17332D01*
X7135Y15914D01*
X6482Y14337D01*
X6150Y12664D01*
Y10958D01*
X6482Y9285D01*
X7135Y7708D01*
X8083Y6290D01*
X9290Y5083D01*
X10708Y4135D01*
X12285Y3483D01*
X13958Y3150D01*
X15664D01*
X17337Y3483D01*
X18914Y4135D01*
X20332Y5083D01*
X21539Y6290D01*
X22487Y7708D01*
X23140Y9285D01*
X23472Y10958D01*
Y12664D01*
X23140Y14337D01*
X22487Y15914D01*
X21539Y17332D01*
X20332Y18539D01*
X18914Y19487D01*
X17337Y20140D01*
X15664Y20472D01*
D02*
G37*
%LPD*%
D62*
X105000Y170000D02*
X121500D01*
X127500Y164000D01*
Y151000D02*
Y164000D01*
D63*
X38961Y60500D02*
D03*
Y26484D02*
D03*
X24000Y60500D02*
D03*
Y26484D02*
D03*
D64*
X14811Y224410D02*
D03*
X329772D02*
D03*
X14811Y11811D02*
D03*
D65*
X22000Y181315D02*
D03*
Y200842D02*
D03*
X329000Y188342D02*
D03*
Y168815D02*
D03*
D66*
X248500Y152130D02*
D03*
Y191500D02*
D03*
X229000Y189370D02*
D03*
Y150000D02*
D03*
D67*
X298894Y135791D02*
D03*
X307555Y205476D02*
D03*
X178606Y205709D02*
D03*
X169945Y136024D02*
D03*
D68*
X78500Y209736D02*
D03*
D69*
Y189264D02*
D03*
Y199500D02*
D03*
D70*
X14500Y118500D02*
D03*
D71*
Y108500D02*
D03*
Y98500D02*
D03*
Y88500D02*
D03*
D72*
X117842Y17500D02*
D03*
X98158D02*
D03*
D73*
X140000Y18000D02*
D03*
D74*
X130000D02*
D03*
D75*
X137500Y151000D02*
D03*
X127500D02*
D03*
X47500Y144000D02*
D03*
Y154000D02*
D03*
X90000Y45000D02*
D03*
Y35000D02*
D03*
D76*
X30500Y39000D02*
D03*
X31000Y49000D02*
D03*
X73500Y48500D02*
D03*
X134500Y70500D02*
D03*
X105000Y170000D02*
D03*
X125500Y70000D02*
D03*
X120500Y192000D02*
D03*
X51500Y163000D02*
D03*
X109095Y81903D02*
D03*
X38000Y115000D02*
D03*
X27500Y120000D02*
D03*
X101500Y213500D02*
D03*
X89000Y212000D02*
D03*
X146000Y170000D02*
D03*
X81000Y136000D02*
D03*
X48500Y92500D02*
D03*
X57500Y91500D02*
D03*
X58000Y76500D02*
D03*
X79000Y70000D02*
D03*
X88500Y79000D02*
D03*
X132500Y107000D02*
D03*
X100000Y67000D02*
D03*
X31000Y134000D02*
D03*
X18500Y134500D02*
D03*
X68000Y156500D02*
D03*
X101500Y95500D02*
D03*
X67500Y96000D02*
D03*
X97500Y54500D02*
D03*
X100000Y74500D02*
D03*
X57500Y42000D02*
D03*
Y67500D02*
D03*
X63000Y36500D02*
D03*
M02*
