G04*
G04 #@! TF.GenerationSoftware,Altium Limited,Altium Designer,23.0.1 (38)*
G04*
G04 Layer_Color=8421504*
%FSLAX25Y25*%
%MOIN*%
G70*
G04*
G04 #@! TF.SameCoordinates,8278F28E-5B15-4BE8-8149-663F5D52C5DE*
G04*
G04*
G04 #@! TF.FilePolarity,Positive*
G04*
G01*
G75*
%ADD16R,0.03543X0.02756*%
%ADD17R,0.03543X0.03937*%
%ADD18R,0.04724X0.02756*%
%ADD19R,0.04724X0.02992*%
%ADD20R,0.04724X0.03150*%
%ADD21R,0.03543X0.01575*%
%ADD22R,0.03543X0.01968*%
%ADD23R,0.03900X0.07900*%
%ADD24R,0.07900X0.03900*%
%ADD25R,0.03900X0.04300*%
%ADD26R,0.03150X0.03543*%
%ADD27R,0.03937X0.03937*%
G04:AMPARAMS|DCode=28|XSize=48.03mil|YSize=23.62mil|CornerRadius=5.91mil|HoleSize=0mil|Usage=FLASHONLY|Rotation=0.000|XOffset=0mil|YOffset=0mil|HoleType=Round|Shape=RoundedRectangle|*
%AMROUNDEDRECTD28*
21,1,0.04803,0.01181,0,0,0.0*
21,1,0.03622,0.02362,0,0,0.0*
1,1,0.01181,0.01811,-0.00591*
1,1,0.01181,-0.01811,-0.00591*
1,1,0.01181,-0.01811,0.00591*
1,1,0.01181,0.01811,0.00591*
%
%ADD28ROUNDEDRECTD28*%
%ADD29R,0.04724X0.03937*%
%ADD30R,0.01575X0.03543*%
%ADD31R,0.03937X0.06102*%
%ADD32R,0.06102X0.03937*%
%ADD33R,0.02559X0.03543*%
%ADD34R,0.04331X0.02362*%
%ADD35R,0.07874X0.12520*%
D16*
X38000Y99260D02*
D03*
Y103000D02*
D03*
Y106740D02*
D03*
X47842D02*
D03*
Y99260D02*
D03*
Y103000D02*
D03*
D17*
X121500Y205059D02*
D03*
Y199941D02*
D03*
D18*
X38961Y41524D02*
D03*
Y45461D02*
D03*
D19*
Y37508D02*
D03*
Y49476D02*
D03*
D20*
Y32665D02*
D03*
Y54319D02*
D03*
D21*
X85331Y107059D02*
D03*
Y104500D02*
D03*
Y101941D02*
D03*
X76669Y107059D02*
D03*
Y104500D02*
D03*
Y101941D02*
D03*
X124000Y100882D02*
D03*
Y106000D02*
D03*
X140000Y170756D02*
D03*
Y165244D02*
D03*
X114500Y169756D02*
D03*
Y164244D02*
D03*
X115500Y151244D02*
D03*
Y156756D02*
D03*
X40500Y166744D02*
D03*
Y172256D02*
D03*
X50500Y169244D02*
D03*
Y174756D02*
D03*
X94000Y101941D02*
D03*
Y107059D02*
D03*
X68000Y101941D02*
D03*
Y107059D02*
D03*
X50000Y49441D02*
D03*
Y54559D02*
D03*
X50500Y42059D02*
D03*
Y36941D02*
D03*
X59000Y54941D02*
D03*
Y60059D02*
D03*
X88000Y60559D02*
D03*
Y55441D02*
D03*
D22*
X90000Y195862D02*
D03*
Y191138D02*
D03*
X131000Y204862D02*
D03*
Y200138D02*
D03*
D23*
X139950Y35360D02*
D03*
X134040D02*
D03*
X128130D02*
D03*
X122220D02*
D03*
X116310D02*
D03*
Y80640D02*
D03*
X122220D02*
D03*
X128130D02*
D03*
X134040D02*
D03*
D24*
X109425Y43225D02*
D03*
Y49135D02*
D03*
Y55045D02*
D03*
Y60955D02*
D03*
Y66865D02*
D03*
Y72775D02*
D03*
D25*
X139950Y82440D02*
D03*
D26*
X142260Y195126D02*
D03*
X149740D02*
D03*
X146000Y203000D02*
D03*
X127500Y177500D02*
D03*
X131240Y169626D02*
D03*
X123760D02*
D03*
X64000Y176000D02*
D03*
X67740Y168126D02*
D03*
X60260D02*
D03*
D27*
X103260Y198232D02*
D03*
X110740D02*
D03*
X107000Y206500D02*
D03*
D28*
X105197Y108000D02*
D03*
Y104260D02*
D03*
Y100520D02*
D03*
X115000D02*
D03*
Y108000D02*
D03*
D29*
X27500Y102126D02*
D03*
Y110000D02*
D03*
X57500Y99063D02*
D03*
Y106937D02*
D03*
D30*
X67256Y145500D02*
D03*
X61744D02*
D03*
X69059Y69500D02*
D03*
X63941D02*
D03*
X85559Y114500D02*
D03*
X80441D02*
D03*
D31*
X97299Y166835D02*
D03*
Y146165D02*
D03*
X84701Y166835D02*
D03*
Y146165D02*
D03*
D32*
X9665Y158299D02*
D03*
X30335D02*
D03*
X9665Y145701D02*
D03*
X30335D02*
D03*
D33*
X35646Y91000D02*
D03*
X41354D02*
D03*
X68646Y36500D02*
D03*
X74354D02*
D03*
D34*
X68264Y61980D02*
D03*
Y58240D02*
D03*
Y54500D02*
D03*
X78500Y58240D02*
D03*
Y54500D02*
D03*
Y61980D02*
D03*
D35*
X59842Y201000D02*
D03*
X40157D02*
D03*
M02*
