M48
;Layer_Color=9474304
;FILE_FORMAT=2:4
INCH,TZ
;TYPE=PLATED
T1F00S00C0.0236
T3F00S00C0.0280
T4F00S00C0.0394
T5F00S00C0.0433
T6F00S00C0.0472
T7F00S00C0.0512
T8F00S00C0.0787
T9F00S00C0.0945
;TYPE=NON_PLATED
T10F00S00C0.1575
%
T01
X9000Y3500
Y4500
X12750Y15100
X13750
X4750Y15400
Y14400
T03
X3050Y3900
X3100Y4900
X5750Y4200
X6300Y3650
X7350Y4850
X9750Y5450
X10000Y6700
Y7450
X8850Y7900
X7900Y7000
X6750Y9600
X10150Y9550
X10909Y8190
X12550Y7000
X13450Y7050
X13250Y10700
X14600Y17000
X10500
X12050Y19200
X8900Y21200
X6800Y15650
X8100Y13600
X3100Y13400
X1850Y13450
X2750Y12000
X3800Y11500
X4850Y9250
X5750Y9150
X5800Y7650
X5750Y6750
X5150Y16300
X10150Y21350
T04
X13000Y1800
X14000
T05
X1450Y8850
Y9850
Y10850
Y11850
T06
X22900Y15000
X24850Y15213
Y19150
X22900Y18937
X7850Y18926
Y19950
Y20974
T07
X9816Y1750
X11784
T08
X32900Y16882
Y18834
X2200Y18132
Y20084
T09
X29889Y13579
X30756Y20548
X17861Y20571
X16994Y13602
T10
X1481Y1181
Y22441
X32977
M30
