G04*
G04 #@! TF.GenerationSoftware,Altium Limited,Altium Designer,23.0.1 (38)*
G04*
G04 Layer_Color=8388736*
%FSLAX25Y25*%
%MOIN*%
G70*
G04*
G04 #@! TF.SameCoordinates,8278F28E-5B15-4BE8-8149-663F5D52C5DE*
G04*
G04*
G04 #@! TF.FilePolarity,Negative*
G04*
G01*
G75*
%ADD16R,0.03543X0.02756*%
%ADD17R,0.03543X0.03937*%
%ADD18R,0.04724X0.02756*%
%ADD19R,0.04724X0.02992*%
%ADD20R,0.04724X0.03150*%
%ADD21R,0.03543X0.01575*%
%ADD23R,0.03900X0.07900*%
%ADD24R,0.07900X0.03900*%
%ADD25R,0.03900X0.04300*%
%ADD36R,0.04343X0.02769*%
%ADD37R,0.03950X0.04343*%
%ADD38R,0.04737X0.04737*%
G04:AMPARAMS|DCode=39|XSize=56.03mil|YSize=31.62mil|CornerRadius=9.91mil|HoleSize=0mil|Usage=FLASHONLY|Rotation=0.000|XOffset=0mil|YOffset=0mil|HoleType=Round|Shape=RoundedRectangle|*
%AMROUNDEDRECTD39*
21,1,0.05603,0.01181,0,0,0.0*
21,1,0.03622,0.03162,0,0,0.0*
1,1,0.01981,0.01811,-0.00591*
1,1,0.01981,-0.01811,-0.00591*
1,1,0.01981,-0.01811,0.00591*
1,1,0.01981,0.01811,0.00591*
%
%ADD39ROUNDEDRECTD39*%
%ADD40R,0.05524X0.04737*%
%ADD41R,0.02375X0.04343*%
%ADD42R,0.04343X0.02375*%
%ADD43R,0.04737X0.06902*%
%ADD44R,0.06902X0.04737*%
%ADD45R,0.03359X0.04343*%
%ADD46R,0.05131X0.03162*%
%ADD47R,0.08674X0.13320*%
%ADD48O,0.07493X0.05131*%
%ADD49C,0.06800*%
%ADD50C,0.12611*%
%ADD51C,0.10737*%
%ADD52C,0.16548*%
%ADD53R,0.07887X0.07887*%
%ADD54C,0.07887*%
%ADD55R,0.07887X0.07887*%
%ADD56O,0.08674X0.07099*%
%ADD57O,0.07887X0.09855*%
%ADD58R,0.07099X0.08674*%
%ADD59O,0.07099X0.08674*%
%ADD60C,0.05524*%
%ADD61C,0.05800*%
D16*
X38000Y99260D02*
D03*
Y103000D02*
D03*
Y106740D02*
D03*
X47842D02*
D03*
Y99260D02*
D03*
Y103000D02*
D03*
D17*
X121500Y205059D02*
D03*
Y199941D02*
D03*
D18*
X38961Y41524D02*
D03*
Y45461D02*
D03*
D19*
Y37508D02*
D03*
Y49476D02*
D03*
D20*
Y32665D02*
D03*
Y54319D02*
D03*
D21*
X85331Y107059D02*
D03*
Y104500D02*
D03*
Y101941D02*
D03*
X76669Y107059D02*
D03*
Y104500D02*
D03*
Y101941D02*
D03*
D23*
X139950Y35360D02*
D03*
X134040D02*
D03*
X128130D02*
D03*
X122220D02*
D03*
X116310D02*
D03*
Y80640D02*
D03*
X122220D02*
D03*
X128130D02*
D03*
X134040D02*
D03*
D24*
X109425Y43225D02*
D03*
Y49135D02*
D03*
Y55045D02*
D03*
Y60955D02*
D03*
Y66865D02*
D03*
Y72775D02*
D03*
D25*
X139950Y82440D02*
D03*
D36*
X90000Y195862D02*
D03*
Y191138D02*
D03*
X131000Y204862D02*
D03*
Y200138D02*
D03*
D37*
X142260Y195126D02*
D03*
X149740D02*
D03*
X146000Y203000D02*
D03*
X127500Y177500D02*
D03*
X131240Y169626D02*
D03*
X123760D02*
D03*
X64000Y176000D02*
D03*
X67740Y168126D02*
D03*
X60260D02*
D03*
D38*
X103260Y198232D02*
D03*
X110740D02*
D03*
X107000Y206500D02*
D03*
D39*
X105197Y108000D02*
D03*
Y104260D02*
D03*
Y100520D02*
D03*
X115000D02*
D03*
Y108000D02*
D03*
D40*
X27500Y102126D02*
D03*
Y110000D02*
D03*
X57500Y99063D02*
D03*
Y106937D02*
D03*
D41*
X67256Y145500D02*
D03*
X61744D02*
D03*
X69059Y69500D02*
D03*
X63941D02*
D03*
X85559Y114500D02*
D03*
X80441D02*
D03*
D42*
X124000Y100882D02*
D03*
Y106000D02*
D03*
X140000Y170756D02*
D03*
Y165244D02*
D03*
X114500Y169756D02*
D03*
Y164244D02*
D03*
X115500Y151244D02*
D03*
Y156756D02*
D03*
X40500Y166744D02*
D03*
Y172256D02*
D03*
X50500Y169244D02*
D03*
Y174756D02*
D03*
X94000Y101941D02*
D03*
Y107059D02*
D03*
X68000Y101941D02*
D03*
Y107059D02*
D03*
X50000Y49441D02*
D03*
Y54559D02*
D03*
X50500Y42059D02*
D03*
Y36941D02*
D03*
X59000Y54941D02*
D03*
Y60059D02*
D03*
X88000Y60559D02*
D03*
Y55441D02*
D03*
D43*
X97299Y166835D02*
D03*
Y146165D02*
D03*
X84701Y166835D02*
D03*
Y146165D02*
D03*
D44*
X9665Y158299D02*
D03*
X30335D02*
D03*
X9665Y145701D02*
D03*
X30335D02*
D03*
D45*
X35646Y91000D02*
D03*
X41354D02*
D03*
X68646Y36500D02*
D03*
X74354D02*
D03*
D46*
X68264Y61980D02*
D03*
Y58240D02*
D03*
Y54500D02*
D03*
X78500Y58240D02*
D03*
Y54500D02*
D03*
Y61980D02*
D03*
D47*
X59842Y201000D02*
D03*
X40157D02*
D03*
D48*
X38961Y60500D02*
D03*
Y26484D02*
D03*
X24000Y60500D02*
D03*
Y26484D02*
D03*
D49*
X14811Y224410D02*
D03*
X329772D02*
D03*
X14811Y11811D02*
D03*
D50*
X22000Y181315D02*
D03*
Y200842D02*
D03*
X329000Y188342D02*
D03*
Y168815D02*
D03*
D51*
X248500Y152130D02*
D03*
Y191500D02*
D03*
X229000Y189370D02*
D03*
Y150000D02*
D03*
D52*
X298894Y135791D02*
D03*
X307555Y205476D02*
D03*
X178606Y205709D02*
D03*
X169945Y136024D02*
D03*
D53*
X78500Y209736D02*
D03*
D54*
Y189264D02*
D03*
Y199500D02*
D03*
D55*
X14500Y118500D02*
D03*
D56*
Y108500D02*
D03*
Y98500D02*
D03*
Y88500D02*
D03*
D57*
X117842Y17500D02*
D03*
X98158D02*
D03*
D58*
X140000Y18000D02*
D03*
D59*
X130000D02*
D03*
D60*
X137500Y151000D02*
D03*
X127500D02*
D03*
X47500Y144000D02*
D03*
Y154000D02*
D03*
X90000Y45000D02*
D03*
Y35000D02*
D03*
D61*
X30500Y39000D02*
D03*
X31000Y49000D02*
D03*
X73500Y48500D02*
D03*
X134500Y70500D02*
D03*
X105000Y170000D02*
D03*
X125500Y70000D02*
D03*
X120500Y192000D02*
D03*
X51500Y163000D02*
D03*
X109095Y81903D02*
D03*
X38000Y115000D02*
D03*
X27500Y120000D02*
D03*
X101500Y213500D02*
D03*
X89000Y212000D02*
D03*
X146000Y170000D02*
D03*
X81000Y136000D02*
D03*
X48500Y92500D02*
D03*
X57500Y91500D02*
D03*
X58000Y76500D02*
D03*
X79000Y70000D02*
D03*
X88500Y79000D02*
D03*
X132500Y107000D02*
D03*
X100000Y67000D02*
D03*
X31000Y134000D02*
D03*
X18500Y134500D02*
D03*
X68000Y156500D02*
D03*
X101500Y95500D02*
D03*
X67500Y96000D02*
D03*
X97500Y54500D02*
D03*
X100000Y74500D02*
D03*
X57500Y42000D02*
D03*
Y67500D02*
D03*
X63000Y36500D02*
D03*
M02*
