G04*
G04 #@! TF.GenerationSoftware,Altium Limited,Altium Designer,23.0.1 (38)*
G04*
G04 Layer_Physical_Order=1*
G04 Layer_Color=255*
%FSLAX25Y25*%
%MOIN*%
G70*
G04*
G04 #@! TF.SameCoordinates,8278F28E-5B15-4BE8-8149-663F5D52C5DE*
G04*
G04*
G04 #@! TF.FilePolarity,Positive*
G04*
G01*
G75*
%ADD10C,0.01000*%
%ADD16R,0.03543X0.02756*%
%ADD17R,0.03543X0.03937*%
%ADD18R,0.04724X0.02756*%
%ADD19R,0.04724X0.02992*%
%ADD20R,0.04724X0.03150*%
%ADD21R,0.03543X0.01575*%
%ADD22R,0.03543X0.01968*%
%ADD23R,0.03900X0.07900*%
%ADD24R,0.07900X0.03900*%
%ADD25R,0.03900X0.04300*%
%ADD26R,0.03150X0.03543*%
%ADD27R,0.03937X0.03937*%
G04:AMPARAMS|DCode=28|XSize=48.03mil|YSize=23.62mil|CornerRadius=5.91mil|HoleSize=0mil|Usage=FLASHONLY|Rotation=0.000|XOffset=0mil|YOffset=0mil|HoleType=Round|Shape=RoundedRectangle|*
%AMROUNDEDRECTD28*
21,1,0.04803,0.01181,0,0,0.0*
21,1,0.03622,0.02362,0,0,0.0*
1,1,0.01181,0.01811,-0.00591*
1,1,0.01181,-0.01811,-0.00591*
1,1,0.01181,-0.01811,0.00591*
1,1,0.01181,0.01811,0.00591*
%
%ADD28ROUNDEDRECTD28*%
%ADD29R,0.04724X0.03937*%
%ADD30R,0.01575X0.03543*%
%ADD31R,0.03937X0.06102*%
%ADD32R,0.06102X0.03937*%
%ADD33R,0.02559X0.03543*%
%ADD34R,0.04331X0.02362*%
%ADD35R,0.07874X0.12520*%
%ADD62C,0.01500*%
%ADD63O,0.06693X0.04331*%
%ADD64C,0.06000*%
%ADD65C,0.11811*%
%ADD66C,0.09937*%
%ADD67C,0.15748*%
%ADD68R,0.07087X0.07087*%
%ADD69C,0.07087*%
%ADD70R,0.07087X0.07087*%
%ADD71O,0.07874X0.06299*%
%ADD72O,0.07087X0.09055*%
%ADD73R,0.06299X0.07874*%
%ADD74O,0.06299X0.07874*%
%ADD75C,0.04724*%
%ADD76C,0.05000*%
G36*
X49000Y190500D02*
X4000D01*
Y223000D01*
X6260D01*
X6482Y221883D01*
X7135Y220307D01*
X8083Y218888D01*
X9290Y217682D01*
X10708Y216734D01*
X12285Y216081D01*
X13958Y215748D01*
X15664D01*
X17337Y216081D01*
X18914Y216734D01*
X20332Y217682D01*
X21539Y218888D01*
X22487Y220307D01*
X23140Y221883D01*
X23362Y223000D01*
X49000D01*
Y190500D01*
D02*
G37*
G36*
X125000Y189348D02*
X124860Y187860D01*
X124500Y187500D01*
X117500D01*
Y201500D01*
X118728D01*
Y200941D01*
X121500D01*
X124272D01*
Y201500D01*
X125000D01*
Y189348D01*
D02*
G37*
G36*
X108000Y202500D02*
X95500D01*
Y193500D01*
X85500D01*
X85000Y194000D01*
Y195500D01*
X72500D01*
Y204000D01*
X84500D01*
Y222000D01*
X108000D01*
Y202500D01*
D02*
G37*
G36*
X152000Y221500D02*
Y215567D01*
X190145Y215996D01*
X190500Y215644D01*
Y192500D01*
X160500D01*
Y198500D01*
X146000D01*
Y200228D01*
X148575D01*
Y202000D01*
X146000D01*
Y203000D01*
X145000D01*
Y205772D01*
X143425D01*
Y203000D01*
X133772D01*
Y203862D01*
X131000D01*
X128228D01*
Y203000D01*
X124272D01*
Y204059D01*
X121500D01*
X118728D01*
Y203000D01*
X116500D01*
Y194500D01*
X109500D01*
Y195264D01*
X109740D01*
Y198232D01*
Y201201D01*
X109500D01*
Y203000D01*
Y203744D01*
X109756D01*
Y209256D01*
X109500D01*
Y221617D01*
X109855Y221968D01*
X152000Y221500D01*
D02*
G37*
G36*
X259000Y164000D02*
X235000D01*
Y152418D01*
X234500Y152318D01*
X234289Y152827D01*
X233636Y153805D01*
X232805Y154636D01*
X231827Y155289D01*
X230741Y155739D01*
X230000Y155886D01*
Y150000D01*
Y144114D01*
X230741Y144261D01*
X231827Y144711D01*
X232805Y145364D01*
X233636Y146195D01*
X234289Y147173D01*
X234500Y147682D01*
X235000Y147582D01*
Y129500D01*
X176624D01*
X176433Y129962D01*
X176838Y130367D01*
X177809Y131820D01*
X178478Y133435D01*
X178794Y135024D01*
X169945D01*
X161096D01*
X161412Y133435D01*
X162081Y131820D01*
X163052Y130367D01*
X163457Y129962D01*
X163266Y129500D01*
X154500D01*
Y177000D01*
X145500D01*
Y197500D01*
X147165D01*
Y196126D01*
X152315D01*
Y197500D01*
X159500D01*
Y188500D01*
X223274D01*
X223636Y187148D01*
X224394Y185836D01*
X225466Y184764D01*
X226778Y184006D01*
X228242Y183614D01*
X229758D01*
X231222Y184006D01*
X232534Y184764D01*
X233606Y185836D01*
X234364Y187148D01*
X234726Y188500D01*
X235000D01*
Y214000D01*
X259000D01*
Y164000D01*
D02*
G37*
G36*
X83500Y214384D02*
X83043Y214280D01*
X83000Y214280D01*
X79500D01*
Y209736D01*
X78500D01*
Y208736D01*
X73957D01*
Y205500D01*
X73957Y205193D01*
X73537Y205000D01*
X71500D01*
Y194000D01*
X76690D01*
X76756Y193500D01*
X76746Y193498D01*
X75710Y192899D01*
X74865Y192053D01*
X74266Y191017D01*
X74064Y190264D01*
X78500D01*
Y189264D01*
X79500D01*
Y184828D01*
X80254Y185030D01*
X81290Y185628D01*
X82135Y186474D01*
X82734Y187510D01*
X83000Y188504D01*
X83500Y188438D01*
Y183500D01*
X51500D01*
X51004Y222644D01*
X51356Y223000D01*
X83500D01*
Y214384D01*
D02*
G37*
G36*
X143638Y200441D02*
X144000D01*
Y175500D01*
X124871D01*
X124535Y175870D01*
X127000Y202000D01*
X143638D01*
Y200441D01*
D02*
G37*
G36*
X106992Y200642D02*
X106500Y180000D01*
X64883Y172569D01*
X64500Y172889D01*
Y182000D01*
X85500D01*
Y192500D01*
X96500D01*
Y201000D01*
X106642D01*
X106992Y200642D01*
D02*
G37*
G36*
X71500Y138500D02*
X65668D01*
X65303Y139000D01*
Y142297D01*
X65469Y142728D01*
X65803Y142728D01*
X66256D01*
Y145500D01*
Y148272D01*
X65469D01*
X65303Y148703D01*
Y149000D01*
X65242Y149307D01*
X65068Y149568D01*
X64807Y149742D01*
X64658Y149771D01*
X64041Y170141D01*
X64389Y170500D01*
X65165D01*
Y169126D01*
X70315D01*
Y170500D01*
X71500D01*
Y138500D01*
D02*
G37*
G36*
X151000Y167000D02*
X133815D01*
Y168626D01*
X131240D01*
Y169626D01*
X130240D01*
Y172398D01*
X129500D01*
Y174500D01*
X151000D01*
Y167000D01*
D02*
G37*
G36*
X62000Y178559D02*
X61638D01*
Y173441D01*
X62000D01*
Y164000D01*
X55500D01*
Y170000D01*
X53059D01*
Y170819D01*
X47941D01*
Y170000D01*
X36500D01*
Y181500D01*
X62000D01*
Y178559D01*
D02*
G37*
G36*
X128500Y154500D02*
X112303D01*
Y166000D01*
X121500D01*
Y172500D01*
X128500D01*
Y154500D01*
D02*
G37*
G36*
X37728Y167650D02*
Y164957D01*
X39500D01*
Y166744D01*
X41500D01*
Y164957D01*
X43272D01*
Y167217D01*
X43628Y167568D01*
X48500Y167500D01*
X49030Y165180D01*
X48869Y165018D01*
X48437Y164269D01*
X48213Y163433D01*
Y162567D01*
X48437Y161731D01*
X48869Y160982D01*
X49481Y160369D01*
X50228Y159938D01*
X52411Y150391D01*
X52099Y150000D01*
X4000D01*
Y167762D01*
X4356Y168113D01*
X37728Y167650D01*
D02*
G37*
G36*
X35500Y128500D02*
X4500D01*
Y149000D01*
X5251D01*
X5614Y148669D01*
X5614Y148500D01*
Y146701D01*
X13716D01*
Y148500D01*
X13716Y148669D01*
X14080Y149000D01*
X25920D01*
X26283Y148669D01*
X26283Y148500D01*
Y146701D01*
X34386D01*
Y148500D01*
X34386Y148669D01*
X34749Y149000D01*
X35500D01*
Y128500D01*
D02*
G37*
G36*
X120500Y167000D02*
X111500D01*
Y139000D01*
X91000D01*
Y175500D01*
X108500D01*
Y181000D01*
X120500D01*
Y167000D01*
D02*
G37*
G36*
X64500Y139000D02*
X37500D01*
Y149000D01*
X64500D01*
Y139000D01*
D02*
G37*
G36*
X89000Y130500D02*
X74000D01*
Y172500D01*
X89000D01*
Y130500D01*
D02*
G37*
G36*
X337000Y121000D02*
X284087D01*
X283504Y178145D01*
X283855Y178500D01*
X337000D01*
Y121000D01*
D02*
G37*
G36*
X109000Y109291D02*
X108506Y109211D01*
X108155Y109737D01*
X107629Y110089D01*
X107008Y110212D01*
X106197D01*
Y108000D01*
X105197D01*
Y107000D01*
X101846D01*
X101525Y106500D01*
X99852D01*
X98365Y107987D01*
X97939Y108272D01*
X97437Y108372D01*
X96772D01*
Y108846D01*
X95000D01*
Y107059D01*
X93000D01*
Y108846D01*
X91500D01*
Y113000D01*
X109000D01*
Y109291D01*
D02*
G37*
G36*
X43000Y106000D02*
X40772D01*
Y109118D01*
X39000D01*
Y106740D01*
X37000D01*
Y109118D01*
X35228D01*
Y106000D01*
X23500D01*
X22500Y107000D01*
Y114000D01*
X20613D01*
X20568Y114068D01*
X20307Y114242D01*
X20000Y114303D01*
X19043D01*
Y117500D01*
X9957D01*
Y114303D01*
X8197D01*
X8000Y114500D01*
Y125500D01*
X43000D01*
Y106000D01*
D02*
G37*
G36*
X138000Y103000D02*
X114138D01*
X113793Y103362D01*
X113914Y105788D01*
X114000D01*
Y108000D01*
X115000D01*
Y109000D01*
X118351D01*
X118309Y109211D01*
X117958Y109737D01*
X117432Y110089D01*
X116811Y110212D01*
X114498D01*
X114154Y110574D01*
X114275Y113000D01*
X138000D01*
Y103000D01*
D02*
G37*
G36*
X112000Y101811D02*
X111891Y101648D01*
X111784Y101110D01*
Y99929D01*
X111891Y99392D01*
X112000Y99228D01*
Y98000D01*
X119500D01*
Y102197D01*
X121228D01*
Y101882D01*
X124000D01*
X126772D01*
Y102197D01*
X128000D01*
Y90500D01*
X91000D01*
Y99748D01*
X91228Y100154D01*
X93000D01*
Y101941D01*
X94000D01*
Y102941D01*
X96772D01*
Y103500D01*
X97500D01*
Y98500D01*
X108500D01*
Y102500D01*
X108500Y102500D01*
X108500D01*
X108474Y103000D01*
X108506Y103049D01*
X108548Y103260D01*
X105197D01*
Y105260D01*
X108548D01*
X108506Y105471D01*
X108487Y105500D01*
X108754Y106000D01*
X112000D01*
Y101811D01*
D02*
G37*
G36*
X142500Y85590D02*
X140950D01*
Y82440D01*
Y79290D01*
X142500D01*
Y73217D01*
X131806Y62523D01*
X114163D01*
Y63628D01*
X114163Y63692D01*
Y64128D01*
X114163Y64192D01*
X114163Y69413D01*
X114375Y69825D01*
X114375Y70014D01*
Y71775D01*
X104475D01*
Y70014D01*
X104475Y69825D01*
X104688Y69413D01*
X104688Y68854D01*
X104334Y68500D01*
X102930D01*
X102631Y69019D01*
X102018Y69631D01*
X101269Y70063D01*
X100433Y70287D01*
X99567D01*
X98731Y70063D01*
X97982Y69631D01*
X97369Y69019D01*
X96937Y68269D01*
X96713Y67433D01*
Y66567D01*
X96937Y65731D01*
X97369Y64982D01*
X97982Y64369D01*
X98731Y63937D01*
X99567Y63713D01*
X100433D01*
X101269Y63937D01*
X102018Y64369D01*
X102631Y64982D01*
X102852Y65365D01*
X104688D01*
Y64192D01*
X104688Y64128D01*
Y63692D01*
X104688Y63628D01*
Y58282D01*
X104688Y58218D01*
Y57782D01*
X104688Y57718D01*
Y52372D01*
X104688Y52308D01*
Y51872D01*
X104688Y51808D01*
X104688Y46587D01*
X104475Y46175D01*
X104475Y45986D01*
Y44225D01*
X114375D01*
Y45986D01*
X114375Y46175D01*
X114163Y46587D01*
X114163Y46675D01*
Y51808D01*
X114163Y51872D01*
Y52308D01*
X114163Y52372D01*
Y57718D01*
X114163Y57782D01*
Y58218D01*
X114163Y58282D01*
Y59387D01*
X132455D01*
X133055Y59507D01*
X133563Y59847D01*
X142038Y68321D01*
X142500Y68130D01*
Y40097D01*
X137213D01*
Y40097D01*
X136777D01*
Y40097D01*
X131303D01*
Y40097D01*
X130867D01*
Y40097D01*
X125393D01*
Y40097D01*
X124957D01*
Y40097D01*
X119483D01*
Y40097D01*
X119047D01*
Y40097D01*
X114802D01*
X114375Y40275D01*
X114375Y40597D01*
Y42225D01*
X110425D01*
Y40275D01*
X113146D01*
X113573Y40097D01*
X113573Y39775D01*
Y39000D01*
X95500D01*
Y51500D01*
X85000D01*
Y53248D01*
X85228Y53654D01*
X87000D01*
Y55441D01*
X88000D01*
Y56441D01*
X90772D01*
Y57000D01*
X95000D01*
X95019Y57400D01*
X95068Y57432D01*
X95242Y57693D01*
X95303Y58000D01*
Y63258D01*
X96500Y88000D01*
X142500D01*
Y85590D01*
D02*
G37*
G36*
X20000Y106000D02*
X21000Y105000D01*
X24138D01*
Y103126D01*
X27500D01*
X30862D01*
Y105000D01*
X35228D01*
Y104000D01*
X38000D01*
Y102000D01*
X35228D01*
Y100622D01*
X35441D01*
Y97095D01*
X39787D01*
Y93559D01*
X39287D01*
Y88441D01*
X40500D01*
Y83500D01*
X8000D01*
Y113500D01*
X20000D01*
Y106000D01*
D02*
G37*
G36*
X65228Y103728D02*
Y102941D01*
X68000D01*
Y101941D01*
X69000D01*
Y100154D01*
X70772D01*
Y100484D01*
X71060Y100542D01*
X71500Y100182D01*
Y91500D01*
Y66932D01*
X71346Y66843D01*
X71108Y66918D01*
X70846Y67131D01*
Y68500D01*
X69059D01*
X67272D01*
Y67000D01*
X67272Y66728D01*
X66866Y66500D01*
X66354D01*
X66000Y66854D01*
Y72500D01*
X45500D01*
Y91500D01*
Y96882D01*
X46843D01*
Y99260D01*
X47842D01*
Y100260D01*
X50614D01*
Y101000D01*
X53000D01*
Y104000D01*
X64841D01*
X65228Y103728D01*
D02*
G37*
G36*
X62000Y62252D02*
X61772Y61847D01*
X60000D01*
Y60059D01*
X59000D01*
Y59059D01*
X56228D01*
Y58303D01*
X53500D01*
Y71000D01*
X62000D01*
Y62252D01*
D02*
G37*
G36*
X94500Y58000D02*
X81453D01*
Y59799D01*
X81665D01*
Y60980D01*
X78500D01*
Y61980D01*
X77500D01*
Y64161D01*
X76303D01*
Y65500D01*
X76242Y65807D01*
X76068Y66068D01*
X75807Y66242D01*
X75500Y66303D01*
X75000D01*
Y88000D01*
X94500D01*
Y58000D01*
D02*
G37*
G36*
X45500Y52500D02*
X42323D01*
Y53319D01*
X38961D01*
X35598D01*
Y53140D01*
X35247Y52808D01*
X35110Y52803D01*
X24500D01*
X24193Y52742D01*
X23932Y52568D01*
X23887Y52500D01*
X15000D01*
Y65500D01*
X45500D01*
Y52500D01*
D02*
G37*
G36*
X35598Y51972D02*
Y50476D01*
X38961D01*
Y48476D01*
X35598D01*
Y47500D01*
X35000D01*
Y39500D01*
X35598D01*
Y38508D01*
X38961D01*
Y36508D01*
X35598D01*
Y36000D01*
X24500D01*
Y52000D01*
X35110D01*
X35598Y51972D01*
D02*
G37*
G36*
X62500Y56500D02*
X65098D01*
Y55500D01*
X68264D01*
Y54500D01*
X69264D01*
Y52319D01*
X70500D01*
Y49879D01*
X70481Y49845D01*
X50635Y30000D01*
X42785D01*
X42323Y30091D01*
Y31665D01*
X38961D01*
Y33665D01*
X42323D01*
Y35240D01*
X42110D01*
Y36084D01*
X47318Y38018D01*
X47728Y37733D01*
Y35154D01*
X49500D01*
Y36941D01*
X50500D01*
Y37941D01*
X53272D01*
Y38728D01*
X50643D01*
X50555Y39220D01*
X54000Y40500D01*
Y51500D01*
X46000D01*
Y57500D01*
X62500D01*
Y56500D01*
D02*
G37*
G36*
X75500Y39059D02*
X72287D01*
Y33941D01*
X75500D01*
Y32500D01*
X59500D01*
Y37729D01*
X61771Y40000D01*
X68000D01*
X71000Y43000D01*
Y49229D01*
X71048Y49278D01*
X71107Y49365D01*
X71176Y49444D01*
X71195Y49477D01*
X71209Y49518D01*
X71223Y49538D01*
X71224Y49545D01*
X71242Y49571D01*
X71262Y49674D01*
X71296Y49774D01*
X71293Y49827D01*
X71303Y49879D01*
Y52319D01*
X71242Y52626D01*
X71216Y52664D01*
Y56272D01*
Y59799D01*
X71429D01*
Y60980D01*
X68264D01*
Y61980D01*
X67264D01*
Y64161D01*
X65509D01*
Y65500D01*
X75500D01*
Y39059D01*
D02*
G37*
%LPC*%
G36*
X124272Y198941D02*
X122500D01*
Y196973D01*
X124272D01*
Y198941D01*
D02*
G37*
G36*
X120500D02*
X118728D01*
Y196973D01*
X120500D01*
Y198941D01*
D02*
G37*
G36*
X179606Y214558D02*
Y206709D01*
X187455D01*
X187139Y208297D01*
X186470Y209912D01*
X185499Y211366D01*
X184263Y212602D01*
X182810Y213573D01*
X181195Y214242D01*
X179606Y214558D01*
D02*
G37*
G36*
X177606D02*
X176018Y214242D01*
X174403Y213573D01*
X172950Y212602D01*
X171713Y211366D01*
X170742Y209912D01*
X170073Y208297D01*
X169757Y206709D01*
X177606D01*
Y214558D01*
D02*
G37*
G36*
X124272Y208028D02*
X122500D01*
Y206059D01*
X124272D01*
Y208028D01*
D02*
G37*
G36*
X120500D02*
X118728D01*
Y206059D01*
X120500D01*
Y208028D01*
D02*
G37*
G36*
X133772Y206846D02*
X132000D01*
Y205862D01*
X133772D01*
Y206846D01*
D02*
G37*
G36*
X130000D02*
X128228D01*
Y205862D01*
X130000D01*
Y206846D01*
D02*
G37*
G36*
X148575Y205772D02*
X147000D01*
Y204000D01*
X148575D01*
Y205772D01*
D02*
G37*
G36*
X113709Y201201D02*
X111740D01*
Y199232D01*
X113709D01*
Y201201D01*
D02*
G37*
G36*
X187455Y204709D02*
X179606D01*
Y196860D01*
X181195Y197176D01*
X182810Y197845D01*
X184263Y198816D01*
X185499Y200052D01*
X186470Y201505D01*
X187139Y203120D01*
X187455Y204709D01*
D02*
G37*
G36*
X177606D02*
X169757D01*
X170073Y203120D01*
X170742Y201505D01*
X171713Y200052D01*
X172950Y198816D01*
X174403Y197845D01*
X176018Y197176D01*
X177606Y196860D01*
Y204709D01*
D02*
G37*
G36*
X113709Y197232D02*
X111740D01*
Y195264D01*
X113709D01*
Y197232D01*
D02*
G37*
G36*
X249500Y197387D02*
Y192500D01*
X254386D01*
X254239Y193241D01*
X253789Y194327D01*
X253136Y195305D01*
X252305Y196136D01*
X251327Y196789D01*
X250241Y197239D01*
X249500Y197387D01*
D02*
G37*
G36*
X247500D02*
X246759Y197239D01*
X245673Y196789D01*
X244695Y196136D01*
X243864Y195305D01*
X243211Y194327D01*
X242761Y193241D01*
X242614Y192500D01*
X247500D01*
Y197387D01*
D02*
G37*
G36*
X152315Y194126D02*
X150740D01*
Y192354D01*
X152315D01*
Y194126D01*
D02*
G37*
G36*
X148740D02*
X147165D01*
Y192354D01*
X148740D01*
Y194126D01*
D02*
G37*
G36*
X254386Y190500D02*
X249500D01*
Y185614D01*
X250241Y185761D01*
X251327Y186211D01*
X252305Y186864D01*
X253136Y187695D01*
X253789Y188673D01*
X254239Y189759D01*
X254386Y190500D01*
D02*
G37*
G36*
X247500D02*
X242614D01*
X242761Y189759D01*
X243211Y188673D01*
X243864Y187695D01*
X244695Y186864D01*
X245673Y186211D01*
X246759Y185761D01*
X247500Y185614D01*
Y190500D01*
D02*
G37*
G36*
X228000Y155886D02*
X227259Y155739D01*
X226173Y155289D01*
X225195Y154636D01*
X224364Y153805D01*
X223711Y152827D01*
X223261Y151741D01*
X223113Y151000D01*
X228000D01*
Y155886D01*
D02*
G37*
G36*
Y149000D02*
X223113D01*
X223261Y148259D01*
X223711Y147173D01*
X224364Y146195D01*
X225195Y145364D01*
X226173Y144711D01*
X227259Y144261D01*
X228000Y144114D01*
Y149000D01*
D02*
G37*
G36*
X170945Y144873D02*
Y137024D01*
X178794D01*
X178478Y138612D01*
X177809Y140227D01*
X176838Y141681D01*
X175602Y142917D01*
X174148Y143888D01*
X172533Y144557D01*
X170945Y144873D01*
D02*
G37*
G36*
X168945D02*
X167356Y144557D01*
X165742Y143888D01*
X164288Y142917D01*
X163052Y141681D01*
X162081Y140227D01*
X161412Y138612D01*
X161096Y137024D01*
X168945D01*
Y144873D01*
D02*
G37*
G36*
X77500Y214280D02*
X73957D01*
Y210736D01*
X77500D01*
Y214280D01*
D02*
G37*
G36*
X64780Y208260D02*
X60843D01*
Y202000D01*
X64780D01*
Y208260D01*
D02*
G37*
G36*
X58842D02*
X54905D01*
Y202000D01*
X58842D01*
Y208260D01*
D02*
G37*
G36*
X64780Y200000D02*
X60843D01*
Y193740D01*
X64780D01*
Y200000D01*
D02*
G37*
G36*
X58842D02*
X54905D01*
Y193740D01*
X58842D01*
Y200000D01*
D02*
G37*
G36*
X77500Y188264D02*
X74064D01*
X74266Y187510D01*
X74865Y186474D01*
X75710Y185628D01*
X76746Y185030D01*
X77500Y184828D01*
Y188264D01*
D02*
G37*
G36*
X70315Y167126D02*
X68740D01*
Y165354D01*
X70315D01*
Y167126D01*
D02*
G37*
G36*
X66740D02*
X65165D01*
Y165354D01*
X66740D01*
Y167126D01*
D02*
G37*
G36*
X68256Y148272D02*
Y146500D01*
X69043D01*
Y148272D01*
X68256D01*
D02*
G37*
G36*
X69043Y144500D02*
X68256D01*
Y142728D01*
X69043D01*
Y144500D01*
D02*
G37*
G36*
X142772Y172543D02*
X141000D01*
Y171756D01*
X142772D01*
Y172543D01*
D02*
G37*
G36*
X139000D02*
X137228D01*
Y171756D01*
X139000D01*
Y172543D01*
D02*
G37*
G36*
X133815Y172398D02*
X132240D01*
Y170626D01*
X133815D01*
Y172398D01*
D02*
G37*
G36*
X142772Y169756D02*
X141000D01*
Y168968D01*
X142772D01*
Y169756D01*
D02*
G37*
G36*
X139000D02*
X137228D01*
Y168968D01*
X139000D01*
Y169756D01*
D02*
G37*
G36*
X34386Y161268D02*
X31335D01*
Y159299D01*
X34386D01*
Y161268D01*
D02*
G37*
G36*
X29335D02*
X26283D01*
Y159299D01*
X29335D01*
Y161268D01*
D02*
G37*
G36*
X13716D02*
X10665D01*
Y159299D01*
X13716D01*
Y161268D01*
D02*
G37*
G36*
X8665D02*
X5614D01*
Y159299D01*
X8665D01*
Y161268D01*
D02*
G37*
G36*
X34386Y157299D02*
X31335D01*
Y155331D01*
X34386D01*
Y157299D01*
D02*
G37*
G36*
X29335D02*
X26283D01*
Y155331D01*
X29335D01*
Y157299D01*
D02*
G37*
G36*
X13716D02*
X10665D01*
Y155331D01*
X13716D01*
Y157299D01*
D02*
G37*
G36*
X8665D02*
X5614D01*
Y155331D01*
X8665D01*
Y157299D01*
D02*
G37*
G36*
X48500Y157213D02*
Y155000D01*
X50713D01*
X50633Y155298D01*
X50190Y156064D01*
X49564Y156690D01*
X48798Y157133D01*
X48500Y157213D01*
D02*
G37*
G36*
X46500Y157213D02*
X46202Y157133D01*
X45436Y156690D01*
X44810Y156064D01*
X44367Y155298D01*
X44287Y155000D01*
X46500D01*
Y157213D01*
D02*
G37*
G36*
X50713Y153000D02*
X48500D01*
Y150787D01*
X48798Y150867D01*
X49564Y151310D01*
X50190Y151936D01*
X50633Y152702D01*
X50713Y153000D01*
D02*
G37*
G36*
X46500D02*
X44287D01*
X44367Y152702D01*
X44810Y151936D01*
X45436Y151310D01*
X46202Y150867D01*
X46500Y150787D01*
Y153000D01*
D02*
G37*
G36*
X34386Y144701D02*
X31335D01*
Y142732D01*
X34386D01*
Y144701D01*
D02*
G37*
G36*
X29335D02*
X26283D01*
Y142732D01*
X29335D01*
Y144701D01*
D02*
G37*
G36*
X13716D02*
X10665D01*
Y142732D01*
X13716D01*
Y144701D01*
D02*
G37*
G36*
X8665D02*
X5614D01*
Y142732D01*
X8665D01*
Y144701D01*
D02*
G37*
G36*
X63532Y148272D02*
X62744D01*
Y146500D01*
X63532D01*
Y148272D01*
D02*
G37*
G36*
X60744D02*
X59957D01*
Y146500D01*
X60744D01*
Y148272D01*
D02*
G37*
G36*
X48500Y147213D02*
Y145000D01*
X50713D01*
X50633Y145298D01*
X50190Y146064D01*
X49564Y146690D01*
X48798Y147133D01*
X48500Y147213D01*
D02*
G37*
G36*
X46500Y147213D02*
X46202Y147133D01*
X45436Y146690D01*
X44810Y146064D01*
X44367Y145298D01*
X44287Y145000D01*
X46500D01*
Y147213D01*
D02*
G37*
G36*
X63532Y144500D02*
X62744D01*
Y142728D01*
X63532D01*
Y144500D01*
D02*
G37*
G36*
X60744D02*
X59957D01*
Y142728D01*
X60744D01*
Y144500D01*
D02*
G37*
G36*
X50713Y143000D02*
X48500D01*
Y140787D01*
X48798Y140867D01*
X49564Y141310D01*
X50190Y141936D01*
X50633Y142702D01*
X50713Y143000D01*
D02*
G37*
G36*
X46500D02*
X44287D01*
X44367Y142702D01*
X44810Y141936D01*
X45436Y141310D01*
X46202Y140867D01*
X46500Y140787D01*
Y143000D01*
D02*
G37*
G36*
X87669Y170886D02*
X85701D01*
Y167835D01*
X87669D01*
Y170886D01*
D02*
G37*
G36*
X83701D02*
X81732D01*
Y167835D01*
X83701D01*
Y170886D01*
D02*
G37*
G36*
X87669Y165835D02*
X85701D01*
Y162784D01*
X87669D01*
Y165835D01*
D02*
G37*
G36*
X83701D02*
X81732D01*
Y162784D01*
X83701D01*
Y165835D01*
D02*
G37*
G36*
X87669Y150216D02*
X85701D01*
Y147165D01*
X87669D01*
Y150216D01*
D02*
G37*
G36*
X83701D02*
X81732D01*
Y147165D01*
X83701D01*
Y150216D01*
D02*
G37*
G36*
X87669Y145165D02*
X85701D01*
Y142114D01*
X87669D01*
Y145165D01*
D02*
G37*
G36*
X83701D02*
X81732D01*
Y142114D01*
X83701D01*
Y145165D01*
D02*
G37*
G36*
X104197Y110212D02*
X103386D01*
X102765Y110089D01*
X102239Y109737D01*
X101888Y109211D01*
X101846Y109000D01*
X104197D01*
Y110212D01*
D02*
G37*
G36*
X19043Y123043D02*
X15500D01*
Y119500D01*
X19043D01*
Y123043D01*
D02*
G37*
G36*
X13500D02*
X9957D01*
Y119500D01*
X13500D01*
Y123043D01*
D02*
G37*
G36*
X30862Y112969D02*
X28500D01*
Y111000D01*
X30862D01*
Y112969D01*
D02*
G37*
G36*
X26500D02*
X24138D01*
Y111000D01*
X26500D01*
Y112969D01*
D02*
G37*
G36*
X30862Y109000D02*
X28500D01*
Y107032D01*
X30862D01*
Y109000D01*
D02*
G37*
G36*
X26500D02*
X24138D01*
Y107032D01*
X26500D01*
Y109000D01*
D02*
G37*
G36*
X126772Y107787D02*
X125000D01*
Y107000D01*
X126772D01*
Y107787D01*
D02*
G37*
G36*
X123000D02*
X121228D01*
Y107000D01*
X123000D01*
Y107787D01*
D02*
G37*
G36*
X118351Y107000D02*
X116000D01*
Y105788D01*
X116811D01*
X117432Y105911D01*
X117958Y106263D01*
X118309Y106789D01*
X118351Y107000D01*
D02*
G37*
G36*
X126772Y105000D02*
X125000D01*
Y104213D01*
X126772D01*
Y105000D01*
D02*
G37*
G36*
X123000D02*
X121228D01*
Y104213D01*
X123000D01*
Y105000D01*
D02*
G37*
G36*
X96772Y100941D02*
X95000D01*
Y100154D01*
X96772D01*
Y100941D01*
D02*
G37*
G36*
X126772Y99882D02*
X125000D01*
Y99094D01*
X126772D01*
Y99882D01*
D02*
G37*
G36*
X123000D02*
X121228D01*
Y99094D01*
X123000D01*
Y99882D01*
D02*
G37*
G36*
X137000Y85590D02*
X136500Y85590D01*
X135040D01*
Y80640D01*
Y75690D01*
X136990D01*
Y78794D01*
X137000Y79290D01*
X137490Y79290D01*
X138950D01*
Y82440D01*
Y85590D01*
X137490D01*
X137000Y85590D01*
D02*
G37*
G36*
X131090D02*
X130590Y85590D01*
X129130D01*
Y80640D01*
Y75690D01*
X130590D01*
X131080Y75690D01*
X131580Y75690D01*
X133040D01*
Y80640D01*
Y85590D01*
X131580D01*
X131090Y85590D01*
D02*
G37*
G36*
X125180D02*
X124680Y85590D01*
X123220D01*
Y80640D01*
Y75690D01*
X124680D01*
X125170Y75690D01*
X125670Y75690D01*
X127130D01*
Y80640D01*
Y85590D01*
X125670D01*
X125180Y85590D01*
D02*
G37*
G36*
X119270D02*
X118858Y85377D01*
X118770Y85377D01*
X113573D01*
Y83471D01*
X111986D01*
X111725Y83922D01*
X111114Y84534D01*
X110364Y84967D01*
X109528Y85191D01*
X108662D01*
X107826Y84967D01*
X107076Y84534D01*
X106464Y83922D01*
X106032Y83172D01*
X105807Y82336D01*
Y81471D01*
X106032Y80634D01*
X106464Y79885D01*
X107076Y79273D01*
X107826Y78840D01*
X108662Y78616D01*
X109528D01*
X110364Y78840D01*
X111114Y79273D01*
X111725Y79885D01*
X111986Y80336D01*
X113573D01*
X113573Y75903D01*
X113146Y75725D01*
X110425D01*
Y73775D01*
X114375D01*
Y75403D01*
X114375Y75725D01*
X114802Y75903D01*
X118858Y75903D01*
X119270Y75690D01*
X119459Y75690D01*
X121220D01*
Y80640D01*
Y85590D01*
X119459D01*
X119270Y85590D01*
D02*
G37*
G36*
X108425Y75725D02*
X104475D01*
Y73775D01*
X108425D01*
Y75725D01*
D02*
G37*
G36*
X90772Y54441D02*
X89000D01*
Y53654D01*
X90772D01*
Y54441D01*
D02*
G37*
G36*
X108425Y42225D02*
X104475D01*
Y40275D01*
X108425D01*
Y42225D01*
D02*
G37*
G36*
X15500Y112657D02*
Y109500D01*
X19341D01*
X19330Y109583D01*
X18912Y110593D01*
X18247Y111460D01*
X17380Y112125D01*
X16371Y112543D01*
X15500Y112657D01*
D02*
G37*
G36*
X13500D02*
X12629Y112543D01*
X11620Y112125D01*
X10753Y111460D01*
X10088Y110593D01*
X9670Y109583D01*
X9659Y109500D01*
X13500D01*
Y112657D01*
D02*
G37*
G36*
X19341Y107500D02*
X15500D01*
Y104343D01*
X16371Y104457D01*
X17380Y104875D01*
X18247Y105541D01*
X18912Y106407D01*
X19330Y107417D01*
X19341Y107500D01*
D02*
G37*
G36*
X13500D02*
X9659D01*
X9670Y107417D01*
X10088Y106407D01*
X10753Y105541D01*
X11620Y104875D01*
X12629Y104457D01*
X13500Y104343D01*
Y107500D01*
D02*
G37*
G36*
X15500Y102657D02*
Y99500D01*
X19341D01*
X19330Y99583D01*
X18912Y100593D01*
X18247Y101460D01*
X17380Y102125D01*
X16371Y102543D01*
X15500Y102657D01*
D02*
G37*
G36*
X13500D02*
X12629Y102543D01*
X11620Y102125D01*
X10753Y101460D01*
X10088Y100593D01*
X9670Y99583D01*
X9659Y99500D01*
X13500D01*
Y102657D01*
D02*
G37*
G36*
X30862Y101126D02*
X28500D01*
Y99158D01*
X30862D01*
Y101126D01*
D02*
G37*
G36*
X26500D02*
X24138D01*
Y99158D01*
X26500D01*
Y101126D01*
D02*
G37*
G36*
X19341Y97500D02*
X15500D01*
Y94343D01*
X16371Y94457D01*
X17380Y94875D01*
X18247Y95540D01*
X18912Y96407D01*
X19330Y97417D01*
X19341Y97500D01*
D02*
G37*
G36*
X13500D02*
X9659D01*
X9670Y97417D01*
X10088Y96407D01*
X10753Y95540D01*
X11620Y94875D01*
X12629Y94457D01*
X13500Y94343D01*
Y97500D01*
D02*
G37*
G36*
X37925Y93772D02*
X36646D01*
Y92000D01*
X37925D01*
Y93772D01*
D02*
G37*
G36*
X34646D02*
X33366D01*
Y92000D01*
X34646D01*
Y93772D01*
D02*
G37*
G36*
X15500Y92657D02*
Y89500D01*
X19341D01*
X19330Y89583D01*
X18912Y90593D01*
X18247Y91460D01*
X17380Y92125D01*
X16371Y92543D01*
X15500Y92657D01*
D02*
G37*
G36*
X13500D02*
X12629Y92543D01*
X11620Y92125D01*
X10753Y91460D01*
X10088Y90593D01*
X9670Y89583D01*
X9659Y89500D01*
X13500D01*
Y92657D01*
D02*
G37*
G36*
X37925Y90000D02*
X36646D01*
Y88228D01*
X37925D01*
Y90000D01*
D02*
G37*
G36*
X34646D02*
X33366D01*
Y88228D01*
X34646D01*
Y90000D01*
D02*
G37*
G36*
X19341Y87500D02*
X15500D01*
Y84343D01*
X16371Y84457D01*
X17380Y84875D01*
X18247Y85540D01*
X18912Y86407D01*
X19330Y87417D01*
X19341Y87500D01*
D02*
G37*
G36*
X13500D02*
X9659D01*
X9670Y87417D01*
X10088Y86407D01*
X10753Y85540D01*
X11620Y84875D01*
X12629Y84457D01*
X13500Y84343D01*
Y87500D01*
D02*
G37*
G36*
X67000Y100941D02*
X65228D01*
Y100154D01*
X67000D01*
Y100941D01*
D02*
G37*
G36*
X60862Y102032D02*
X58500D01*
Y100063D01*
X60862D01*
Y102032D01*
D02*
G37*
G36*
X56500D02*
X54138D01*
Y100063D01*
X56500D01*
Y102032D01*
D02*
G37*
G36*
X50614Y98260D02*
X48842D01*
Y96882D01*
X50614D01*
Y98260D01*
D02*
G37*
G36*
X60862Y98063D02*
X58500D01*
Y96095D01*
X60862D01*
Y98063D01*
D02*
G37*
G36*
X56500D02*
X54138D01*
Y96095D01*
X56500D01*
Y98063D01*
D02*
G37*
G36*
X70846Y72272D02*
X70059D01*
Y70500D01*
X70846D01*
Y72272D01*
D02*
G37*
G36*
X68059D02*
X67272D01*
Y70500D01*
X68059D01*
Y72272D01*
D02*
G37*
G36*
X58000Y61847D02*
X56228D01*
Y61059D01*
X58000D01*
Y61847D01*
D02*
G37*
G36*
X81665Y64161D02*
X79500D01*
Y62980D01*
X81665D01*
Y64161D01*
D02*
G37*
G36*
X90772Y62347D02*
X89000D01*
Y61559D01*
X90772D01*
Y62347D01*
D02*
G37*
G36*
X87000D02*
X85228D01*
Y61559D01*
X87000D01*
Y62347D01*
D02*
G37*
G36*
X90772Y59559D02*
X89000D01*
Y58772D01*
X90772D01*
Y59559D01*
D02*
G37*
G36*
X87000D02*
X85228D01*
Y58772D01*
X87000D01*
Y59559D01*
D02*
G37*
G36*
X40142Y63693D02*
X39961D01*
Y61500D01*
X43154D01*
X42907Y62096D01*
X42399Y62758D01*
X41738Y63265D01*
X40968Y63584D01*
X40142Y63693D01*
D02*
G37*
G36*
X37961D02*
X37780D01*
X36953Y63584D01*
X36183Y63265D01*
X35522Y62758D01*
X35015Y62096D01*
X34768Y61500D01*
X37961D01*
Y63693D01*
D02*
G37*
G36*
X25181D02*
X25000D01*
Y61500D01*
X28193D01*
X27946Y62096D01*
X27439Y62758D01*
X26777Y63265D01*
X26007Y63584D01*
X25181Y63693D01*
D02*
G37*
G36*
X23000D02*
X22819D01*
X21993Y63584D01*
X21223Y63265D01*
X20561Y62758D01*
X20054Y62096D01*
X19807Y61500D01*
X23000D01*
Y63693D01*
D02*
G37*
G36*
X28193Y59500D02*
X25000D01*
Y57307D01*
X25181D01*
X26007Y57416D01*
X26777Y57735D01*
X27439Y58242D01*
X27946Y58904D01*
X28193Y59500D01*
D02*
G37*
G36*
X23000D02*
X19807D01*
X20054Y58904D01*
X20561Y58242D01*
X21223Y57735D01*
X21993Y57416D01*
X22819Y57307D01*
X23000D01*
Y59500D01*
D02*
G37*
G36*
X43154D02*
X34768D01*
X35015Y58904D01*
X35522Y58242D01*
X36183Y57735D01*
X36953Y57416D01*
X37124Y57394D01*
X37091Y56894D01*
X35598D01*
Y55319D01*
X38961D01*
X42323D01*
Y56894D01*
X40830D01*
X40798Y57394D01*
X40968Y57416D01*
X41738Y57735D01*
X42399Y58242D01*
X42907Y58904D01*
X43154Y59500D01*
D02*
G37*
G36*
X61772Y56728D02*
X60000D01*
Y55941D01*
X61772D01*
Y56728D01*
D02*
G37*
G36*
X58000D02*
X56228D01*
Y55941D01*
X58000D01*
Y56728D01*
D02*
G37*
G36*
X52772Y56346D02*
X51000D01*
Y55559D01*
X52772D01*
Y56346D01*
D02*
G37*
G36*
X49000D02*
X47228D01*
Y55559D01*
X49000D01*
Y56346D01*
D02*
G37*
G36*
X61772Y53941D02*
X60000D01*
Y53154D01*
X61772D01*
Y53941D01*
D02*
G37*
G36*
X58000D02*
X56228D01*
Y53154D01*
X58000D01*
Y53941D01*
D02*
G37*
G36*
X52772Y53559D02*
X51000D01*
Y52772D01*
X52772D01*
Y53559D01*
D02*
G37*
G36*
X49000D02*
X47228D01*
Y52772D01*
X49000D01*
Y53559D01*
D02*
G37*
G36*
X67264Y53500D02*
X65098D01*
Y52319D01*
X67264D01*
Y53500D01*
D02*
G37*
G36*
X53272Y35941D02*
X51500D01*
Y35154D01*
X53272D01*
Y35941D01*
D02*
G37*
G36*
X71429Y64161D02*
X69264D01*
Y62980D01*
X71429D01*
Y64161D01*
D02*
G37*
G36*
X70925Y39272D02*
X69646D01*
Y37500D01*
X70925D01*
Y39272D01*
D02*
G37*
G36*
X67646D02*
X66366D01*
Y37500D01*
X67646D01*
Y39272D01*
D02*
G37*
G36*
X70925Y35500D02*
X69646D01*
Y33728D01*
X70925D01*
Y35500D01*
D02*
G37*
G36*
X67646D02*
X66366D01*
Y33728D01*
X67646D01*
Y35500D01*
D02*
G37*
%LPD*%
D10*
X139950Y18050D02*
Y35360D01*
Y18050D02*
X140000Y18000D01*
X130000Y18787D02*
X134040Y22827D01*
X130000Y18000D02*
Y18787D01*
X134040Y22827D02*
Y35360D01*
X117842Y23073D02*
X128130Y33360D01*
X117842Y17500D02*
Y23073D01*
X128130Y33360D02*
Y35360D01*
X97437Y107059D02*
X103976Y100520D01*
X105197D01*
X94000Y107059D02*
X97437D01*
X80441Y106685D02*
Y114500D01*
X78967Y105211D02*
X80441Y106685D01*
X78711Y105211D02*
X78967D01*
X78000Y104500D02*
X78711Y105211D01*
X76898Y104500D02*
X78000D01*
X76839Y104441D02*
X76898Y104500D01*
X68000Y101941D02*
X71219D01*
X73719Y104441D01*
X76839D01*
Y101882D02*
X81582D01*
X91611Y107000D02*
X91670Y107059D01*
X89649Y105038D02*
X91611Y107000D01*
X85500D02*
X91611D01*
X91670Y107059D02*
X94000D01*
X89649Y102114D02*
Y105038D01*
X87629Y100093D02*
X89649Y102114D01*
X83371Y100093D02*
X87629D01*
X81582Y101882D02*
X83371Y100093D01*
X69043Y107000D02*
X76839D01*
X85500Y110259D02*
X85559Y110318D01*
X85500Y107000D02*
Y110259D01*
X85559Y110318D02*
Y114500D01*
D16*
X38000Y99260D02*
D03*
Y103000D02*
D03*
Y106740D02*
D03*
X47842D02*
D03*
Y99260D02*
D03*
Y103000D02*
D03*
D17*
X121500Y205059D02*
D03*
Y199941D02*
D03*
D18*
X38961Y41524D02*
D03*
Y45461D02*
D03*
D19*
Y37508D02*
D03*
Y49476D02*
D03*
D20*
Y32665D02*
D03*
Y54319D02*
D03*
D21*
X85331Y107059D02*
D03*
Y104500D02*
D03*
Y101941D02*
D03*
X76669Y107059D02*
D03*
Y104500D02*
D03*
Y101941D02*
D03*
X124000Y100882D02*
D03*
Y106000D02*
D03*
X140000Y170756D02*
D03*
Y165244D02*
D03*
X114500Y169756D02*
D03*
Y164244D02*
D03*
X115500Y151244D02*
D03*
Y156756D02*
D03*
X40500Y166744D02*
D03*
Y172256D02*
D03*
X50500Y169244D02*
D03*
Y174756D02*
D03*
X94000Y101941D02*
D03*
Y107059D02*
D03*
X68000Y101941D02*
D03*
Y107059D02*
D03*
X50000Y49441D02*
D03*
Y54559D02*
D03*
X50500Y42059D02*
D03*
Y36941D02*
D03*
X59000Y54941D02*
D03*
Y60059D02*
D03*
X88000Y60559D02*
D03*
Y55441D02*
D03*
D22*
X90000Y195862D02*
D03*
Y191138D02*
D03*
X131000Y204862D02*
D03*
Y200138D02*
D03*
D23*
X139950Y35360D02*
D03*
X134040D02*
D03*
X128130D02*
D03*
X122220D02*
D03*
X116310D02*
D03*
Y80640D02*
D03*
X122220D02*
D03*
X128130D02*
D03*
X134040D02*
D03*
D24*
X109425Y43225D02*
D03*
Y49135D02*
D03*
Y55045D02*
D03*
Y60955D02*
D03*
Y66865D02*
D03*
Y72775D02*
D03*
D25*
X139950Y82440D02*
D03*
D26*
X142260Y195126D02*
D03*
X149740D02*
D03*
X146000Y203000D02*
D03*
X127500Y177500D02*
D03*
X131240Y169626D02*
D03*
X123760D02*
D03*
X64000Y176000D02*
D03*
X67740Y168126D02*
D03*
X60260D02*
D03*
D27*
X103260Y198232D02*
D03*
X110740D02*
D03*
X107000Y206500D02*
D03*
D28*
X105197Y108000D02*
D03*
Y104260D02*
D03*
Y100520D02*
D03*
X115000D02*
D03*
Y108000D02*
D03*
D29*
X27500Y102126D02*
D03*
Y110000D02*
D03*
X57500Y99063D02*
D03*
Y106937D02*
D03*
D30*
X67256Y145500D02*
D03*
X61744D02*
D03*
X69059Y69500D02*
D03*
X63941D02*
D03*
X85559Y114500D02*
D03*
X80441D02*
D03*
D31*
X97299Y166835D02*
D03*
Y146165D02*
D03*
X84701Y166835D02*
D03*
Y146165D02*
D03*
D32*
X9665Y158299D02*
D03*
X30335D02*
D03*
X9665Y145701D02*
D03*
X30335D02*
D03*
D33*
X35646Y91000D02*
D03*
X41354D02*
D03*
X68646Y36500D02*
D03*
X74354D02*
D03*
D34*
X68264Y61980D02*
D03*
Y58240D02*
D03*
Y54500D02*
D03*
X78500Y58240D02*
D03*
Y54500D02*
D03*
Y61980D02*
D03*
D35*
X59842Y201000D02*
D03*
X40157D02*
D03*
D62*
X115500Y144000D02*
X144500Y115000D01*
X132455Y60955D02*
X144500Y73000D01*
Y115000D01*
X109425Y60955D02*
X132455D01*
X115500Y144000D02*
Y151244D01*
X109095Y81903D02*
X115110D01*
X116310Y80640D02*
Y80703D01*
X115110Y81903D02*
X116310Y80703D01*
X100067Y66932D02*
X109358D01*
X109425Y66865D01*
X100000Y67000D02*
X100067Y66932D01*
X129520Y18480D02*
X130000Y18000D01*
X50963Y169244D02*
X51000Y169207D01*
X50500Y169244D02*
X50963D01*
X51000Y163500D02*
Y169207D01*
Y163500D02*
X51500Y163000D01*
X137500Y151000D02*
X140000Y153500D01*
Y165244D01*
X74884Y35617D02*
X89383D01*
X74354Y36147D02*
X74884Y35617D01*
X74354Y36147D02*
Y36500D01*
X89383Y35617D02*
X90000Y35000D01*
X68984Y107059D02*
X69043Y107000D01*
X68000Y107059D02*
X68984D01*
X45872Y102372D02*
X47215D01*
X41354Y91000D02*
Y97854D01*
X47215Y102372D02*
X47842Y103000D01*
X41354Y97854D02*
X45872Y102372D01*
X57402Y106839D02*
X57500Y106937D01*
X47842Y106740D02*
X47941Y106839D01*
X57402D01*
X57500Y106937D02*
X66894D01*
X67016Y107059D01*
X68000D01*
X103976Y108000D02*
X105197D01*
X39014Y42045D02*
X50486D01*
X39000Y42031D02*
X39014Y42045D01*
X50486D02*
X50500Y42059D01*
X39000Y45968D02*
X45543D01*
X49016Y49441D01*
X50000D01*
X66329Y58671D02*
X67833D01*
X63941Y61059D02*
X66329Y58671D01*
X63941Y61059D02*
Y69500D01*
X67833Y58671D02*
X68264Y58240D01*
X88367Y45617D02*
X89383D01*
X90000Y45000D01*
X78500Y54500D02*
X79484D01*
X88367Y45617D01*
D63*
X38961Y60500D02*
D03*
Y26484D02*
D03*
X24000Y60500D02*
D03*
Y26484D02*
D03*
D64*
X14811Y224410D02*
D03*
X329772D02*
D03*
X14811Y11811D02*
D03*
D65*
X22000Y181315D02*
D03*
Y200842D02*
D03*
X329000Y188342D02*
D03*
Y168815D02*
D03*
D66*
X248500Y152130D02*
D03*
Y191500D02*
D03*
X229000Y189370D02*
D03*
Y150000D02*
D03*
D67*
X298894Y135791D02*
D03*
X307555Y205476D02*
D03*
X178606Y205709D02*
D03*
X169945Y136024D02*
D03*
D68*
X78500Y209736D02*
D03*
D69*
Y189264D02*
D03*
Y199500D02*
D03*
D70*
X14500Y118500D02*
D03*
D71*
Y108500D02*
D03*
Y98500D02*
D03*
Y88500D02*
D03*
D72*
X117842Y17500D02*
D03*
X98158D02*
D03*
D73*
X140000Y18000D02*
D03*
D74*
X130000D02*
D03*
D75*
X137500Y151000D02*
D03*
X127500D02*
D03*
X47500Y144000D02*
D03*
Y154000D02*
D03*
X90000Y45000D02*
D03*
Y35000D02*
D03*
D76*
X30500Y39000D02*
D03*
X31000Y49000D02*
D03*
X73500Y48500D02*
D03*
X134500Y70500D02*
D03*
X105000Y170000D02*
D03*
X125500Y70000D02*
D03*
X120500Y192000D02*
D03*
X51500Y163000D02*
D03*
X109095Y81903D02*
D03*
X38000Y115000D02*
D03*
X27500Y120000D02*
D03*
X101500Y213500D02*
D03*
X89000Y212000D02*
D03*
X146000Y170000D02*
D03*
X81000Y136000D02*
D03*
X48500Y92500D02*
D03*
X57500Y91500D02*
D03*
X58000Y76500D02*
D03*
X79000Y70000D02*
D03*
X88500Y79000D02*
D03*
X132500Y107000D02*
D03*
X100000Y67000D02*
D03*
X31000Y134000D02*
D03*
X18500Y134500D02*
D03*
X68000Y156500D02*
D03*
X101500Y95500D02*
D03*
X67500Y96000D02*
D03*
X97500Y54500D02*
D03*
X100000Y74500D02*
D03*
X57500Y42000D02*
D03*
Y67500D02*
D03*
X63000Y36500D02*
D03*
M02*
