G04*
G04 #@! TF.GenerationSoftware,Altium Limited,Altium Designer,23.0.1 (38)*
G04*
G04 Layer_Color=2752767*
%FSLAX25Y25*%
%MOIN*%
G70*
G04*
G04 #@! TF.SameCoordinates,8278F28E-5B15-4BE8-8149-663F5D52C5DE*
G04*
G04*
G04 #@! TF.FilePolarity,Positive*
G04*
G01*
G75*
%ADD13C,0.00500*%
%ADD81C,0.00667*%
%ADD82C,0.00400*%
D13*
X36961Y58500D02*
Y62500D01*
X40961D01*
Y58500D01*
X36961D01*
Y24484D02*
Y28484D01*
X40961D01*
Y24484D01*
X36961D01*
X22000Y58500D02*
Y62500D01*
X26000D01*
Y58500D01*
X22000D01*
Y24484D02*
Y28484D01*
X26000D01*
Y24484D01*
X22000D01*
X21000Y180315D02*
Y179315D01*
X23000D01*
Y180315D01*
X24000D01*
Y182315D01*
X23000D01*
Y183315D01*
X21000D01*
Y182315D01*
X20000D01*
Y180315D01*
X21000D01*
Y199843D02*
Y198843D01*
X23000D01*
Y199843D01*
X24000D01*
Y201842D01*
X23000D01*
Y202842D01*
X21000D01*
Y201842D01*
X20000D01*
Y199843D01*
X21000D01*
X248500Y150130D02*
X246500Y154130D01*
X250500D01*
X248500Y150130D01*
Y189500D02*
X246500Y193500D01*
X250500D01*
X248500Y189500D01*
X229000Y187370D02*
X227000Y191370D01*
X231000D01*
X229000Y187370D01*
Y148000D02*
X227000Y152000D01*
X231000D01*
X229000Y148000D01*
X78500Y207736D02*
X76500Y211736D01*
X80500D01*
X78500Y207736D01*
Y187264D02*
X76500Y191264D01*
X80500D01*
X78500Y187264D01*
Y197500D02*
X76500Y201500D01*
X80500D01*
X78500Y197500D01*
X12500Y116500D02*
X13500D01*
X14500Y117500D01*
X15500Y116500D01*
X16500D01*
Y117500D01*
X15500Y118500D01*
X16500Y119500D01*
Y120500D01*
X15500D01*
X14500Y119500D01*
X13500Y120500D01*
X12500D01*
Y119500D01*
X13500Y118500D01*
X12500Y117500D01*
Y116500D01*
Y106500D02*
X13500D01*
X14500Y107500D01*
X15500Y106500D01*
X16500D01*
Y107500D01*
X15500Y108500D01*
X16500Y109500D01*
Y110500D01*
X15500D01*
X14500Y109500D01*
X13500Y110500D01*
X12500D01*
Y109500D01*
X13500Y108500D01*
X12500Y107500D01*
Y106500D01*
Y96500D02*
X13500D01*
X14500Y97500D01*
X15500Y96500D01*
X16500D01*
Y97500D01*
X15500Y98500D01*
X16500Y99500D01*
Y100500D01*
X15500D01*
X14500Y99500D01*
X13500Y100500D01*
X12500D01*
Y99500D01*
X13500Y98500D01*
X12500Y97500D01*
Y96500D01*
Y86500D02*
X13500D01*
X14500Y87500D01*
X15500Y86500D01*
X16500D01*
Y87500D01*
X15500Y88500D01*
X16500Y89500D01*
Y90500D01*
X15500D01*
X14500Y89500D01*
X13500Y90500D01*
X12500D01*
Y89500D01*
X13500Y88500D01*
X12500Y87500D01*
Y86500D01*
X115842Y17500D02*
X117842Y19500D01*
X119843Y17500D01*
X117842Y15500D01*
X115842Y17500D01*
X96157D02*
X98158Y19500D01*
X100157Y17500D01*
X98158Y15500D01*
X96157Y17500D01*
X138000Y16000D02*
X139000Y18000D01*
X138000Y20000D01*
X140000Y19000D01*
X142000Y20000D01*
X141000Y18000D01*
X142000Y16000D01*
X140000Y17000D01*
X138000Y16000D01*
X128000D02*
X129000Y18000D01*
X128000Y20000D01*
X130000Y19000D01*
X132000Y20000D01*
X131000Y18000D01*
X132000Y16000D01*
X130000Y17000D01*
X128000Y16000D01*
X137500Y149000D02*
X138500Y150000D01*
X139500D01*
X138500Y151000D01*
X139500Y152000D01*
X138500D01*
X137500Y153000D01*
X136500Y152000D01*
X135500D01*
X136500Y151000D01*
X135500Y150000D01*
X136500D01*
X137500Y149000D01*
X127500D02*
X128500Y150000D01*
X129500D01*
X128500Y151000D01*
X129500Y152000D01*
X128500D01*
X127500Y153000D01*
X126500Y152000D01*
X125500D01*
X126500Y151000D01*
X125500Y150000D01*
X126500D01*
X127500Y149000D01*
X47500Y142000D02*
X48500Y143000D01*
X49500D01*
X48500Y144000D01*
X49500Y145000D01*
X48500D01*
X47500Y146000D01*
X46500Y145000D01*
X45500D01*
X46500Y144000D01*
X45500Y143000D01*
X46500D01*
X47500Y142000D01*
Y152000D02*
X48500Y153000D01*
X49500D01*
X48500Y154000D01*
X49500Y155000D01*
X48500D01*
X47500Y156000D01*
X46500Y155000D01*
X45500D01*
X46500Y154000D01*
X45500Y153000D01*
X46500D01*
X47500Y152000D01*
X90000Y43000D02*
X91000Y44000D01*
X92000D01*
X91000Y45000D01*
X92000Y46000D01*
X91000D01*
X90000Y47000D01*
X89000Y46000D01*
X88000D01*
X89000Y45000D01*
X88000Y44000D01*
X89000D01*
X90000Y43000D01*
Y33000D02*
X91000Y34000D01*
X92000D01*
X91000Y35000D01*
X92000Y36000D01*
X91000D01*
X90000Y37000D01*
X89000Y36000D01*
X88000D01*
X89000Y35000D01*
X88000Y34000D01*
X89000D01*
X90000Y33000D01*
X328000Y187343D02*
Y186343D01*
X330000D01*
Y187343D01*
X331000D01*
Y189342D01*
X330000D01*
Y190342D01*
X328000D01*
Y189342D01*
X327000D01*
Y187343D01*
X328000D01*
Y167815D02*
Y166815D01*
X330000D01*
Y167815D01*
X331000D01*
Y169815D01*
X330000D01*
Y170815D01*
X328000D01*
Y169815D01*
X327000D01*
Y167815D01*
X328000D01*
X28500Y37000D02*
Y41000D01*
X32500D01*
Y37000D01*
X28500D01*
X29300Y37800D02*
Y40200D01*
X31700D01*
Y37800D01*
X29300D01*
X29000Y47000D02*
Y51000D01*
X33000D01*
Y47000D01*
X29000D01*
X29800Y47800D02*
Y50200D01*
X32200D01*
Y47800D01*
X29800D01*
X71500Y46500D02*
Y50500D01*
X75500D01*
Y46500D01*
X71500D01*
X72300Y47300D02*
Y49700D01*
X74700D01*
Y47300D01*
X72300D01*
X132500Y68500D02*
Y72500D01*
X136500D01*
Y68500D01*
X132500D01*
X133300Y69300D02*
Y71700D01*
X135700D01*
Y69300D01*
X133300D01*
X103000Y168000D02*
Y172000D01*
X107000D01*
Y168000D01*
X103000D01*
X103800Y168800D02*
Y171200D01*
X106200D01*
Y168800D01*
X103800D01*
X123500Y68000D02*
Y72000D01*
X127500D01*
Y68000D01*
X123500D01*
X124300Y68800D02*
Y71200D01*
X126700D01*
Y68800D01*
X124300D01*
X118500Y190000D02*
Y194000D01*
X122500D01*
Y190000D01*
X118500D01*
X119300Y190800D02*
Y193200D01*
X121700D01*
Y190800D01*
X119300D01*
X49500Y161000D02*
Y165000D01*
X53500D01*
Y161000D01*
X49500D01*
X50300Y161800D02*
Y164200D01*
X52700D01*
Y161800D01*
X50300D01*
X107095Y79903D02*
Y83903D01*
X111095D01*
Y79903D01*
X107095D01*
X107895Y80703D02*
Y83103D01*
X110295D01*
Y80703D01*
X107895D01*
X36000Y113000D02*
Y117000D01*
X40000D01*
Y113000D01*
X36000D01*
X36800Y113800D02*
Y116200D01*
X39200D01*
Y113800D01*
X36800D01*
X25500Y118000D02*
Y122000D01*
X29500D01*
Y118000D01*
X25500D01*
X26300Y118800D02*
Y121200D01*
X28700D01*
Y118800D01*
X26300D01*
X99500Y211500D02*
Y215500D01*
X103500D01*
Y211500D01*
X99500D01*
X100300Y212300D02*
Y214700D01*
X102700D01*
Y212300D01*
X100300D01*
X87000Y210000D02*
Y214000D01*
X91000D01*
Y210000D01*
X87000D01*
X87800Y210800D02*
Y213200D01*
X90200D01*
Y210800D01*
X87800D01*
X144000Y168000D02*
Y172000D01*
X148000D01*
Y168000D01*
X144000D01*
X144800Y168800D02*
Y171200D01*
X147200D01*
Y168800D01*
X144800D01*
X79000Y134000D02*
Y138000D01*
X83000D01*
Y134000D01*
X79000D01*
X79800Y134800D02*
Y137200D01*
X82200D01*
Y134800D01*
X79800D01*
X46500Y90500D02*
Y94500D01*
X50500D01*
Y90500D01*
X46500D01*
X47300Y91300D02*
Y93700D01*
X49700D01*
Y91300D01*
X47300D01*
X55500Y89500D02*
Y93500D01*
X59500D01*
Y89500D01*
X55500D01*
X56300Y90300D02*
Y92700D01*
X58700D01*
Y90300D01*
X56300D01*
X56000Y74500D02*
Y78500D01*
X60000D01*
Y74500D01*
X56000D01*
X56800Y75300D02*
Y77700D01*
X59200D01*
Y75300D01*
X56800D01*
X77000Y68000D02*
Y72000D01*
X81000D01*
Y68000D01*
X77000D01*
X77800Y68800D02*
Y71200D01*
X80200D01*
Y68800D01*
X77800D01*
X86500Y77000D02*
Y81000D01*
X90500D01*
Y77000D01*
X86500D01*
X87300Y77800D02*
Y80200D01*
X89700D01*
Y77800D01*
X87300D01*
X130500Y105000D02*
Y109000D01*
X134500D01*
Y105000D01*
X130500D01*
X131300Y105800D02*
Y108200D01*
X133700D01*
Y105800D01*
X131300D01*
X98000Y65000D02*
Y69000D01*
X102000D01*
Y65000D01*
X98000D01*
X98800Y65800D02*
Y68200D01*
X101200D01*
Y65800D01*
X98800D01*
X29000Y132000D02*
Y136000D01*
X33000D01*
Y132000D01*
X29000D01*
X29800Y132800D02*
Y135200D01*
X32200D01*
Y132800D01*
X29800D01*
X16500Y132500D02*
Y136500D01*
X20500D01*
Y132500D01*
X16500D01*
X17300Y133300D02*
Y135700D01*
X19700D01*
Y133300D01*
X17300D01*
X66000Y154500D02*
Y158500D01*
X70000D01*
Y154500D01*
X66000D01*
X66800Y155300D02*
Y157700D01*
X69200D01*
Y155300D01*
X66800D01*
X99500Y93500D02*
Y97500D01*
X103500D01*
Y93500D01*
X99500D01*
X100300Y94300D02*
Y96700D01*
X102700D01*
Y94300D01*
X100300D01*
X65500Y94000D02*
Y98000D01*
X69500D01*
Y94000D01*
X65500D01*
X66300Y94800D02*
Y97200D01*
X68700D01*
Y94800D01*
X66300D01*
X95500Y52500D02*
Y56500D01*
X99500D01*
Y52500D01*
X95500D01*
X96300Y53300D02*
Y55700D01*
X98700D01*
Y53300D01*
X96300D01*
X98000Y72500D02*
Y76500D01*
X102000D01*
Y72500D01*
X98000D01*
X98800Y73300D02*
Y75700D01*
X101200D01*
Y73300D01*
X98800D01*
X55500Y40000D02*
Y44000D01*
X59500D01*
Y40000D01*
X55500D01*
X56300Y40800D02*
Y43200D01*
X58700D01*
Y40800D01*
X56300D01*
X55500Y65500D02*
Y69500D01*
X59500D01*
Y65500D01*
X55500D01*
X56300Y66300D02*
Y68700D01*
X58700D01*
Y66300D01*
X56300D01*
X61000Y34500D02*
Y38500D01*
X65000D01*
Y34500D01*
X61000D01*
X61800Y35300D02*
Y37700D01*
X64200D01*
Y35300D01*
X61800D01*
D81*
X16811Y224410D02*
G03*
X16811Y224410I-2000J0D01*
G01*
X331772D02*
G03*
X331772Y224410I-2000J0D01*
G01*
X16811Y11811D02*
G03*
X16811Y11811I-2000J0D01*
G01*
X300894Y135791D02*
G03*
X300894Y135791I-2000J0D01*
G01*
X309555Y205476D02*
G03*
X309555Y205476I-2000J0D01*
G01*
X180606Y205709D02*
G03*
X180606Y205709I-2000J0D01*
G01*
X171945Y136024D02*
G03*
X171945Y136024I-2000J0D01*
G01*
D82*
X16011Y224410D02*
G03*
X16011Y224410I-1200J0D01*
G01*
X330972D02*
G03*
X330972Y224410I-1200J0D01*
G01*
X16011Y11811D02*
G03*
X16011Y11811I-1200J0D01*
G01*
M02*
