G04*
G04 #@! TF.GenerationSoftware,Altium Limited,Altium Designer,23.0.1 (38)*
G04*
G04 Layer_Physical_Order=4*
G04 Layer_Color=16711680*
%FSLAX25Y25*%
%MOIN*%
G70*
G04*
G04 #@! TF.SameCoordinates,8278F28E-5B15-4BE8-8149-663F5D52C5DE*
G04*
G04*
G04 #@! TF.FilePolarity,Positive*
G04*
G01*
G75*
%ADD62C,0.01500*%
%ADD63O,0.06693X0.04331*%
%ADD64C,0.06000*%
%ADD65C,0.11811*%
%ADD66C,0.09937*%
%ADD67C,0.15748*%
%ADD68R,0.07087X0.07087*%
%ADD69C,0.07087*%
%ADD70R,0.07087X0.07087*%
%ADD71O,0.07874X0.06299*%
%ADD72O,0.07087X0.09055*%
%ADD73R,0.06299X0.07874*%
%ADD74O,0.06299X0.07874*%
%ADD75C,0.04724*%
%ADD76C,0.05000*%
%ADD77C,0.09843*%
G36*
X321443Y221883D02*
X322096Y220307D01*
X323044Y218888D01*
X324250Y217682D01*
X325669Y216734D01*
X327245Y216081D01*
X328919Y215748D01*
X330625D01*
X332298Y216081D01*
X333874Y216734D01*
X335293Y217682D01*
X336499Y218888D01*
X337447Y220307D01*
X337510Y220457D01*
X338000Y220360D01*
Y118203D01*
X263042Y117979D01*
X70000Y120500D01*
X69326Y127695D01*
X66958Y152951D01*
X67340Y153273D01*
X67567Y153213D01*
X68433D01*
X69269Y153437D01*
X70019Y153869D01*
X70631Y154481D01*
X71063Y155231D01*
X71287Y156067D01*
Y156933D01*
X71063Y157769D01*
X70631Y158519D01*
X70019Y159131D01*
X69269Y159563D01*
X68433Y159787D01*
X67567D01*
X66838Y159592D01*
X66314Y159825D01*
X60427Y222630D01*
X60763Y223000D01*
X321221D01*
X321443Y221883D01*
D02*
G37*
G36*
X100000Y85268D02*
Y77787D01*
X99567D01*
X98731Y77563D01*
X97982Y77131D01*
X97369Y76518D01*
X96937Y75769D01*
X96713Y74933D01*
Y74067D01*
X96937Y73231D01*
X97369Y72482D01*
X97982Y71869D01*
X98731Y71437D01*
X99567Y71213D01*
X100000D01*
Y70287D01*
X99567D01*
X98731Y70063D01*
X97982Y69631D01*
X97369Y69019D01*
X96937Y68269D01*
X96713Y67433D01*
Y66567D01*
X96937Y65731D01*
X97369Y64982D01*
X97982Y64369D01*
X98731Y63937D01*
X99567Y63713D01*
X100000D01*
Y57302D01*
X99766Y57205D01*
X99500Y57141D01*
X98769Y57563D01*
X97933Y57787D01*
X97067D01*
X96231Y57563D01*
X95481Y57131D01*
X94869Y56519D01*
X94437Y55769D01*
X94213Y54933D01*
Y54067D01*
X94258Y53897D01*
X93954Y53500D01*
X5500D01*
Y128000D01*
X57268D01*
X100000Y85268D01*
D02*
G37*
%LPC*%
G36*
X82831Y214067D02*
X74169D01*
Y205405D01*
X82831D01*
Y214067D01*
D02*
G37*
G36*
X179459Y214370D02*
X177753D01*
X176080Y214037D01*
X174504Y213384D01*
X173085Y212436D01*
X171879Y211230D01*
X170931Y209811D01*
X170278Y208235D01*
X169945Y206562D01*
Y204856D01*
X170278Y203182D01*
X170931Y201606D01*
X171879Y200187D01*
X173085Y198981D01*
X174504Y198033D01*
X176080Y197380D01*
X177753Y197047D01*
X179459D01*
X181133Y197380D01*
X182709Y198033D01*
X184128Y198981D01*
X185334Y200187D01*
X186282Y201606D01*
X186935Y203182D01*
X187268Y204856D01*
Y206562D01*
X186935Y208235D01*
X186282Y209811D01*
X185334Y211230D01*
X184128Y212436D01*
X182709Y213384D01*
X181133Y214037D01*
X179459Y214370D01*
D02*
G37*
G36*
X120933Y195287D02*
X120067D01*
X119231Y195063D01*
X118482Y194631D01*
X117869Y194018D01*
X117437Y193269D01*
X117213Y192433D01*
Y191567D01*
X117437Y190731D01*
X117869Y189981D01*
X118482Y189369D01*
X119231Y188937D01*
X120067Y188713D01*
X120933D01*
X121769Y188937D01*
X122519Y189369D01*
X123131Y189981D01*
X123563Y190731D01*
X123787Y191567D01*
Y192433D01*
X123563Y193269D01*
X123131Y194018D01*
X122519Y194631D01*
X121769Y195063D01*
X120933Y195287D01*
D02*
G37*
G36*
X249258Y197256D02*
X247742D01*
X246278Y196864D01*
X244966Y196106D01*
X243894Y195034D01*
X243136Y193722D01*
X242744Y192258D01*
Y190742D01*
X243136Y189278D01*
X243894Y187966D01*
X244966Y186894D01*
X246278Y186136D01*
X247742Y185744D01*
X249258D01*
X250722Y186136D01*
X252034Y186894D01*
X253106Y187966D01*
X253864Y189278D01*
X254256Y190742D01*
Y192258D01*
X253864Y193722D01*
X253106Y195034D01*
X252034Y196106D01*
X250722Y196864D01*
X249258Y197256D01*
D02*
G37*
G36*
X79070Y193595D02*
X77930D01*
X76828Y193299D01*
X75841Y192729D01*
X75035Y191923D01*
X74464Y190935D01*
X74169Y189834D01*
Y188694D01*
X74464Y187592D01*
X75035Y186605D01*
X75841Y185798D01*
X76828Y185228D01*
X77930Y184933D01*
X79070D01*
X80172Y185228D01*
X81159Y185798D01*
X81965Y186605D01*
X82536Y187592D01*
X82831Y188694D01*
Y189834D01*
X82536Y190935D01*
X81965Y191923D01*
X81159Y192729D01*
X80172Y193299D01*
X79070Y193595D01*
D02*
G37*
G36*
X229758Y195126D02*
X228242D01*
X226778Y194734D01*
X225466Y193976D01*
X224394Y192904D01*
X223636Y191592D01*
X223244Y190128D01*
Y188612D01*
X223636Y187148D01*
X224394Y185836D01*
X225466Y184764D01*
X226778Y184006D01*
X228242Y183614D01*
X229758D01*
X231222Y184006D01*
X232534Y184764D01*
X233606Y185836D01*
X234364Y187148D01*
X234756Y188612D01*
Y190128D01*
X234364Y191592D01*
X233606Y192904D01*
X232534Y193976D01*
X231222Y194734D01*
X229758Y195126D01*
D02*
G37*
G36*
X329659Y195035D02*
X328341D01*
X327048Y194778D01*
X325830Y194274D01*
X324733Y193541D01*
X323801Y192609D01*
X323069Y191513D01*
X322564Y190295D01*
X322307Y189002D01*
Y187683D01*
X322564Y186390D01*
X323069Y185172D01*
X323801Y184076D01*
X324733Y183144D01*
X325830Y182411D01*
X327048Y181907D01*
X328341Y181650D01*
X329659D01*
X330952Y181907D01*
X332170Y182411D01*
X333266Y183144D01*
X334199Y184076D01*
X334931Y185172D01*
X335436Y186390D01*
X335693Y187683D01*
Y189002D01*
X335436Y190295D01*
X334931Y191513D01*
X334199Y192609D01*
X333266Y193541D01*
X332170Y194274D01*
X330952Y194778D01*
X329659Y195035D01*
D02*
G37*
G36*
X146433Y173287D02*
X145567D01*
X144731Y173063D01*
X143982Y172631D01*
X143369Y172019D01*
X142937Y171269D01*
X142713Y170433D01*
Y169567D01*
X142937Y168731D01*
X143369Y167982D01*
X143982Y167369D01*
X144731Y166937D01*
X145567Y166713D01*
X146433D01*
X147269Y166937D01*
X148019Y167369D01*
X148631Y167982D01*
X149063Y168731D01*
X149287Y169567D01*
Y170433D01*
X149063Y171269D01*
X148631Y172019D01*
X148019Y172631D01*
X147269Y173063D01*
X146433Y173287D01*
D02*
G37*
G36*
X105433D02*
X104567D01*
X103731Y173063D01*
X102981Y172631D01*
X102369Y172019D01*
X101937Y171269D01*
X101713Y170433D01*
Y169567D01*
X101937Y168731D01*
X102369Y167982D01*
X102981Y167369D01*
X103731Y166937D01*
X104567Y166713D01*
X105433D01*
X106269Y166937D01*
X107018Y167369D01*
X107631Y167982D01*
X108063Y168731D01*
X108287Y169567D01*
Y170433D01*
X108063Y171269D01*
X107631Y172019D01*
X107018Y172631D01*
X106269Y173063D01*
X105433Y173287D01*
D02*
G37*
G36*
X329659Y175508D02*
X328341D01*
X327048Y175251D01*
X325830Y174746D01*
X324733Y174014D01*
X323801Y173081D01*
X323069Y171985D01*
X322564Y170767D01*
X322307Y169474D01*
Y168156D01*
X322564Y166863D01*
X323069Y165645D01*
X323801Y164549D01*
X324733Y163616D01*
X325830Y162884D01*
X327048Y162379D01*
X328341Y162122D01*
X329659D01*
X330952Y162379D01*
X332170Y162884D01*
X333266Y163616D01*
X334199Y164549D01*
X334931Y165645D01*
X335436Y166863D01*
X335693Y168156D01*
Y169474D01*
X335436Y170767D01*
X334931Y171985D01*
X334199Y173081D01*
X333266Y174014D01*
X332170Y174746D01*
X330952Y175251D01*
X329659Y175508D01*
D02*
G37*
G36*
X137915Y154150D02*
X137085D01*
X136284Y153935D01*
X135566Y153520D01*
X134980Y152934D01*
X134565Y152216D01*
X134350Y151415D01*
Y150585D01*
X134565Y149784D01*
X134980Y149066D01*
X135566Y148480D01*
X136284Y148065D01*
X137085Y147850D01*
X137915D01*
X138716Y148065D01*
X139434Y148480D01*
X140020Y149066D01*
X140435Y149784D01*
X140650Y150585D01*
Y151415D01*
X140435Y152216D01*
X140020Y152934D01*
X139434Y153520D01*
X138716Y153935D01*
X137915Y154150D01*
D02*
G37*
G36*
X127915D02*
X127085D01*
X126284Y153935D01*
X125566Y153520D01*
X124980Y152934D01*
X124565Y152216D01*
X124350Y151415D01*
Y150585D01*
X124565Y149784D01*
X124980Y149066D01*
X125566Y148480D01*
X126284Y148065D01*
X127085Y147850D01*
X127915D01*
X128716Y148065D01*
X129434Y148480D01*
X130020Y149066D01*
X130435Y149784D01*
X130650Y150585D01*
Y151415D01*
X130435Y152216D01*
X130020Y152934D01*
X129434Y153520D01*
X128716Y153935D01*
X127915Y154150D01*
D02*
G37*
G36*
X249258Y157886D02*
X247742D01*
X246278Y157494D01*
X244966Y156736D01*
X243894Y155664D01*
X243136Y154352D01*
X242744Y152888D01*
Y151372D01*
X243136Y149908D01*
X243894Y148596D01*
X244966Y147524D01*
X246278Y146766D01*
X247742Y146374D01*
X249258D01*
X250722Y146766D01*
X252034Y147524D01*
X253106Y148596D01*
X253864Y149908D01*
X254256Y151372D01*
Y152888D01*
X253864Y154352D01*
X253106Y155664D01*
X252034Y156736D01*
X250722Y157494D01*
X249258Y157886D01*
D02*
G37*
G36*
X229758Y155756D02*
X228242D01*
X226778Y155364D01*
X225466Y154606D01*
X224394Y153534D01*
X223636Y152222D01*
X223244Y150758D01*
Y149242D01*
X223636Y147778D01*
X224394Y146466D01*
X225466Y145394D01*
X226778Y144636D01*
X228242Y144244D01*
X229758D01*
X231222Y144636D01*
X232534Y145394D01*
X233606Y146466D01*
X234364Y147778D01*
X234756Y149242D01*
Y150758D01*
X234364Y152222D01*
X233606Y153534D01*
X232534Y154606D01*
X231222Y155364D01*
X229758Y155756D01*
D02*
G37*
G36*
X81433Y139287D02*
X80567D01*
X79731Y139063D01*
X78982Y138631D01*
X78369Y138019D01*
X77937Y137269D01*
X77713Y136433D01*
Y135567D01*
X77937Y134731D01*
X78369Y133982D01*
X78982Y133369D01*
X79731Y132937D01*
X80567Y132713D01*
X81433D01*
X82269Y132937D01*
X83018Y133369D01*
X83631Y133982D01*
X84063Y134731D01*
X84287Y135567D01*
Y136433D01*
X84063Y137269D01*
X83631Y138019D01*
X83018Y138631D01*
X82269Y139063D01*
X81433Y139287D01*
D02*
G37*
G36*
X170798Y144685D02*
X169092D01*
X167418Y144352D01*
X165842Y143699D01*
X164424Y142751D01*
X163217Y141545D01*
X162269Y140126D01*
X161616Y138550D01*
X161284Y136877D01*
Y135171D01*
X161616Y133497D01*
X162269Y131921D01*
X163217Y130502D01*
X164424Y129296D01*
X165842Y128348D01*
X167418Y127695D01*
X169092Y127362D01*
X170798D01*
X172471Y127695D01*
X174048Y128348D01*
X175466Y129296D01*
X176673Y130502D01*
X177620Y131921D01*
X178273Y133497D01*
X178606Y135171D01*
Y136877D01*
X178273Y138550D01*
X177620Y140126D01*
X176673Y141545D01*
X175466Y142751D01*
X174048Y143699D01*
X172471Y144352D01*
X170798Y144685D01*
D02*
G37*
G36*
X299747Y144453D02*
X298041D01*
X296367Y144120D01*
X294791Y143467D01*
X293372Y142519D01*
X292166Y141313D01*
X291218Y139894D01*
X290565Y138318D01*
X290232Y136644D01*
Y134938D01*
X290565Y133265D01*
X291218Y131689D01*
X292166Y130270D01*
X293372Y129064D01*
X294791Y128116D01*
X296367Y127463D01*
X298041Y127130D01*
X299747D01*
X301420Y127463D01*
X302996Y128116D01*
X304415Y129064D01*
X305622Y130270D01*
X306569Y131689D01*
X307222Y133265D01*
X307555Y134938D01*
Y136644D01*
X307222Y138318D01*
X306569Y139894D01*
X305622Y141313D01*
X304415Y142519D01*
X302996Y143467D01*
X301420Y144120D01*
X299747Y144453D01*
D02*
G37*
G36*
X19043Y123043D02*
X15500D01*
Y119500D01*
X19043D01*
Y123043D01*
D02*
G37*
G36*
X13500D02*
X9957D01*
Y119500D01*
X13500D01*
Y123043D01*
D02*
G37*
G36*
X19043Y117500D02*
X15500D01*
Y113957D01*
X19043D01*
Y117500D01*
D02*
G37*
G36*
X13500D02*
X9957D01*
Y113957D01*
X13500D01*
Y117500D01*
D02*
G37*
G36*
X15287Y112471D02*
X13713D01*
X12685Y112336D01*
X11727Y111939D01*
X10905Y111308D01*
X10274Y110485D01*
X9877Y109528D01*
X9742Y108500D01*
X9877Y107472D01*
X10274Y106515D01*
X10905Y105692D01*
X11727Y105061D01*
X12685Y104664D01*
X13713Y104529D01*
X15287D01*
X16315Y104664D01*
X17273Y105061D01*
X18095Y105692D01*
X18726Y106515D01*
X19123Y107472D01*
X19258Y108500D01*
X19123Y109528D01*
X18726Y110485D01*
X18095Y111308D01*
X17273Y111939D01*
X16315Y112336D01*
X15287Y112471D01*
D02*
G37*
G36*
Y102471D02*
X13713D01*
X12685Y102336D01*
X11727Y101939D01*
X10905Y101308D01*
X10274Y100486D01*
X9877Y99528D01*
X9742Y98500D01*
X9877Y97472D01*
X10274Y96514D01*
X10905Y95692D01*
X11727Y95061D01*
X12685Y94664D01*
X13713Y94529D01*
X15287D01*
X16315Y94664D01*
X17273Y95061D01*
X18095Y95692D01*
X18726Y96514D01*
X19123Y97472D01*
X19258Y98500D01*
X19123Y99528D01*
X18726Y100486D01*
X18095Y101308D01*
X17273Y101939D01*
X16315Y102336D01*
X15287Y102471D01*
D02*
G37*
G36*
X67933Y99287D02*
X67067D01*
X66231Y99063D01*
X65482Y98631D01*
X64869Y98018D01*
X64437Y97269D01*
X64213Y96433D01*
Y95567D01*
X64437Y94731D01*
X64869Y93981D01*
X65482Y93369D01*
X66231Y92937D01*
X67067Y92713D01*
X67933D01*
X68769Y92937D01*
X69519Y93369D01*
X70131Y93981D01*
X70563Y94731D01*
X70787Y95567D01*
Y96433D01*
X70563Y97269D01*
X70131Y98018D01*
X69519Y98631D01*
X68769Y99063D01*
X67933Y99287D01*
D02*
G37*
G36*
X48933Y95787D02*
X48067D01*
X47231Y95563D01*
X46481Y95131D01*
X45869Y94519D01*
X45437Y93769D01*
X45213Y92933D01*
Y92067D01*
X45437Y91231D01*
X45869Y90482D01*
X46481Y89869D01*
X47231Y89437D01*
X48067Y89213D01*
X48933D01*
X49769Y89437D01*
X50519Y89869D01*
X51131Y90482D01*
X51563Y91231D01*
X51787Y92067D01*
Y92933D01*
X51563Y93769D01*
X51131Y94519D01*
X50519Y95131D01*
X49769Y95563D01*
X48933Y95787D01*
D02*
G37*
G36*
X57933Y94787D02*
X57067D01*
X56231Y94563D01*
X55481Y94131D01*
X54869Y93519D01*
X54437Y92769D01*
X54213Y91933D01*
Y91067D01*
X54437Y90231D01*
X54869Y89482D01*
X55481Y88869D01*
X56231Y88437D01*
X57067Y88213D01*
X57933D01*
X58769Y88437D01*
X59518Y88869D01*
X60131Y89482D01*
X60563Y90231D01*
X60787Y91067D01*
Y91933D01*
X60563Y92769D01*
X60131Y93519D01*
X59518Y94131D01*
X58769Y94563D01*
X57933Y94787D01*
D02*
G37*
G36*
X15287Y92471D02*
X13713D01*
X12685Y92336D01*
X11727Y91939D01*
X10905Y91308D01*
X10274Y90486D01*
X9877Y89528D01*
X9742Y88500D01*
X9877Y87472D01*
X10274Y86515D01*
X10905Y85692D01*
X11727Y85061D01*
X12685Y84664D01*
X13713Y84529D01*
X15287D01*
X16315Y84664D01*
X17273Y85061D01*
X18095Y85692D01*
X18726Y86515D01*
X19123Y87472D01*
X19258Y88500D01*
X19123Y89528D01*
X18726Y90486D01*
X18095Y91308D01*
X17273Y91939D01*
X16315Y92336D01*
X15287Y92471D01*
D02*
G37*
G36*
X58433Y79787D02*
X57567D01*
X56731Y79563D01*
X55981Y79131D01*
X55369Y78518D01*
X54937Y77769D01*
X54713Y76933D01*
Y76067D01*
X54937Y75231D01*
X55369Y74481D01*
X55981Y73869D01*
X56731Y73437D01*
X57567Y73213D01*
X58433D01*
X59269Y73437D01*
X60018Y73869D01*
X60631Y74481D01*
X61063Y75231D01*
X61287Y76067D01*
Y76933D01*
X61063Y77769D01*
X60631Y78518D01*
X60018Y79131D01*
X59269Y79563D01*
X58433Y79787D01*
D02*
G37*
G36*
X57933Y70787D02*
X57067D01*
X56231Y70563D01*
X55481Y70131D01*
X54869Y69519D01*
X54437Y68769D01*
X54213Y67933D01*
Y67067D01*
X54437Y66231D01*
X54869Y65482D01*
X55481Y64869D01*
X56231Y64437D01*
X57067Y64213D01*
X57933D01*
X58769Y64437D01*
X59518Y64869D01*
X60131Y65482D01*
X60563Y66231D01*
X60787Y67067D01*
Y67933D01*
X60563Y68769D01*
X60131Y69519D01*
X59518Y70131D01*
X58769Y70563D01*
X57933Y70787D01*
D02*
G37*
G36*
X40142Y63478D02*
X37780D01*
X37009Y63377D01*
X36290Y63079D01*
X35674Y62606D01*
X35200Y61989D01*
X34903Y61271D01*
X34801Y60500D01*
X34903Y59729D01*
X35200Y59011D01*
X35674Y58394D01*
X36290Y57921D01*
X37009Y57623D01*
X37780Y57522D01*
X40142D01*
X40913Y57623D01*
X41631Y57921D01*
X42248Y58394D01*
X42721Y59011D01*
X43018Y59729D01*
X43120Y60500D01*
X43018Y61271D01*
X42721Y61989D01*
X42248Y62606D01*
X41631Y63079D01*
X40913Y63377D01*
X40142Y63478D01*
D02*
G37*
G36*
X25181D02*
X22819D01*
X22048Y63377D01*
X21330Y63079D01*
X20713Y62606D01*
X20240Y61989D01*
X19942Y61271D01*
X19841Y60500D01*
X19942Y59729D01*
X20240Y59011D01*
X20713Y58394D01*
X21330Y57921D01*
X22048Y57623D01*
X22819Y57522D01*
X25181D01*
X25952Y57623D01*
X26670Y57921D01*
X27287Y58394D01*
X27760Y59011D01*
X28058Y59729D01*
X28159Y60500D01*
X28058Y61271D01*
X27760Y61989D01*
X27287Y62606D01*
X26670Y63079D01*
X25952Y63377D01*
X25181Y63478D01*
D02*
G37*
%LPD*%
D62*
X51500Y135985D02*
Y163000D01*
X106803Y82585D02*
X106815Y82573D01*
X108425D02*
X109095Y81903D01*
X106815Y82573D02*
X108425D01*
X51500Y135985D02*
X104900Y82585D01*
X106803D01*
D63*
X38961Y60500D02*
D03*
Y26484D02*
D03*
X24000Y60500D02*
D03*
Y26484D02*
D03*
D64*
X14811Y224410D02*
D03*
X329772D02*
D03*
X14811Y11811D02*
D03*
D65*
X22000Y181315D02*
D03*
Y200842D02*
D03*
X329000Y188342D02*
D03*
Y168815D02*
D03*
D66*
X248500Y152130D02*
D03*
Y191500D02*
D03*
X229000Y189370D02*
D03*
Y150000D02*
D03*
D67*
X298894Y135791D02*
D03*
X307555Y205476D02*
D03*
X178606Y205709D02*
D03*
X169945Y136024D02*
D03*
D68*
X78500Y209736D02*
D03*
D69*
Y189264D02*
D03*
Y199500D02*
D03*
D70*
X14500Y118500D02*
D03*
D71*
Y108500D02*
D03*
Y98500D02*
D03*
Y88500D02*
D03*
D72*
X117842Y17500D02*
D03*
X98158D02*
D03*
D73*
X140000Y18000D02*
D03*
D74*
X130000D02*
D03*
D75*
X137500Y151000D02*
D03*
X127500D02*
D03*
X47500Y144000D02*
D03*
Y154000D02*
D03*
X90000Y45000D02*
D03*
Y35000D02*
D03*
D76*
X30500Y39000D02*
D03*
X31000Y49000D02*
D03*
X73500Y48500D02*
D03*
X134500Y70500D02*
D03*
X105000Y170000D02*
D03*
X125500Y70000D02*
D03*
X120500Y192000D02*
D03*
X51500Y163000D02*
D03*
X109095Y81903D02*
D03*
X38000Y115000D02*
D03*
X27500Y120000D02*
D03*
X101500Y213500D02*
D03*
X89000Y212000D02*
D03*
X146000Y170000D02*
D03*
X81000Y136000D02*
D03*
X48500Y92500D02*
D03*
X57500Y91500D02*
D03*
X58000Y76500D02*
D03*
X79000Y70000D02*
D03*
X88500Y79000D02*
D03*
X132500Y107000D02*
D03*
X100000Y67000D02*
D03*
X31000Y134000D02*
D03*
X18500Y134500D02*
D03*
X68000Y156500D02*
D03*
X101500Y95500D02*
D03*
X67500Y96000D02*
D03*
X97500Y54500D02*
D03*
X100000Y74500D02*
D03*
X57500Y42000D02*
D03*
Y67500D02*
D03*
X63000Y36500D02*
D03*
D77*
X22000Y181315D02*
D03*
X329000Y168815D02*
D03*
M02*
