M48
;Layer_Color=9474304
;FILE_FORMAT=2:4
INCH,TZ
;TYPE=PLATED
T1F00S00C0.0098
T2F00S00C0.0394
T3F00S00C0.0402
T4F00S00C0.0630
;TYPE=NON_PLATED
T5F00S00C0.1575
%
T01
X4050Y2800
Y3200
Y3600
Y4000
Y4400
Y4800
Y5200
Y5600
X4550
Y5200
Y4800
Y4400
Y4000
Y3600
Y3200
Y2800
X5050
Y3200
Y3600
Y4000
Y4400
Y4800
Y5200
Y5600
X5550
Y5200
Y4800
Y4400
Y4000
Y3600
Y3200
Y2800
X10700Y4500
X10709Y5200
X13250Y5500
X13100Y2850
X12400
X13850Y2839
X14600Y3400
X15350Y3750
X15650Y4350
X26950Y4450
Y4850
Y5250
X27450
Y4850
Y4450
Y4050
Y3650
Y3250
Y2850
X27950
Y3250
Y3650
Y4050
Y4450
Y4850
Y5250
X28450
Y4850
Y4450
Y4050
Y3650
Y3250
Y2850
X26950
Y3250
Y3650
Y4050
Y5650
X27450
X27950
X28450
X16300Y5750
Y6150
Y6550
X15900Y6150
Y5750
X15500
Y6150
X15050
X15100Y5700
X14700
X14550Y6150
X14200
X13800
X13450
Y5800
X13050
Y6150
Y6500
X13450
X11600Y6550
X12050Y7200
X10703Y5900
X10450Y8700
X14350Y11050
Y11450
X14750
X15150
X15550
X15950
Y11050
X15550
X15150
X14750
X14550Y12600
X14150
Y13000
Y13400
X14550
Y13000
T02
X2750Y1500
X16850Y3450
X13713Y7950
X18900Y13050
X3600Y13300
T03
X10048Y3400
X11048
T04
X2735Y3572
Y5147
X7065
Y3572
X25635Y3622
Y5197
X29965
Y3622
Y9803
Y11378
X25635
Y9803
X7065Y9753
Y11328
X2735
Y9753
T05
X1181Y1181
X31102
Y13386
X1181
M30
