G04*
G04 #@! TF.GenerationSoftware,Altium Limited,Altium Designer,23.10.1 (27)*
G04*
G04 Layer_Color=8388736*
%FSLAX44Y44*%
%MOMM*%
G71*
G04*
G04 #@! TF.SameCoordinates,0AC736BD-E267-4969-BD77-996DE068DD07*
G04*
G04*
G04 #@! TF.FilePolarity,Negative*
G04*
G01*
G75*
%ADD19R,2.4532X0.7032*%
%ADD20R,2.7032X2.2032*%
%ADD21R,1.2032X1.8032*%
%ADD22R,1.1032X1.0032*%
%ADD23R,1.8032X1.2032*%
%ADD24O,0.8032X1.7532*%
%ADD25R,0.8032X1.7532*%
%ADD26C,1.8032*%
%ADD27C,3.9032*%
%ADD28O,1.8032X2.2032*%
%ADD29R,1.8032X2.2032*%
%ADD30C,0.9032*%
D19*
X74030Y-111400D02*
D03*
Y-103400D02*
D03*
Y-95400D02*
D03*
Y-87400D02*
D03*
Y-79400D02*
D03*
D20*
X72780Y-50900D02*
D03*
X18280D02*
D03*
X72780Y-139900D02*
D03*
X18280D02*
D03*
D21*
X247000Y-159000D02*
D03*
X215000D02*
D03*
X275340Y-31750D02*
D03*
X307340D02*
D03*
X176000Y-160000D02*
D03*
X144000D02*
D03*
D22*
X308770Y-116230D02*
D03*
Y-135230D02*
D03*
X328770Y-125730D02*
D03*
D23*
X245110Y-103630D02*
D03*
Y-71630D02*
D03*
X328930Y-205230D02*
D03*
Y-173230D02*
D03*
D24*
X175993Y-114960D02*
D03*
X188692D02*
D03*
X201392D02*
D03*
X214093D02*
D03*
X175993Y-60960D02*
D03*
X188692D02*
D03*
X201392D02*
D03*
D25*
X214093D02*
D03*
D26*
X47280Y-73400D02*
D03*
Y-117400D02*
D03*
X328930Y-278130D02*
D03*
Y-252730D02*
D03*
D27*
X127800Y-346710D02*
D03*
X227800D02*
D03*
D28*
X140300Y-246710D02*
D03*
X177800D02*
D03*
D29*
X215300D02*
D03*
D30*
X144000Y-177000D02*
D03*
X295000Y-147000D02*
D03*
X308610Y-147320D02*
D03*
X294640Y-135890D02*
D03*
X240030Y-57150D02*
D03*
X228600D02*
D03*
M02*
