G04*
G04 #@! TF.GenerationSoftware,Altium Limited,Altium Designer,23.3.1 (30)*
G04*
G04 Layer_Physical_Order=1*
G04 Layer_Color=255*
%FSLAX44Y44*%
%MOMM*%
G71*
G04*
G04 #@! TF.SameCoordinates,A5132160-A96E-405E-B0A8-EF484DAADAF8*
G04*
G04*
G04 #@! TF.FilePolarity,Positive*
G04*
G01*
G75*
%ADD12R,0.5500X0.2500*%
%ADD13R,0.4725X0.2725*%
%ADD15C,0.9000*%
%ADD18C,0.2540*%
%ADD19C,1.6500*%
%ADD20R,1.6500X1.6500*%
G36*
X139700Y0D02*
X0D01*
Y132080D01*
X139700D01*
Y0D01*
D02*
G37*
%LPC*%
G36*
X40000Y97390D02*
X30210D01*
Y87600D01*
X40000D01*
Y97390D01*
D02*
G37*
G36*
X28210D02*
X18420D01*
Y87600D01*
X28210D01*
Y97390D01*
D02*
G37*
G36*
X56031D02*
X53190D01*
X50445Y96655D01*
X47985Y95234D01*
X45976Y93225D01*
X44555Y90765D01*
X43820Y88020D01*
Y85180D01*
X44555Y82435D01*
X45481Y80831D01*
X44671Y79619D01*
X44375Y78132D01*
Y63432D01*
X43358D01*
Y55628D01*
X53162D01*
Y63432D01*
X52145D01*
Y75047D01*
X53152Y75820D01*
X53190Y75810D01*
X56031D01*
X58775Y76545D01*
X61235Y77966D01*
X63244Y79975D01*
X64665Y82435D01*
X65400Y85180D01*
Y88020D01*
X64665Y90765D01*
X63244Y93225D01*
X61235Y95234D01*
X58775Y96655D01*
X56031Y97390D01*
D02*
G37*
G36*
X40000Y85600D02*
X30210D01*
Y75810D01*
X40000D01*
Y85600D01*
D02*
G37*
G36*
X28210D02*
X18420D01*
Y75810D01*
X28210D01*
Y85600D01*
D02*
G37*
G36*
X106831Y97390D02*
X103989D01*
X101245Y96655D01*
X98785Y95234D01*
X96776Y93225D01*
X95355Y90765D01*
X94620Y88020D01*
Y85180D01*
X95355Y82435D01*
X96776Y79975D01*
X98785Y77966D01*
X101245Y76545D01*
X101525Y76470D01*
Y38439D01*
X87531Y24445D01*
X84670D01*
Y24560D01*
X79380D01*
Y26560D01*
X84670D01*
Y31675D01*
X85090D01*
X86577Y31971D01*
X87837Y32813D01*
X96727Y41703D01*
X97569Y42963D01*
X97865Y44450D01*
Y72630D01*
X97569Y74117D01*
X96727Y75377D01*
X89920Y82184D01*
X90065Y82435D01*
X90800Y85180D01*
Y88020D01*
X90065Y90765D01*
X88644Y93225D01*
X86635Y95234D01*
X84175Y96655D01*
X81431Y97390D01*
X78590D01*
X75845Y96655D01*
X73385Y95234D01*
X71376Y93225D01*
X69955Y90765D01*
X69220Y88020D01*
Y85180D01*
X69955Y82435D01*
X71376Y79975D01*
X73385Y77966D01*
X75845Y76545D01*
X78590Y75810D01*
X81431D01*
X84175Y76545D01*
X84426Y76690D01*
X90095Y71021D01*
Y46059D01*
X83481Y39445D01*
X79380D01*
X78904Y39350D01*
X74090D01*
X74090Y39350D01*
Y39350D01*
X72820Y39112D01*
X72630Y39150D01*
X62630D01*
X62440Y39112D01*
X61170Y39350D01*
Y39350D01*
X61170Y39350D01*
X56356D01*
X55880Y39445D01*
X52409D01*
X52145Y39709D01*
Y45628D01*
X53162D01*
Y53432D01*
X43358D01*
Y45628D01*
X44375D01*
Y38100D01*
X44671Y36613D01*
X45513Y35353D01*
X48053Y32813D01*
X49313Y31971D01*
X50590Y31717D01*
Y26770D01*
Y26560D01*
X55880D01*
Y24560D01*
X50590D01*
Y21560D01*
X55880D01*
Y20560D01*
X56880D01*
Y16770D01*
X61170D01*
X61170Y16770D01*
Y16770D01*
X62440Y17008D01*
X62630Y16970D01*
X69630D01*
X70621Y17167D01*
X71461Y17729D01*
X72917Y19184D01*
X74090Y18698D01*
Y16770D01*
X78904D01*
X79380Y16675D01*
X89140D01*
X90627Y16971D01*
X91887Y17813D01*
X108157Y34083D01*
X108999Y35343D01*
X109295Y36830D01*
Y76470D01*
X109575Y76545D01*
X112035Y77966D01*
X114044Y79975D01*
X115465Y82435D01*
X116200Y85180D01*
Y88020D01*
X115465Y90765D01*
X114044Y93225D01*
X112035Y95234D01*
X109575Y96655D01*
X106831Y97390D01*
D02*
G37*
G36*
X54880Y19560D02*
X50590D01*
Y16770D01*
X54880D01*
Y19560D01*
D02*
G37*
%LPD*%
G36*
X72630Y22560D02*
X69630Y19560D01*
X62630D01*
Y36560D01*
X72630D01*
Y22560D01*
D02*
G37*
D12*
X55880Y20560D02*
D03*
Y25560D02*
D03*
Y30560D02*
D03*
Y35560D02*
D03*
X79380D02*
D03*
Y30560D02*
D03*
Y25560D02*
D03*
Y20560D02*
D03*
D13*
X48260Y49530D02*
D03*
Y59530D02*
D03*
D15*
X67630Y28060D02*
D03*
D18*
X85090Y35560D02*
X93980Y44450D01*
X79380Y35560D02*
X85090D01*
X80010Y86600D02*
X93980Y72630D01*
Y44450D02*
Y72630D01*
X105410Y36830D02*
Y86600D01*
X79380Y20560D02*
X89140D01*
X105410Y36830D01*
X50800Y35560D02*
X55880D01*
X48260Y38100D02*
X50800Y35560D01*
X54610Y84482D02*
Y86600D01*
X48260Y59530D02*
Y78132D01*
X54610Y84482D01*
X48260Y38100D02*
Y49530D01*
D19*
X105410Y86600D02*
D03*
X80010D02*
D03*
X54610D02*
D03*
D20*
X29210D02*
D03*
M02*
