G04*
G04 #@! TF.GenerationSoftware,Altium Limited,Altium Designer,23.3.1 (30)*
G04*
G04 Layer_Color=16711935*
%FSLAX44Y44*%
%MOMM*%
G71*
G04*
G04 #@! TF.SameCoordinates,A5132160-A96E-405E-B0A8-EF484DAADAF8*
G04*
G04*
G04 #@! TF.FilePolarity,Positive*
G04*
G01*
G75*
%ADD11C,0.2000*%
G36*
X65249Y28055D02*
X65328Y28051D01*
X65416Y28042D01*
X65517Y28032D01*
X65624Y28023D01*
X65739Y28005D01*
X65859Y27986D01*
X65980Y27958D01*
X66104Y27931D01*
X66225Y27894D01*
X66350Y27852D01*
X66465Y27806D01*
X66576Y27750D01*
X66581Y27746D01*
X66599Y27736D01*
X66631Y27718D01*
X66669Y27695D01*
X66715Y27662D01*
X66770Y27621D01*
X66826Y27575D01*
X66890Y27524D01*
X66955Y27464D01*
X67024Y27394D01*
X67094Y27325D01*
X67158Y27242D01*
X67223Y27159D01*
X67283Y27062D01*
X67339Y26964D01*
X67390Y26858D01*
X67394Y26849D01*
X67399Y26830D01*
X67413Y26798D01*
X67427Y26752D01*
X67445Y26692D01*
X67464Y26618D01*
X67487Y26535D01*
X67510Y26437D01*
X67533Y26326D01*
X67556Y26206D01*
X67575Y26077D01*
X67593Y25934D01*
X67607Y25781D01*
X67621Y25615D01*
X67625Y25439D01*
X67630Y25254D01*
Y21556D01*
X66784D01*
Y25249D01*
Y25259D01*
Y25286D01*
Y25328D01*
X66779Y25384D01*
Y25453D01*
X66775Y25531D01*
X66770Y25619D01*
X66766Y25716D01*
X66756Y25813D01*
X66747Y25915D01*
X66719Y26119D01*
X66701Y26216D01*
X66682Y26313D01*
X66659Y26400D01*
X66631Y26479D01*
Y26484D01*
X66622Y26498D01*
X66613Y26516D01*
X66599Y26544D01*
X66585Y26576D01*
X66562Y26613D01*
X66507Y26701D01*
X66433Y26798D01*
X66391Y26849D01*
X66340Y26900D01*
X66290Y26951D01*
X66229Y26997D01*
X66169Y27043D01*
X66100Y27085D01*
X66095D01*
X66081Y27094D01*
X66063Y27103D01*
X66031Y27117D01*
X65994Y27136D01*
X65952Y27154D01*
X65901Y27173D01*
X65841Y27191D01*
X65776Y27209D01*
X65707Y27228D01*
X65633Y27246D01*
X65550Y27265D01*
X65462Y27279D01*
X65370Y27288D01*
X65277Y27293D01*
X65175Y27297D01*
X65134D01*
X65087Y27293D01*
X65023D01*
X64944Y27283D01*
X64861Y27274D01*
X64764Y27260D01*
X64658Y27246D01*
X64551Y27223D01*
X64440Y27196D01*
X64329Y27159D01*
X64218Y27122D01*
X64112Y27071D01*
X64015Y27015D01*
X63923Y26951D01*
X63844Y26877D01*
X63839Y26872D01*
X63825Y26858D01*
X63807Y26830D01*
X63784Y26793D01*
X63752Y26743D01*
X63719Y26678D01*
X63682Y26604D01*
X63645Y26511D01*
X63608Y26410D01*
X63571Y26294D01*
X63539Y26160D01*
X63506Y26012D01*
X63483Y25846D01*
X63465Y25666D01*
X63451Y25467D01*
X63446Y25249D01*
Y21556D01*
X62600D01*
Y25254D01*
Y25259D01*
Y25263D01*
Y25277D01*
Y25296D01*
Y25319D01*
Y25347D01*
X62605Y25411D01*
Y25494D01*
X62610Y25587D01*
X62619Y25693D01*
X62628Y25804D01*
X62642Y25924D01*
X62656Y26049D01*
X62693Y26303D01*
X62721Y26433D01*
X62748Y26553D01*
X62785Y26673D01*
X62822Y26784D01*
X62827Y26789D01*
X62832Y26807D01*
X62846Y26840D01*
X62864Y26877D01*
X62892Y26927D01*
X62919Y26983D01*
X62956Y27043D01*
X63003Y27112D01*
X63053Y27186D01*
X63109Y27260D01*
X63174Y27334D01*
X63248Y27413D01*
X63326Y27492D01*
X63409Y27565D01*
X63506Y27639D01*
X63608Y27709D01*
X63613Y27713D01*
X63636Y27723D01*
X63668Y27741D01*
X63710Y27764D01*
X63770Y27792D01*
X63835Y27820D01*
X63918Y27852D01*
X64006Y27884D01*
X64112Y27917D01*
X64223Y27949D01*
X64343Y27977D01*
X64477Y28005D01*
X64621Y28028D01*
X64773Y28046D01*
X64930Y28055D01*
X65101Y28060D01*
X65189D01*
X65249Y28055D01*
D02*
G37*
G36*
X59337Y22952D02*
X59341Y22957D01*
X59351Y22966D01*
X59365Y22980D01*
X59388Y22998D01*
X59415Y23021D01*
X59452Y23054D01*
X59494Y23086D01*
X59535Y23123D01*
X59591Y23160D01*
X59647Y23206D01*
X59707Y23248D01*
X59771Y23299D01*
X59845Y23345D01*
X59919Y23396D01*
X60086Y23497D01*
X60090Y23502D01*
X60104Y23511D01*
X60132Y23525D01*
X60164Y23539D01*
X60201Y23562D01*
X60248Y23590D01*
X60303Y23618D01*
X60358Y23650D01*
X60488Y23715D01*
X60627Y23779D01*
X60770Y23844D01*
X60908Y23900D01*
Y23141D01*
X60899Y23137D01*
X60881Y23128D01*
X60844Y23109D01*
X60798Y23086D01*
X60742Y23058D01*
X60673Y23021D01*
X60599Y22980D01*
X60520Y22933D01*
X60432Y22878D01*
X60340Y22822D01*
X60146Y22693D01*
X59947Y22550D01*
X59757Y22392D01*
X59753Y22388D01*
X59734Y22374D01*
X59711Y22351D01*
X59679Y22318D01*
X59637Y22277D01*
X59591Y22231D01*
X59540Y22175D01*
X59485Y22120D01*
X59429Y22055D01*
X59369Y21986D01*
X59254Y21842D01*
X59147Y21690D01*
X59101Y21611D01*
X59059Y21533D01*
X58551D01*
Y27954D01*
X59337D01*
Y22952D01*
D02*
G37*
D11*
X84130Y14060D02*
Y42060D01*
X51130D02*
X84130D01*
X51130Y14060D02*
Y42060D01*
Y14060D02*
X84130D01*
X44510Y61892D02*
X52010D01*
X44510Y47168D02*
Y61892D01*
Y47168D02*
X52010D01*
Y61892D01*
M02*
