G04*
G04 #@! TF.GenerationSoftware,Altium Limited,Altium Designer,23.3.1 (30)*
G04*
G04 Layer_Color=65535*
%FSLAX44Y44*%
%MOMM*%
G71*
G04*
G04 #@! TF.SameCoordinates,A5132160-A96E-405E-B0A8-EF484DAADAF8*
G04*
G04*
G04 #@! TF.FilePolarity,Positive*
G04*
G01*
G75*
%ADD10C,0.2500*%
%ADD11C,0.2000*%
D10*
X90380Y20560D02*
G03*
X90380Y20560I-1250J0D01*
G01*
D11*
X102210Y185000D02*
X105410Y187000D01*
X108610Y185000D01*
X102210Y127750D02*
Y185000D01*
X108610Y127750D02*
Y185000D01*
X51410D02*
X54610Y187000D01*
X57810Y185000D01*
X51410Y127750D02*
Y185000D01*
X57810Y127750D02*
Y185000D01*
X26010D02*
X29210Y187000D01*
X32410Y185000D01*
X26010Y127750D02*
Y185000D01*
X32410Y127750D02*
Y185000D01*
X15010Y100850D02*
X119610D01*
Y127750D01*
X15010D02*
X119610D01*
X15010Y100850D02*
Y127750D01*
X83210D02*
Y185000D01*
X76810Y127750D02*
Y185000D01*
X80010Y187000D02*
X83210Y185000D01*
X76810D02*
X80010Y187000D01*
X80630Y15060D02*
Y15560D01*
Y40560D02*
Y41060D01*
X54630D02*
X80630D01*
X54630Y15060D02*
Y15560D01*
Y40560D02*
Y41060D01*
Y15060D02*
X80630D01*
X55010Y48168D02*
Y60892D01*
X41510Y48168D02*
Y60892D01*
M02*
