M48
;Layer_Color=9474304
;FILE_FORMAT=2:4
INCH,TZ
;TYPE=PLATED
T1F00S00C0.0280
T2F00S00C0.0394
T3F00S00C0.0402
T4F00S00C0.0433
T5F00S00C0.0630
;TYPE=NON_PLATED
T6F00S00C0.1575
%
T01
X17100Y450
X20150Y4700
X24600Y4850
X11800Y6800
X8350Y11550
X4300Y11600
T02
X11050Y2100
X18100Y1550
X24750Y11300
X16750
T03
X11000Y4950
Y5950
T04
X12750Y9850
X13750
T05
X4135Y2222
Y3797
X8465
Y2222
X20385Y1622
Y3197
X24715
Y1622
Y7803
Y9378
X20385
Y7803
X8465Y8403
Y9978
X4135
Y8403
T06
X1181Y1181
X27572
Y11024
X1181
M30
