G04*
G04 #@! TF.GenerationSoftware,Altium Limited,Altium Designer,23.0.1 (38)*
G04*
G04 Layer_Physical_Order=2*
G04 Layer_Color=16711680*
%FSLAX25Y25*%
%MOIN*%
G70*
G04*
G04 #@! TF.SameCoordinates,E18D91D4-50B4-47E9-96DD-EFB38571A0BB*
G04*
G04*
G04 #@! TF.FilePolarity,Positive*
G04*
G01*
G75*
%ADD23C,0.06181*%
%ADD24R,0.06181X0.06181*%
%ADD27O,0.17717X0.12795*%
%ADD28C,0.06000*%
%ADD29O,0.06890X0.09843*%
%ADD30O,0.06299X0.07874*%
%ADD31C,0.05000*%
G36*
X283000Y120471D02*
Y115787D01*
X282522Y115642D01*
X282444Y115758D01*
X281238Y116964D01*
X279819Y117912D01*
X278243Y118565D01*
X276570Y118898D01*
X274864D01*
X273190Y118565D01*
X271614Y117912D01*
X270195Y116964D01*
X268989Y115758D01*
X268041Y114339D01*
X267388Y112763D01*
X267055Y111089D01*
Y109383D01*
X267388Y107710D01*
X268041Y106133D01*
X268989Y104715D01*
X270195Y103508D01*
X271614Y102561D01*
X273190Y101908D01*
X274864Y101575D01*
X276570D01*
X278243Y101908D01*
X279819Y102561D01*
X281238Y103508D01*
X282444Y104715D01*
X282522Y104831D01*
X283000Y104685D01*
Y17362D01*
X282522Y17217D01*
X282444Y17332D01*
X281238Y18539D01*
X279819Y19487D01*
X278243Y20140D01*
X276570Y20472D01*
X274864D01*
X273190Y20140D01*
X271614Y19487D01*
X270195Y18539D01*
X268989Y17332D01*
X268041Y15914D01*
X267388Y14337D01*
X267055Y12664D01*
Y10958D01*
X267388Y9285D01*
X268041Y7708D01*
X268989Y6290D01*
X270195Y5083D01*
X271614Y4135D01*
X273190Y3483D01*
X274864Y3150D01*
X276570D01*
X278243Y3483D01*
X279819Y4135D01*
X281238Y5083D01*
X282444Y6290D01*
X282522Y6405D01*
X283000Y6260D01*
Y2500D01*
X3000D01*
Y9175D01*
X3483Y9285D01*
X4135Y7708D01*
X5083Y6290D01*
X6290Y5083D01*
X7708Y4135D01*
X9285Y3483D01*
X10958Y3150D01*
X12664D01*
X14337Y3483D01*
X15914Y4135D01*
X17332Y5083D01*
X18539Y6290D01*
X19487Y7708D01*
X20140Y9285D01*
X20472Y10958D01*
Y12664D01*
X20140Y14337D01*
X19487Y15914D01*
X18539Y17332D01*
X17332Y18539D01*
X15914Y19487D01*
X14337Y20140D01*
X12664Y20472D01*
X10958D01*
X9285Y20140D01*
X7708Y19487D01*
X6290Y18539D01*
X5083Y17332D01*
X4135Y15914D01*
X3483Y14337D01*
X3000Y14447D01*
Y107600D01*
X3483Y107710D01*
X4135Y106133D01*
X5083Y104715D01*
X6290Y103508D01*
X7708Y102561D01*
X9285Y101908D01*
X10958Y101575D01*
X12664D01*
X14337Y101908D01*
X15914Y102561D01*
X17332Y103508D01*
X18539Y104715D01*
X19487Y106133D01*
X20140Y107710D01*
X20472Y109383D01*
Y111089D01*
X20140Y112763D01*
X19487Y114339D01*
X18539Y115758D01*
X17332Y116964D01*
X15914Y117912D01*
X14337Y118565D01*
X12664Y118898D01*
X10958D01*
X9285Y118565D01*
X7708Y117912D01*
X6290Y116964D01*
X5083Y115758D01*
X4135Y114339D01*
X3483Y112763D01*
X3000Y112872D01*
Y120796D01*
X120889D01*
X283000Y120471D01*
D02*
G37*
%LPC*%
G36*
X247500Y117758D02*
X246472Y117623D01*
X245514Y117226D01*
X244692Y116595D01*
X244061Y115773D01*
X243664Y114815D01*
X243529Y113787D01*
Y112213D01*
X243664Y111185D01*
X244061Y110227D01*
X244692Y109405D01*
X245514Y108774D01*
X246472Y108377D01*
X247500Y108242D01*
X248528Y108377D01*
X249485Y108774D01*
X250308Y109405D01*
X250939Y110227D01*
X251336Y111185D01*
X251471Y112213D01*
Y113787D01*
X251336Y114815D01*
X250939Y115773D01*
X250308Y116595D01*
X249485Y117226D01*
X248528Y117623D01*
X247500Y117758D01*
D02*
G37*
G36*
X167500D02*
X166472Y117623D01*
X165515Y117226D01*
X164692Y116595D01*
X164061Y115773D01*
X163664Y114815D01*
X163529Y113787D01*
Y112213D01*
X163664Y111185D01*
X164061Y110227D01*
X164692Y109405D01*
X165515Y108774D01*
X166472Y108377D01*
X167500Y108242D01*
X168528Y108377D01*
X169485Y108774D01*
X170308Y109405D01*
X170939Y110227D01*
X171336Y111185D01*
X171471Y112213D01*
Y113787D01*
X171336Y114815D01*
X170939Y115773D01*
X170308Y116595D01*
X169485Y117226D01*
X168528Y117623D01*
X167500Y117758D01*
D02*
G37*
G36*
X128500Y104328D02*
Y99500D01*
X131983D01*
Y99976D01*
X131831Y101137D01*
X131383Y102218D01*
X130670Y103147D01*
X129742Y103859D01*
X128660Y104307D01*
X128500Y104328D01*
D02*
G37*
G36*
X126500D02*
X126340Y104307D01*
X125258Y103859D01*
X124330Y103147D01*
X123617Y102218D01*
X123170Y101137D01*
X123017Y99976D01*
Y99500D01*
X126500D01*
Y104328D01*
D02*
G37*
G36*
X137500Y104245D02*
X136395Y104100D01*
X135366Y103673D01*
X134482Y102995D01*
X133803Y102111D01*
X133377Y101081D01*
X133231Y99976D01*
Y97024D01*
X133377Y95919D01*
X133803Y94889D01*
X134482Y94005D01*
X135366Y93327D01*
X136395Y92900D01*
X137500Y92755D01*
X138605Y92900D01*
X139634Y93327D01*
X140518Y94005D01*
X141197Y94889D01*
X141623Y95919D01*
X141769Y97024D01*
Y99976D01*
X141623Y101081D01*
X141197Y102111D01*
X140518Y102995D01*
X139634Y103673D01*
X138605Y104100D01*
X137500Y104245D01*
D02*
G37*
G36*
X131983Y97500D02*
X128500D01*
Y92672D01*
X128660Y92693D01*
X129742Y93141D01*
X130670Y93853D01*
X131383Y94782D01*
X131831Y95863D01*
X131983Y97024D01*
Y97500D01*
D02*
G37*
G36*
X126500D02*
X123017D01*
Y97024D01*
X123170Y95863D01*
X123617Y94782D01*
X124330Y93853D01*
X125258Y93141D01*
X126340Y92693D01*
X126500Y92672D01*
Y97500D01*
D02*
G37*
G36*
X249614Y100999D02*
X244693D01*
X243284Y100861D01*
X241930Y100450D01*
X240682Y99783D01*
X239588Y98885D01*
X238690Y97791D01*
X238023Y96542D01*
X237612Y95188D01*
X237473Y93779D01*
X237612Y92371D01*
X238023Y91017D01*
X238690Y89768D01*
X239588Y88674D01*
X240682Y87776D01*
X241930Y87109D01*
X243284Y86699D01*
X244693Y86560D01*
X249614D01*
X251023Y86699D01*
X252377Y87109D01*
X253625Y87776D01*
X254719Y88674D01*
X255617Y89768D01*
X256284Y91017D01*
X256695Y92371D01*
X256834Y93779D01*
X256695Y95188D01*
X256284Y96542D01*
X255617Y97791D01*
X254719Y98885D01*
X253625Y99783D01*
X252377Y100450D01*
X251023Y100861D01*
X249614Y100999D01*
D02*
G37*
G36*
X206307D02*
X201386D01*
X199977Y100861D01*
X198623Y100450D01*
X197375Y99783D01*
X196281Y98885D01*
X195383Y97791D01*
X194716Y96542D01*
X194305Y95188D01*
X194166Y93779D01*
X194305Y92371D01*
X194716Y91017D01*
X195383Y89768D01*
X196281Y88674D01*
X197375Y87776D01*
X198623Y87109D01*
X199977Y86699D01*
X201386Y86560D01*
X206307D01*
X207716Y86699D01*
X209070Y87109D01*
X210318Y87776D01*
X211412Y88674D01*
X212310Y89768D01*
X212977Y91017D01*
X213388Y92371D01*
X213527Y93779D01*
X213388Y95188D01*
X212977Y96542D01*
X212310Y97791D01*
X211412Y98885D01*
X210318Y99783D01*
X209070Y100450D01*
X207716Y100861D01*
X206307Y100999D01*
D02*
G37*
G36*
X249614Y85251D02*
X244693D01*
X243284Y85113D01*
X241930Y84702D01*
X240682Y84035D01*
X239588Y83137D01*
X238690Y82043D01*
X238023Y80794D01*
X237612Y79440D01*
X237473Y78031D01*
X237612Y76623D01*
X238023Y75269D01*
X238690Y74020D01*
X239588Y72926D01*
X240682Y72028D01*
X241930Y71361D01*
X243284Y70950D01*
X244693Y70812D01*
X249614D01*
X251023Y70950D01*
X252377Y71361D01*
X253625Y72028D01*
X254719Y72926D01*
X255617Y74020D01*
X256284Y75269D01*
X256695Y76623D01*
X256834Y78031D01*
X256695Y79440D01*
X256284Y80794D01*
X255617Y82043D01*
X254719Y83137D01*
X253625Y84035D01*
X252377Y84702D01*
X251023Y85113D01*
X249614Y85251D01*
D02*
G37*
G36*
X206307D02*
X201386D01*
X199977Y85113D01*
X198623Y84702D01*
X197375Y84035D01*
X196281Y83137D01*
X195383Y82043D01*
X194716Y80794D01*
X194305Y79440D01*
X194166Y78031D01*
X194305Y76623D01*
X194716Y75269D01*
X195383Y74020D01*
X196281Y72926D01*
X197375Y72028D01*
X198623Y71361D01*
X199977Y70950D01*
X201386Y70812D01*
X206307D01*
X207716Y70950D01*
X209070Y71361D01*
X210318Y72028D01*
X211412Y72926D01*
X212310Y74020D01*
X212977Y75269D01*
X213388Y76623D01*
X213527Y78031D01*
X213388Y79440D01*
X212977Y80794D01*
X212310Y82043D01*
X211412Y83137D01*
X210318Y84035D01*
X209070Y84702D01*
X207716Y85113D01*
X206307Y85251D01*
D02*
G37*
G36*
X113878Y63378D02*
X106122D01*
Y55622D01*
X113878D01*
Y63378D01*
D02*
G37*
G36*
X110511Y53378D02*
X109490D01*
X108503Y53114D01*
X107619Y52603D01*
X106897Y51881D01*
X106386Y50997D01*
X106122Y50011D01*
Y48989D01*
X106386Y48003D01*
X106897Y47119D01*
X107619Y46397D01*
X108503Y45886D01*
X109490Y45622D01*
X110511D01*
X111497Y45886D01*
X112381Y46397D01*
X113103Y47119D01*
X113614Y48003D01*
X113878Y48989D01*
Y50011D01*
X113614Y50997D01*
X113103Y51881D01*
X112381Y52603D01*
X111497Y53114D01*
X110511Y53378D01*
D02*
G37*
G36*
X87114Y45188D02*
X82193D01*
X80784Y45050D01*
X79430Y44639D01*
X78182Y43972D01*
X77088Y43074D01*
X76190Y41980D01*
X75523Y40731D01*
X75112Y39377D01*
X74973Y37969D01*
X75112Y36560D01*
X75523Y35206D01*
X76190Y33957D01*
X77088Y32863D01*
X78182Y31965D01*
X79430Y31298D01*
X80784Y30887D01*
X82193Y30749D01*
X87114D01*
X88523Y30887D01*
X89877Y31298D01*
X91125Y31965D01*
X92219Y32863D01*
X93117Y33957D01*
X93784Y35206D01*
X94195Y36560D01*
X94334Y37969D01*
X94195Y39377D01*
X93784Y40731D01*
X93117Y41980D01*
X92219Y43074D01*
X91125Y43972D01*
X89877Y44639D01*
X88523Y45050D01*
X87114Y45188D01*
D02*
G37*
G36*
X43807D02*
X38886D01*
X37477Y45050D01*
X36123Y44639D01*
X34875Y43972D01*
X33781Y43074D01*
X32883Y41980D01*
X32216Y40731D01*
X31805Y39377D01*
X31666Y37969D01*
X31805Y36560D01*
X32216Y35206D01*
X32883Y33957D01*
X33781Y32863D01*
X34875Y31965D01*
X36123Y31298D01*
X37477Y30887D01*
X38886Y30749D01*
X43807D01*
X45216Y30887D01*
X46570Y31298D01*
X47818Y31965D01*
X48912Y32863D01*
X49810Y33957D01*
X50477Y35206D01*
X50888Y36560D01*
X51027Y37969D01*
X50888Y39377D01*
X50477Y40731D01*
X49810Y41980D01*
X48912Y43074D01*
X47818Y43972D01*
X46570Y44639D01*
X45216Y45050D01*
X43807Y45188D01*
D02*
G37*
G36*
X182000Y20341D02*
Y16500D01*
X185157D01*
X185043Y17371D01*
X184625Y18380D01*
X183959Y19247D01*
X183093Y19912D01*
X182083Y20330D01*
X182000Y20341D01*
D02*
G37*
G36*
X180000D02*
X179917Y20330D01*
X178907Y19912D01*
X178041Y19247D01*
X177375Y18380D01*
X176957Y17371D01*
X176843Y16500D01*
X180000D01*
Y20341D01*
D02*
G37*
G36*
X110500Y25758D02*
X109472Y25623D01*
X108514Y25226D01*
X107692Y24595D01*
X107061Y23773D01*
X106664Y22815D01*
X106529Y21787D01*
Y20213D01*
X106664Y19185D01*
X107061Y18227D01*
X107692Y17405D01*
X108514Y16774D01*
X109472Y16377D01*
X110500Y16242D01*
X111528Y16377D01*
X112486Y16774D01*
X113308Y17405D01*
X113939Y18227D01*
X114336Y19185D01*
X114471Y20213D01*
Y21787D01*
X114336Y22815D01*
X113939Y23773D01*
X113308Y24595D01*
X112486Y25226D01*
X111528Y25623D01*
X110500Y25758D01*
D02*
G37*
G36*
X87114Y29440D02*
X82193D01*
X80784Y29302D01*
X79430Y28891D01*
X78182Y28223D01*
X77088Y27326D01*
X76190Y26232D01*
X75523Y24983D01*
X75112Y23629D01*
X74973Y22220D01*
X75112Y20812D01*
X75523Y19458D01*
X76190Y18209D01*
X77088Y17115D01*
X78182Y16217D01*
X79430Y15550D01*
X80784Y15139D01*
X82193Y15001D01*
X87114D01*
X88523Y15139D01*
X89877Y15550D01*
X91125Y16217D01*
X92219Y17115D01*
X93117Y18209D01*
X93784Y19458D01*
X94195Y20812D01*
X94334Y22220D01*
X94195Y23629D01*
X93784Y24983D01*
X93117Y26232D01*
X92219Y27326D01*
X91125Y28223D01*
X89877Y28891D01*
X88523Y29302D01*
X87114Y29440D01*
D02*
G37*
G36*
X43807D02*
X38886D01*
X37477Y29302D01*
X36123Y28891D01*
X34875Y28223D01*
X33781Y27326D01*
X32883Y26232D01*
X32216Y24983D01*
X31805Y23629D01*
X31666Y22220D01*
X31805Y20812D01*
X32216Y19458D01*
X32883Y18209D01*
X33781Y17115D01*
X34875Y16217D01*
X36123Y15550D01*
X37477Y15139D01*
X38886Y15001D01*
X43807D01*
X45216Y15139D01*
X46570Y15550D01*
X47818Y16217D01*
X48912Y17115D01*
X49810Y18209D01*
X50477Y19458D01*
X50888Y20812D01*
X51027Y22220D01*
X50888Y23629D01*
X50477Y24983D01*
X49810Y26232D01*
X48912Y27326D01*
X47818Y28223D01*
X46570Y28891D01*
X45216Y29302D01*
X43807Y29440D01*
D02*
G37*
G36*
X185157Y14500D02*
X182000D01*
Y10659D01*
X182083Y10670D01*
X183093Y11088D01*
X183959Y11753D01*
X184625Y12620D01*
X185043Y13629D01*
X185157Y14500D01*
D02*
G37*
G36*
X180000D02*
X176843D01*
X176957Y13629D01*
X177375Y12620D01*
X178041Y11753D01*
X178907Y11088D01*
X179917Y10670D01*
X180000Y10659D01*
Y14500D01*
D02*
G37*
%LPD*%
D23*
X110000Y49500D02*
D03*
D24*
Y59500D02*
D03*
D27*
X41346Y84031D02*
D03*
X84654Y22220D02*
D03*
Y99779D02*
D03*
Y37969D02*
D03*
X41346Y99779D02*
D03*
X84654Y84031D02*
D03*
X41346Y22220D02*
D03*
Y37969D02*
D03*
X247153Y78031D02*
D03*
Y93779D02*
D03*
X203847Y31969D02*
D03*
X247153Y16220D02*
D03*
X203847Y78031D02*
D03*
Y16220D02*
D03*
Y93779D02*
D03*
X247153Y31969D02*
D03*
D28*
X275716Y11811D02*
D03*
Y110236D02*
D03*
X11811D02*
D03*
Y11811D02*
D03*
D29*
X127500Y98500D02*
D03*
X137500D02*
D03*
D30*
X181000Y15500D02*
D03*
X247500Y113000D02*
D03*
X167500D02*
D03*
X110500Y21000D02*
D03*
D31*
X246000Y48500D02*
D03*
X201500Y47000D02*
D03*
X171000Y4500D02*
D03*
X83500Y115500D02*
D03*
X43000Y116000D02*
D03*
X118000Y68000D02*
D03*
M02*
