G04*
G04 #@! TF.GenerationSoftware,Altium Limited,Altium Designer,23.0.1 (38)*
G04*
G04 Layer_Color=2752767*
%FSLAX25Y25*%
%MOIN*%
G70*
G04*
G04 #@! TF.SameCoordinates,E18D91D4-50B4-47E9-96DD-EFB38571A0BB*
G04*
G04*
G04 #@! TF.FilePolarity,Positive*
G04*
G01*
G75*
%ADD37C,0.00500*%
%ADD38C,0.00667*%
D37*
X41346Y82032D02*
X39347Y86032D01*
X43347D01*
X41346Y82032D01*
X84654Y20221D02*
X82653Y24220D01*
X86654D01*
X84654Y20221D01*
Y97780D02*
X82653Y101779D01*
X86654D01*
X84654Y97780D01*
Y35969D02*
X82653Y39968D01*
X86654D01*
X84654Y35969D01*
X41346Y97780D02*
X39347Y101779D01*
X43347D01*
X41346Y97780D01*
X84654Y82032D02*
X82653Y86032D01*
X86654D01*
X84654Y82032D01*
X41346Y20221D02*
X39347Y24220D01*
X43347D01*
X41346Y20221D01*
Y35969D02*
X39347Y39968D01*
X43347D01*
X41346Y35969D01*
X274716Y10811D02*
Y9811D01*
X276716D01*
Y10811D01*
X277716D01*
Y12811D01*
X276716D01*
Y13811D01*
X274716D01*
Y12811D01*
X273716D01*
Y10811D01*
X274716D01*
Y109236D02*
Y108236D01*
X276716D01*
Y109236D01*
X277716D01*
Y111236D01*
X276716D01*
Y112236D01*
X274716D01*
Y111236D01*
X273716D01*
Y109236D01*
X274716D01*
X10811D02*
Y108236D01*
X12811D01*
Y109236D01*
X13811D01*
Y111236D01*
X12811D01*
Y112236D01*
X10811D01*
Y111236D01*
X9811D01*
Y109236D01*
X10811D01*
Y10811D02*
Y9811D01*
X12811D01*
Y10811D01*
X13811D01*
Y12811D01*
X12811D01*
Y13811D01*
X10811D01*
Y12811D01*
X9811D01*
Y10811D01*
X10811D01*
X179000Y13500D02*
X180000Y15500D01*
X179000Y17500D01*
X181000Y16500D01*
X183000Y17500D01*
X182000Y15500D01*
X183000Y13500D01*
X181000Y14500D01*
X179000Y13500D01*
X245500Y111000D02*
X246500Y113000D01*
X245500Y115000D01*
X247500Y114000D01*
X249500Y115000D01*
X248500Y113000D01*
X249500Y111000D01*
X247500Y112000D01*
X245500Y111000D01*
X165500D02*
X166500Y113000D01*
X165500Y115000D01*
X167500Y114000D01*
X169500Y115000D01*
X168500Y113000D01*
X169500Y111000D01*
X167500Y112000D01*
X165500Y111000D01*
X108500Y19000D02*
X109500Y21000D01*
X108500Y23000D01*
X110500Y22000D01*
X112500Y23000D01*
X111500Y21000D01*
X112500Y19000D01*
X110500Y20000D01*
X108500Y19000D01*
X247153Y76032D02*
X245153Y80032D01*
X249153D01*
X247153Y76032D01*
Y91780D02*
X245153Y95780D01*
X249153D01*
X247153Y91780D01*
X203847Y29969D02*
X201847Y33968D01*
X205847D01*
X203847Y29969D01*
X247153Y14220D02*
X245153Y18221D01*
X249153D01*
X247153Y14220D01*
X203847Y76032D02*
X201847Y80032D01*
X205847D01*
X203847Y76032D01*
Y14220D02*
X201847Y18221D01*
X205847D01*
X203847Y14220D01*
Y91780D02*
X201847Y95780D01*
X205847D01*
X203847Y91780D01*
X247153Y29969D02*
X245153Y33968D01*
X249153D01*
X247153Y29969D01*
X108000Y47500D02*
Y51500D01*
X112000D01*
Y47500D01*
X108000D01*
Y57500D02*
Y61500D01*
X112000D01*
Y57500D01*
X108000D01*
X246000Y46500D02*
X247000Y47500D01*
X248000D01*
X247000Y48500D01*
X248000Y49500D01*
X247000D01*
X246000Y50500D01*
X245000Y49500D01*
X244000D01*
X245000Y48500D01*
X244000Y47500D01*
X245000D01*
X246000Y46500D01*
X201500Y45000D02*
X202500Y46000D01*
X203500D01*
X202500Y47000D01*
X203500Y48000D01*
X202500D01*
X201500Y49000D01*
X200500Y48000D01*
X199500D01*
X200500Y47000D01*
X199500Y46000D01*
X200500D01*
X201500Y45000D01*
X171000Y2500D02*
X172000Y3500D01*
X173000D01*
X172000Y4500D01*
X173000Y5500D01*
X172000D01*
X171000Y6500D01*
X170000Y5500D01*
X169000D01*
X170000Y4500D01*
X169000Y3500D01*
X170000D01*
X171000Y2500D01*
X83500Y113500D02*
X84500Y114500D01*
X85500D01*
X84500Y115500D01*
X85500Y116500D01*
X84500D01*
X83500Y117500D01*
X82500Y116500D01*
X81500D01*
X82500Y115500D01*
X81500Y114500D01*
X82500D01*
X83500Y113500D01*
X43000Y114000D02*
X44000Y115000D01*
X45000D01*
X44000Y116000D01*
X45000Y117000D01*
X44000D01*
X43000Y118000D01*
X42000Y117000D01*
X41000D01*
X42000Y116000D01*
X41000Y115000D01*
X42000D01*
X43000Y114000D01*
X118000Y66000D02*
X119000Y67000D01*
X120000D01*
X119000Y68000D01*
X120000Y69000D01*
X119000D01*
X118000Y70000D01*
X117000Y69000D01*
X116000D01*
X117000Y68000D01*
X116000Y67000D01*
X117000D01*
X118000Y66000D01*
D38*
X129500Y98500D02*
G03*
X129500Y98500I-2000J0D01*
G01*
X139500D02*
G03*
X139500Y98500I-2000J0D01*
G01*
M02*
