G04*
G04 #@! TF.GenerationSoftware,Altium Limited,Altium Designer,23.0.1 (38)*
G04*
G04 Layer_Color=128*
%FSLAX25Y25*%
%MOIN*%
G70*
G04*
G04 #@! TF.SameCoordinates,96643D2F-BE8E-4E12-8B93-A60CB91944C5*
G04*
G04*
G04 #@! TF.FilePolarity,Positive*
G04*
G01*
G75*
%ADD13C,0.00500*%
D13*
X3937Y11811D02*
X19685D01*
X11811Y3937D02*
Y19685D01*
X3937Y503937D02*
X19685D01*
X11811Y496063D02*
Y511811D01*
X590551Y11811D02*
X606299D01*
X598425Y3937D02*
Y19685D01*
X590551Y503937D02*
X606299D01*
X598425Y496063D02*
Y511811D01*
X160441Y411000D02*
X174063D01*
X167252Y404189D02*
Y417811D01*
X191937Y411000D02*
X205559D01*
X198748Y404189D02*
Y417811D01*
X364531Y411000D02*
X368468D01*
X366500Y409031D02*
Y412968D01*
X374532Y411000D02*
X378468D01*
X376500Y409031D02*
Y412968D01*
X287992Y443500D02*
X292008D01*
X290000Y441492D02*
Y445508D01*
X297992Y443500D02*
X302008D01*
X300000Y441492D02*
Y445508D01*
X423992Y70000D02*
X428008D01*
X426000Y67992D02*
Y72008D01*
X433992Y70000D02*
X438008D01*
X436000Y67992D02*
Y72008D01*
X59531Y451500D02*
X63468D01*
X61500Y449532D02*
Y453469D01*
X238512Y343500D02*
X242528D01*
X240520Y341492D02*
Y345508D01*
X228512Y343500D02*
X232528D01*
X230520Y341492D02*
Y345508D01*
X208512Y343500D02*
X212528D01*
X210520Y341492D02*
Y345508D01*
X398512Y353500D02*
X402528D01*
X400520Y351492D02*
Y355508D01*
X398512Y343500D02*
X402528D01*
X400520Y341492D02*
Y345508D01*
X388512Y353500D02*
X392528D01*
X390520Y351492D02*
Y355508D01*
X388512Y343500D02*
X392528D01*
X390520Y341492D02*
Y345508D01*
X378512Y353500D02*
X382528D01*
X380520Y351492D02*
Y355508D01*
X378512Y343500D02*
X382528D01*
X380520Y341492D02*
Y345508D01*
X368512Y353500D02*
X372528D01*
X370520Y351492D02*
Y355508D01*
X368512Y343500D02*
X372528D01*
X370520Y341492D02*
Y345508D01*
X358512Y353500D02*
X362528D01*
X360520Y351492D02*
Y355508D01*
X358512Y343500D02*
X362528D01*
X360520Y341492D02*
Y345508D01*
X348512Y353500D02*
X352528D01*
X350520Y351492D02*
Y355508D01*
X348512Y343500D02*
X352528D01*
X350520Y341492D02*
Y345508D01*
X338512Y353500D02*
X342528D01*
X340520Y351492D02*
Y355508D01*
X338512Y343500D02*
X342528D01*
X340520Y341492D02*
Y345508D01*
X328512Y353500D02*
X332528D01*
X330520Y351492D02*
Y355508D01*
X328512Y343500D02*
X332528D01*
X330520Y341492D02*
Y345508D01*
X308512Y353500D02*
X312528D01*
X310520Y351492D02*
Y355508D01*
X308512Y343500D02*
X312528D01*
X310520Y341492D02*
Y345508D01*
X298512Y353500D02*
X302528D01*
X300520Y351492D02*
Y355508D01*
X298512Y343500D02*
X302528D01*
X300520Y341492D02*
Y345508D01*
X288512Y353500D02*
X292528D01*
X290520Y351492D02*
Y355508D01*
X288512Y343500D02*
X292528D01*
X290520Y341492D02*
Y345508D01*
X278512Y353500D02*
X282528D01*
X280520Y351492D02*
Y355508D01*
X278512Y343500D02*
X282528D01*
X280520Y341492D02*
Y345508D01*
X268512Y353500D02*
X272528D01*
X270520Y351492D02*
Y355508D01*
X268512Y343500D02*
X272528D01*
X270520Y341492D02*
Y345508D01*
X258512Y353500D02*
X262528D01*
X260520Y351492D02*
Y355508D01*
X258512Y343500D02*
X262528D01*
X260520Y341492D02*
Y345508D01*
X248512Y353500D02*
X252528D01*
X250520Y351492D02*
Y355508D01*
X248512Y343500D02*
X252528D01*
X250520Y341492D02*
Y345508D01*
X238512Y353500D02*
X242528D01*
X240520Y351492D02*
Y355508D01*
X228512Y353500D02*
X232528D01*
X230520Y351492D02*
Y355508D01*
X218512Y353500D02*
X222528D01*
X220520Y351492D02*
Y355508D01*
X218512Y343500D02*
X222528D01*
X220520Y341492D02*
Y345508D01*
X208512Y353500D02*
X212528D01*
X210520Y351492D02*
Y355508D01*
X198512Y353500D02*
X202528D01*
X200520Y351492D02*
Y355508D01*
X198512Y343500D02*
X202528D01*
X200520Y341492D02*
Y345508D01*
X188512Y353500D02*
X192528D01*
X190520Y351492D02*
Y355508D01*
X188512Y343500D02*
X192528D01*
X190520Y341492D02*
Y345508D01*
X178512Y353500D02*
X182528D01*
X180520Y351492D02*
Y355508D01*
X178512Y343500D02*
X182528D01*
X180520Y341492D02*
Y345508D01*
X149221Y348500D02*
X161819D01*
X155520Y342201D02*
Y354799D01*
X434512Y173500D02*
X438528D01*
X436520Y171492D02*
Y175508D01*
X434512Y163500D02*
X438528D01*
X436520Y161492D02*
Y165508D01*
X328512Y173500D02*
X332528D01*
X330520Y171492D02*
Y175508D01*
X328512Y163500D02*
X332528D01*
X330520Y161492D02*
Y165508D01*
X318512Y173500D02*
X322528D01*
X320520Y171492D02*
Y175508D01*
X318512Y163500D02*
X322528D01*
X320520Y161492D02*
Y165508D01*
X308512Y173500D02*
X312528D01*
X310520Y171492D02*
Y175508D01*
X308512Y163500D02*
X312528D01*
X310520Y161492D02*
Y165508D01*
X298512Y173500D02*
X302528D01*
X300520Y171492D02*
Y175508D01*
X298512Y163500D02*
X302528D01*
X300520Y161492D02*
Y165508D01*
X288512Y173500D02*
X292528D01*
X290520Y171492D02*
Y175508D01*
X288512Y163500D02*
X292528D01*
X290520Y161492D02*
Y165508D01*
X278512Y173500D02*
X282528D01*
X280520Y171492D02*
Y175508D01*
X278512Y163500D02*
X282528D01*
X280520Y161492D02*
Y165508D01*
X268512Y173500D02*
X272528D01*
X270520Y171492D02*
Y175508D01*
X268512Y163500D02*
X272528D01*
X270520Y161492D02*
Y165508D01*
X258512Y173500D02*
X262528D01*
X260520Y171492D02*
Y175508D01*
X258512Y163500D02*
X262528D01*
X260520Y161492D02*
Y165508D01*
X149221Y168500D02*
X161819D01*
X155520Y162201D02*
Y174799D01*
X248512Y173500D02*
X252528D01*
X250520Y171492D02*
Y175508D01*
X248512Y163500D02*
X252528D01*
X250520Y161492D02*
Y165508D01*
X238512Y173500D02*
X242528D01*
X240520Y171492D02*
Y175508D01*
X238512Y163500D02*
X242528D01*
X240520Y161492D02*
Y165508D01*
X228512Y173500D02*
X232528D01*
X230520Y171492D02*
Y175508D01*
X228512Y163500D02*
X232528D01*
X230520Y161492D02*
Y165508D01*
X218512Y173500D02*
X222528D01*
X220520Y171492D02*
Y175508D01*
X218512Y163500D02*
X222528D01*
X220520Y161492D02*
Y165508D01*
X208512Y173500D02*
X212528D01*
X210520Y171492D02*
Y175508D01*
X208512Y163500D02*
X212528D01*
X210520Y161492D02*
Y165508D01*
X198512Y173500D02*
X202528D01*
X200520Y171492D02*
Y175508D01*
X198512Y163500D02*
X202528D01*
X200520Y161492D02*
Y165508D01*
X188512Y173500D02*
X192528D01*
X190520Y171492D02*
Y175508D01*
X188512Y163500D02*
X192528D01*
X190520Y161492D02*
Y165508D01*
X178512Y173500D02*
X182528D01*
X180520Y171492D02*
Y175508D01*
X178512Y163500D02*
X182528D01*
X180520Y161492D02*
Y165508D01*
X444220Y163500D02*
X456819D01*
X450520Y157201D02*
Y169799D01*
X244220Y223500D02*
X256819D01*
X250520Y217201D02*
Y229799D01*
X449221Y353500D02*
X461819D01*
X455520Y347201D02*
Y359799D01*
X424512Y173500D02*
X428528D01*
X426520Y171492D02*
Y175508D01*
X424512Y163500D02*
X428528D01*
X426520Y161492D02*
Y165508D01*
X414512Y173500D02*
X418528D01*
X416520Y171492D02*
Y175508D01*
X414512Y163500D02*
X418528D01*
X416520Y161492D02*
Y165508D01*
X404512Y173500D02*
X408528D01*
X406520Y171492D02*
Y175508D01*
X404512Y163500D02*
X408528D01*
X406520Y161492D02*
Y165508D01*
X394512Y173500D02*
X398528D01*
X396520Y171492D02*
Y175508D01*
X394512Y163500D02*
X398528D01*
X396520Y161492D02*
Y165508D01*
X384512Y173500D02*
X388528D01*
X386520Y171492D02*
Y175508D01*
X384512Y163500D02*
X388528D01*
X386520Y161492D02*
Y165508D01*
X374512Y173500D02*
X378528D01*
X376520Y171492D02*
Y175508D01*
X374512Y163500D02*
X378528D01*
X376520Y161492D02*
Y165508D01*
X364512Y173500D02*
X368528D01*
X366520Y171492D02*
Y175508D01*
X364512Y163500D02*
X368528D01*
X366520Y161492D02*
Y165508D01*
X354512Y173500D02*
X358528D01*
X356520Y171492D02*
Y175508D01*
X354512Y163500D02*
X358528D01*
X356520Y161492D02*
Y165508D01*
X344512Y173500D02*
X348528D01*
X346520Y171492D02*
Y175508D01*
X344512Y163500D02*
X348528D01*
X346520Y161492D02*
Y165508D01*
X168512Y353500D02*
X172528D01*
X170520Y351492D02*
Y355508D01*
X168512Y343500D02*
X172528D01*
X170520Y341492D02*
Y345508D01*
X168512Y173500D02*
X172528D01*
X170520Y171492D02*
Y175508D01*
X168512Y163500D02*
X172528D01*
X170520Y161492D02*
Y165508D01*
X59531Y469500D02*
X63468D01*
X61500Y467531D02*
Y471468D01*
X207031Y479500D02*
X210968D01*
X209000Y477531D02*
Y481468D01*
X288531Y475500D02*
X292469D01*
X290500Y473531D02*
Y477468D01*
X335492Y411000D02*
X339508D01*
X337500Y408992D02*
Y413008D01*
X325492Y411000D02*
X329508D01*
X327500Y408992D02*
Y413008D01*
X41492Y454000D02*
X45508D01*
X43500Y451992D02*
Y456008D01*
X41492Y464000D02*
X45508D01*
X43500Y461992D02*
Y466008D01*
X385638Y61500D02*
X390362D01*
X388000Y59138D02*
Y63862D01*
X385638Y71500D02*
X390362D01*
X388000Y69138D02*
Y73862D01*
X385638Y81500D02*
X390362D01*
X388000Y79138D02*
Y83862D01*
X385638Y91500D02*
X390362D01*
X388000Y89138D02*
Y93862D01*
X385638Y101500D02*
X390362D01*
X388000Y99138D02*
Y103862D01*
X355638Y61500D02*
X360362D01*
X358000Y59138D02*
Y63862D01*
X355638Y71500D02*
X360362D01*
X358000Y69138D02*
Y73862D01*
X355638Y81500D02*
X360362D01*
X358000Y79138D02*
Y83862D01*
X355638Y91500D02*
X360362D01*
X358000Y89138D02*
Y93862D01*
X355638Y101500D02*
X360362D01*
X358000Y99138D02*
Y103862D01*
X558492Y32000D02*
X562508D01*
X560500Y29992D02*
Y34008D01*
X558492Y42000D02*
X562508D01*
X560500Y39992D02*
Y44008D01*
X558492Y52000D02*
X562508D01*
X560500Y49992D02*
Y54008D01*
X558492Y62000D02*
X562508D01*
X560500Y59992D02*
Y64008D01*
X558492Y72000D02*
X562508D01*
X560500Y69992D02*
Y74008D01*
X558492Y82000D02*
X562508D01*
X560500Y79992D02*
Y84008D01*
X558492Y92000D02*
X562508D01*
X560500Y89992D02*
Y94008D01*
X558492Y102000D02*
X562508D01*
X560500Y99992D02*
Y104008D01*
X468492Y32000D02*
X472508D01*
X470500Y29992D02*
Y34008D01*
X468492Y42000D02*
X472508D01*
X470500Y39992D02*
Y44008D01*
X468492Y52000D02*
X472508D01*
X470500Y49992D02*
Y54008D01*
X468492Y62000D02*
X472508D01*
X470500Y59992D02*
Y64008D01*
X468492Y72000D02*
X472508D01*
X470500Y69992D02*
Y74008D01*
X468492Y82000D02*
X472508D01*
X470500Y79992D02*
Y84008D01*
X468492Y92000D02*
X472508D01*
X470500Y89992D02*
Y94008D01*
X468492Y102000D02*
X472508D01*
X470500Y99992D02*
Y104008D01*
X409492Y70500D02*
X413508D01*
X411500Y68492D02*
Y72508D01*
X409492Y80500D02*
X413508D01*
X411500Y78492D02*
Y82508D01*
X409492Y90500D02*
X413508D01*
X411500Y88492D02*
Y92508D01*
X409492Y100500D02*
X413508D01*
X411500Y98492D02*
Y102508D01*
X275100Y92500D02*
X277900D01*
X276500Y91100D02*
Y93900D01*
X302600Y76000D02*
X305400D01*
X304000Y74600D02*
Y77400D01*
X322100Y103000D02*
X324900D01*
X323500Y101600D02*
Y104400D01*
X204100Y467500D02*
X206900D01*
X205500Y466100D02*
Y468900D01*
X269600Y453500D02*
X272400D01*
X271000Y452100D02*
Y454900D01*
X251100Y453500D02*
X253900D01*
X252500Y452100D02*
Y454900D01*
X259100Y472500D02*
X261900D01*
X260500Y471100D02*
Y473900D01*
X268600Y474000D02*
X271400D01*
X270000Y472600D02*
Y475400D01*
X251100Y473500D02*
X253900D01*
X252500Y472100D02*
Y474900D01*
X158100Y448500D02*
X160900D01*
X159500Y447100D02*
Y449900D01*
X158100Y460000D02*
X160900D01*
X159500Y458600D02*
Y461400D01*
X119100Y431000D02*
X121900D01*
X120500Y429600D02*
Y432400D01*
X139100Y449000D02*
X141900D01*
X140500Y447600D02*
Y450400D01*
X158600Y426000D02*
X161400D01*
X160000Y424600D02*
Y427400D01*
X139600Y420000D02*
X142400D01*
X141000Y418600D02*
Y421400D01*
X127100Y419500D02*
X129900D01*
X128500Y418100D02*
Y420900D01*
X102600Y443500D02*
X105400D01*
X104000Y442100D02*
Y444900D01*
X90600Y444000D02*
X93400D01*
X92000Y442600D02*
Y445400D01*
X384100Y48000D02*
X386900D01*
X385500Y46600D02*
Y49400D01*
X333600Y86500D02*
X336400D01*
X335000Y85100D02*
Y87900D01*
X433100Y103000D02*
X435900D01*
X434500Y101600D02*
Y104400D01*
X425100Y114500D02*
X427900D01*
X426500Y113100D02*
Y115900D01*
X370600Y46500D02*
X373400D01*
X372000Y45100D02*
Y47900D01*
M02*
