G04*
G04 #@! TF.GenerationSoftware,Altium Limited,Altium Designer,23.0.1 (38)*
G04*
G04 Layer_Color=16711935*
%FSLAX25Y25*%
%MOIN*%
G70*
G04*
G04 #@! TF.SameCoordinates,96643D2F-BE8E-4E12-8B93-A60CB91944C5*
G04*
G04*
G04 #@! TF.FilePolarity,Positive*
G04*
G01*
G75*
%ADD12C,0.00787*%
%ADD13C,0.00500*%
D12*
X440913Y400390D02*
G03*
X440913Y400390I-394J0D01*
G01*
X305984Y438303D02*
Y448697D01*
X284016D02*
X305984D01*
X284016Y438303D02*
Y448697D01*
Y438303D02*
X305984D01*
X441984Y64803D02*
Y75197D01*
X420016D02*
X441984D01*
X420016Y64803D02*
Y75197D01*
Y64803D02*
X441984D01*
X321516Y405803D02*
Y416197D01*
Y405803D02*
X343484D01*
Y416197D01*
X321516D02*
X343484D01*
X38303Y469984D02*
X48697D01*
X38303Y448016D02*
Y469984D01*
Y448016D02*
X48697D01*
Y469984D01*
D13*
X48394Y396295D02*
G03*
X40520Y388421I0J-7874D01*
G01*
Y128579D02*
G03*
X48394Y120705I7874J0D01*
G01*
X557606D02*
G03*
X565480Y128579I0J7874D01*
G01*
Y388421D02*
G03*
X557606Y396295I-7874J0D01*
G01*
X468787Y183703D02*
G03*
X465087Y183703I-1850J-32D01*
G01*
Y199697D02*
G03*
X468787Y199697I1850J32D01*
G01*
Y228503D02*
G03*
X465087Y228503I-1850J-32D01*
G01*
Y246697D02*
G03*
X468787Y246697I1850J32D01*
G01*
Y321503D02*
G03*
X465087Y321503I-1850J-32D01*
G01*
Y335297D02*
G03*
X468787Y335297I1850J32D01*
G01*
X48394Y396295D02*
X465087D01*
X40520Y128579D02*
Y388421D01*
X48394Y120705D02*
X465087D01*
X468787D02*
X557606D01*
X565480Y128579D02*
Y388421D01*
X468787Y396295D02*
X557606D01*
X465087Y335300D02*
Y396295D01*
Y246700D02*
Y321500D01*
Y199700D02*
Y228500D01*
Y120705D02*
Y183700D01*
X468787Y335300D02*
Y396295D01*
Y246700D02*
Y321500D01*
Y199700D02*
Y228500D01*
Y120705D02*
Y183700D01*
M02*
