G04*
G04 #@! TF.GenerationSoftware,Altium Limited,Altium Designer,23.0.1 (38)*
G04*
G04 Layer_Color=32768*
%FSLAX25Y25*%
%MOIN*%
G70*
G04*
G04 #@! TF.SameCoordinates,96643D2F-BE8E-4E12-8B93-A60CB91944C5*
G04*
G04*
G04 #@! TF.FilePolarity,Positive*
G04*
G01*
G75*
%ADD12C,0.00787*%
%ADD45C,0.00197*%
D12*
X306378Y437910D02*
Y449090D01*
X283622D02*
X306378D01*
X283622Y437910D02*
Y449090D01*
Y437910D02*
X306378D01*
X442378Y64410D02*
Y75590D01*
X419622D02*
X442378D01*
X419622Y64410D02*
Y75590D01*
Y64410D02*
X442378D01*
X321122Y405409D02*
Y416590D01*
Y405409D02*
X343878D01*
Y416590D01*
X321122D02*
X343878D01*
X290685Y407685D02*
Y418315D01*
X301315D01*
Y407685D02*
Y418315D01*
X290685Y407685D02*
X301315D01*
X37909Y470378D02*
X49091D01*
X37909Y447622D02*
Y470378D01*
Y447622D02*
X49091D01*
Y470378D01*
D45*
X557606Y119720D02*
G03*
X566465Y128579I0J8858D01*
G01*
Y388421D02*
G03*
X557606Y397280I-8858J0D01*
G01*
X48394D02*
G03*
X39535Y388421I0J-8858D01*
G01*
Y128579D02*
G03*
X48394Y119720I8858J0D01*
G01*
X557606D01*
X566465Y128579D02*
Y388421D01*
X48394Y397280D02*
X557606D01*
X39535Y128579D02*
Y388421D01*
M02*
