G04*
G04 #@! TF.GenerationSoftware,Altium Limited,Altium Designer,23.0.1 (38)*
G04*
G04 Layer_Color=8421504*
%FSLAX25Y25*%
%MOIN*%
G70*
G04*
G04 #@! TF.SameCoordinates,96643D2F-BE8E-4E12-8B93-A60CB91944C5*
G04*
G04*
G04 #@! TF.FilePolarity,Positive*
G04*
G01*
G75*
%ADD14R,0.03150X0.03543*%
%ADD15R,0.01732X0.05512*%
%ADD16R,0.01378X0.01024*%
%ADD17O,0.01378X0.01024*%
%ADD18R,0.06496X0.05512*%
%ADD19R,0.22008X0.08583*%
%ADD20O,0.04500X0.02992*%
%ADD21R,0.08898X0.11772*%
%ADD22R,0.04500X0.02992*%
%ADD23R,0.06693X0.04331*%
%ADD24R,0.02362X0.06693*%
%ADD25R,0.03937X0.10630*%
%ADD26R,0.03543X0.03543*%
%ADD27R,0.03543X0.03150*%
%ADD28R,0.12992X0.14567*%
D14*
X426000Y102847D02*
D03*
Y96153D02*
D03*
X252500Y466157D02*
D03*
Y460843D02*
D03*
X82000Y464347D02*
D03*
Y457654D02*
D03*
X116500Y436654D02*
D03*
Y443347D02*
D03*
X289500Y99847D02*
D03*
Y93154D02*
D03*
X269683Y466795D02*
D03*
Y461480D02*
D03*
X443000Y96153D02*
D03*
Y102847D02*
D03*
D15*
X261000Y462500D02*
D03*
D16*
X263067Y461713D02*
D03*
X258933Y464862D02*
D03*
Y463287D02*
D03*
Y461713D02*
D03*
Y460138D02*
D03*
X263067Y464862D02*
D03*
Y463287D02*
D03*
D17*
Y460138D02*
D03*
D18*
X141000Y431382D02*
D03*
Y441618D02*
D03*
X129000Y431382D02*
D03*
Y441618D02*
D03*
D19*
X159246Y438000D02*
D03*
X189754D02*
D03*
D20*
X129000Y458000D02*
D03*
Y453000D02*
D03*
X149484Y463000D02*
D03*
Y458000D02*
D03*
Y453000D02*
D03*
X129000Y463000D02*
D03*
X149484Y468000D02*
D03*
D21*
X139242Y460500D02*
D03*
D22*
X129000Y468000D02*
D03*
D23*
X116000Y452898D02*
D03*
Y465102D02*
D03*
X104000D02*
D03*
Y452898D02*
D03*
X92500Y465102D02*
D03*
Y452898D02*
D03*
D24*
X367118Y34913D02*
D03*
X372039D02*
D03*
X376961D02*
D03*
X381882D02*
D03*
X316461Y100500D02*
D03*
X311539D02*
D03*
D25*
X361016Y22315D02*
D03*
X387984D02*
D03*
X323744Y87902D02*
D03*
X304256D02*
D03*
D26*
X293047Y410047D02*
D03*
Y415953D02*
D03*
X298953Y410047D02*
D03*
Y415953D02*
D03*
D27*
X149158Y478000D02*
D03*
X143842D02*
D03*
D28*
X161449Y472500D02*
D03*
X192551D02*
D03*
M02*
