M48
;Layer_Color=9474304
;FILE_FORMAT=2:4
INCH,TZ
;TYPE=PLATED
T1F00S00C0.0280
T2F00S00C0.0394
T3F00S00C0.0402
T4F00S00C0.0472
T5F00S00C0.1362
;TYPE=NON_PLATED
T6F00S00C0.1260
T7F00S00C0.1575
%
T01
X37200Y4650
X38550Y4800
X43450Y10300
X42650Y11450
X32350Y10300
X33500Y8650
X30400Y7600
X27650Y9250
X27100Y45350
X25250
Y47350
X26050Y47250
X27000Y47400
X20550Y46750
X15950Y46000
Y44850
X14050Y44900
X14100Y42000
X12850Y41950
X12050Y43100
X10400Y44350
X9200Y44400
X16000Y42600
T02
X37650Y41100
X36650
X29050Y47550
X20900Y47950
X6150Y46950
Y45150
T03
X47050Y3200
Y4200
Y5200
X56050
Y4200
Y3200
Y6200
Y7200
Y8200
Y9200
Y10200
X47050
Y9200
Y8200
Y7200
Y6200
X43600Y7000
X42600
X41150Y7050
Y8050
Y9050
Y10050
X40652Y16350
X41652
X42652
X43652
Y17350
X42652
X41652
X40652
X39652
Y16350
X38652
Y17350
X37652
Y16350
X36652
Y17350
X35652
Y16350
X34652
Y17350
X33052
Y16350
X32052
Y17350
X31052
Y16350
X30052
Y17350
X29052
Y16350
X28052
Y17350
X27052
Y16350
X26052
Y17350
X25052
Y16350
X24052
Y17350
X23052
Y16350
X22052
Y17350
X21052
Y16350
X20052
Y17350
X19052
Y16350
X18052
Y17350
X17052
Y16350
Y34350
X18052
X19052
X20052
X21052
Y35350
X20052
X19052
X18052
X17052
X22052
X23052
Y34350
X24052
X25052
X26052
X27052
X28052
X29052
X30052
X31052
Y35350
X30052
X29052
X28052
X27052
X26052
X25052
X24052
X22052Y34350
X33052
X34052
X35052
X36052
Y35350
X35052
X34052
X33052
X37052
X38052
X39052
X40052
Y34350
X39052
X38052
X37052
X33750Y41100
X32750
X30000Y44350
X29000
X4350Y45400
Y46400
T04
X38800Y6150
Y7150
Y8150
Y9150
Y10150
X35800
Y9150
Y8150
Y7150
Y6150
T05
X16725Y41100
X19875
T06
X45052Y16350
X15552Y16850
Y34850
X25052Y22350
X45552Y35350
T07
X1181Y1181
X59843
Y50394
X1181
M30
