G04*
G04 #@! TF.GenerationSoftware,Altium Limited,Altium Designer,23.0.1 (38)*
G04*
G04 Layer_Physical_Order=3*
G04 Layer_Color=16440176*
%FSLAX25Y25*%
%MOIN*%
G70*
G04*
G04 #@! TF.SameCoordinates,96643D2F-BE8E-4E12-8B93-A60CB91944C5*
G04*
G04*
G04 #@! TF.FilePolarity,Positive*
G04*
G01*
G75*
%ADD29C,0.06181*%
%ADD30R,0.06181X0.06181*%
%ADD31R,0.06181X0.06181*%
%ADD32C,0.01500*%
%ADD33C,0.06000*%
%ADD34C,0.17559*%
%ADD35R,0.06299X0.07874*%
%ADD36O,0.06299X0.07874*%
%ADD37C,0.06024*%
%ADD38R,0.06024X0.06024*%
%ADD39C,0.12598*%
%ADD40O,0.07874X0.06299*%
%ADD41R,0.07874X0.06299*%
%ADD42R,0.06299X0.06299*%
%ADD43C,0.06299*%
%ADD44C,0.05000*%
G36*
X608000Y4000D02*
X608038Y3962D01*
X607847Y3500D01*
X602275D01*
X602178Y3990D01*
X602528Y4135D01*
X603946Y5083D01*
X605153Y6290D01*
X606101Y7708D01*
X606754Y9285D01*
X607087Y10958D01*
Y12664D01*
X606754Y14337D01*
X606101Y15914D01*
X605153Y17332D01*
X603946Y18539D01*
X602528Y19487D01*
X600952Y20140D01*
X599278Y20472D01*
X597572D01*
X595899Y20140D01*
X594322Y19487D01*
X592904Y18539D01*
X591697Y17332D01*
X590750Y15914D01*
X590097Y14337D01*
X589764Y12664D01*
Y10958D01*
X590097Y9285D01*
X590750Y7708D01*
X591697Y6290D01*
X592904Y5083D01*
X594322Y4135D01*
X594672Y3990D01*
X594575Y3500D01*
X15661D01*
X15564Y3990D01*
X15914Y4135D01*
X17332Y5083D01*
X18539Y6290D01*
X19487Y7708D01*
X20140Y9285D01*
X20472Y10958D01*
Y12664D01*
X20140Y14337D01*
X19487Y15914D01*
X18539Y17332D01*
X17332Y18539D01*
X15914Y19487D01*
X14337Y20140D01*
X12664Y20472D01*
X10958D01*
X9285Y20140D01*
X7708Y19487D01*
X6290Y18539D01*
X5083Y17332D01*
X4135Y15914D01*
X3965Y15502D01*
X3464Y15600D01*
X2002Y512344D01*
X2374Y512499D01*
X2502Y512500D01*
X8544D01*
X8643Y512000D01*
X7708Y511613D01*
X6290Y510665D01*
X5083Y509458D01*
X4135Y508040D01*
X3483Y506463D01*
X3150Y504790D01*
Y503084D01*
X3483Y501411D01*
X4135Y499834D01*
X5083Y498416D01*
X6290Y497209D01*
X7708Y496261D01*
X9285Y495608D01*
X10958Y495276D01*
X12664D01*
X14337Y495608D01*
X15914Y496261D01*
X17332Y497209D01*
X18539Y498416D01*
X19487Y499834D01*
X20140Y501411D01*
X20472Y503084D01*
Y504790D01*
X20140Y506463D01*
X19487Y508040D01*
X18539Y509458D01*
X17332Y510665D01*
X15914Y511613D01*
X14979Y512000D01*
X15078Y512500D01*
X595158D01*
X595258Y512000D01*
X594322Y511613D01*
X592904Y510665D01*
X591697Y509458D01*
X590750Y508040D01*
X590097Y506463D01*
X589764Y504790D01*
Y503084D01*
X590097Y501411D01*
X590750Y499834D01*
X591697Y498416D01*
X592904Y497209D01*
X594322Y496261D01*
X595899Y495608D01*
X597572Y495276D01*
X599278D01*
X600952Y495608D01*
X602528Y496261D01*
X603946Y497209D01*
X605153Y498416D01*
X606101Y499834D01*
X606754Y501411D01*
X607087Y503084D01*
Y504790D01*
X606754Y506463D01*
X606101Y508040D01*
X605153Y509458D01*
X603946Y510665D01*
X602528Y511613D01*
X601593Y512000D01*
X601692Y512500D01*
X608000D01*
Y4000D01*
D02*
G37*
%LPC*%
G36*
X291500Y479657D02*
Y476500D01*
X295341D01*
X295330Y476583D01*
X294912Y477593D01*
X294247Y478460D01*
X293380Y479125D01*
X292371Y479543D01*
X291500Y479657D01*
D02*
G37*
G36*
X289500D02*
X288629Y479543D01*
X287620Y479125D01*
X286753Y478460D01*
X286088Y477593D01*
X285670Y476583D01*
X285659Y476500D01*
X289500D01*
Y479657D01*
D02*
G37*
G36*
X209000Y484258D02*
X207972Y484123D01*
X207014Y483726D01*
X206192Y483095D01*
X205561Y482273D01*
X205164Y481315D01*
X205029Y480287D01*
Y478713D01*
X205164Y477685D01*
X205561Y476727D01*
X206192Y475905D01*
X207014Y475274D01*
X207972Y474877D01*
X209000Y474742D01*
X210028Y474877D01*
X210985Y475274D01*
X211808Y475905D01*
X212439Y476727D01*
X212836Y477685D01*
X212971Y478713D01*
Y480287D01*
X212836Y481315D01*
X212439Y482273D01*
X211808Y483095D01*
X210985Y483726D01*
X210028Y484123D01*
X209000Y484258D01*
D02*
G37*
G36*
X295341Y474500D02*
X291500D01*
Y471343D01*
X292371Y471457D01*
X293380Y471875D01*
X294247Y472541D01*
X294912Y473407D01*
X295330Y474417D01*
X295341Y474500D01*
D02*
G37*
G36*
X289500D02*
X285659D01*
X285670Y474417D01*
X286088Y473407D01*
X286753Y472541D01*
X287620Y471875D01*
X288629Y471457D01*
X289500Y471343D01*
Y474500D01*
D02*
G37*
G36*
X270433Y477287D02*
X269567D01*
X268731Y477063D01*
X267982Y476631D01*
X267369Y476018D01*
X266937Y475269D01*
X266713Y474433D01*
Y473567D01*
X266937Y472731D01*
X267369Y471981D01*
X267982Y471369D01*
X268731Y470937D01*
X269567Y470713D01*
X270433D01*
X271269Y470937D01*
X272019Y471369D01*
X272631Y471981D01*
X273063Y472731D01*
X273287Y473567D01*
Y474433D01*
X273063Y475269D01*
X272631Y476018D01*
X272019Y476631D01*
X271269Y477063D01*
X270433Y477287D01*
D02*
G37*
G36*
X252933Y476787D02*
X252067D01*
X251231Y476563D01*
X250482Y476131D01*
X249869Y475519D01*
X249437Y474769D01*
X249213Y473933D01*
Y473067D01*
X249437Y472231D01*
X249869Y471482D01*
X250482Y470869D01*
X251231Y470437D01*
X252067Y470213D01*
X252933D01*
X253769Y470437D01*
X254519Y470869D01*
X255131Y471482D01*
X255563Y472231D01*
X255787Y473067D01*
Y473933D01*
X255563Y474769D01*
X255131Y475519D01*
X254519Y476131D01*
X253769Y476563D01*
X252933Y476787D01*
D02*
G37*
G36*
X260933Y475787D02*
X260067D01*
X259231Y475563D01*
X258482Y475131D01*
X257869Y474518D01*
X257437Y473769D01*
X257213Y472933D01*
Y472067D01*
X257437Y471231D01*
X257869Y470481D01*
X258482Y469869D01*
X259231Y469437D01*
X260067Y469213D01*
X260933D01*
X261769Y469437D01*
X262519Y469869D01*
X263131Y470481D01*
X263563Y471231D01*
X263787Y472067D01*
Y472933D01*
X263563Y473769D01*
X263131Y474518D01*
X262519Y475131D01*
X261769Y475563D01*
X260933Y475787D01*
D02*
G37*
G36*
X61500Y474258D02*
X60472Y474123D01*
X59514Y473726D01*
X58692Y473095D01*
X58061Y472273D01*
X57664Y471315D01*
X57529Y470287D01*
Y468713D01*
X57664Y467685D01*
X58061Y466727D01*
X58692Y465905D01*
X59514Y465274D01*
X60472Y464877D01*
X61500Y464742D01*
X62528Y464877D01*
X63485Y465274D01*
X64308Y465905D01*
X64939Y466727D01*
X65336Y467685D01*
X65471Y468713D01*
Y470287D01*
X65336Y471315D01*
X64939Y472273D01*
X64308Y473095D01*
X63485Y473726D01*
X62528Y474123D01*
X61500Y474258D01*
D02*
G37*
G36*
X205933Y470787D02*
X205067D01*
X204231Y470563D01*
X203482Y470131D01*
X202869Y469519D01*
X202437Y468769D01*
X202213Y467933D01*
Y467067D01*
X202437Y466231D01*
X202869Y465482D01*
X203482Y464869D01*
X204231Y464437D01*
X205067Y464213D01*
X205933D01*
X206769Y464437D01*
X207519Y464869D01*
X208131Y465482D01*
X208563Y466231D01*
X208787Y467067D01*
Y467933D01*
X208563Y468769D01*
X208131Y469519D01*
X207519Y470131D01*
X206769Y470563D01*
X205933Y470787D01*
D02*
G37*
G36*
X47378Y467878D02*
X39622D01*
Y460122D01*
X47378D01*
Y467878D01*
D02*
G37*
G36*
X159933Y463287D02*
X159067D01*
X158231Y463063D01*
X157482Y462631D01*
X156869Y462018D01*
X156437Y461269D01*
X156213Y460433D01*
Y459567D01*
X156437Y458731D01*
X156869Y457981D01*
X157482Y457369D01*
X158231Y456937D01*
X159067Y456713D01*
X159933D01*
X160769Y456937D01*
X161519Y457369D01*
X162131Y457981D01*
X162563Y458731D01*
X162787Y459567D01*
Y460433D01*
X162563Y461269D01*
X162131Y462018D01*
X161519Y462631D01*
X160769Y463063D01*
X159933Y463287D01*
D02*
G37*
G36*
X252933Y456787D02*
X252067D01*
X251231Y456563D01*
X250482Y456131D01*
X249869Y455518D01*
X249437Y454769D01*
X249213Y453933D01*
Y453067D01*
X249437Y452231D01*
X249869Y451481D01*
X250482Y450869D01*
X251231Y450437D01*
X252067Y450213D01*
X252933D01*
X253769Y450437D01*
X254519Y450869D01*
X255131Y451481D01*
X255563Y452231D01*
X255787Y453067D01*
Y453933D01*
X255563Y454769D01*
X255131Y455518D01*
X254519Y456131D01*
X253769Y456563D01*
X252933Y456787D01*
D02*
G37*
G36*
X44010Y457878D02*
X42990D01*
X42003Y457614D01*
X41119Y457103D01*
X40397Y456381D01*
X39886Y455497D01*
X39622Y454510D01*
Y453489D01*
X39886Y452503D01*
X40397Y451619D01*
X41119Y450897D01*
X42003Y450386D01*
X42990Y450122D01*
X44010D01*
X44997Y450386D01*
X45881Y450897D01*
X46603Y451619D01*
X47114Y452503D01*
X47378Y453489D01*
Y454510D01*
X47114Y455497D01*
X46603Y456381D01*
X45881Y457103D01*
X44997Y457614D01*
X44010Y457878D01*
D02*
G37*
G36*
X61500Y456258D02*
X60472Y456123D01*
X59514Y455726D01*
X58692Y455095D01*
X58061Y454273D01*
X57664Y453315D01*
X57529Y452287D01*
Y450713D01*
X57664Y449685D01*
X58061Y448727D01*
X58692Y447905D01*
X59514Y447274D01*
X60472Y446877D01*
X61500Y446742D01*
X62528Y446877D01*
X63485Y447274D01*
X64308Y447905D01*
X64939Y448727D01*
X65336Y449685D01*
X65471Y450713D01*
Y452287D01*
X65336Y453315D01*
X64939Y454273D01*
X64308Y455095D01*
X63485Y455726D01*
X62528Y456123D01*
X61500Y456258D01*
D02*
G37*
G36*
X140933Y452287D02*
X140067D01*
X139231Y452063D01*
X138481Y451631D01*
X137869Y451018D01*
X137437Y450269D01*
X137213Y449433D01*
Y448567D01*
X137437Y447731D01*
X137869Y446981D01*
X138481Y446369D01*
X139231Y445937D01*
X140067Y445713D01*
X140933D01*
X141769Y445937D01*
X142518Y446369D01*
X143131Y446981D01*
X143563Y447731D01*
X143787Y448567D01*
Y449433D01*
X143563Y450269D01*
X143131Y451018D01*
X142518Y451631D01*
X141769Y452063D01*
X140933Y452287D01*
D02*
G37*
G36*
X159933Y451787D02*
X159067D01*
X158231Y451563D01*
X157482Y451131D01*
X156869Y450519D01*
X156437Y449769D01*
X156213Y448933D01*
Y448067D01*
X156437Y447231D01*
X156869Y446482D01*
X157482Y445869D01*
X158231Y445437D01*
X159067Y445213D01*
X159933D01*
X160769Y445437D01*
X161519Y445869D01*
X162131Y446482D01*
X162563Y447231D01*
X162787Y448067D01*
Y448933D01*
X162563Y449769D01*
X162131Y450519D01*
X161519Y451131D01*
X160769Y451563D01*
X159933Y451787D01*
D02*
G37*
G36*
X92433Y447287D02*
X91567D01*
X90731Y447063D01*
X89982Y446631D01*
X89369Y446019D01*
X88937Y445269D01*
X88713Y444433D01*
Y443567D01*
X88937Y442731D01*
X89369Y441982D01*
X89982Y441369D01*
X90731Y440937D01*
X91567Y440713D01*
X92433D01*
X93269Y440937D01*
X94019Y441369D01*
X94631Y441982D01*
X95063Y442731D01*
X95287Y443567D01*
Y444433D01*
X95063Y445269D01*
X94631Y446019D01*
X94019Y446631D01*
X93269Y447063D01*
X92433Y447287D01*
D02*
G37*
G36*
X104433Y446787D02*
X103567D01*
X102731Y446563D01*
X101981Y446131D01*
X101369Y445518D01*
X100937Y444769D01*
X100713Y443933D01*
Y443067D01*
X100937Y442231D01*
X101369Y441481D01*
X101981Y440869D01*
X102731Y440437D01*
X103567Y440213D01*
X104433D01*
X105269Y440437D01*
X106018Y440869D01*
X106631Y441481D01*
X107063Y442231D01*
X107287Y443067D01*
Y443933D01*
X107063Y444769D01*
X106631Y445518D01*
X106018Y446131D01*
X105269Y446563D01*
X104433Y446787D01*
D02*
G37*
G36*
X303878Y447378D02*
X296122D01*
Y439622D01*
X303878D01*
Y447378D01*
D02*
G37*
G36*
X290511D02*
X289490D01*
X288503Y447114D01*
X287619Y446603D01*
X286897Y445881D01*
X286386Y444997D01*
X286122Y444010D01*
Y442989D01*
X286386Y442003D01*
X286897Y441119D01*
X287619Y440397D01*
X288503Y439886D01*
X289490Y439622D01*
X290511D01*
X291497Y439886D01*
X292381Y440397D01*
X293103Y441119D01*
X293614Y442003D01*
X293878Y442989D01*
Y444010D01*
X293614Y444997D01*
X293103Y445881D01*
X292381Y446603D01*
X291497Y447114D01*
X290511Y447378D01*
D02*
G37*
G36*
X120933Y434287D02*
X120067D01*
X119231Y434063D01*
X118482Y433631D01*
X117869Y433018D01*
X117437Y432269D01*
X117213Y431433D01*
Y430567D01*
X117437Y429731D01*
X117869Y428981D01*
X118482Y428369D01*
X119231Y427937D01*
X120067Y427713D01*
X120933D01*
X121769Y427937D01*
X122519Y428369D01*
X123131Y428981D01*
X123563Y429731D01*
X123787Y430567D01*
Y431433D01*
X123563Y432269D01*
X123131Y433018D01*
X122519Y433631D01*
X121769Y434063D01*
X120933Y434287D01*
D02*
G37*
G36*
X160433Y429287D02*
X159567D01*
X158731Y429063D01*
X157982Y428631D01*
X157369Y428019D01*
X156937Y427269D01*
X156713Y426433D01*
Y425567D01*
X156937Y424731D01*
X157369Y423982D01*
X157982Y423369D01*
X158731Y422937D01*
X159567Y422713D01*
X160433D01*
X161269Y422937D01*
X162019Y423369D01*
X162631Y423982D01*
X163063Y424731D01*
X163287Y425567D01*
Y426433D01*
X163063Y427269D01*
X162631Y428019D01*
X162019Y428631D01*
X161269Y429063D01*
X160433Y429287D01*
D02*
G37*
G36*
X141433Y423287D02*
X140567D01*
X139731Y423063D01*
X138981Y422631D01*
X138369Y422018D01*
X137937Y421269D01*
X137713Y420433D01*
Y419567D01*
X137937Y418731D01*
X138369Y417981D01*
X138981Y417369D01*
X139731Y416937D01*
X140567Y416713D01*
X141433D01*
X142269Y416937D01*
X143018Y417369D01*
X143631Y417981D01*
X144063Y418731D01*
X144287Y419567D01*
Y420433D01*
X144063Y421269D01*
X143631Y422018D01*
X143018Y422631D01*
X142269Y423063D01*
X141433Y423287D01*
D02*
G37*
G36*
X128933Y422787D02*
X128067D01*
X127231Y422563D01*
X126481Y422131D01*
X125869Y421519D01*
X125437Y420769D01*
X125213Y419933D01*
Y419067D01*
X125437Y418231D01*
X125869Y417482D01*
X126481Y416869D01*
X127231Y416437D01*
X128067Y416213D01*
X128933D01*
X129769Y416437D01*
X130518Y416869D01*
X131131Y417482D01*
X131563Y418231D01*
X131787Y419067D01*
Y419933D01*
X131563Y420769D01*
X131131Y421519D01*
X130518Y422131D01*
X129769Y422563D01*
X128933Y422787D01*
D02*
G37*
G36*
X338011Y414878D02*
X336989D01*
X336003Y414614D01*
X335119Y414103D01*
X334397Y413381D01*
X333886Y412497D01*
X333622Y411511D01*
Y410490D01*
X333886Y409503D01*
X334397Y408619D01*
X335119Y407897D01*
X336003Y407386D01*
X336989Y407122D01*
X338011D01*
X338997Y407386D01*
X339881Y407897D01*
X340603Y408619D01*
X341114Y409503D01*
X341378Y410490D01*
Y411511D01*
X341114Y412497D01*
X340603Y413381D01*
X339881Y414103D01*
X338997Y414614D01*
X338011Y414878D01*
D02*
G37*
G36*
X331378D02*
X323622D01*
Y407122D01*
X331378D01*
Y414878D01*
D02*
G37*
G36*
X370437Y415724D02*
X362563D01*
Y406276D01*
X370437D01*
Y415724D01*
D02*
G37*
G36*
X376500Y415758D02*
X375472Y415623D01*
X374515Y415226D01*
X373692Y414595D01*
X373061Y413773D01*
X372664Y412815D01*
X372529Y411787D01*
Y410213D01*
X372664Y409185D01*
X373061Y408227D01*
X373692Y407405D01*
X374515Y406774D01*
X375472Y406377D01*
X376500Y406242D01*
X377528Y406377D01*
X378485Y406774D01*
X379308Y407405D01*
X379939Y408227D01*
X380336Y409185D01*
X380471Y410213D01*
Y411787D01*
X380336Y412815D01*
X379939Y413773D01*
X379308Y414595D01*
X378485Y415226D01*
X377528Y415623D01*
X376500Y415758D01*
D02*
G37*
G36*
X199690Y420567D02*
X197806D01*
X195958Y420199D01*
X194216Y419478D01*
X192649Y418431D01*
X191317Y417099D01*
X190270Y415532D01*
X189549Y413791D01*
X189181Y411942D01*
Y410058D01*
X189549Y408209D01*
X190270Y406468D01*
X191317Y404901D01*
X192649Y403569D01*
X194216Y402522D01*
X195958Y401801D01*
X197806Y401433D01*
X199690D01*
X201539Y401801D01*
X203280Y402522D01*
X204847Y403569D01*
X206179Y404901D01*
X207226Y406468D01*
X207947Y408209D01*
X208315Y410058D01*
Y411942D01*
X207947Y413791D01*
X207226Y415532D01*
X206179Y417099D01*
X204847Y418431D01*
X203280Y419478D01*
X201539Y420199D01*
X199690Y420567D01*
D02*
G37*
G36*
X168194D02*
X166310D01*
X164461Y420199D01*
X162720Y419478D01*
X161153Y418431D01*
X159821Y417099D01*
X158774Y415532D01*
X158053Y413791D01*
X157685Y411942D01*
Y410058D01*
X158053Y408209D01*
X158774Y406468D01*
X159821Y404901D01*
X161153Y403569D01*
X162720Y402522D01*
X164461Y401801D01*
X166310Y401433D01*
X168194D01*
X170043Y401801D01*
X171784Y402522D01*
X173351Y403569D01*
X174683Y404901D01*
X175730Y406468D01*
X176451Y408209D01*
X176819Y410058D01*
Y411942D01*
X176451Y413791D01*
X175730Y415532D01*
X174683Y417099D01*
X173351Y418431D01*
X171784Y419478D01*
X170043Y420199D01*
X168194Y420567D01*
D02*
G37*
G36*
X404319Y357299D02*
X396721D01*
Y349701D01*
X404319D01*
Y357299D01*
D02*
G37*
G36*
X391020D02*
X390019D01*
X389053Y357040D01*
X388187Y356540D01*
X387480Y355833D01*
X386979Y354966D01*
X386720Y354000D01*
Y353000D01*
X386979Y352034D01*
X387480Y351167D01*
X388187Y350460D01*
X389053Y349960D01*
X390019Y349701D01*
X391020D01*
X391986Y349960D01*
X392852Y350460D01*
X393560Y351167D01*
X394060Y352034D01*
X394319Y353000D01*
Y354000D01*
X394060Y354966D01*
X393560Y355833D01*
X392852Y356540D01*
X391986Y357040D01*
X391020Y357299D01*
D02*
G37*
G36*
X381020D02*
X380019D01*
X379053Y357040D01*
X378187Y356540D01*
X377480Y355833D01*
X376979Y354966D01*
X376720Y354000D01*
Y353000D01*
X376979Y352034D01*
X377480Y351167D01*
X378187Y350460D01*
X379053Y349960D01*
X380019Y349701D01*
X381020D01*
X381986Y349960D01*
X382853Y350460D01*
X383560Y351167D01*
X384060Y352034D01*
X384319Y353000D01*
Y354000D01*
X384060Y354966D01*
X383560Y355833D01*
X382853Y356540D01*
X381986Y357040D01*
X381020Y357299D01*
D02*
G37*
G36*
X371020D02*
X370020D01*
X369053Y357040D01*
X368187Y356540D01*
X367480Y355833D01*
X366979Y354966D01*
X366721Y354000D01*
Y353000D01*
X366979Y352034D01*
X367480Y351167D01*
X368187Y350460D01*
X369053Y349960D01*
X370020Y349701D01*
X371020D01*
X371986Y349960D01*
X372852Y350460D01*
X373560Y351167D01*
X374060Y352034D01*
X374319Y353000D01*
Y354000D01*
X374060Y354966D01*
X373560Y355833D01*
X372852Y356540D01*
X371986Y357040D01*
X371020Y357299D01*
D02*
G37*
G36*
X361020D02*
X360019D01*
X359053Y357040D01*
X358187Y356540D01*
X357480Y355833D01*
X356979Y354966D01*
X356720Y354000D01*
Y353000D01*
X356979Y352034D01*
X357480Y351167D01*
X358187Y350460D01*
X359053Y349960D01*
X360019Y349701D01*
X361020D01*
X361986Y349960D01*
X362853Y350460D01*
X363560Y351167D01*
X364060Y352034D01*
X364319Y353000D01*
Y354000D01*
X364060Y354966D01*
X363560Y355833D01*
X362853Y356540D01*
X361986Y357040D01*
X361020Y357299D01*
D02*
G37*
G36*
X351020D02*
X350020D01*
X349053Y357040D01*
X348187Y356540D01*
X347480Y355833D01*
X346979Y354966D01*
X346721Y354000D01*
Y353000D01*
X346979Y352034D01*
X347480Y351167D01*
X348187Y350460D01*
X349053Y349960D01*
X350020Y349701D01*
X351020D01*
X351986Y349960D01*
X352853Y350460D01*
X353560Y351167D01*
X354060Y352034D01*
X354319Y353000D01*
Y354000D01*
X354060Y354966D01*
X353560Y355833D01*
X352853Y356540D01*
X351986Y357040D01*
X351020Y357299D01*
D02*
G37*
G36*
X341020D02*
X340019D01*
X339053Y357040D01*
X338187Y356540D01*
X337480Y355833D01*
X336979Y354966D01*
X336720Y354000D01*
Y353000D01*
X336979Y352034D01*
X337480Y351167D01*
X338187Y350460D01*
X339053Y349960D01*
X340019Y349701D01*
X341020D01*
X341986Y349960D01*
X342852Y350460D01*
X343560Y351167D01*
X344060Y352034D01*
X344319Y353000D01*
Y354000D01*
X344060Y354966D01*
X343560Y355833D01*
X342852Y356540D01*
X341986Y357040D01*
X341020Y357299D01*
D02*
G37*
G36*
X331020D02*
X330019D01*
X329053Y357040D01*
X328187Y356540D01*
X327480Y355833D01*
X326979Y354966D01*
X326720Y354000D01*
Y353000D01*
X326979Y352034D01*
X327480Y351167D01*
X328187Y350460D01*
X329053Y349960D01*
X330019Y349701D01*
X331020D01*
X331986Y349960D01*
X332853Y350460D01*
X333560Y351167D01*
X334060Y352034D01*
X334319Y353000D01*
Y354000D01*
X334060Y354966D01*
X333560Y355833D01*
X332853Y356540D01*
X331986Y357040D01*
X331020Y357299D01*
D02*
G37*
G36*
X314319D02*
X306720D01*
Y349701D01*
X314319D01*
Y357299D01*
D02*
G37*
G36*
X301020D02*
X300020D01*
X299053Y357040D01*
X298187Y356540D01*
X297480Y355833D01*
X296979Y354966D01*
X296721Y354000D01*
Y353000D01*
X296979Y352034D01*
X297480Y351167D01*
X298187Y350460D01*
X299053Y349960D01*
X300020Y349701D01*
X301020D01*
X301986Y349960D01*
X302853Y350460D01*
X303560Y351167D01*
X304060Y352034D01*
X304319Y353000D01*
Y354000D01*
X304060Y354966D01*
X303560Y355833D01*
X302853Y356540D01*
X301986Y357040D01*
X301020Y357299D01*
D02*
G37*
G36*
X291020D02*
X290019D01*
X289053Y357040D01*
X288187Y356540D01*
X287480Y355833D01*
X286979Y354966D01*
X286720Y354000D01*
Y353000D01*
X286979Y352034D01*
X287480Y351167D01*
X288187Y350460D01*
X289053Y349960D01*
X290019Y349701D01*
X291020D01*
X291986Y349960D01*
X292852Y350460D01*
X293560Y351167D01*
X294060Y352034D01*
X294319Y353000D01*
Y354000D01*
X294060Y354966D01*
X293560Y355833D01*
X292852Y356540D01*
X291986Y357040D01*
X291020Y357299D01*
D02*
G37*
G36*
X281020D02*
X280019D01*
X279053Y357040D01*
X278187Y356540D01*
X277480Y355833D01*
X276979Y354966D01*
X276720Y354000D01*
Y353000D01*
X276979Y352034D01*
X277480Y351167D01*
X278187Y350460D01*
X279053Y349960D01*
X280019Y349701D01*
X281020D01*
X281986Y349960D01*
X282853Y350460D01*
X283560Y351167D01*
X284060Y352034D01*
X284319Y353000D01*
Y354000D01*
X284060Y354966D01*
X283560Y355833D01*
X282853Y356540D01*
X281986Y357040D01*
X281020Y357299D01*
D02*
G37*
G36*
X271020D02*
X270020D01*
X269053Y357040D01*
X268187Y356540D01*
X267480Y355833D01*
X266979Y354966D01*
X266721Y354000D01*
Y353000D01*
X266979Y352034D01*
X267480Y351167D01*
X268187Y350460D01*
X269053Y349960D01*
X270020Y349701D01*
X271020D01*
X271986Y349960D01*
X272852Y350460D01*
X273560Y351167D01*
X274060Y352034D01*
X274319Y353000D01*
Y354000D01*
X274060Y354966D01*
X273560Y355833D01*
X272852Y356540D01*
X271986Y357040D01*
X271020Y357299D01*
D02*
G37*
G36*
X261020D02*
X260019D01*
X259053Y357040D01*
X258187Y356540D01*
X257480Y355833D01*
X256979Y354966D01*
X256720Y354000D01*
Y353000D01*
X256979Y352034D01*
X257480Y351167D01*
X258187Y350460D01*
X259053Y349960D01*
X260019Y349701D01*
X261020D01*
X261986Y349960D01*
X262853Y350460D01*
X263560Y351167D01*
X264060Y352034D01*
X264319Y353000D01*
Y354000D01*
X264060Y354966D01*
X263560Y355833D01*
X262853Y356540D01*
X261986Y357040D01*
X261020Y357299D01*
D02*
G37*
G36*
X251020D02*
X250020D01*
X249053Y357040D01*
X248187Y356540D01*
X247480Y355833D01*
X246979Y354966D01*
X246721Y354000D01*
Y353000D01*
X246979Y352034D01*
X247480Y351167D01*
X248187Y350460D01*
X249053Y349960D01*
X250020Y349701D01*
X251020D01*
X251986Y349960D01*
X252853Y350460D01*
X253560Y351167D01*
X254060Y352034D01*
X254319Y353000D01*
Y354000D01*
X254060Y354966D01*
X253560Y355833D01*
X252853Y356540D01*
X251986Y357040D01*
X251020Y357299D01*
D02*
G37*
G36*
X241020D02*
X240019D01*
X239053Y357040D01*
X238187Y356540D01*
X237480Y355833D01*
X236979Y354966D01*
X236720Y354000D01*
Y353000D01*
X236979Y352034D01*
X237480Y351167D01*
X238187Y350460D01*
X239053Y349960D01*
X240019Y349701D01*
X241020D01*
X241986Y349960D01*
X242852Y350460D01*
X243560Y351167D01*
X244060Y352034D01*
X244319Y353000D01*
Y354000D01*
X244060Y354966D01*
X243560Y355833D01*
X242852Y356540D01*
X241986Y357040D01*
X241020Y357299D01*
D02*
G37*
G36*
X231020D02*
X230019D01*
X229053Y357040D01*
X228187Y356540D01*
X227480Y355833D01*
X226979Y354966D01*
X226720Y354000D01*
Y353000D01*
X226979Y352034D01*
X227480Y351167D01*
X228187Y350460D01*
X229053Y349960D01*
X230019Y349701D01*
X231020D01*
X231986Y349960D01*
X232853Y350460D01*
X233560Y351167D01*
X234060Y352034D01*
X234319Y353000D01*
Y354000D01*
X234060Y354966D01*
X233560Y355833D01*
X232853Y356540D01*
X231986Y357040D01*
X231020Y357299D01*
D02*
G37*
G36*
X221020D02*
X220020D01*
X219053Y357040D01*
X218187Y356540D01*
X217480Y355833D01*
X216979Y354966D01*
X216721Y354000D01*
Y353000D01*
X216979Y352034D01*
X217480Y351167D01*
X218187Y350460D01*
X219053Y349960D01*
X220020Y349701D01*
X221020D01*
X221986Y349960D01*
X222852Y350460D01*
X223560Y351167D01*
X224060Y352034D01*
X224319Y353000D01*
Y354000D01*
X224060Y354966D01*
X223560Y355833D01*
X222852Y356540D01*
X221986Y357040D01*
X221020Y357299D01*
D02*
G37*
G36*
X211020D02*
X210019D01*
X209053Y357040D01*
X208187Y356540D01*
X207480Y355833D01*
X206979Y354966D01*
X206720Y354000D01*
Y353000D01*
X206979Y352034D01*
X207480Y351167D01*
X208187Y350460D01*
X209053Y349960D01*
X210019Y349701D01*
X211020D01*
X211986Y349960D01*
X212853Y350460D01*
X213560Y351167D01*
X214060Y352034D01*
X214319Y353000D01*
Y354000D01*
X214060Y354966D01*
X213560Y355833D01*
X212853Y356540D01*
X211986Y357040D01*
X211020Y357299D01*
D02*
G37*
G36*
X201020D02*
X200020D01*
X199053Y357040D01*
X198187Y356540D01*
X197480Y355833D01*
X196979Y354966D01*
X196721Y354000D01*
Y353000D01*
X196979Y352034D01*
X197480Y351167D01*
X198187Y350460D01*
X199053Y349960D01*
X200020Y349701D01*
X201020D01*
X201986Y349960D01*
X202853Y350460D01*
X203560Y351167D01*
X204060Y352034D01*
X204319Y353000D01*
Y354000D01*
X204060Y354966D01*
X203560Y355833D01*
X202853Y356540D01*
X201986Y357040D01*
X201020Y357299D01*
D02*
G37*
G36*
X191020D02*
X190020D01*
X189053Y357040D01*
X188187Y356540D01*
X187480Y355833D01*
X186979Y354966D01*
X186721Y354000D01*
Y353000D01*
X186979Y352034D01*
X187480Y351167D01*
X188187Y350460D01*
X189053Y349960D01*
X190020Y349701D01*
X191020D01*
X191986Y349960D01*
X192852Y350460D01*
X193560Y351167D01*
X194060Y352034D01*
X194319Y353000D01*
Y354000D01*
X194060Y354966D01*
X193560Y355833D01*
X192852Y356540D01*
X191986Y357040D01*
X191020Y357299D01*
D02*
G37*
G36*
X181020D02*
X180019D01*
X179053Y357040D01*
X178187Y356540D01*
X177480Y355833D01*
X176979Y354966D01*
X176720Y354000D01*
Y353000D01*
X176979Y352034D01*
X177480Y351167D01*
X178187Y350460D01*
X179053Y349960D01*
X180019Y349701D01*
X181020D01*
X181986Y349960D01*
X182852Y350460D01*
X183560Y351167D01*
X184060Y352034D01*
X184319Y353000D01*
Y354000D01*
X184060Y354966D01*
X183560Y355833D01*
X182852Y356540D01*
X181986Y357040D01*
X181020Y357299D01*
D02*
G37*
G36*
X171020D02*
X170019D01*
X169053Y357040D01*
X168187Y356540D01*
X167480Y355833D01*
X166979Y354966D01*
X166720Y354000D01*
Y353000D01*
X166979Y352034D01*
X167480Y351167D01*
X168187Y350460D01*
X169053Y349960D01*
X170019Y349701D01*
X171020D01*
X171986Y349960D01*
X172853Y350460D01*
X173560Y351167D01*
X174060Y352034D01*
X174319Y353000D01*
Y354000D01*
X174060Y354966D01*
X173560Y355833D01*
X172853Y356540D01*
X171986Y357040D01*
X171020Y357299D01*
D02*
G37*
G36*
X456218Y360587D02*
X454822D01*
X453453Y360314D01*
X452163Y359780D01*
X451002Y359004D01*
X450015Y358017D01*
X449240Y356857D01*
X448705Y355567D01*
X448433Y354198D01*
Y352802D01*
X448705Y351433D01*
X449240Y350143D01*
X450015Y348983D01*
X451002Y347995D01*
X452163Y347220D01*
X453453Y346686D01*
X454822Y346413D01*
X456218D01*
X457587Y346686D01*
X458877Y347220D01*
X460037Y347995D01*
X461024Y348983D01*
X461800Y350143D01*
X462334Y351433D01*
X462606Y352802D01*
Y354198D01*
X462334Y355567D01*
X461800Y356857D01*
X461024Y358017D01*
X460037Y359004D01*
X458877Y359780D01*
X457587Y360314D01*
X456218Y360587D01*
D02*
G37*
G36*
X156218Y355587D02*
X154822D01*
X153453Y355314D01*
X152163Y354780D01*
X151002Y354005D01*
X150015Y353017D01*
X149240Y351857D01*
X148705Y350567D01*
X148433Y349198D01*
Y347802D01*
X148705Y346433D01*
X149240Y345143D01*
X150015Y343983D01*
X151002Y342996D01*
X152163Y342220D01*
X153453Y341686D01*
X154822Y341413D01*
X156218D01*
X157587Y341686D01*
X158877Y342220D01*
X160037Y342996D01*
X161024Y343983D01*
X161800Y345143D01*
X162334Y346433D01*
X162606Y347802D01*
Y349198D01*
X162334Y350567D01*
X161800Y351857D01*
X161024Y353017D01*
X160037Y354005D01*
X158877Y354780D01*
X157587Y355314D01*
X156218Y355587D01*
D02*
G37*
G36*
X401020Y347299D02*
X400020D01*
X399053Y347040D01*
X398187Y346540D01*
X397480Y345833D01*
X396979Y344966D01*
X396721Y344000D01*
Y343000D01*
X396979Y342034D01*
X397480Y341167D01*
X398187Y340460D01*
X399053Y339960D01*
X400020Y339701D01*
X401020D01*
X401986Y339960D01*
X402852Y340460D01*
X403560Y341167D01*
X404060Y342034D01*
X404319Y343000D01*
Y344000D01*
X404060Y344966D01*
X403560Y345833D01*
X402852Y346540D01*
X401986Y347040D01*
X401020Y347299D01*
D02*
G37*
G36*
X391020D02*
X390019D01*
X389053Y347040D01*
X388187Y346540D01*
X387480Y345833D01*
X386979Y344966D01*
X386720Y344000D01*
Y343000D01*
X386979Y342034D01*
X387480Y341167D01*
X388187Y340460D01*
X389053Y339960D01*
X390019Y339701D01*
X391020D01*
X391986Y339960D01*
X392852Y340460D01*
X393560Y341167D01*
X394060Y342034D01*
X394319Y343000D01*
Y344000D01*
X394060Y344966D01*
X393560Y345833D01*
X392852Y346540D01*
X391986Y347040D01*
X391020Y347299D01*
D02*
G37*
G36*
X381020D02*
X380019D01*
X379053Y347040D01*
X378187Y346540D01*
X377480Y345833D01*
X376979Y344966D01*
X376720Y344000D01*
Y343000D01*
X376979Y342034D01*
X377480Y341167D01*
X378187Y340460D01*
X379053Y339960D01*
X380019Y339701D01*
X381020D01*
X381986Y339960D01*
X382853Y340460D01*
X383560Y341167D01*
X384060Y342034D01*
X384319Y343000D01*
Y344000D01*
X384060Y344966D01*
X383560Y345833D01*
X382853Y346540D01*
X381986Y347040D01*
X381020Y347299D01*
D02*
G37*
G36*
X371020D02*
X370020D01*
X369053Y347040D01*
X368187Y346540D01*
X367480Y345833D01*
X366979Y344966D01*
X366721Y344000D01*
Y343000D01*
X366979Y342034D01*
X367480Y341167D01*
X368187Y340460D01*
X369053Y339960D01*
X370020Y339701D01*
X371020D01*
X371986Y339960D01*
X372852Y340460D01*
X373560Y341167D01*
X374060Y342034D01*
X374319Y343000D01*
Y344000D01*
X374060Y344966D01*
X373560Y345833D01*
X372852Y346540D01*
X371986Y347040D01*
X371020Y347299D01*
D02*
G37*
G36*
X361020D02*
X360019D01*
X359053Y347040D01*
X358187Y346540D01*
X357480Y345833D01*
X356979Y344966D01*
X356720Y344000D01*
Y343000D01*
X356979Y342034D01*
X357480Y341167D01*
X358187Y340460D01*
X359053Y339960D01*
X360019Y339701D01*
X361020D01*
X361986Y339960D01*
X362853Y340460D01*
X363560Y341167D01*
X364060Y342034D01*
X364319Y343000D01*
Y344000D01*
X364060Y344966D01*
X363560Y345833D01*
X362853Y346540D01*
X361986Y347040D01*
X361020Y347299D01*
D02*
G37*
G36*
X351020D02*
X350020D01*
X349053Y347040D01*
X348187Y346540D01*
X347480Y345833D01*
X346979Y344966D01*
X346721Y344000D01*
Y343000D01*
X346979Y342034D01*
X347480Y341167D01*
X348187Y340460D01*
X349053Y339960D01*
X350020Y339701D01*
X351020D01*
X351986Y339960D01*
X352853Y340460D01*
X353560Y341167D01*
X354060Y342034D01*
X354319Y343000D01*
Y344000D01*
X354060Y344966D01*
X353560Y345833D01*
X352853Y346540D01*
X351986Y347040D01*
X351020Y347299D01*
D02*
G37*
G36*
X341020D02*
X340019D01*
X339053Y347040D01*
X338187Y346540D01*
X337480Y345833D01*
X336979Y344966D01*
X336720Y344000D01*
Y343000D01*
X336979Y342034D01*
X337480Y341167D01*
X338187Y340460D01*
X339053Y339960D01*
X340019Y339701D01*
X341020D01*
X341986Y339960D01*
X342852Y340460D01*
X343560Y341167D01*
X344060Y342034D01*
X344319Y343000D01*
Y344000D01*
X344060Y344966D01*
X343560Y345833D01*
X342852Y346540D01*
X341986Y347040D01*
X341020Y347299D01*
D02*
G37*
G36*
X331020D02*
X330019D01*
X329053Y347040D01*
X328187Y346540D01*
X327480Y345833D01*
X326979Y344966D01*
X326720Y344000D01*
Y343000D01*
X326979Y342034D01*
X327480Y341167D01*
X328187Y340460D01*
X329053Y339960D01*
X330019Y339701D01*
X331020D01*
X331986Y339960D01*
X332853Y340460D01*
X333560Y341167D01*
X334060Y342034D01*
X334319Y343000D01*
Y344000D01*
X334060Y344966D01*
X333560Y345833D01*
X332853Y346540D01*
X331986Y347040D01*
X331020Y347299D01*
D02*
G37*
G36*
X311020D02*
X310019D01*
X309053Y347040D01*
X308187Y346540D01*
X307480Y345833D01*
X306979Y344966D01*
X306720Y344000D01*
Y343000D01*
X306979Y342034D01*
X307480Y341167D01*
X308187Y340460D01*
X309053Y339960D01*
X310019Y339701D01*
X311020D01*
X311986Y339960D01*
X312853Y340460D01*
X313560Y341167D01*
X314060Y342034D01*
X314319Y343000D01*
Y344000D01*
X314060Y344966D01*
X313560Y345833D01*
X312853Y346540D01*
X311986Y347040D01*
X311020Y347299D01*
D02*
G37*
G36*
X301020D02*
X300020D01*
X299053Y347040D01*
X298187Y346540D01*
X297480Y345833D01*
X296979Y344966D01*
X296721Y344000D01*
Y343000D01*
X296979Y342034D01*
X297480Y341167D01*
X298187Y340460D01*
X299053Y339960D01*
X300020Y339701D01*
X301020D01*
X301986Y339960D01*
X302853Y340460D01*
X303560Y341167D01*
X304060Y342034D01*
X304319Y343000D01*
Y344000D01*
X304060Y344966D01*
X303560Y345833D01*
X302853Y346540D01*
X301986Y347040D01*
X301020Y347299D01*
D02*
G37*
G36*
X291020D02*
X290019D01*
X289053Y347040D01*
X288187Y346540D01*
X287480Y345833D01*
X286979Y344966D01*
X286720Y344000D01*
Y343000D01*
X286979Y342034D01*
X287480Y341167D01*
X288187Y340460D01*
X289053Y339960D01*
X290019Y339701D01*
X291020D01*
X291986Y339960D01*
X292852Y340460D01*
X293560Y341167D01*
X294060Y342034D01*
X294319Y343000D01*
Y344000D01*
X294060Y344966D01*
X293560Y345833D01*
X292852Y346540D01*
X291986Y347040D01*
X291020Y347299D01*
D02*
G37*
G36*
X281020D02*
X280019D01*
X279053Y347040D01*
X278187Y346540D01*
X277480Y345833D01*
X276979Y344966D01*
X276720Y344000D01*
Y343000D01*
X276979Y342034D01*
X277480Y341167D01*
X278187Y340460D01*
X279053Y339960D01*
X280019Y339701D01*
X281020D01*
X281986Y339960D01*
X282853Y340460D01*
X283560Y341167D01*
X284060Y342034D01*
X284319Y343000D01*
Y344000D01*
X284060Y344966D01*
X283560Y345833D01*
X282853Y346540D01*
X281986Y347040D01*
X281020Y347299D01*
D02*
G37*
G36*
X271020D02*
X270020D01*
X269053Y347040D01*
X268187Y346540D01*
X267480Y345833D01*
X266979Y344966D01*
X266721Y344000D01*
Y343000D01*
X266979Y342034D01*
X267480Y341167D01*
X268187Y340460D01*
X269053Y339960D01*
X270020Y339701D01*
X271020D01*
X271986Y339960D01*
X272852Y340460D01*
X273560Y341167D01*
X274060Y342034D01*
X274319Y343000D01*
Y344000D01*
X274060Y344966D01*
X273560Y345833D01*
X272852Y346540D01*
X271986Y347040D01*
X271020Y347299D01*
D02*
G37*
G36*
X261020D02*
X260019D01*
X259053Y347040D01*
X258187Y346540D01*
X257480Y345833D01*
X256979Y344966D01*
X256720Y344000D01*
Y343000D01*
X256979Y342034D01*
X257480Y341167D01*
X258187Y340460D01*
X259053Y339960D01*
X260019Y339701D01*
X261020D01*
X261986Y339960D01*
X262853Y340460D01*
X263560Y341167D01*
X264060Y342034D01*
X264319Y343000D01*
Y344000D01*
X264060Y344966D01*
X263560Y345833D01*
X262853Y346540D01*
X261986Y347040D01*
X261020Y347299D01*
D02*
G37*
G36*
X251020D02*
X250020D01*
X249053Y347040D01*
X248187Y346540D01*
X247480Y345833D01*
X246979Y344966D01*
X246721Y344000D01*
Y343000D01*
X246979Y342034D01*
X247480Y341167D01*
X248187Y340460D01*
X249053Y339960D01*
X250020Y339701D01*
X251020D01*
X251986Y339960D01*
X252853Y340460D01*
X253560Y341167D01*
X254060Y342034D01*
X254319Y343000D01*
Y344000D01*
X254060Y344966D01*
X253560Y345833D01*
X252853Y346540D01*
X251986Y347040D01*
X251020Y347299D01*
D02*
G37*
G36*
X241020D02*
X240019D01*
X239053Y347040D01*
X238187Y346540D01*
X237480Y345833D01*
X236979Y344966D01*
X236720Y344000D01*
Y343000D01*
X236979Y342034D01*
X237480Y341167D01*
X238187Y340460D01*
X239053Y339960D01*
X240019Y339701D01*
X241020D01*
X241986Y339960D01*
X242852Y340460D01*
X243560Y341167D01*
X244060Y342034D01*
X244319Y343000D01*
Y344000D01*
X244060Y344966D01*
X243560Y345833D01*
X242852Y346540D01*
X241986Y347040D01*
X241020Y347299D01*
D02*
G37*
G36*
X231020D02*
X230019D01*
X229053Y347040D01*
X228187Y346540D01*
X227480Y345833D01*
X226979Y344966D01*
X226720Y344000D01*
Y343000D01*
X226979Y342034D01*
X227480Y341167D01*
X228187Y340460D01*
X229053Y339960D01*
X230019Y339701D01*
X231020D01*
X231986Y339960D01*
X232853Y340460D01*
X233560Y341167D01*
X234060Y342034D01*
X234319Y343000D01*
Y344000D01*
X234060Y344966D01*
X233560Y345833D01*
X232853Y346540D01*
X231986Y347040D01*
X231020Y347299D01*
D02*
G37*
G36*
X221020D02*
X220020D01*
X219053Y347040D01*
X218187Y346540D01*
X217480Y345833D01*
X216979Y344966D01*
X216721Y344000D01*
Y343000D01*
X216979Y342034D01*
X217480Y341167D01*
X218187Y340460D01*
X219053Y339960D01*
X220020Y339701D01*
X221020D01*
X221986Y339960D01*
X222852Y340460D01*
X223560Y341167D01*
X224060Y342034D01*
X224319Y343000D01*
Y344000D01*
X224060Y344966D01*
X223560Y345833D01*
X222852Y346540D01*
X221986Y347040D01*
X221020Y347299D01*
D02*
G37*
G36*
X211020D02*
X210019D01*
X209053Y347040D01*
X208187Y346540D01*
X207480Y345833D01*
X206979Y344966D01*
X206720Y344000D01*
Y343000D01*
X206979Y342034D01*
X207480Y341167D01*
X208187Y340460D01*
X209053Y339960D01*
X210019Y339701D01*
X211020D01*
X211986Y339960D01*
X212853Y340460D01*
X213560Y341167D01*
X214060Y342034D01*
X214319Y343000D01*
Y344000D01*
X214060Y344966D01*
X213560Y345833D01*
X212853Y346540D01*
X211986Y347040D01*
X211020Y347299D01*
D02*
G37*
G36*
X201020D02*
X200020D01*
X199053Y347040D01*
X198187Y346540D01*
X197480Y345833D01*
X196979Y344966D01*
X196721Y344000D01*
Y343000D01*
X196979Y342034D01*
X197480Y341167D01*
X198187Y340460D01*
X199053Y339960D01*
X200020Y339701D01*
X201020D01*
X201986Y339960D01*
X202853Y340460D01*
X203560Y341167D01*
X204060Y342034D01*
X204319Y343000D01*
Y344000D01*
X204060Y344966D01*
X203560Y345833D01*
X202853Y346540D01*
X201986Y347040D01*
X201020Y347299D01*
D02*
G37*
G36*
X191020D02*
X190020D01*
X189053Y347040D01*
X188187Y346540D01*
X187480Y345833D01*
X186979Y344966D01*
X186721Y344000D01*
Y343000D01*
X186979Y342034D01*
X187480Y341167D01*
X188187Y340460D01*
X189053Y339960D01*
X190020Y339701D01*
X191020D01*
X191986Y339960D01*
X192852Y340460D01*
X193560Y341167D01*
X194060Y342034D01*
X194319Y343000D01*
Y344000D01*
X194060Y344966D01*
X193560Y345833D01*
X192852Y346540D01*
X191986Y347040D01*
X191020Y347299D01*
D02*
G37*
G36*
X181020D02*
X180019D01*
X179053Y347040D01*
X178187Y346540D01*
X177480Y345833D01*
X176979Y344966D01*
X176720Y344000D01*
Y343000D01*
X176979Y342034D01*
X177480Y341167D01*
X178187Y340460D01*
X179053Y339960D01*
X180019Y339701D01*
X181020D01*
X181986Y339960D01*
X182852Y340460D01*
X183560Y341167D01*
X184060Y342034D01*
X184319Y343000D01*
Y344000D01*
X184060Y344966D01*
X183560Y345833D01*
X182852Y346540D01*
X181986Y347040D01*
X181020Y347299D01*
D02*
G37*
G36*
X171020D02*
X170019D01*
X169053Y347040D01*
X168187Y346540D01*
X167480Y345833D01*
X166979Y344966D01*
X166720Y344000D01*
Y343000D01*
X166979Y342034D01*
X167480Y341167D01*
X168187Y340460D01*
X169053Y339960D01*
X170019Y339701D01*
X171020D01*
X171986Y339960D01*
X172853Y340460D01*
X173560Y341167D01*
X174060Y342034D01*
X174319Y343000D01*
Y344000D01*
X174060Y344966D01*
X173560Y345833D01*
X172853Y346540D01*
X171986Y347040D01*
X171020Y347299D01*
D02*
G37*
G36*
X251218Y230587D02*
X249822D01*
X248453Y230314D01*
X247163Y229780D01*
X246002Y229005D01*
X245015Y228017D01*
X244240Y226857D01*
X243705Y225567D01*
X243433Y224198D01*
Y222802D01*
X243705Y221433D01*
X244240Y220143D01*
X245015Y218983D01*
X246002Y217996D01*
X247163Y217220D01*
X248453Y216686D01*
X249822Y216413D01*
X251218D01*
X252587Y216686D01*
X253876Y217220D01*
X255037Y217996D01*
X256024Y218983D01*
X256800Y220143D01*
X257334Y221433D01*
X257606Y222802D01*
Y224198D01*
X257334Y225567D01*
X256800Y226857D01*
X256024Y228017D01*
X255037Y229005D01*
X253876Y229780D01*
X252587Y230314D01*
X251218Y230587D01*
D02*
G37*
G36*
X440319Y177299D02*
X432721D01*
Y169701D01*
X440319D01*
Y177299D01*
D02*
G37*
G36*
X427020D02*
X426019D01*
X425053Y177040D01*
X424187Y176540D01*
X423480Y175833D01*
X422979Y174966D01*
X422720Y174000D01*
Y173000D01*
X422979Y172034D01*
X423480Y171167D01*
X424187Y170460D01*
X425053Y169960D01*
X426019Y169701D01*
X427020D01*
X427986Y169960D01*
X428853Y170460D01*
X429560Y171167D01*
X430060Y172034D01*
X430319Y173000D01*
Y174000D01*
X430060Y174966D01*
X429560Y175833D01*
X428853Y176540D01*
X427986Y177040D01*
X427020Y177299D01*
D02*
G37*
G36*
X417020D02*
X416019D01*
X415053Y177040D01*
X414187Y176540D01*
X413480Y175833D01*
X412979Y174966D01*
X412720Y174000D01*
Y173000D01*
X412979Y172034D01*
X413480Y171167D01*
X414187Y170460D01*
X415053Y169960D01*
X416019Y169701D01*
X417020D01*
X417986Y169960D01*
X418853Y170460D01*
X419560Y171167D01*
X420060Y172034D01*
X420319Y173000D01*
Y174000D01*
X420060Y174966D01*
X419560Y175833D01*
X418853Y176540D01*
X417986Y177040D01*
X417020Y177299D01*
D02*
G37*
G36*
X407020D02*
X406019D01*
X405053Y177040D01*
X404187Y176540D01*
X403480Y175833D01*
X402979Y174966D01*
X402720Y174000D01*
Y173000D01*
X402979Y172034D01*
X403480Y171167D01*
X404187Y170460D01*
X405053Y169960D01*
X406019Y169701D01*
X407020D01*
X407986Y169960D01*
X408852Y170460D01*
X409560Y171167D01*
X410060Y172034D01*
X410319Y173000D01*
Y174000D01*
X410060Y174966D01*
X409560Y175833D01*
X408852Y176540D01*
X407986Y177040D01*
X407020Y177299D01*
D02*
G37*
G36*
X397020D02*
X396020D01*
X395053Y177040D01*
X394187Y176540D01*
X393480Y175833D01*
X392979Y174966D01*
X392721Y174000D01*
Y173000D01*
X392979Y172034D01*
X393480Y171167D01*
X394187Y170460D01*
X395053Y169960D01*
X396020Y169701D01*
X397020D01*
X397986Y169960D01*
X398852Y170460D01*
X399560Y171167D01*
X400060Y172034D01*
X400319Y173000D01*
Y174000D01*
X400060Y174966D01*
X399560Y175833D01*
X398852Y176540D01*
X397986Y177040D01*
X397020Y177299D01*
D02*
G37*
G36*
X387020D02*
X386019D01*
X385053Y177040D01*
X384187Y176540D01*
X383480Y175833D01*
X382979Y174966D01*
X382720Y174000D01*
Y173000D01*
X382979Y172034D01*
X383480Y171167D01*
X384187Y170460D01*
X385053Y169960D01*
X386019Y169701D01*
X387020D01*
X387986Y169960D01*
X388853Y170460D01*
X389560Y171167D01*
X390060Y172034D01*
X390319Y173000D01*
Y174000D01*
X390060Y174966D01*
X389560Y175833D01*
X388853Y176540D01*
X387986Y177040D01*
X387020Y177299D01*
D02*
G37*
G36*
X377020D02*
X376020D01*
X375053Y177040D01*
X374187Y176540D01*
X373480Y175833D01*
X372979Y174966D01*
X372721Y174000D01*
Y173000D01*
X372979Y172034D01*
X373480Y171167D01*
X374187Y170460D01*
X375053Y169960D01*
X376020Y169701D01*
X377020D01*
X377986Y169960D01*
X378853Y170460D01*
X379560Y171167D01*
X380060Y172034D01*
X380319Y173000D01*
Y174000D01*
X380060Y174966D01*
X379560Y175833D01*
X378853Y176540D01*
X377986Y177040D01*
X377020Y177299D01*
D02*
G37*
G36*
X367020D02*
X366020D01*
X365053Y177040D01*
X364187Y176540D01*
X363480Y175833D01*
X362979Y174966D01*
X362720Y174000D01*
Y173000D01*
X362979Y172034D01*
X363480Y171167D01*
X364187Y170460D01*
X365053Y169960D01*
X366020Y169701D01*
X367020D01*
X367986Y169960D01*
X368852Y170460D01*
X369560Y171167D01*
X370060Y172034D01*
X370319Y173000D01*
Y174000D01*
X370060Y174966D01*
X369560Y175833D01*
X368852Y176540D01*
X367986Y177040D01*
X367020Y177299D01*
D02*
G37*
G36*
X357020D02*
X356019D01*
X355053Y177040D01*
X354187Y176540D01*
X353480Y175833D01*
X352979Y174966D01*
X352720Y174000D01*
Y173000D01*
X352979Y172034D01*
X353480Y171167D01*
X354187Y170460D01*
X355053Y169960D01*
X356019Y169701D01*
X357020D01*
X357986Y169960D01*
X358853Y170460D01*
X359560Y171167D01*
X360060Y172034D01*
X360319Y173000D01*
Y174000D01*
X360060Y174966D01*
X359560Y175833D01*
X358853Y176540D01*
X357986Y177040D01*
X357020Y177299D01*
D02*
G37*
G36*
X347020D02*
X346020D01*
X345053Y177040D01*
X344187Y176540D01*
X343480Y175833D01*
X342979Y174966D01*
X342721Y174000D01*
Y173000D01*
X342979Y172034D01*
X343480Y171167D01*
X344187Y170460D01*
X345053Y169960D01*
X346020Y169701D01*
X347020D01*
X347986Y169960D01*
X348852Y170460D01*
X349560Y171167D01*
X350060Y172034D01*
X350319Y173000D01*
Y174000D01*
X350060Y174966D01*
X349560Y175833D01*
X348852Y176540D01*
X347986Y177040D01*
X347020Y177299D01*
D02*
G37*
G36*
X334319D02*
X326720D01*
Y169701D01*
X334319D01*
Y177299D01*
D02*
G37*
G36*
X321020D02*
X320020D01*
X319053Y177040D01*
X318187Y176540D01*
X317480Y175833D01*
X316979Y174966D01*
X316721Y174000D01*
Y173000D01*
X316979Y172034D01*
X317480Y171167D01*
X318187Y170460D01*
X319053Y169960D01*
X320020Y169701D01*
X321020D01*
X321986Y169960D01*
X322852Y170460D01*
X323560Y171167D01*
X324060Y172034D01*
X324319Y173000D01*
Y174000D01*
X324060Y174966D01*
X323560Y175833D01*
X322852Y176540D01*
X321986Y177040D01*
X321020Y177299D01*
D02*
G37*
G36*
X311020D02*
X310019D01*
X309053Y177040D01*
X308187Y176540D01*
X307480Y175833D01*
X306979Y174966D01*
X306720Y174000D01*
Y173000D01*
X306979Y172034D01*
X307480Y171167D01*
X308187Y170460D01*
X309053Y169960D01*
X310019Y169701D01*
X311020D01*
X311986Y169960D01*
X312853Y170460D01*
X313560Y171167D01*
X314060Y172034D01*
X314319Y173000D01*
Y174000D01*
X314060Y174966D01*
X313560Y175833D01*
X312853Y176540D01*
X311986Y177040D01*
X311020Y177299D01*
D02*
G37*
G36*
X301020D02*
X300020D01*
X299053Y177040D01*
X298187Y176540D01*
X297480Y175833D01*
X296979Y174966D01*
X296721Y174000D01*
Y173000D01*
X296979Y172034D01*
X297480Y171167D01*
X298187Y170460D01*
X299053Y169960D01*
X300020Y169701D01*
X301020D01*
X301986Y169960D01*
X302853Y170460D01*
X303560Y171167D01*
X304060Y172034D01*
X304319Y173000D01*
Y174000D01*
X304060Y174966D01*
X303560Y175833D01*
X302853Y176540D01*
X301986Y177040D01*
X301020Y177299D01*
D02*
G37*
G36*
X291020D02*
X290019D01*
X289053Y177040D01*
X288187Y176540D01*
X287480Y175833D01*
X286979Y174966D01*
X286720Y174000D01*
Y173000D01*
X286979Y172034D01*
X287480Y171167D01*
X288187Y170460D01*
X289053Y169960D01*
X290019Y169701D01*
X291020D01*
X291986Y169960D01*
X292852Y170460D01*
X293560Y171167D01*
X294060Y172034D01*
X294319Y173000D01*
Y174000D01*
X294060Y174966D01*
X293560Y175833D01*
X292852Y176540D01*
X291986Y177040D01*
X291020Y177299D01*
D02*
G37*
G36*
X281020D02*
X280019D01*
X279053Y177040D01*
X278187Y176540D01*
X277480Y175833D01*
X276979Y174966D01*
X276720Y174000D01*
Y173000D01*
X276979Y172034D01*
X277480Y171167D01*
X278187Y170460D01*
X279053Y169960D01*
X280019Y169701D01*
X281020D01*
X281986Y169960D01*
X282853Y170460D01*
X283560Y171167D01*
X284060Y172034D01*
X284319Y173000D01*
Y174000D01*
X284060Y174966D01*
X283560Y175833D01*
X282853Y176540D01*
X281986Y177040D01*
X281020Y177299D01*
D02*
G37*
G36*
X271020D02*
X270020D01*
X269053Y177040D01*
X268187Y176540D01*
X267480Y175833D01*
X266979Y174966D01*
X266721Y174000D01*
Y173000D01*
X266979Y172034D01*
X267480Y171167D01*
X268187Y170460D01*
X269053Y169960D01*
X270020Y169701D01*
X271020D01*
X271986Y169960D01*
X272852Y170460D01*
X273560Y171167D01*
X274060Y172034D01*
X274319Y173000D01*
Y174000D01*
X274060Y174966D01*
X273560Y175833D01*
X272852Y176540D01*
X271986Y177040D01*
X271020Y177299D01*
D02*
G37*
G36*
X261020D02*
X260019D01*
X259053Y177040D01*
X258187Y176540D01*
X257480Y175833D01*
X256979Y174966D01*
X256720Y174000D01*
Y173000D01*
X256979Y172034D01*
X257480Y171167D01*
X258187Y170460D01*
X259053Y169960D01*
X260019Y169701D01*
X261020D01*
X261986Y169960D01*
X262853Y170460D01*
X263560Y171167D01*
X264060Y172034D01*
X264319Y173000D01*
Y174000D01*
X264060Y174966D01*
X263560Y175833D01*
X262853Y176540D01*
X261986Y177040D01*
X261020Y177299D01*
D02*
G37*
G36*
X251020D02*
X250020D01*
X249053Y177040D01*
X248187Y176540D01*
X247480Y175833D01*
X246979Y174966D01*
X246721Y174000D01*
Y173000D01*
X246979Y172034D01*
X247480Y171167D01*
X248187Y170460D01*
X249053Y169960D01*
X250020Y169701D01*
X251020D01*
X251986Y169960D01*
X252853Y170460D01*
X253560Y171167D01*
X254060Y172034D01*
X254319Y173000D01*
Y174000D01*
X254060Y174966D01*
X253560Y175833D01*
X252853Y176540D01*
X251986Y177040D01*
X251020Y177299D01*
D02*
G37*
G36*
X241020D02*
X240019D01*
X239053Y177040D01*
X238187Y176540D01*
X237480Y175833D01*
X236979Y174966D01*
X236720Y174000D01*
Y173000D01*
X236979Y172034D01*
X237480Y171167D01*
X238187Y170460D01*
X239053Y169960D01*
X240019Y169701D01*
X241020D01*
X241986Y169960D01*
X242852Y170460D01*
X243560Y171167D01*
X244060Y172034D01*
X244319Y173000D01*
Y174000D01*
X244060Y174966D01*
X243560Y175833D01*
X242852Y176540D01*
X241986Y177040D01*
X241020Y177299D01*
D02*
G37*
G36*
X231020D02*
X230019D01*
X229053Y177040D01*
X228187Y176540D01*
X227480Y175833D01*
X226979Y174966D01*
X226720Y174000D01*
Y173000D01*
X226979Y172034D01*
X227480Y171167D01*
X228187Y170460D01*
X229053Y169960D01*
X230019Y169701D01*
X231020D01*
X231986Y169960D01*
X232853Y170460D01*
X233560Y171167D01*
X234060Y172034D01*
X234319Y173000D01*
Y174000D01*
X234060Y174966D01*
X233560Y175833D01*
X232853Y176540D01*
X231986Y177040D01*
X231020Y177299D01*
D02*
G37*
G36*
X221020D02*
X220020D01*
X219053Y177040D01*
X218187Y176540D01*
X217480Y175833D01*
X216979Y174966D01*
X216721Y174000D01*
Y173000D01*
X216979Y172034D01*
X217480Y171167D01*
X218187Y170460D01*
X219053Y169960D01*
X220020Y169701D01*
X221020D01*
X221986Y169960D01*
X222852Y170460D01*
X223560Y171167D01*
X224060Y172034D01*
X224319Y173000D01*
Y174000D01*
X224060Y174966D01*
X223560Y175833D01*
X222852Y176540D01*
X221986Y177040D01*
X221020Y177299D01*
D02*
G37*
G36*
X211020D02*
X210019D01*
X209053Y177040D01*
X208187Y176540D01*
X207480Y175833D01*
X206979Y174966D01*
X206720Y174000D01*
Y173000D01*
X206979Y172034D01*
X207480Y171167D01*
X208187Y170460D01*
X209053Y169960D01*
X210019Y169701D01*
X211020D01*
X211986Y169960D01*
X212853Y170460D01*
X213560Y171167D01*
X214060Y172034D01*
X214319Y173000D01*
Y174000D01*
X214060Y174966D01*
X213560Y175833D01*
X212853Y176540D01*
X211986Y177040D01*
X211020Y177299D01*
D02*
G37*
G36*
X201020D02*
X200020D01*
X199053Y177040D01*
X198187Y176540D01*
X197480Y175833D01*
X196979Y174966D01*
X196721Y174000D01*
Y173000D01*
X196979Y172034D01*
X197480Y171167D01*
X198187Y170460D01*
X199053Y169960D01*
X200020Y169701D01*
X201020D01*
X201986Y169960D01*
X202853Y170460D01*
X203560Y171167D01*
X204060Y172034D01*
X204319Y173000D01*
Y174000D01*
X204060Y174966D01*
X203560Y175833D01*
X202853Y176540D01*
X201986Y177040D01*
X201020Y177299D01*
D02*
G37*
G36*
X191020D02*
X190020D01*
X189053Y177040D01*
X188187Y176540D01*
X187480Y175833D01*
X186979Y174966D01*
X186721Y174000D01*
Y173000D01*
X186979Y172034D01*
X187480Y171167D01*
X188187Y170460D01*
X189053Y169960D01*
X190020Y169701D01*
X191020D01*
X191986Y169960D01*
X192852Y170460D01*
X193560Y171167D01*
X194060Y172034D01*
X194319Y173000D01*
Y174000D01*
X194060Y174966D01*
X193560Y175833D01*
X192852Y176540D01*
X191986Y177040D01*
X191020Y177299D01*
D02*
G37*
G36*
X181020D02*
X180019D01*
X179053Y177040D01*
X178187Y176540D01*
X177480Y175833D01*
X176979Y174966D01*
X176720Y174000D01*
Y173000D01*
X176979Y172034D01*
X177480Y171167D01*
X178187Y170460D01*
X179053Y169960D01*
X180019Y169701D01*
X181020D01*
X181986Y169960D01*
X182852Y170460D01*
X183560Y171167D01*
X184060Y172034D01*
X184319Y173000D01*
Y174000D01*
X184060Y174966D01*
X183560Y175833D01*
X182852Y176540D01*
X181986Y177040D01*
X181020Y177299D01*
D02*
G37*
G36*
X171020D02*
X170019D01*
X169053Y177040D01*
X168187Y176540D01*
X167480Y175833D01*
X166979Y174966D01*
X166720Y174000D01*
Y173000D01*
X166979Y172034D01*
X167480Y171167D01*
X168187Y170460D01*
X169053Y169960D01*
X170019Y169701D01*
X171020D01*
X171986Y169960D01*
X172853Y170460D01*
X173560Y171167D01*
X174060Y172034D01*
X174319Y173000D01*
Y174000D01*
X174060Y174966D01*
X173560Y175833D01*
X172853Y176540D01*
X171986Y177040D01*
X171020Y177299D01*
D02*
G37*
G36*
X156218Y175587D02*
X154822D01*
X153453Y175314D01*
X152163Y174780D01*
X151002Y174004D01*
X150015Y173018D01*
X149240Y171857D01*
X148705Y170567D01*
X148433Y169198D01*
Y167802D01*
X148705Y166433D01*
X149240Y165143D01*
X150015Y163982D01*
X151002Y162996D01*
X152163Y162220D01*
X153453Y161686D01*
X154822Y161413D01*
X156218D01*
X157587Y161686D01*
X158877Y162220D01*
X160037Y162996D01*
X161024Y163982D01*
X161800Y165143D01*
X162334Y166433D01*
X162606Y167802D01*
Y169198D01*
X162334Y170567D01*
X161800Y171857D01*
X161024Y173018D01*
X160037Y174004D01*
X158877Y174780D01*
X157587Y175314D01*
X156218Y175587D01*
D02*
G37*
G36*
X437020Y167299D02*
X436020D01*
X435053Y167040D01*
X434187Y166540D01*
X433480Y165833D01*
X432979Y164966D01*
X432721Y164000D01*
Y163000D01*
X432979Y162034D01*
X433480Y161167D01*
X434187Y160460D01*
X435053Y159960D01*
X436020Y159701D01*
X437020D01*
X437986Y159960D01*
X438853Y160460D01*
X439560Y161167D01*
X440060Y162034D01*
X440319Y163000D01*
Y164000D01*
X440060Y164966D01*
X439560Y165833D01*
X438853Y166540D01*
X437986Y167040D01*
X437020Y167299D01*
D02*
G37*
G36*
X417020D02*
X416019D01*
X415053Y167040D01*
X414187Y166540D01*
X413480Y165833D01*
X412979Y164966D01*
X412720Y164000D01*
Y163000D01*
X412979Y162034D01*
X413480Y161167D01*
X414187Y160460D01*
X415053Y159960D01*
X416019Y159701D01*
X417020D01*
X417986Y159960D01*
X418853Y160460D01*
X419560Y161167D01*
X420060Y162034D01*
X420319Y163000D01*
Y164000D01*
X420060Y164966D01*
X419560Y165833D01*
X418853Y166540D01*
X417986Y167040D01*
X417020Y167299D01*
D02*
G37*
G36*
X407020D02*
X406019D01*
X405053Y167040D01*
X404187Y166540D01*
X403480Y165833D01*
X402979Y164966D01*
X402720Y164000D01*
Y163000D01*
X402979Y162034D01*
X403480Y161167D01*
X404187Y160460D01*
X405053Y159960D01*
X406019Y159701D01*
X407020D01*
X407986Y159960D01*
X408852Y160460D01*
X409560Y161167D01*
X410060Y162034D01*
X410319Y163000D01*
Y164000D01*
X410060Y164966D01*
X409560Y165833D01*
X408852Y166540D01*
X407986Y167040D01*
X407020Y167299D01*
D02*
G37*
G36*
X397020D02*
X396020D01*
X395053Y167040D01*
X394187Y166540D01*
X393480Y165833D01*
X392979Y164966D01*
X392721Y164000D01*
Y163000D01*
X392979Y162034D01*
X393480Y161167D01*
X394187Y160460D01*
X395053Y159960D01*
X396020Y159701D01*
X397020D01*
X397986Y159960D01*
X398852Y160460D01*
X399560Y161167D01*
X400060Y162034D01*
X400319Y163000D01*
Y164000D01*
X400060Y164966D01*
X399560Y165833D01*
X398852Y166540D01*
X397986Y167040D01*
X397020Y167299D01*
D02*
G37*
G36*
X387020D02*
X386019D01*
X385053Y167040D01*
X384187Y166540D01*
X383480Y165833D01*
X382979Y164966D01*
X382720Y164000D01*
Y163000D01*
X382979Y162034D01*
X383480Y161167D01*
X384187Y160460D01*
X385053Y159960D01*
X386019Y159701D01*
X387020D01*
X387986Y159960D01*
X388853Y160460D01*
X389560Y161167D01*
X390060Y162034D01*
X390319Y163000D01*
Y164000D01*
X390060Y164966D01*
X389560Y165833D01*
X388853Y166540D01*
X387986Y167040D01*
X387020Y167299D01*
D02*
G37*
G36*
X377020D02*
X376020D01*
X375053Y167040D01*
X374187Y166540D01*
X373480Y165833D01*
X372979Y164966D01*
X372721Y164000D01*
Y163000D01*
X372979Y162034D01*
X373480Y161167D01*
X374187Y160460D01*
X375053Y159960D01*
X376020Y159701D01*
X377020D01*
X377986Y159960D01*
X378853Y160460D01*
X379560Y161167D01*
X380060Y162034D01*
X380319Y163000D01*
Y164000D01*
X380060Y164966D01*
X379560Y165833D01*
X378853Y166540D01*
X377986Y167040D01*
X377020Y167299D01*
D02*
G37*
G36*
X367020D02*
X366020D01*
X365053Y167040D01*
X364187Y166540D01*
X363480Y165833D01*
X362979Y164966D01*
X362720Y164000D01*
Y163000D01*
X362979Y162034D01*
X363480Y161167D01*
X364187Y160460D01*
X365053Y159960D01*
X366020Y159701D01*
X367020D01*
X367986Y159960D01*
X368852Y160460D01*
X369560Y161167D01*
X370060Y162034D01*
X370319Y163000D01*
Y164000D01*
X370060Y164966D01*
X369560Y165833D01*
X368852Y166540D01*
X367986Y167040D01*
X367020Y167299D01*
D02*
G37*
G36*
X357020D02*
X356019D01*
X355053Y167040D01*
X354187Y166540D01*
X353480Y165833D01*
X352979Y164966D01*
X352720Y164000D01*
Y163000D01*
X352979Y162034D01*
X353480Y161167D01*
X354187Y160460D01*
X355053Y159960D01*
X356019Y159701D01*
X357020D01*
X357986Y159960D01*
X358853Y160460D01*
X359560Y161167D01*
X360060Y162034D01*
X360319Y163000D01*
Y164000D01*
X360060Y164966D01*
X359560Y165833D01*
X358853Y166540D01*
X357986Y167040D01*
X357020Y167299D01*
D02*
G37*
G36*
X347020D02*
X346020D01*
X345053Y167040D01*
X344187Y166540D01*
X343480Y165833D01*
X342979Y164966D01*
X342721Y164000D01*
Y163000D01*
X342979Y162034D01*
X343480Y161167D01*
X344187Y160460D01*
X345053Y159960D01*
X346020Y159701D01*
X347020D01*
X347986Y159960D01*
X348852Y160460D01*
X349560Y161167D01*
X350060Y162034D01*
X350319Y163000D01*
Y164000D01*
X350060Y164966D01*
X349560Y165833D01*
X348852Y166540D01*
X347986Y167040D01*
X347020Y167299D01*
D02*
G37*
G36*
X331020D02*
X330019D01*
X329053Y167040D01*
X328187Y166540D01*
X327480Y165833D01*
X326979Y164966D01*
X326720Y164000D01*
Y163000D01*
X326979Y162034D01*
X327480Y161167D01*
X328187Y160460D01*
X329053Y159960D01*
X330019Y159701D01*
X331020D01*
X331986Y159960D01*
X332853Y160460D01*
X333560Y161167D01*
X334060Y162034D01*
X334319Y163000D01*
Y164000D01*
X334060Y164966D01*
X333560Y165833D01*
X332853Y166540D01*
X331986Y167040D01*
X331020Y167299D01*
D02*
G37*
G36*
X321020D02*
X320020D01*
X319053Y167040D01*
X318187Y166540D01*
X317480Y165833D01*
X316979Y164966D01*
X316721Y164000D01*
Y163000D01*
X316979Y162034D01*
X317480Y161167D01*
X318187Y160460D01*
X319053Y159960D01*
X320020Y159701D01*
X321020D01*
X321986Y159960D01*
X322852Y160460D01*
X323560Y161167D01*
X324060Y162034D01*
X324319Y163000D01*
Y164000D01*
X324060Y164966D01*
X323560Y165833D01*
X322852Y166540D01*
X321986Y167040D01*
X321020Y167299D01*
D02*
G37*
G36*
X311020D02*
X310019D01*
X309053Y167040D01*
X308187Y166540D01*
X307480Y165833D01*
X306979Y164966D01*
X306720Y164000D01*
Y163000D01*
X306979Y162034D01*
X307480Y161167D01*
X308187Y160460D01*
X309053Y159960D01*
X310019Y159701D01*
X311020D01*
X311986Y159960D01*
X312853Y160460D01*
X313560Y161167D01*
X314060Y162034D01*
X314319Y163000D01*
Y164000D01*
X314060Y164966D01*
X313560Y165833D01*
X312853Y166540D01*
X311986Y167040D01*
X311020Y167299D01*
D02*
G37*
G36*
X301020D02*
X300020D01*
X299053Y167040D01*
X298187Y166540D01*
X297480Y165833D01*
X296979Y164966D01*
X296721Y164000D01*
Y163000D01*
X296979Y162034D01*
X297480Y161167D01*
X298187Y160460D01*
X299053Y159960D01*
X300020Y159701D01*
X301020D01*
X301986Y159960D01*
X302853Y160460D01*
X303560Y161167D01*
X304060Y162034D01*
X304319Y163000D01*
Y164000D01*
X304060Y164966D01*
X303560Y165833D01*
X302853Y166540D01*
X301986Y167040D01*
X301020Y167299D01*
D02*
G37*
G36*
X291020D02*
X290019D01*
X289053Y167040D01*
X288187Y166540D01*
X287480Y165833D01*
X286979Y164966D01*
X286720Y164000D01*
Y163000D01*
X286979Y162034D01*
X287480Y161167D01*
X288187Y160460D01*
X289053Y159960D01*
X290019Y159701D01*
X291020D01*
X291986Y159960D01*
X292852Y160460D01*
X293560Y161167D01*
X294060Y162034D01*
X294319Y163000D01*
Y164000D01*
X294060Y164966D01*
X293560Y165833D01*
X292852Y166540D01*
X291986Y167040D01*
X291020Y167299D01*
D02*
G37*
G36*
X281020D02*
X280019D01*
X279053Y167040D01*
X278187Y166540D01*
X277480Y165833D01*
X276979Y164966D01*
X276720Y164000D01*
Y163000D01*
X276979Y162034D01*
X277480Y161167D01*
X278187Y160460D01*
X279053Y159960D01*
X280019Y159701D01*
X281020D01*
X281986Y159960D01*
X282853Y160460D01*
X283560Y161167D01*
X284060Y162034D01*
X284319Y163000D01*
Y164000D01*
X284060Y164966D01*
X283560Y165833D01*
X282853Y166540D01*
X281986Y167040D01*
X281020Y167299D01*
D02*
G37*
G36*
X271020D02*
X270020D01*
X269053Y167040D01*
X268187Y166540D01*
X267480Y165833D01*
X266979Y164966D01*
X266721Y164000D01*
Y163000D01*
X266979Y162034D01*
X267480Y161167D01*
X268187Y160460D01*
X269053Y159960D01*
X270020Y159701D01*
X271020D01*
X271986Y159960D01*
X272852Y160460D01*
X273560Y161167D01*
X274060Y162034D01*
X274319Y163000D01*
Y164000D01*
X274060Y164966D01*
X273560Y165833D01*
X272852Y166540D01*
X271986Y167040D01*
X271020Y167299D01*
D02*
G37*
G36*
X261020D02*
X260019D01*
X259053Y167040D01*
X258187Y166540D01*
X257480Y165833D01*
X256979Y164966D01*
X256720Y164000D01*
Y163000D01*
X256979Y162034D01*
X257480Y161167D01*
X258187Y160460D01*
X259053Y159960D01*
X260019Y159701D01*
X261020D01*
X261986Y159960D01*
X262853Y160460D01*
X263560Y161167D01*
X264060Y162034D01*
X264319Y163000D01*
Y164000D01*
X264060Y164966D01*
X263560Y165833D01*
X262853Y166540D01*
X261986Y167040D01*
X261020Y167299D01*
D02*
G37*
G36*
X251020D02*
X250020D01*
X249053Y167040D01*
X248187Y166540D01*
X247480Y165833D01*
X246979Y164966D01*
X246721Y164000D01*
Y163000D01*
X246979Y162034D01*
X247480Y161167D01*
X248187Y160460D01*
X249053Y159960D01*
X250020Y159701D01*
X251020D01*
X251986Y159960D01*
X252853Y160460D01*
X253560Y161167D01*
X254060Y162034D01*
X254319Y163000D01*
Y164000D01*
X254060Y164966D01*
X253560Y165833D01*
X252853Y166540D01*
X251986Y167040D01*
X251020Y167299D01*
D02*
G37*
G36*
X241020D02*
X240019D01*
X239053Y167040D01*
X238187Y166540D01*
X237480Y165833D01*
X236979Y164966D01*
X236720Y164000D01*
Y163000D01*
X236979Y162034D01*
X237480Y161167D01*
X238187Y160460D01*
X239053Y159960D01*
X240019Y159701D01*
X241020D01*
X241986Y159960D01*
X242852Y160460D01*
X243560Y161167D01*
X244060Y162034D01*
X244319Y163000D01*
Y164000D01*
X244060Y164966D01*
X243560Y165833D01*
X242852Y166540D01*
X241986Y167040D01*
X241020Y167299D01*
D02*
G37*
G36*
X231020D02*
X230019D01*
X229053Y167040D01*
X228187Y166540D01*
X227480Y165833D01*
X226979Y164966D01*
X226720Y164000D01*
Y163000D01*
X226979Y162034D01*
X227480Y161167D01*
X228187Y160460D01*
X229053Y159960D01*
X230019Y159701D01*
X231020D01*
X231986Y159960D01*
X232853Y160460D01*
X233560Y161167D01*
X234060Y162034D01*
X234319Y163000D01*
Y164000D01*
X234060Y164966D01*
X233560Y165833D01*
X232853Y166540D01*
X231986Y167040D01*
X231020Y167299D01*
D02*
G37*
G36*
X221020D02*
X220020D01*
X219053Y167040D01*
X218187Y166540D01*
X217480Y165833D01*
X216979Y164966D01*
X216721Y164000D01*
Y163000D01*
X216979Y162034D01*
X217480Y161167D01*
X218187Y160460D01*
X219053Y159960D01*
X220020Y159701D01*
X221020D01*
X221986Y159960D01*
X222852Y160460D01*
X223560Y161167D01*
X224060Y162034D01*
X224319Y163000D01*
Y164000D01*
X224060Y164966D01*
X223560Y165833D01*
X222852Y166540D01*
X221986Y167040D01*
X221020Y167299D01*
D02*
G37*
G36*
X211020D02*
X210019D01*
X209053Y167040D01*
X208187Y166540D01*
X207480Y165833D01*
X206979Y164966D01*
X206720Y164000D01*
Y163000D01*
X206979Y162034D01*
X207480Y161167D01*
X208187Y160460D01*
X209053Y159960D01*
X210019Y159701D01*
X211020D01*
X211986Y159960D01*
X212853Y160460D01*
X213560Y161167D01*
X214060Y162034D01*
X214319Y163000D01*
Y164000D01*
X214060Y164966D01*
X213560Y165833D01*
X212853Y166540D01*
X211986Y167040D01*
X211020Y167299D01*
D02*
G37*
G36*
X201020D02*
X200020D01*
X199053Y167040D01*
X198187Y166540D01*
X197480Y165833D01*
X196979Y164966D01*
X196721Y164000D01*
Y163000D01*
X196979Y162034D01*
X197480Y161167D01*
X198187Y160460D01*
X199053Y159960D01*
X200020Y159701D01*
X201020D01*
X201986Y159960D01*
X202853Y160460D01*
X203560Y161167D01*
X204060Y162034D01*
X204319Y163000D01*
Y164000D01*
X204060Y164966D01*
X203560Y165833D01*
X202853Y166540D01*
X201986Y167040D01*
X201020Y167299D01*
D02*
G37*
G36*
X191020D02*
X190020D01*
X189053Y167040D01*
X188187Y166540D01*
X187480Y165833D01*
X186979Y164966D01*
X186721Y164000D01*
Y163000D01*
X186979Y162034D01*
X187480Y161167D01*
X188187Y160460D01*
X189053Y159960D01*
X190020Y159701D01*
X191020D01*
X191986Y159960D01*
X192852Y160460D01*
X193560Y161167D01*
X194060Y162034D01*
X194319Y163000D01*
Y164000D01*
X194060Y164966D01*
X193560Y165833D01*
X192852Y166540D01*
X191986Y167040D01*
X191020Y167299D01*
D02*
G37*
G36*
X181020D02*
X180019D01*
X179053Y167040D01*
X178187Y166540D01*
X177480Y165833D01*
X176979Y164966D01*
X176720Y164000D01*
Y163000D01*
X176979Y162034D01*
X177480Y161167D01*
X178187Y160460D01*
X179053Y159960D01*
X180019Y159701D01*
X181020D01*
X181986Y159960D01*
X182852Y160460D01*
X183560Y161167D01*
X184060Y162034D01*
X184319Y163000D01*
Y164000D01*
X184060Y164966D01*
X183560Y165833D01*
X182852Y166540D01*
X181986Y167040D01*
X181020Y167299D01*
D02*
G37*
G36*
X171020D02*
X170019D01*
X169053Y167040D01*
X168187Y166540D01*
X167480Y165833D01*
X166979Y164966D01*
X166720Y164000D01*
Y163000D01*
X166979Y162034D01*
X167480Y161167D01*
X168187Y160460D01*
X169053Y159960D01*
X170019Y159701D01*
X171020D01*
X171986Y159960D01*
X172853Y160460D01*
X173560Y161167D01*
X174060Y162034D01*
X174319Y163000D01*
Y164000D01*
X174060Y164966D01*
X173560Y165833D01*
X172853Y166540D01*
X171986Y167040D01*
X171020Y167299D01*
D02*
G37*
G36*
X451218Y170587D02*
X449822D01*
X448453Y170314D01*
X447163Y169780D01*
X446002Y169004D01*
X445015Y168017D01*
X444240Y166857D01*
X443705Y165567D01*
X443433Y164198D01*
Y162802D01*
X443705Y161433D01*
X444240Y160143D01*
X445015Y158983D01*
X446002Y157995D01*
X447163Y157220D01*
X448453Y156686D01*
X449822Y156413D01*
X451218D01*
X452587Y156686D01*
X453876Y157220D01*
X455037Y157995D01*
X456024Y158983D01*
X456800Y160143D01*
X457334Y161433D01*
X457606Y162802D01*
Y164198D01*
X457334Y165567D01*
X456800Y166857D01*
X456024Y168017D01*
X455037Y169004D01*
X453876Y169780D01*
X452587Y170314D01*
X451218Y170587D01*
D02*
G37*
G36*
X323933Y106287D02*
X323067D01*
X322231Y106063D01*
X321481Y105631D01*
X320869Y105018D01*
X320437Y104269D01*
X320213Y103433D01*
Y102567D01*
X320437Y101731D01*
X320869Y100981D01*
X321481Y100369D01*
X322231Y99937D01*
X323067Y99713D01*
X323933D01*
X324769Y99937D01*
X325518Y100369D01*
X326131Y100981D01*
X326563Y101731D01*
X326787Y102567D01*
Y103433D01*
X326563Y104269D01*
X326131Y105018D01*
X325518Y105631D01*
X324769Y106063D01*
X323933Y106287D01*
D02*
G37*
G36*
X561287Y105971D02*
X559713D01*
X558685Y105836D01*
X557727Y105439D01*
X556905Y104808D01*
X556274Y103986D01*
X555877Y103028D01*
X555742Y102000D01*
X555877Y100972D01*
X556274Y100014D01*
X556905Y99192D01*
X557727Y98561D01*
X558685Y98164D01*
X559713Y98029D01*
X561287D01*
X562315Y98164D01*
X563273Y98561D01*
X564095Y99192D01*
X564726Y100014D01*
X565123Y100972D01*
X565258Y102000D01*
X565123Y103028D01*
X564726Y103986D01*
X564095Y104808D01*
X563273Y105439D01*
X562315Y105836D01*
X561287Y105971D01*
D02*
G37*
G36*
X471287D02*
X469713D01*
X468685Y105836D01*
X467727Y105439D01*
X466905Y104808D01*
X466274Y103986D01*
X465877Y103028D01*
X465742Y102000D01*
X465877Y100972D01*
X466274Y100014D01*
X466905Y99192D01*
X467727Y98561D01*
X468685Y98164D01*
X469713Y98029D01*
X471287D01*
X472315Y98164D01*
X473273Y98561D01*
X474095Y99192D01*
X474726Y100014D01*
X475123Y100972D01*
X475258Y102000D01*
X475123Y103028D01*
X474726Y103986D01*
X474095Y104808D01*
X473273Y105439D01*
X472315Y105836D01*
X471287Y105971D01*
D02*
G37*
G36*
X362724Y105437D02*
X353276D01*
Y97563D01*
X362724D01*
Y105437D01*
D02*
G37*
G36*
X388787Y105471D02*
X387213D01*
X386185Y105336D01*
X385227Y104939D01*
X384405Y104308D01*
X383774Y103486D01*
X383377Y102528D01*
X383242Y101500D01*
X383377Y100472D01*
X383774Y99515D01*
X384405Y98692D01*
X385227Y98061D01*
X386185Y97664D01*
X387213Y97529D01*
X388787D01*
X389815Y97664D01*
X390773Y98061D01*
X391595Y98692D01*
X392226Y99515D01*
X392623Y100472D01*
X392758Y101500D01*
X392623Y102528D01*
X392226Y103486D01*
X391595Y104308D01*
X390773Y104939D01*
X389815Y105336D01*
X388787Y105471D01*
D02*
G37*
G36*
X412018Y104437D02*
X410982D01*
X409980Y104169D01*
X409083Y103650D01*
X408350Y102917D01*
X407831Y102020D01*
X407563Y101018D01*
Y99982D01*
X407831Y98980D01*
X408350Y98083D01*
X409083Y97350D01*
X409980Y96831D01*
X410982Y96563D01*
X412018D01*
X413020Y96831D01*
X413917Y97350D01*
X414650Y98083D01*
X415169Y98980D01*
X415437Y99982D01*
Y101018D01*
X415169Y102020D01*
X414650Y102917D01*
X413917Y103650D01*
X413020Y104169D01*
X412018Y104437D01*
D02*
G37*
G36*
X561500Y96157D02*
Y93000D01*
X565341D01*
X565330Y93083D01*
X564912Y94093D01*
X564247Y94959D01*
X563380Y95625D01*
X562371Y96043D01*
X561500Y96157D01*
D02*
G37*
G36*
X559500D02*
X558629Y96043D01*
X557620Y95625D01*
X556753Y94959D01*
X556088Y94093D01*
X555670Y93083D01*
X555659Y93000D01*
X559500D01*
Y96157D01*
D02*
G37*
G36*
X389000Y95657D02*
Y92500D01*
X392841D01*
X392830Y92583D01*
X392412Y93593D01*
X391747Y94459D01*
X390880Y95125D01*
X389871Y95543D01*
X389000Y95657D01*
D02*
G37*
G36*
X387000D02*
X386129Y95543D01*
X385120Y95125D01*
X384253Y94459D01*
X383588Y93593D01*
X383170Y92583D01*
X383159Y92500D01*
X387000D01*
Y95657D01*
D02*
G37*
G36*
X471287Y95971D02*
X469713D01*
X468685Y95836D01*
X467727Y95439D01*
X466905Y94808D01*
X466274Y93985D01*
X465877Y93028D01*
X465742Y92000D01*
X465877Y90972D01*
X466274Y90014D01*
X466905Y89192D01*
X467727Y88561D01*
X468685Y88164D01*
X469713Y88029D01*
X471287D01*
X472315Y88164D01*
X473273Y88561D01*
X474095Y89192D01*
X474726Y90014D01*
X475123Y90972D01*
X475258Y92000D01*
X475123Y93028D01*
X474726Y93985D01*
X474095Y94808D01*
X473273Y95439D01*
X472315Y95836D01*
X471287Y95971D01*
D02*
G37*
G36*
X565341Y91000D02*
X561500D01*
Y87843D01*
X562371Y87957D01*
X563380Y88375D01*
X564247Y89040D01*
X564912Y89907D01*
X565330Y90917D01*
X565341Y91000D01*
D02*
G37*
G36*
X559500D02*
X555659D01*
X555670Y90917D01*
X556088Y89907D01*
X556753Y89040D01*
X557620Y88375D01*
X558629Y87957D01*
X559500Y87843D01*
Y91000D01*
D02*
G37*
G36*
X358787Y95471D02*
X357213D01*
X356185Y95336D01*
X355227Y94939D01*
X354405Y94308D01*
X353774Y93485D01*
X353377Y92528D01*
X353242Y91500D01*
X353377Y90472D01*
X353774Y89514D01*
X354405Y88692D01*
X355227Y88061D01*
X356185Y87664D01*
X357213Y87529D01*
X358787D01*
X359815Y87664D01*
X360773Y88061D01*
X361595Y88692D01*
X362226Y89514D01*
X362623Y90472D01*
X362758Y91500D01*
X362623Y92528D01*
X362226Y93485D01*
X361595Y94308D01*
X360773Y94939D01*
X359815Y95336D01*
X358787Y95471D01*
D02*
G37*
G36*
X392841Y90500D02*
X389000D01*
Y87343D01*
X389871Y87457D01*
X390880Y87875D01*
X391747Y88541D01*
X392412Y89407D01*
X392830Y90417D01*
X392841Y90500D01*
D02*
G37*
G36*
X387000D02*
X383159D01*
X383170Y90417D01*
X383588Y89407D01*
X384253Y88541D01*
X385120Y87875D01*
X386129Y87457D01*
X387000Y87343D01*
Y90500D01*
D02*
G37*
G36*
X412018Y94437D02*
X410982D01*
X409980Y94169D01*
X409083Y93650D01*
X408350Y92917D01*
X407831Y92020D01*
X407563Y91018D01*
Y89982D01*
X407831Y88980D01*
X408350Y88083D01*
X409083Y87350D01*
X409980Y86831D01*
X410982Y86563D01*
X412018D01*
X413020Y86831D01*
X413917Y87350D01*
X414650Y88083D01*
X415169Y88980D01*
X415437Y89982D01*
Y91018D01*
X415169Y92020D01*
X414650Y92917D01*
X413917Y93650D01*
X413020Y94169D01*
X412018Y94437D01*
D02*
G37*
G36*
X335433Y89787D02*
X334567D01*
X333731Y89563D01*
X332981Y89131D01*
X332369Y88519D01*
X331937Y87769D01*
X331713Y86933D01*
Y86067D01*
X331937Y85231D01*
X332369Y84482D01*
X332981Y83869D01*
X333731Y83437D01*
X334567Y83213D01*
X335433D01*
X336269Y83437D01*
X337018Y83869D01*
X337631Y84482D01*
X338063Y85231D01*
X338287Y86067D01*
Y86933D01*
X338063Y87769D01*
X337631Y88519D01*
X337018Y89131D01*
X336269Y89563D01*
X335433Y89787D01*
D02*
G37*
G36*
X412500Y84528D02*
Y81500D01*
X415528D01*
X415367Y82102D01*
X414820Y83048D01*
X414048Y83820D01*
X413102Y84367D01*
X412500Y84528D01*
D02*
G37*
G36*
X410500D02*
X409898Y84367D01*
X408952Y83820D01*
X408180Y83048D01*
X407633Y82102D01*
X407472Y81500D01*
X410500D01*
Y84528D01*
D02*
G37*
G36*
X561287Y85971D02*
X559713D01*
X558685Y85836D01*
X557727Y85439D01*
X556905Y84808D01*
X556274Y83986D01*
X555877Y83028D01*
X555742Y82000D01*
X555877Y80972D01*
X556274Y80014D01*
X556905Y79192D01*
X557727Y78561D01*
X558685Y78164D01*
X559713Y78029D01*
X561287D01*
X562315Y78164D01*
X563273Y78561D01*
X564095Y79192D01*
X564726Y80014D01*
X565123Y80972D01*
X565258Y82000D01*
X565123Y83028D01*
X564726Y83986D01*
X564095Y84808D01*
X563273Y85439D01*
X562315Y85836D01*
X561287Y85971D01*
D02*
G37*
G36*
X427020Y167299D02*
X426019D01*
X425053Y167040D01*
X424187Y166540D01*
X423480Y165833D01*
X422979Y164966D01*
X422720Y164000D01*
Y163000D01*
X422979Y162034D01*
X423480Y161167D01*
X424187Y160460D01*
X424942Y160024D01*
Y117397D01*
X424481Y117131D01*
X423869Y116518D01*
X423437Y115769D01*
X423213Y114933D01*
Y114067D01*
X423437Y113231D01*
X423869Y112481D01*
X424481Y111869D01*
X424932Y111609D01*
Y104990D01*
Y73729D01*
X424503Y73614D01*
X423619Y73103D01*
X422897Y72381D01*
X422386Y71497D01*
X422122Y70511D01*
Y69490D01*
X422386Y68503D01*
X422897Y67619D01*
X423619Y66897D01*
X424503Y66386D01*
X425490Y66122D01*
X426510D01*
X427497Y66386D01*
X428381Y66897D01*
X429103Y67619D01*
X429614Y68503D01*
X429878Y69490D01*
Y70511D01*
X429614Y71497D01*
X429103Y72381D01*
X428381Y73103D01*
X428067Y73284D01*
Y100552D01*
X428530Y100743D01*
X448381Y80892D01*
X448890Y80552D01*
X449490Y80432D01*
X466101D01*
X466274Y80014D01*
X466905Y79192D01*
X467727Y78561D01*
X468685Y78164D01*
X469713Y78029D01*
X471287D01*
X472315Y78164D01*
X473273Y78561D01*
X474095Y79192D01*
X474726Y80014D01*
X475123Y80972D01*
X475258Y82000D01*
X475123Y83028D01*
X474726Y83986D01*
X474095Y84808D01*
X473273Y85439D01*
X472315Y85836D01*
X471287Y85971D01*
X469713D01*
X468685Y85836D01*
X467727Y85439D01*
X466905Y84808D01*
X466274Y83986D01*
X466101Y83568D01*
X450139D01*
X428067Y105639D01*
Y111609D01*
X428518Y111869D01*
X429131Y112481D01*
X429563Y113231D01*
X429787Y114067D01*
Y114933D01*
X429563Y115769D01*
X429131Y116518D01*
X428518Y117131D01*
X428077Y117385D01*
Y160012D01*
X428853Y160460D01*
X429560Y161167D01*
X430060Y162034D01*
X430319Y163000D01*
Y164000D01*
X430060Y164966D01*
X429560Y165833D01*
X428853Y166540D01*
X427986Y167040D01*
X427020Y167299D01*
D02*
G37*
G36*
X388787Y85471D02*
X387213D01*
X386185Y85336D01*
X385227Y84939D01*
X384405Y84308D01*
X383774Y83486D01*
X383377Y82528D01*
X383242Y81500D01*
X383377Y80472D01*
X383774Y79514D01*
X384405Y78692D01*
X385227Y78061D01*
X386185Y77664D01*
X387213Y77529D01*
X388787D01*
X389815Y77664D01*
X390773Y78061D01*
X391595Y78692D01*
X392226Y79514D01*
X392623Y80472D01*
X392758Y81500D01*
X392623Y82528D01*
X392226Y83486D01*
X391595Y84308D01*
X390773Y84939D01*
X389815Y85336D01*
X388787Y85471D01*
D02*
G37*
G36*
X358787D02*
X357213D01*
X356185Y85336D01*
X355227Y84939D01*
X354405Y84308D01*
X353774Y83486D01*
X353377Y82528D01*
X353242Y81500D01*
X353377Y80472D01*
X353774Y79514D01*
X354405Y78692D01*
X355227Y78061D01*
X356185Y77664D01*
X357213Y77529D01*
X358787D01*
X359815Y77664D01*
X360773Y78061D01*
X361595Y78692D01*
X362226Y79514D01*
X362623Y80472D01*
X362758Y81500D01*
X362623Y82528D01*
X362226Y83486D01*
X361595Y84308D01*
X360773Y84939D01*
X359815Y85336D01*
X358787Y85471D01*
D02*
G37*
G36*
X415528Y79500D02*
X412500D01*
Y76472D01*
X413102Y76633D01*
X414048Y77179D01*
X414820Y77952D01*
X415367Y78898D01*
X415528Y79500D01*
D02*
G37*
G36*
X410500D02*
X407472D01*
X407633Y78898D01*
X408180Y77952D01*
X408952Y77179D01*
X409898Y76633D01*
X410500Y76472D01*
Y79500D01*
D02*
G37*
G36*
X304433Y79287D02*
X303567D01*
X302731Y79063D01*
X301981Y78631D01*
X301369Y78018D01*
X300937Y77269D01*
X300713Y76433D01*
Y75567D01*
X300937Y74731D01*
X301369Y73981D01*
X301981Y73369D01*
X302731Y72937D01*
X303567Y72713D01*
X304433D01*
X305269Y72937D01*
X306018Y73369D01*
X306631Y73981D01*
X307063Y74731D01*
X307287Y75567D01*
Y76433D01*
X307063Y77269D01*
X306631Y78018D01*
X306018Y78631D01*
X305269Y79063D01*
X304433Y79287D01*
D02*
G37*
G36*
X561287Y75971D02*
X559713D01*
X558685Y75836D01*
X557727Y75439D01*
X556905Y74808D01*
X556274Y73985D01*
X555877Y73028D01*
X555742Y72000D01*
X555877Y70972D01*
X556274Y70015D01*
X556905Y69192D01*
X557727Y68561D01*
X558685Y68164D01*
X559713Y68029D01*
X561287D01*
X562315Y68164D01*
X563273Y68561D01*
X564095Y69192D01*
X564726Y70015D01*
X565123Y70972D01*
X565258Y72000D01*
X565123Y73028D01*
X564726Y73985D01*
X564095Y74808D01*
X563273Y75439D01*
X562315Y75836D01*
X561287Y75971D01*
D02*
G37*
G36*
X471287D02*
X469713D01*
X468685Y75836D01*
X467727Y75439D01*
X466905Y74808D01*
X466274Y73985D01*
X465877Y73028D01*
X465742Y72000D01*
X465877Y70972D01*
X466274Y70015D01*
X466905Y69192D01*
X467727Y68561D01*
X468685Y68164D01*
X469713Y68029D01*
X471287D01*
X472315Y68164D01*
X473273Y68561D01*
X474095Y69192D01*
X474726Y70015D01*
X475123Y70972D01*
X475258Y72000D01*
X475123Y73028D01*
X474726Y73985D01*
X474095Y74808D01*
X473273Y75439D01*
X472315Y75836D01*
X471287Y75971D01*
D02*
G37*
G36*
X388787Y75471D02*
X387213D01*
X386185Y75336D01*
X385227Y74939D01*
X384405Y74308D01*
X383774Y73485D01*
X383377Y72528D01*
X383242Y71500D01*
X383377Y70472D01*
X383774Y69515D01*
X384405Y68692D01*
X385227Y68061D01*
X386185Y67664D01*
X387213Y67529D01*
X388787D01*
X389815Y67664D01*
X390773Y68061D01*
X391595Y68692D01*
X392226Y69515D01*
X392623Y70472D01*
X392758Y71500D01*
X392623Y72528D01*
X392226Y73485D01*
X391595Y74308D01*
X390773Y74939D01*
X389815Y75336D01*
X388787Y75471D01*
D02*
G37*
G36*
X358787D02*
X357213D01*
X356185Y75336D01*
X355227Y74939D01*
X354405Y74308D01*
X353774Y73485D01*
X353377Y72528D01*
X353242Y71500D01*
X353377Y70472D01*
X353774Y69515D01*
X354405Y68692D01*
X355227Y68061D01*
X356185Y67664D01*
X357213Y67529D01*
X358787D01*
X359815Y67664D01*
X360773Y68061D01*
X361595Y68692D01*
X362226Y69515D01*
X362623Y70472D01*
X362758Y71500D01*
X362623Y72528D01*
X362226Y73485D01*
X361595Y74308D01*
X360773Y74939D01*
X359815Y75336D01*
X358787Y75471D01*
D02*
G37*
G36*
X415437Y74437D02*
X407563D01*
Y66563D01*
X415437D01*
Y74437D01*
D02*
G37*
G36*
X439878Y73878D02*
X432122D01*
Y66122D01*
X439878D01*
Y73878D01*
D02*
G37*
G36*
X561287Y65971D02*
X559713D01*
X558685Y65836D01*
X557727Y65439D01*
X556905Y64808D01*
X556274Y63986D01*
X555877Y63028D01*
X555742Y62000D01*
X555877Y60972D01*
X556274Y60014D01*
X556905Y59192D01*
X557727Y58561D01*
X558685Y58164D01*
X559713Y58029D01*
X561287D01*
X562315Y58164D01*
X563273Y58561D01*
X564095Y59192D01*
X564726Y60014D01*
X565123Y60972D01*
X565258Y62000D01*
X565123Y63028D01*
X564726Y63986D01*
X564095Y64808D01*
X563273Y65439D01*
X562315Y65836D01*
X561287Y65971D01*
D02*
G37*
G36*
X471287D02*
X469713D01*
X468685Y65836D01*
X467727Y65439D01*
X466905Y64808D01*
X466274Y63986D01*
X465877Y63028D01*
X465742Y62000D01*
X465877Y60972D01*
X466274Y60014D01*
X466905Y59192D01*
X467727Y58561D01*
X468685Y58164D01*
X469713Y58029D01*
X471287D01*
X472315Y58164D01*
X473273Y58561D01*
X474095Y59192D01*
X474726Y60014D01*
X475123Y60972D01*
X475258Y62000D01*
X475123Y63028D01*
X474726Y63986D01*
X474095Y64808D01*
X473273Y65439D01*
X472315Y65836D01*
X471287Y65971D01*
D02*
G37*
G36*
X388787Y65471D02*
X387213D01*
X386185Y65336D01*
X385227Y64939D01*
X384405Y64308D01*
X383774Y63485D01*
X383377Y62528D01*
X383242Y61500D01*
X383377Y60472D01*
X383519Y60129D01*
X373020Y49630D01*
X372433Y49787D01*
X371567D01*
X370731Y49563D01*
X369982Y49131D01*
X369369Y48518D01*
X368937Y47769D01*
X368713Y46933D01*
Y46067D01*
X368937Y45231D01*
X369369Y44482D01*
X369982Y43869D01*
X370731Y43437D01*
X371567Y43213D01*
X372433D01*
X373269Y43437D01*
X374019Y43869D01*
X374631Y44482D01*
X375063Y45231D01*
X375287Y46067D01*
Y46933D01*
X375175Y47352D01*
X385692Y57869D01*
X386185Y57664D01*
X387213Y57529D01*
X388787D01*
X389815Y57664D01*
X390773Y58061D01*
X391595Y58692D01*
X392226Y59514D01*
X392623Y60472D01*
X392758Y61500D01*
X392623Y62528D01*
X392226Y63485D01*
X391595Y64308D01*
X390773Y64939D01*
X389815Y65336D01*
X388787Y65471D01*
D02*
G37*
G36*
X358787D02*
X357213D01*
X356185Y65336D01*
X355227Y64939D01*
X354405Y64308D01*
X353774Y63485D01*
X353377Y62528D01*
X353242Y61500D01*
X353377Y60472D01*
X353774Y59514D01*
X354405Y58692D01*
X355227Y58061D01*
X356185Y57664D01*
X357213Y57529D01*
X358787D01*
X359815Y57664D01*
X360773Y58061D01*
X361595Y58692D01*
X362226Y59514D01*
X362623Y60472D01*
X362758Y61500D01*
X362623Y62528D01*
X362226Y63485D01*
X361595Y64308D01*
X360773Y64939D01*
X359815Y65336D01*
X358787Y65471D01*
D02*
G37*
G36*
X561287Y55971D02*
X559713D01*
X558685Y55836D01*
X557727Y55439D01*
X556905Y54808D01*
X556274Y53986D01*
X555877Y53028D01*
X555742Y52000D01*
X555877Y50972D01*
X556274Y50015D01*
X556905Y49192D01*
X557727Y48561D01*
X558685Y48164D01*
X559713Y48029D01*
X561287D01*
X562315Y48164D01*
X563273Y48561D01*
X564095Y49192D01*
X564726Y50015D01*
X565123Y50972D01*
X565258Y52000D01*
X565123Y53028D01*
X564726Y53986D01*
X564095Y54808D01*
X563273Y55439D01*
X562315Y55836D01*
X561287Y55971D01*
D02*
G37*
G36*
X471287D02*
X469713D01*
X468685Y55836D01*
X467727Y55439D01*
X466905Y54808D01*
X466274Y53986D01*
X465877Y53028D01*
X465742Y52000D01*
X465877Y50972D01*
X466274Y50015D01*
X466905Y49192D01*
X467727Y48561D01*
X468685Y48164D01*
X469713Y48029D01*
X471287D01*
X472315Y48164D01*
X473273Y48561D01*
X474095Y49192D01*
X474726Y50015D01*
X475123Y50972D01*
X475258Y52000D01*
X475123Y53028D01*
X474726Y53986D01*
X474095Y54808D01*
X473273Y55439D01*
X472315Y55836D01*
X471287Y55971D01*
D02*
G37*
G36*
X385933Y51287D02*
X385067D01*
X384231Y51063D01*
X383482Y50631D01*
X382869Y50019D01*
X382437Y49269D01*
X382213Y48433D01*
Y47567D01*
X382437Y46731D01*
X382869Y45981D01*
X383482Y45369D01*
X384231Y44937D01*
X385067Y44713D01*
X385933D01*
X386769Y44937D01*
X387519Y45369D01*
X388131Y45981D01*
X388563Y46731D01*
X388787Y47567D01*
Y48433D01*
X388563Y49269D01*
X388131Y50019D01*
X387519Y50631D01*
X386769Y51063D01*
X385933Y51287D01*
D02*
G37*
G36*
X561287Y45971D02*
X559713D01*
X558685Y45836D01*
X557727Y45439D01*
X556905Y44808D01*
X556274Y43986D01*
X555877Y43028D01*
X555742Y42000D01*
X555877Y40972D01*
X556274Y40014D01*
X556905Y39192D01*
X557727Y38561D01*
X558685Y38164D01*
X559713Y38029D01*
X561287D01*
X562315Y38164D01*
X563273Y38561D01*
X564095Y39192D01*
X564726Y40014D01*
X565123Y40972D01*
X565258Y42000D01*
X565123Y43028D01*
X564726Y43986D01*
X564095Y44808D01*
X563273Y45439D01*
X562315Y45836D01*
X561287Y45971D01*
D02*
G37*
G36*
X471287D02*
X469713D01*
X468685Y45836D01*
X467727Y45439D01*
X466905Y44808D01*
X466274Y43986D01*
X465877Y43028D01*
X465742Y42000D01*
X465877Y40972D01*
X466274Y40014D01*
X466905Y39192D01*
X467727Y38561D01*
X468685Y38164D01*
X469713Y38029D01*
X471287D01*
X472315Y38164D01*
X473273Y38561D01*
X474095Y39192D01*
X474726Y40014D01*
X475123Y40972D01*
X475258Y42000D01*
X475123Y43028D01*
X474726Y43986D01*
X474095Y44808D01*
X473273Y45439D01*
X472315Y45836D01*
X471287Y45971D01*
D02*
G37*
G36*
X565224Y35937D02*
X555776D01*
Y28063D01*
X565224D01*
Y35937D01*
D02*
G37*
G36*
X471287Y35971D02*
X469713D01*
X468685Y35836D01*
X467727Y35439D01*
X466905Y34808D01*
X466274Y33985D01*
X465877Y33028D01*
X465742Y32000D01*
X465877Y30972D01*
X466274Y30015D01*
X466905Y29192D01*
X467727Y28561D01*
X468685Y28164D01*
X469713Y28029D01*
X471287D01*
X472315Y28164D01*
X473273Y28561D01*
X474095Y29192D01*
X474726Y30015D01*
X475123Y30972D01*
X475258Y32000D01*
X475123Y33028D01*
X474726Y33985D01*
X474095Y34808D01*
X473273Y35439D01*
X472315Y35836D01*
X471287Y35971D01*
D02*
G37*
%LPD*%
D29*
X290000Y443500D02*
D03*
X426000Y70000D02*
D03*
X337500Y411000D02*
D03*
X43500Y454000D02*
D03*
D30*
X300000Y443500D02*
D03*
X436000Y70000D02*
D03*
X327500Y411000D02*
D03*
D31*
X43500Y464000D02*
D03*
D32*
X426500Y70500D02*
Y104990D01*
X426000Y70000D02*
X426500Y70500D01*
X372106Y46500D02*
X387106Y61500D01*
X388000D01*
X372000Y46500D02*
X372106D01*
X449490Y82000D02*
X470500D01*
X426500Y104990D02*
X449490Y82000D01*
X426500Y104990D02*
Y114500D01*
X426510Y114510D02*
Y163490D01*
X426520Y163500D01*
X426500Y114500D02*
X426510Y114510D01*
D33*
X11811Y11811D02*
D03*
Y503937D02*
D03*
X598425Y11811D02*
D03*
Y503937D02*
D03*
D34*
X167252Y411000D02*
D03*
X198748D02*
D03*
D35*
X366500D02*
D03*
D36*
X376500D02*
D03*
X61500Y451500D02*
D03*
Y469500D02*
D03*
X209000Y479500D02*
D03*
D37*
X240520Y343500D02*
D03*
X230520D02*
D03*
X210520D02*
D03*
X400520D02*
D03*
X390520Y353500D02*
D03*
Y343500D02*
D03*
X380520Y353500D02*
D03*
Y343500D02*
D03*
X370520Y353500D02*
D03*
Y343500D02*
D03*
X360520Y353500D02*
D03*
Y343500D02*
D03*
X350520Y353500D02*
D03*
Y343500D02*
D03*
X340520Y353500D02*
D03*
Y343500D02*
D03*
X330520Y353500D02*
D03*
Y343500D02*
D03*
X310520D02*
D03*
X300520Y353500D02*
D03*
Y343500D02*
D03*
X290520Y353500D02*
D03*
Y343500D02*
D03*
X280520Y353500D02*
D03*
Y343500D02*
D03*
X270520Y353500D02*
D03*
Y343500D02*
D03*
X260520Y353500D02*
D03*
Y343500D02*
D03*
X250520Y353500D02*
D03*
Y343500D02*
D03*
X240520Y353500D02*
D03*
X230520D02*
D03*
X220520D02*
D03*
Y343500D02*
D03*
X210520Y353500D02*
D03*
X200520D02*
D03*
Y343500D02*
D03*
X190520Y353500D02*
D03*
Y343500D02*
D03*
X180520Y353500D02*
D03*
Y343500D02*
D03*
X436520Y163500D02*
D03*
X330520D02*
D03*
X320520Y173500D02*
D03*
Y163500D02*
D03*
X310520Y173500D02*
D03*
Y163500D02*
D03*
X300520Y173500D02*
D03*
Y163500D02*
D03*
X290520Y173500D02*
D03*
Y163500D02*
D03*
X280520Y173500D02*
D03*
Y163500D02*
D03*
X270520Y173500D02*
D03*
Y163500D02*
D03*
X260520Y173500D02*
D03*
Y163500D02*
D03*
X250520Y173500D02*
D03*
Y163500D02*
D03*
X240520Y173500D02*
D03*
Y163500D02*
D03*
X230520Y173500D02*
D03*
Y163500D02*
D03*
X220520Y173500D02*
D03*
Y163500D02*
D03*
X210520Y173500D02*
D03*
Y163500D02*
D03*
X200520Y173500D02*
D03*
Y163500D02*
D03*
X190520Y173500D02*
D03*
Y163500D02*
D03*
X180520Y173500D02*
D03*
Y163500D02*
D03*
X426520Y173500D02*
D03*
Y163500D02*
D03*
X416520Y173500D02*
D03*
Y163500D02*
D03*
X406520Y173500D02*
D03*
Y163500D02*
D03*
X396520Y173500D02*
D03*
Y163500D02*
D03*
X386520Y173500D02*
D03*
Y163500D02*
D03*
X376520Y173500D02*
D03*
Y163500D02*
D03*
X366520Y173500D02*
D03*
Y163500D02*
D03*
X356520Y173500D02*
D03*
Y163500D02*
D03*
X346520Y173500D02*
D03*
Y163500D02*
D03*
X170520Y353500D02*
D03*
Y343500D02*
D03*
Y173500D02*
D03*
Y163500D02*
D03*
D38*
X400520Y353500D02*
D03*
X310520D02*
D03*
X436520Y173500D02*
D03*
X330520D02*
D03*
D39*
X155520Y348500D02*
D03*
Y168500D02*
D03*
X450520Y163500D02*
D03*
X250520Y223500D02*
D03*
X455520Y353500D02*
D03*
D40*
X290500Y475500D02*
D03*
X388000Y61500D02*
D03*
Y71500D02*
D03*
Y81500D02*
D03*
Y91500D02*
D03*
Y101500D02*
D03*
X358000Y61500D02*
D03*
Y71500D02*
D03*
Y81500D02*
D03*
Y91500D02*
D03*
X560500Y42000D02*
D03*
Y52000D02*
D03*
Y62000D02*
D03*
Y72000D02*
D03*
Y82000D02*
D03*
Y92000D02*
D03*
Y102000D02*
D03*
X470500Y32000D02*
D03*
Y42000D02*
D03*
Y52000D02*
D03*
Y62000D02*
D03*
Y72000D02*
D03*
Y82000D02*
D03*
Y92000D02*
D03*
Y102000D02*
D03*
D41*
X358000Y101500D02*
D03*
X560500Y32000D02*
D03*
D42*
X411500Y70500D02*
D03*
D43*
Y80500D02*
D03*
Y90500D02*
D03*
Y100500D02*
D03*
D44*
X276500Y92500D02*
D03*
X304000Y76000D02*
D03*
X323500Y103000D02*
D03*
X205500Y467500D02*
D03*
X271000Y453500D02*
D03*
X252500D02*
D03*
X260500Y472500D02*
D03*
X270000Y474000D02*
D03*
X252500Y473500D02*
D03*
X159500Y448500D02*
D03*
Y460000D02*
D03*
X120500Y431000D02*
D03*
X140500Y449000D02*
D03*
X160000Y426000D02*
D03*
X141000Y420000D02*
D03*
X128500Y419500D02*
D03*
X104000Y443500D02*
D03*
X92000Y444000D02*
D03*
X385500Y48000D02*
D03*
X335000Y86500D02*
D03*
X434500Y103000D02*
D03*
X426500Y114500D02*
D03*
X372000Y46500D02*
D03*
M02*
