G04*
G04 #@! TF.GenerationSoftware,Altium Limited,Altium Designer,23.0.1 (38)*
G04*
G04 Layer_Color=2752767*
%FSLAX25Y25*%
%MOIN*%
G70*
G04*
G04 #@! TF.SameCoordinates,96643D2F-BE8E-4E12-8B93-A60CB91944C5*
G04*
G04*
G04 #@! TF.FilePolarity,Positive*
G04*
G01*
G75*
%ADD13C,0.00500*%
%ADD47C,0.00667*%
D13*
X10811Y10811D02*
Y9811D01*
X12811D01*
Y10811D01*
X13811D01*
Y12811D01*
X12811D01*
Y13811D01*
X10811D01*
Y12811D01*
X9811D01*
Y10811D01*
X10811D01*
Y502937D02*
Y501937D01*
X12811D01*
Y502937D01*
X13811D01*
Y504937D01*
X12811D01*
Y505937D01*
X10811D01*
Y504937D01*
X9811D01*
Y502937D01*
X10811D01*
X597425Y10811D02*
Y9811D01*
X599425D01*
Y10811D01*
X600425D01*
Y12811D01*
X599425D01*
Y13811D01*
X597425D01*
Y12811D01*
X596425D01*
Y10811D01*
X597425D01*
Y502937D02*
Y501937D01*
X599425D01*
Y502937D01*
X600425D01*
Y504937D01*
X599425D01*
Y505937D01*
X597425D01*
Y504937D01*
X596425D01*
Y502937D01*
X597425D01*
X165252Y409000D02*
X166252D01*
X167252Y410000D01*
X168252Y409000D01*
X169252D01*
Y410000D01*
X168252Y411000D01*
X169252Y412000D01*
Y413000D01*
X168252D01*
X167252Y412000D01*
X166252Y413000D01*
X165252D01*
Y412000D01*
X166252Y411000D01*
X165252Y410000D01*
Y409000D01*
X196748D02*
X197748D01*
X198748Y410000D01*
X199748Y409000D01*
X200748D01*
Y410000D01*
X199748Y411000D01*
X200748Y412000D01*
Y413000D01*
X199748D01*
X198748Y412000D01*
X197748Y413000D01*
X196748D01*
Y412000D01*
X197748Y411000D01*
X196748Y410000D01*
Y409000D01*
X364500D02*
X365500Y411000D01*
X364500Y413000D01*
X366500Y412000D01*
X368500Y413000D01*
X367500Y411000D01*
X368500Y409000D01*
X366500Y410000D01*
X364500Y409000D01*
X374500D02*
X375500Y411000D01*
X374500Y413000D01*
X376500Y412000D01*
X378500Y413000D01*
X377500Y411000D01*
X378500Y409000D01*
X376500Y410000D01*
X374500Y409000D01*
X59500Y449500D02*
X60500Y451500D01*
X59500Y453500D01*
X61500Y452500D01*
X63500Y453500D01*
X62500Y451500D01*
X63500Y449500D01*
X61500Y450500D01*
X59500Y449500D01*
X155520Y346500D02*
X153520Y350500D01*
X157520D01*
X155520Y346500D01*
Y166500D02*
X153520Y170500D01*
X157520D01*
X155520Y166500D01*
X450520Y161500D02*
X448520Y165500D01*
X452520D01*
X450520Y161500D01*
X250520Y221500D02*
X248520Y225500D01*
X252520D01*
X250520Y221500D01*
X455520Y351500D02*
X453520Y355500D01*
X457520D01*
X455520Y351500D01*
X59500Y467500D02*
X60500Y469500D01*
X59500Y471500D01*
X61500Y470500D01*
X63500Y471500D01*
X62500Y469500D01*
X63500Y467500D01*
X61500Y468500D01*
X59500Y467500D01*
X207000Y477500D02*
X208000Y479500D01*
X207000Y481500D01*
X209000Y480500D01*
X211000Y481500D01*
X210000Y479500D01*
X211000Y477500D01*
X209000Y478500D01*
X207000Y477500D01*
X288500Y473500D02*
X289500Y475500D01*
X288500Y477500D01*
X290500Y476500D01*
X292500Y477500D01*
X291500Y475500D01*
X292500Y473500D01*
X290500Y474500D01*
X288500Y473500D01*
X388000Y59500D02*
X389000Y60500D01*
X390000D01*
X389000Y61500D01*
X390000Y62500D01*
X389000D01*
X388000Y63500D01*
X387000Y62500D01*
X386000D01*
X387000Y61500D01*
X386000Y60500D01*
X387000D01*
X388000Y59500D01*
Y69500D02*
X389000Y70500D01*
X390000D01*
X389000Y71500D01*
X390000Y72500D01*
X389000D01*
X388000Y73500D01*
X387000Y72500D01*
X386000D01*
X387000Y71500D01*
X386000Y70500D01*
X387000D01*
X388000Y69500D01*
Y79500D02*
X389000Y80500D01*
X390000D01*
X389000Y81500D01*
X390000Y82500D01*
X389000D01*
X388000Y83500D01*
X387000Y82500D01*
X386000D01*
X387000Y81500D01*
X386000Y80500D01*
X387000D01*
X388000Y79500D01*
Y89500D02*
X389000Y90500D01*
X390000D01*
X389000Y91500D01*
X390000Y92500D01*
X389000D01*
X388000Y93500D01*
X387000Y92500D01*
X386000D01*
X387000Y91500D01*
X386000Y90500D01*
X387000D01*
X388000Y89500D01*
Y99500D02*
X389000Y100500D01*
X390000D01*
X389000Y101500D01*
X390000Y102500D01*
X389000D01*
X388000Y103500D01*
X387000Y102500D01*
X386000D01*
X387000Y101500D01*
X386000Y100500D01*
X387000D01*
X388000Y99500D01*
X358000Y59500D02*
X359000Y60500D01*
X360000D01*
X359000Y61500D01*
X360000Y62500D01*
X359000D01*
X358000Y63500D01*
X357000Y62500D01*
X356000D01*
X357000Y61500D01*
X356000Y60500D01*
X357000D01*
X358000Y59500D01*
Y69500D02*
X359000Y70500D01*
X360000D01*
X359000Y71500D01*
X360000Y72500D01*
X359000D01*
X358000Y73500D01*
X357000Y72500D01*
X356000D01*
X357000Y71500D01*
X356000Y70500D01*
X357000D01*
X358000Y69500D01*
Y79500D02*
X359000Y80500D01*
X360000D01*
X359000Y81500D01*
X360000Y82500D01*
X359000D01*
X358000Y83500D01*
X357000Y82500D01*
X356000D01*
X357000Y81500D01*
X356000Y80500D01*
X357000D01*
X358000Y79500D01*
Y89500D02*
X359000Y90500D01*
X360000D01*
X359000Y91500D01*
X360000Y92500D01*
X359000D01*
X358000Y93500D01*
X357000Y92500D01*
X356000D01*
X357000Y91500D01*
X356000Y90500D01*
X357000D01*
X358000Y89500D01*
Y99500D02*
X359000Y100500D01*
X360000D01*
X359000Y101500D01*
X360000Y102500D01*
X359000D01*
X358000Y103500D01*
X357000Y102500D01*
X356000D01*
X357000Y101500D01*
X356000Y100500D01*
X357000D01*
X358000Y99500D01*
X274500Y90500D02*
Y94500D01*
X278500D01*
Y90500D01*
X274500D01*
X302000Y74000D02*
Y78000D01*
X306000D01*
Y74000D01*
X302000D01*
X321500Y101000D02*
Y105000D01*
X325500D01*
Y101000D01*
X321500D01*
X203500Y465500D02*
Y469500D01*
X207500D01*
Y465500D01*
X203500D01*
X269000Y451500D02*
Y455500D01*
X273000D01*
Y451500D01*
X269000D01*
X250500D02*
Y455500D01*
X254500D01*
Y451500D01*
X250500D01*
X258500Y470500D02*
Y474500D01*
X262500D01*
Y470500D01*
X258500D01*
X268000Y472000D02*
Y476000D01*
X272000D01*
Y472000D01*
X268000D01*
X250500Y471500D02*
Y475500D01*
X254500D01*
Y471500D01*
X250500D01*
X157500Y446500D02*
Y450500D01*
X161500D01*
Y446500D01*
X157500D01*
Y458000D02*
Y462000D01*
X161500D01*
Y458000D01*
X157500D01*
X118500Y429000D02*
Y433000D01*
X122500D01*
Y429000D01*
X118500D01*
X138500Y447000D02*
Y451000D01*
X142500D01*
Y447000D01*
X138500D01*
X158000Y424000D02*
Y428000D01*
X162000D01*
Y424000D01*
X158000D01*
X139000Y418000D02*
Y422000D01*
X143000D01*
Y418000D01*
X139000D01*
X126500Y417500D02*
Y421500D01*
X130500D01*
Y417500D01*
X126500D01*
X102000Y441500D02*
Y445500D01*
X106000D01*
Y441500D01*
X102000D01*
X90000Y442000D02*
Y446000D01*
X94000D01*
Y442000D01*
X90000D01*
X383500Y46000D02*
Y50000D01*
X387500D01*
Y46000D01*
X383500D01*
X333000Y84500D02*
Y88500D01*
X337000D01*
Y84500D01*
X333000D01*
X432500Y101000D02*
Y105000D01*
X436500D01*
Y101000D01*
X432500D01*
X424500Y112500D02*
Y116500D01*
X428500D01*
Y112500D01*
X424500D01*
X370000Y44500D02*
Y48500D01*
X374000D01*
Y44500D01*
X370000D01*
D47*
X292000Y443500D02*
G03*
X292000Y443500I-2000J0D01*
G01*
X302000D02*
G03*
X302000Y443500I-2000J0D01*
G01*
X428000Y70000D02*
G03*
X428000Y70000I-2000J0D01*
G01*
X438000D02*
G03*
X438000Y70000I-2000J0D01*
G01*
X242520Y343500D02*
G03*
X242520Y343500I-2000J0D01*
G01*
X232520D02*
G03*
X232520Y343500I-2000J0D01*
G01*
X212520D02*
G03*
X212520Y343500I-2000J0D01*
G01*
X402520Y353500D02*
G03*
X402520Y353500I-2000J0D01*
G01*
Y343500D02*
G03*
X402520Y343500I-2000J0D01*
G01*
X392520Y353500D02*
G03*
X392520Y353500I-2000J0D01*
G01*
Y343500D02*
G03*
X392520Y343500I-2000J0D01*
G01*
X382520Y353500D02*
G03*
X382520Y353500I-2000J0D01*
G01*
Y343500D02*
G03*
X382520Y343500I-2000J0D01*
G01*
X372520Y353500D02*
G03*
X372520Y353500I-2000J0D01*
G01*
Y343500D02*
G03*
X372520Y343500I-2000J0D01*
G01*
X362520Y353500D02*
G03*
X362520Y353500I-2000J0D01*
G01*
Y343500D02*
G03*
X362520Y343500I-2000J0D01*
G01*
X352520Y353500D02*
G03*
X352520Y353500I-2000J0D01*
G01*
Y343500D02*
G03*
X352520Y343500I-2000J0D01*
G01*
X342520Y353500D02*
G03*
X342520Y353500I-2000J0D01*
G01*
Y343500D02*
G03*
X342520Y343500I-2000J0D01*
G01*
X332520Y353500D02*
G03*
X332520Y353500I-2000J0D01*
G01*
Y343500D02*
G03*
X332520Y343500I-2000J0D01*
G01*
X312520Y353500D02*
G03*
X312520Y353500I-2000J0D01*
G01*
Y343500D02*
G03*
X312520Y343500I-2000J0D01*
G01*
X302520Y353500D02*
G03*
X302520Y353500I-2000J0D01*
G01*
Y343500D02*
G03*
X302520Y343500I-2000J0D01*
G01*
X292520Y353500D02*
G03*
X292520Y353500I-2000J0D01*
G01*
Y343500D02*
G03*
X292520Y343500I-2000J0D01*
G01*
X282520Y353500D02*
G03*
X282520Y353500I-2000J0D01*
G01*
Y343500D02*
G03*
X282520Y343500I-2000J0D01*
G01*
X272520Y353500D02*
G03*
X272520Y353500I-2000J0D01*
G01*
Y343500D02*
G03*
X272520Y343500I-2000J0D01*
G01*
X262520Y353500D02*
G03*
X262520Y353500I-2000J0D01*
G01*
Y343500D02*
G03*
X262520Y343500I-2000J0D01*
G01*
X252520Y353500D02*
G03*
X252520Y353500I-2000J0D01*
G01*
Y343500D02*
G03*
X252520Y343500I-2000J0D01*
G01*
X242520Y353500D02*
G03*
X242520Y353500I-2000J0D01*
G01*
X232520D02*
G03*
X232520Y353500I-2000J0D01*
G01*
X222520D02*
G03*
X222520Y353500I-2000J0D01*
G01*
Y343500D02*
G03*
X222520Y343500I-2000J0D01*
G01*
X212520Y353500D02*
G03*
X212520Y353500I-2000J0D01*
G01*
X202520D02*
G03*
X202520Y353500I-2000J0D01*
G01*
Y343500D02*
G03*
X202520Y343500I-2000J0D01*
G01*
X192520Y353500D02*
G03*
X192520Y353500I-2000J0D01*
G01*
Y343500D02*
G03*
X192520Y343500I-2000J0D01*
G01*
X182520Y353500D02*
G03*
X182520Y353500I-2000J0D01*
G01*
Y343500D02*
G03*
X182520Y343500I-2000J0D01*
G01*
X438520Y173500D02*
G03*
X438520Y173500I-2000J0D01*
G01*
Y163500D02*
G03*
X438520Y163500I-2000J0D01*
G01*
X332520Y173500D02*
G03*
X332520Y173500I-2000J0D01*
G01*
Y163500D02*
G03*
X332520Y163500I-2000J0D01*
G01*
X322520Y173500D02*
G03*
X322520Y173500I-2000J0D01*
G01*
Y163500D02*
G03*
X322520Y163500I-2000J0D01*
G01*
X312520Y173500D02*
G03*
X312520Y173500I-2000J0D01*
G01*
Y163500D02*
G03*
X312520Y163500I-2000J0D01*
G01*
X302520Y173500D02*
G03*
X302520Y173500I-2000J0D01*
G01*
Y163500D02*
G03*
X302520Y163500I-2000J0D01*
G01*
X292520Y173500D02*
G03*
X292520Y173500I-2000J0D01*
G01*
Y163500D02*
G03*
X292520Y163500I-2000J0D01*
G01*
X282520Y173500D02*
G03*
X282520Y173500I-2000J0D01*
G01*
Y163500D02*
G03*
X282520Y163500I-2000J0D01*
G01*
X272520Y173500D02*
G03*
X272520Y173500I-2000J0D01*
G01*
Y163500D02*
G03*
X272520Y163500I-2000J0D01*
G01*
X262520Y173500D02*
G03*
X262520Y173500I-2000J0D01*
G01*
Y163500D02*
G03*
X262520Y163500I-2000J0D01*
G01*
X252520Y173500D02*
G03*
X252520Y173500I-2000J0D01*
G01*
Y163500D02*
G03*
X252520Y163500I-2000J0D01*
G01*
X242520Y173500D02*
G03*
X242520Y173500I-2000J0D01*
G01*
Y163500D02*
G03*
X242520Y163500I-2000J0D01*
G01*
X232520Y173500D02*
G03*
X232520Y173500I-2000J0D01*
G01*
Y163500D02*
G03*
X232520Y163500I-2000J0D01*
G01*
X222520Y173500D02*
G03*
X222520Y173500I-2000J0D01*
G01*
Y163500D02*
G03*
X222520Y163500I-2000J0D01*
G01*
X212520Y173500D02*
G03*
X212520Y173500I-2000J0D01*
G01*
Y163500D02*
G03*
X212520Y163500I-2000J0D01*
G01*
X202520Y173500D02*
G03*
X202520Y173500I-2000J0D01*
G01*
Y163500D02*
G03*
X202520Y163500I-2000J0D01*
G01*
X192520Y173500D02*
G03*
X192520Y173500I-2000J0D01*
G01*
Y163500D02*
G03*
X192520Y163500I-2000J0D01*
G01*
X182520Y173500D02*
G03*
X182520Y173500I-2000J0D01*
G01*
Y163500D02*
G03*
X182520Y163500I-2000J0D01*
G01*
X428520Y173500D02*
G03*
X428520Y173500I-2000J0D01*
G01*
Y163500D02*
G03*
X428520Y163500I-2000J0D01*
G01*
X418520Y173500D02*
G03*
X418520Y173500I-2000J0D01*
G01*
Y163500D02*
G03*
X418520Y163500I-2000J0D01*
G01*
X408520Y173500D02*
G03*
X408520Y173500I-2000J0D01*
G01*
Y163500D02*
G03*
X408520Y163500I-2000J0D01*
G01*
X398520Y173500D02*
G03*
X398520Y173500I-2000J0D01*
G01*
Y163500D02*
G03*
X398520Y163500I-2000J0D01*
G01*
X388520Y173500D02*
G03*
X388520Y173500I-2000J0D01*
G01*
Y163500D02*
G03*
X388520Y163500I-2000J0D01*
G01*
X378520Y173500D02*
G03*
X378520Y173500I-2000J0D01*
G01*
Y163500D02*
G03*
X378520Y163500I-2000J0D01*
G01*
X368520Y173500D02*
G03*
X368520Y173500I-2000J0D01*
G01*
Y163500D02*
G03*
X368520Y163500I-2000J0D01*
G01*
X358520Y173500D02*
G03*
X358520Y173500I-2000J0D01*
G01*
Y163500D02*
G03*
X358520Y163500I-2000J0D01*
G01*
X348520Y173500D02*
G03*
X348520Y173500I-2000J0D01*
G01*
Y163500D02*
G03*
X348520Y163500I-2000J0D01*
G01*
X172520Y353500D02*
G03*
X172520Y353500I-2000J0D01*
G01*
Y343500D02*
G03*
X172520Y343500I-2000J0D01*
G01*
Y173500D02*
G03*
X172520Y173500I-2000J0D01*
G01*
Y163500D02*
G03*
X172520Y163500I-2000J0D01*
G01*
X339500Y411000D02*
G03*
X339500Y411000I-2000J0D01*
G01*
X329500D02*
G03*
X329500Y411000I-2000J0D01*
G01*
X45500Y454000D02*
G03*
X45500Y454000I-2000J0D01*
G01*
Y464000D02*
G03*
X45500Y464000I-2000J0D01*
G01*
X562500Y32000D02*
G03*
X562500Y32000I-2000J0D01*
G01*
Y42000D02*
G03*
X562500Y42000I-2000J0D01*
G01*
Y52000D02*
G03*
X562500Y52000I-2000J0D01*
G01*
Y62000D02*
G03*
X562500Y62000I-2000J0D01*
G01*
Y72000D02*
G03*
X562500Y72000I-2000J0D01*
G01*
Y82000D02*
G03*
X562500Y82000I-2000J0D01*
G01*
Y92000D02*
G03*
X562500Y92000I-2000J0D01*
G01*
Y102000D02*
G03*
X562500Y102000I-2000J0D01*
G01*
X472500Y32000D02*
G03*
X472500Y32000I-2000J0D01*
G01*
Y42000D02*
G03*
X472500Y42000I-2000J0D01*
G01*
Y52000D02*
G03*
X472500Y52000I-2000J0D01*
G01*
Y62000D02*
G03*
X472500Y62000I-2000J0D01*
G01*
Y72000D02*
G03*
X472500Y72000I-2000J0D01*
G01*
Y82000D02*
G03*
X472500Y82000I-2000J0D01*
G01*
Y92000D02*
G03*
X472500Y92000I-2000J0D01*
G01*
Y102000D02*
G03*
X472500Y102000I-2000J0D01*
G01*
X413500Y70500D02*
G03*
X413500Y70500I-2000J0D01*
G01*
Y80500D02*
G03*
X413500Y80500I-2000J0D01*
G01*
Y90500D02*
G03*
X413500Y90500I-2000J0D01*
G01*
Y100500D02*
G03*
X413500Y100500I-2000J0D01*
G01*
M02*
